<svg xmlns="http://www.w3.org/2000/svg" xmlns:xlink="http://www.w3.org/1999/xlink" width="92.899" height="164.958" viewBox="0 0 92.899 164.958">
  <defs>
    <filter id="Path_160" x="0" y="0" width="92.899" height="164.958" filterUnits="userSpaceOnUse">
      <feOffset input="SourceAlpha"/>
      <feGaussianBlur stdDeviation="11" result="blur"/>
      <feFlood flood-color="#003b77"/>
      <feComposite operator="in" in2="blur"/>
      <feComposite in="SourceGraphic"/>
    </filter>
  </defs>
  <g id="Component_20_1" data-name="Component 20 – 1" transform="translate(33 33)">
    <g id="Group_124" data-name="Group 124" transform="translate(-280.314 -82.671)">
      <g id="Component_19_1" data-name="Component 19 – 1" transform="translate(280.314 82.671)">
        <g transform="matrix(1, 0, 0, 1, -33, -33)" filter="url(#Path_160)">
          <path id="Path_160-2" data-name="Path 160" d="M303.756,116.98c.838-1.616.558-5.7-1.118-9.025-2-3.95-4.313-5.6-4.519-8.354-.675-8.979-2.344-24.157-2.344-24.157s1.544-.982-.279-4.016c0,0,2.2-2.878-4.734-2.879h0c-6.789,0-4.733,2.88-4.733,2.88-1.823,3.033-.277,4.015-.277,4.015S284.084,90.622,283.41,99.6c-.207,2.757-2.524,4.405-4.519,8.354-1.678,3.32-1.957,7.408-1.119,9.024l.01,40.037c-.836,2.115.11,5.852.11,5.852.579,4.984,11.14,4.633,12.871,4.633,0,0,12.295.35,12.871-4.633,0,0,.947-3.738.112-5.853Z" transform="translate(-244.31 -35.55)" fill="#5c8dbf"/>
        </g>
      </g>
    </g>
    <path id="Path_161" data-name="Path 161" d="M671.2,434.2l-.358,1.125h.709Zm15.672-.152a.293.293,0,1,0-.292-.292A.292.292,0,0,0,686.869,434.051Zm-.16-.51c.181,0,.253-.011.293.029a.13.13,0,0,1,.041.08c.005.105-.107.116-.107.116.093,0,.093.074.1.128s.015.073.015.073h-.081c-.023-.032,0-.123-.041-.154s-.06-.017-.132-.017v.172h-.083Zm-8.154-6.488a10.119,10.119,0,1,0,10.119,10.119A10.119,10.119,0,0,0,678.554,427.053Zm8.314,6.335a.37.37,0,1,1-.37.37A.371.371,0,0,1,686.869,433.388Zm-2.68,3.314a1.8,1.8,0,0,0,.306-.629s.592-1.911.793-2.6h.79s.808,2.541.861,2.7a1.285,1.285,0,0,0,.276.534v.017h-1.177V436.7a.4.4,0,0,0,.158-.4c-.027-.169-.6-2.018-.6-2.018s-.618,2-.623,2.1a.351.351,0,0,0,.117.316v.017h-.9Zm-2.224-3.235h1.959l.068.619h-.011c-.134-.174-.389-.134-1.036-.13v.83c.527,0,.7.038.744-.176h.021v.808h-.015c-.063-.167-.142-.147-.748-.147v.964c.383.031.944.067,1.184-.291h.021l-.172.773h-2.012V436.7c.21-.132.18-.628.18-.628l0-2.078s.009-.39-.178-.513C681.965,433.481,681.965,433.467,681.965,433.467Zm-2.441,0h2.2l-.187.694a.6.6,0,0,0-.624-.194v2.146s-.026.5.151.59a.107.107,0,0,1,0,.015H679.91V436.7c.237-.119.207-.645.207-.645v-2.066c-.047-.093-.436-.061-.756.218Zm-2.579,0h2.067l.066.62h-.011c-.128-.172-.362-.136-.979-.133l.572,1.051-.574,1.231c.366.032.892.068,1.111-.291h.018l-.152.772h-2.07V436.7a10.757,10.757,0,0,0,.914-1.7,10.88,10.88,0,0,0-.963-1.522Zm-3.937,3.237c.159-.127.2-.488.216-.633l.21-2.1a.531.531,0,0,0-.16-.491.126.126,0,0,1,0-.015h1.011l.571,1.69.542-1.69h1.021v.015a.411.411,0,0,0-.144.372l.2,2.134s.044.574.233.717a.124.124,0,0,1,0,.013h-1.133V436.7a.543.543,0,0,0,.129-.454l-.146-1.727h-.012c-.282.858-.48,1.468-.722,2.194h-.253l-.7-2.2h-.025l-.17,1.748s-.046.33.126.436v.014h-.789A.135.135,0,0,1,673.008,436.7Zm-3.309,0a1.756,1.756,0,0,0,.324-.629s.629-1.91.845-2.6h.84s.86,2.543.915,2.7a1.311,1.311,0,0,0,.289.535v.016h-1.249V436.7a.386.386,0,0,0,.168-.4,4.273,4.273,0,0,0-.112-.459h-1.059a3.455,3.455,0,0,0-.126.538.348.348,0,0,0,.123.32v.016H669.7Zm8.856,10.2a9.73,9.73,0,0,1-9.717-9.227h19.434A9.73,9.73,0,0,1,678.554,446.9Zm8.388-13.188a.063.063,0,0,0,.01-.079c-.028-.031-.016-.029-.16-.029v.125C686.868,433.731,686.918,433.735,686.942,433.715Z" transform="translate(-665.3 -377.574)" fill="#004c9b"/>
  </g>
</svg>
