<svg xmlns="http://www.w3.org/2000/svg" xmlns:xlink="http://www.w3.org/1999/xlink" width="96.738" height="179.08" viewBox="0 0 96.738 179.08">
  <defs>
    <filter id="Path_160" x="0" y="0" width="96.738" height="179.08" filterUnits="userSpaceOnUse">
      <feOffset input="SourceAlpha"/>
      <feGaussianBlur stdDeviation="11" result="blur"/>
      <feFlood flood-color="#003b77"/>
      <feComposite operator="in" in2="blur"/>
      <feComposite in="SourceGraphic"/>
    </filter>
  </defs>
  <g id="Group_537" data-name="Group 537" transform="translate(-86 -429)">
    <g id="Group_255" data-name="Group 255" transform="translate(-158.314 393.451)">
      <g transform="matrix(1, 0, 0, 1, 244.31, 35.55)" filter="url(#Path_160)">
        <path id="Path_160-2" data-name="Path 160" d="M307.53,123.891c.958-1.846.637-6.519-1.278-10.312-2.28-4.514-4.929-6.4-5.164-9.546-.771-10.26-2.678-27.6-2.678-27.6s1.764-1.122-.318-4.589c0,0,2.515-3.289-5.409-3.29h0c-7.758,0-5.409,3.291-5.409,3.291-2.083,3.466-.317,4.589-.317,4.589s-1.907,17.344-2.677,27.6c-.236,3.15-2.884,5.034-5.164,9.547-1.917,3.794-2.236,8.465-1.279,10.312l.012,45.75c-.955,2.417.125,6.687.125,6.687.662,5.7,12.73,5.294,14.708,5.294,0,0,14.049.4,14.708-5.294,0,0,1.082-4.271.129-6.688Z" transform="translate(-244.31 -35.55)" fill="#5c8dbf"/>
      </g>
    </g>
    <path id="Path_3117" data-name="Path 3117" d="M671.59,435.224l-.409,1.286h.81Zm17.909-.174a.334.334,0,1,0-.334-.334A.334.334,0,0,0,689.5,435.05Zm-.183-.583c.207,0,.289-.013.335.033a.149.149,0,0,1,.046.091c.006.12-.122.132-.122.132.106,0,.106.084.109.146s.017.084.017.084h-.092c-.026-.036,0-.141-.047-.176-.033-.025-.069-.02-.151-.02v.2h-.1ZM680,427.053a11.563,11.563,0,1,0,11.563,11.563A11.563,11.563,0,0,0,680,427.053Zm9.5,7.239a.423.423,0,1,1-.423.423A.423.423,0,0,1,689.5,434.292Zm-3.063,3.787a2.051,2.051,0,0,0,.35-.718s.677-2.183.906-2.977h.9s.924,2.9.983,3.084a1.468,1.468,0,0,0,.315.611v.019H688.55v-.019a.459.459,0,0,0,.18-.453c-.031-.193-.684-2.306-.684-2.306s-.706,2.282-.712,2.4a.4.4,0,0,0,.134.361v.019h-1.032Zm-2.541-3.7h2.238l.078.708H686.2c-.153-.2-.445-.153-1.184-.149v.949c.6,0,.795.043.85-.2h.024v.924h-.017c-.072-.19-.162-.168-.855-.168v1.1c.437.036,1.079.077,1.353-.332h.024l-.2.883h-2.3v-.018c.24-.151.206-.717.206-.717l0-2.374s.01-.446-.2-.587C683.9,434.4,683.9,434.382,683.9,434.382Zm-2.789,0h2.516l-.214.793a.683.683,0,0,0-.713-.221v2.452s-.03.577.172.675a.128.128,0,0,1,0,.017h-1.321v-.017c.271-.136.236-.737.236-.737v-2.361c-.053-.107-.5-.07-.864.249Zm-2.947,0h2.362l.075.708h-.013c-.146-.2-.414-.156-1.119-.152l.654,1.2-.655,1.406c.418.037,1.019.078,1.269-.333h.021l-.173.882h-2.365v-.019a12.293,12.293,0,0,0,1.044-1.938,12.435,12.435,0,0,0-1.1-1.74Zm-4.5,3.7c.182-.145.224-.558.247-.723l.24-2.4a.607.607,0,0,0-.183-.561.148.148,0,0,1,0-.017h1.156l.652,1.931.619-1.931h1.167v.017a.47.47,0,0,0-.165.425l.227,2.439s.051.656.266.82a.144.144,0,0,1,0,.015h-1.295v-.015a.621.621,0,0,0,.148-.519l-.167-1.974h-.014c-.322.981-.548,1.677-.825,2.507h-.289l-.8-2.512h-.029l-.194,2s-.053.377.144.5v.016h-.9A.156.156,0,0,1,673.66,438.081Zm-3.781,0a2.007,2.007,0,0,0,.371-.719s.719-2.183.965-2.977h.96s.983,2.906,1.046,3.083a1.5,1.5,0,0,0,.331.612v.019h-1.427v-.019a.441.441,0,0,0,.192-.457,4.88,4.88,0,0,0-.128-.525h-1.211a3.951,3.951,0,0,0-.143.614.4.4,0,0,0,.141.366v.019h-1.1ZM680,449.735a11.119,11.119,0,0,1-11.1-10.544H691.1A11.119,11.119,0,0,1,680,449.735Zm9.585-15.07a.072.072,0,0,0,.011-.091c-.032-.035-.019-.033-.182-.033v.143C689.5,434.684,689.556,434.689,689.583,434.665Z" transform="translate(-545.852 91.487)" fill="#004c9b"/>
  </g>
</svg>
