<svg xmlns="http://www.w3.org/2000/svg" width="38" height="38" viewBox="0 0 38 38">
  <g id="Group_27" data-name="Group 27" transform="translate(-1694.726 -604)">
    <g id="Ellipse_9" data-name="Ellipse 9" transform="translate(1694.726 604)" fill="none" stroke="#fff" stroke-width="2">
      <circle cx="19" cy="19" r="19" stroke="none"/>
      <circle cx="19" cy="19" r="18" fill="none"/>
    </g>
    <path id="Path_3124" data-name="Path 3124" d="M3.607-7.688a.406.406,0,0,1,.128.3.406.406,0,0,1-.128.3L-2.374-1.117a.406.406,0,0,1-.3.128.406.406,0,0,1-.3-.128l-.642-.642a.406.406,0,0,1-.128-.3.406.406,0,0,1,.128-.3L1.438-7.393l-5.044-5.044a.406.406,0,0,1-.128-.3.406.406,0,0,1,.128-.3l.642-.642a.406.406,0,0,1,.3-.128.406.406,0,0,1,.3.128Z" transform="translate(1715 631)" fill="#fff"/>
  </g>
</svg>
