<svg id="Group_409" data-name="Group 409" xmlns="http://www.w3.org/2000/svg" width="15.711" height="15.711" viewBox="0 0 15.711 15.711">
  <g id="Group_4" data-name="Group 4">
    <g id="Group_3" data-name="Group 3">
      <circle id="Ellipse_1" data-name="Ellipse 1" cx="0.614" cy="0.614" r="0.614" transform="translate(11.231 5.83)" fill="#fff"/>
      <path id="Path_2" data-name="Path 2" d="M13.256,1.227h-.8V.614a.614.614,0,0,0-1.227,0v.614H8.439V.614a.614.614,0,1,0-1.227,0v.614H4.449V.614a.614.614,0,0,0-1.227,0v.614H2.455A2.458,2.458,0,0,0,0,3.682v9.574a2.458,2.458,0,0,0,2.455,2.455H7.15a.614.614,0,0,0,0-1.227H2.455a1.229,1.229,0,0,1-1.227-1.227V3.682A1.229,1.229,0,0,1,2.455,2.455h.767v.614a.614.614,0,1,0,1.227,0V2.455H7.211v.614a.614.614,0,1,0,1.227,0V2.455h2.792v.614a.614.614,0,1,0,1.227,0V2.455h.8a1.229,1.229,0,0,1,1.227,1.227v3.5a.614.614,0,1,0,1.227,0v-3.5A2.458,2.458,0,0,0,13.256,1.227Z" fill="#fff"/>
      <path id="Path_3" data-name="Path 3" d="M80.178,76.465a3.713,3.713,0,1,0,3.713,3.713A3.717,3.717,0,0,0,80.178,76.465Zm0,6.2a2.486,2.486,0,1,1,2.486-2.486A2.488,2.488,0,0,1,80.178,82.663Z" transform="translate(-68.18 -68.18)" fill="#fff"/>
      <path id="Path_4" data-name="Path 4" d="M106.572,94.715H106.3v-.644a.614.614,0,0,0-1.227,0v1.258a.614.614,0,0,0,.614.614h.89a.614.614,0,0,0,0-1.227Z" transform="translate(-93.684 -83.331)" fill="#fff"/>
      <circle id="Ellipse_2" data-name="Ellipse 2" cx="0.614" cy="0.614" r="0.614" transform="translate(8.561 5.83)" fill="#fff"/>
      <circle id="Ellipse_3" data-name="Ellipse 3" cx="0.614" cy="0.614" r="0.614" transform="translate(5.892 8.5)" fill="#fff"/>
      <circle id="Ellipse_4" data-name="Ellipse 4" cx="0.614" cy="0.614" r="0.614" transform="translate(3.222 5.83)" fill="#fff"/>
      <circle id="Ellipse_5" data-name="Ellipse 5" cx="0.614" cy="0.614" r="0.614" transform="translate(3.222 8.5)" fill="#fff"/>
      <circle id="Ellipse_6" data-name="Ellipse 6" cx="0.614" cy="0.614" r="0.614" transform="translate(3.222 11.169)" fill="#fff"/>
      <circle id="Ellipse_7" data-name="Ellipse 7" cx="0.614" cy="0.614" r="0.614" transform="translate(5.892 11.169)" fill="#fff"/>
      <circle id="Ellipse_8" data-name="Ellipse 8" cx="0.614" cy="0.614" r="0.614" transform="translate(5.892 5.83)" fill="#fff"/>
    </g>
  </g>
</svg>
