<?xml version="1.0" standalone="no"?>
<!DOCTYPE svg PUBLIC "-//W3C//DTD SVG 1.1//EN" "http://www.w3.org/Graphics/SVG/1.1/DTD/svg11.dtd" >
<svg xmlns="http://www.w3.org/2000/svg" xmlns:xlink="http://www.w3.org/1999/xlink" version="1.1">
<metadata>
Created by FontForge 20170731 at Mon Oct 12 16:25:17 2020
 By Aleksey,,,
Copyright (c) 2007 Luc(as) de Groot, published by LucasFonts, www.lucasfonts.com   All rights reserved
</metadata>
<defs>
<font id="TheSansAmstel-Bold" horiz-adv-x="1126" >
  <font-face 
    font-family="TheSansAmstel"
    font-weight="700"
    font-stretch="normal"
    units-per-em="2048"
    panose-1="2 11 8 2 5 3 2 2 2 3"
    ascent="1516"
    descent="-532"
    x-height="1018"
    cap-height="1382"
    bbox="-274 -647 3957 2007"
    underline-thickness="212"
    underline-position="-611"
    unicode-range="U+000D-FB04"
  />
<missing-glyph 
d="M614 307h-307v512h103v-409h204v-103zM1024 102h-922v922h922v-922zM717 717h-205v102h307v-512h-102v205h-205v102h205v103zM205 205h717v717h-717v-717z" />
    <glyph glyph-name="ellipsis" unicode="&#x2e;&#x2e;&#x2e;" horiz-adv-x="1480" 
d="M1372 137q0 -66 -47 -113t-113 -47t-112.5 47t-46.5 113t46.5 113t112.5 47t113 -47t47 -113zM895 137q0 -66 -47 -113t-113 -47t-113 47t-47 113t47 113t113 47t113 -47t47 -113zM418 137q0 -66 -48 -113t-114 -47t-113 47t-47 113t47 113t113 47t114 -47t48 -113z" />
    <glyph glyph-name="f_b" unicode="fb" horiz-adv-x="1818" 
d="M1745 561q0 -263 -145 -422t-400 -159q-209 0 -383 49v1259q-74 12 -143 12q-110 0 -164.5 -48t-54.5 -148v-86h223v-203h-223v-815h-260v815h-179v203h179v98q0 186 121.5 291.5t379.5 105.5q148 0 381 -34v-422q0 -114 -16 -199h4q39 84 119.5 132t185.5 48
q182 0 278.5 -125t96.5 -352zM1470 535q0 286 -174 286q-99 0 -159 -96.5t-60 -230.5v-287q62 -19 137 -19q120 0 188 83.5t68 263.5z" />
    <glyph glyph-name="f_h" unicode="fh" horiz-adv-x="1839" 
d="M1700 0h-260v651q0 84 -28 127t-97 43q-99 0 -168.5 -97t-69.5 -232v-492h-260v1288q-74 12 -143 12q-110 0 -164.5 -48t-54.5 -148v-86h223v-203h-223v-815h-260v815h-179v203h179v98q0 186 121.5 291.5t379.5 105.5q148 0 381 -34v-420q0 -131 -18 -207l4 -2
q45 88 131.5 139t202.5 51q83 0 143.5 -25t94.5 -71t49.5 -102.5t15.5 -126.5v-715z" />
    <glyph glyph-name="f_j" unicode="fj" horiz-adv-x="1214" 
d="M1077 -76q0 -216 -90.5 -324t-304.5 -108q-70 0 -145 21l16 223q70 -25 123 -25q79 0 110 42t31 145v917h-362v-815h-260v815h-179v203h179v37q0 229 122.5 343.5t378.5 114.5q156 0 316 -36l-45 -220q-125 41 -250 41q-136 0 -199 -57t-63 -170v-53h622v-1094z" />
    <glyph glyph-name="f_k" unicode="fk" horiz-adv-x="1744" 
d="M817 1288q-74 12 -143 12q-110 0 -164.5 -48t-54.5 -148v-86h223v-203h-223v-815h-260v815h-179v203h179v98q0 186 121.5 291.5t379.5 105.5q148 0 381 -34v-885l297 424h320l-357 -465l383 -553h-327l-316 504v-504h-260v1288z" />
    <glyph glyph-name="ff" unicode="ff" horiz-adv-x="1343" 
d="M1384 1495l-18 -215q-53 18 -127 18q-86 0 -126 -46.5t-40 -147.5v-86h238v-203h-238v-815h-262v815h-356v-815h-260v815h-179v203h179v49q0 201 115.5 313.5t361.5 112.5q163 0 291 -45q88 63 256 63q92 0 165 -16zM838 1249q-76 31 -176 31q-207 0 -207 -199v-63h356
v84q0 78 27 147z" />
    <glyph glyph-name="fi" unicode="fi" horiz-adv-x="1218" 
d="M1077 0h-260v815h-362v-815h-260v815h-179v203h179v37q0 228 122 342t379 114q161 0 316 -38l-45 -218q-125 41 -250 41q-137 0 -199.5 -56t-62.5 -169v-53h622v-1018z" />
    <glyph glyph-name="fl" unicode="fl" horiz-adv-x="1218" 
d="M1077 0h-260v1286q-74 12 -143 12q-110 0 -164.5 -47t-54.5 -147v-86h223v-203h-223v-815h-260v815h-179v203h179v98q0 186 121.5 290.5t379.5 104.5q148 0 381 -34v-1477z" />
    <glyph glyph-name="ffi" unicode="ffi" horiz-adv-x="1837" 
d="M1696 0h-262v815h-361v-815h-262v815h-356v-815h-260v815h-179v203h179v49q0 201 116 313.5t363 112.5q168 0 315 -55q121 75 332 75q150 0 324 -36l-48 -220q-138 41 -256 41q-138 0 -203 -57t-65 -170v-53h623v-1018zM848 1245q-82 35 -186 35q-207 0 -207 -199v-63
h356v37q0 112 37 190z" />
    <glyph glyph-name="ffl" unicode="ffl" horiz-adv-x="1837" 
d="M1696 0h-262v1288q-71 12 -142 12q-110 0 -164.5 -48t-54.5 -148v-86h223v-203h-223v-815h-262v815h-356v-815h-260v815h-179v203h179v49q0 201 116 313.5t363 112.5q173 0 311 -53q118 73 330 73q148 0 381 -34v-1479zM838 1251q-73 29 -176 29q-207 0 -207 -199v-63
h356v98q0 74 27 135z" />
    <glyph glyph-name=".notdef" 
d="M614 307h-307v512h103v-409h204v-103zM1024 102h-922v922h922v-922zM717 717h-205v102h307v-512h-102v205h-205v102h205v103zM205 205h717v717h-717v-717z" />
    <glyph glyph-name=".null" horiz-adv-x="0" 
 />
    <glyph glyph-name=".null" horiz-adv-x="0" 
 />
    <glyph glyph-name="nonmarkingreturn" horiz-adv-x="682" 
 />
    <glyph glyph-name="CR" unicode="&#xd;" horiz-adv-x="1024" 
 />
    <glyph glyph-name="space" unicode=" " horiz-adv-x="446" 
 />
    <glyph glyph-name="exclam" unicode="!" horiz-adv-x="657" 
d="M500 1450l-39 -1065h-225l-43 1065h307zM506 133q0 -66 -46.5 -111t-115.5 -45q-68 0 -114 45t-46 111q0 65 46.5 110.5t113.5 45.5q69 0 115.5 -45.5t46.5 -110.5z" />
    <glyph glyph-name="quotedbl" unicode="&#x22;" horiz-adv-x="829" 
d="M739 1438l-34 -520h-195l-33 520h262zM352 1438l-33 -520h-196l-33 520h262z" />
    <glyph glyph-name="numbersign" unicode="#" horiz-adv-x="1193" 
d="M1137 842h-181l-30 -293h164v-184h-185l-37 -365h-209l39 365h-270l-39 -365h-209l39 365h-162v184h181l32 293h-164v182h183l37 358h209l-39 -358h270l39 358h209l-39 -358h162v-182zM748 842h-269l-33 -293h271z" />
    <glyph glyph-name="dollar" unicode="$" horiz-adv-x="1011" 
d="M1094 442q0 -199 -134.5 -323t-390.5 -137l-43 -291h-178l45 293q-137 12 -254 47l27 252q137 -54 260 -68l59 381q-206 51 -298.5 143t-92.5 242q0 84 29 156t88.5 130.5t161 94.5t235.5 41l33 219h178l-35 -225q98 -7 197 -35l-29 -211q-97 33 -198 43l-58 -377
q398 -107 398 -375zM575 1192q-112 -1 -165.5 -46.5t-53.5 -121.5q0 -64 37 -101.5t131 -66.5zM825 383q0 64 -38.5 106t-129.5 72l-53 -356q107 1 164 48t57 130z" />
    <glyph glyph-name="percent" unicode="%" horiz-adv-x="1556" 
d="M1479 315q0 -150 -92.5 -244t-229.5 -94q-147 0 -225 84.5t-78 235.5q0 147 91 240.5t229 93.5q144 0 224.5 -80.5t80.5 -235.5zM1370 1307l-1026 -1352l-164 117l1026 1353zM702 1094q0 -150 -91.5 -245t-229.5 -95q-147 0 -225 84.5t-78 234.5q0 146 91.5 240t229.5 94
q143 0 223 -79.5t80 -233.5zM1280 303q0 87 -28 124.5t-85 37.5q-51 0 -82.5 -42.5t-31.5 -115.5q0 -88 28.5 -127t87.5 -39q47 0 79 44t32 118zM506 1079q0 88 -28 126t-87 38q-49 0 -80.5 -43.5t-31.5 -116.5q0 -88 28.5 -126.5t85.5 -38.5q49 0 81 43.5t32 117.5z" />
    <glyph glyph-name="ampersand" unicode="&#x26;" horiz-adv-x="1632" 
d="M1546 152l-172 -199q-156 107 -280 205q-228 -181 -533 -181q-116 0 -206.5 32.5t-146 89t-84 128.5t-28.5 156q0 126 66.5 226.5t193.5 199.5q-95 111 -134.5 193.5t-39.5 171.5q0 143 108.5 240t299.5 97q174 0 269 -81.5t95 -219.5q0 -107 -58.5 -202t-184.5 -193
q180 -180 370 -328v-2q62 95 94.5 213t28.5 240h260q3 -162 -45 -316t-141 -278q156 -118 268 -192zM696 1192q0 54 -32 88.5t-95 34.5q-57 0 -93 -35.5t-36 -91.5q0 -89 117 -225q69 60 104 114t35 115zM901 301q-227 185 -391 352q-141 -121 -141 -237q0 -89 64.5 -152
t172.5 -63q160 0 295 100z" />
    <glyph glyph-name="quotesingle" unicode="'" horiz-adv-x="442" 
d="M352 1438l-33 -520h-196l-33 520h262z" />
    <glyph glyph-name="parenleft" unicode="(" horiz-adv-x="626" 
d="M608 -348l-198 -92q-163 257 -233.5 509t-70.5 515q0 549 306 1028l190 -88q-237 -422 -237 -930q0 -521 243 -942z" />
    <glyph glyph-name="parenright" unicode=")" horiz-adv-x="626" 
d="M524 590q0 -553 -305 -1030l-190 88q239 420 239 932q0 513 -241 942l198 90q161 -257 230 -508.5t69 -513.5z" />
    <glyph glyph-name="asterisk" unicode="*" horiz-adv-x="786" 
d="M717 1087l-92 -159l-174 139l32 -221h-186l33 221l-176 -139l-91 159l207 82l-207 82l93 162l174 -139l-33 221h186l-32 -221l174 139l92 -160l-207 -82z" />
    <glyph glyph-name="plus" unicode="+" 
d="M1047 500h-361v-381h-248v381h-358v219h358v379h248v-379h361v-219z" />
    <glyph glyph-name="comma" unicode="," horiz-adv-x="528" 
d="M262 305q87 0 134 -76q57 -94 15 -235q-53 -178 -247 -348l-109 96q69 74 98.5 131.5t24.5 100t-39 83.5q-28 33 -32.5 76.5t11.5 81.5t54.5 64t89.5 26z" />
    <glyph glyph-name="hyphen" unicode="-" horiz-adv-x="684" 
d="M594 463h-504v211h504v-211z" />
    <glyph glyph-name="period" unicode="." horiz-adv-x="528" 
d="M432 145q0 -69 -49.5 -118.5t-118.5 -49.5t-118.5 49.5t-49.5 118.5q0 68 49.5 117t118.5 49t118.5 -49t49.5 -117z" />
    <glyph glyph-name="slash" unicode="/" horiz-adv-x="948" 
d="M952 1550l-716 -1880h-259l717 1880h258z" />
    <glyph glyph-name="zero" unicode="0" horiz-adv-x="1206" 
d="M1133 707q0 -179 -44 -320t-120 -228t-173.5 -132t-209.5 -45q-261 0 -386.5 175t-125.5 519q0 178 44 318.5t120 228t173.5 133t209.5 45.5q512 0 512 -694zM854 688q0 257 -61 375.5t-187 118.5q-117 0 -185.5 -117.5t-68.5 -372.5t61 -373t187 -118q117 0 185.5 117
t68.5 370z" />
    <glyph glyph-name="one" unicode="1" horiz-adv-x="735" 
d="M586 0h-271v1110l-237 -94l-39 250l340 116h207v-1382z" />
    <glyph glyph-name="two" unicode="2" horiz-adv-x="1019" 
d="M938 0h-836v221l207 234q170 185 233.5 303.5t63.5 212.5q0 86 -51 139t-147 53q-125 0 -256 -78l-39 238q164 80 366 80t310 -108.5t108 -278.5q0 -138 -76.5 -287.5t-249.5 -339.5l-122 -143v-2q143 8 489 8v-252z" />
    <glyph glyph-name="three" unicode="3" horiz-adv-x="968" 
d="M879 430q0 -200 -157.5 -325t-404.5 -125q-138 0 -231 26l29 230q80 -29 209 -29q126 0 199 58t73 149q0 88 -73 141t-220 53q-78 0 -143 -10v211q208 -6 301.5 52t93.5 157q0 75 -50 119.5t-145 44.5q-108 0 -227 -58l-20 219q147 60 317 60q192 0 296.5 -92t104.5 -240
q0 -112 -59.5 -193.5t-161.5 -119.5l-2 -4q126 -31 198.5 -118t72.5 -206z" />
    <glyph glyph-name="four" unicode="4" horiz-adv-x="1134" 
d="M1098 303h-207v-303h-258v303h-580l-18 209l504 870h352v-839h207v-240zM637 539v604h-2l-352 -608q90 4 354 4z" />
    <glyph glyph-name="five" unicode="5" horiz-adv-x="944" 
d="M879 469q0 -219 -163.5 -352t-422.5 -133q-113 0 -205 20l27 234q77 -27 192 -27q138 0 216.5 63.5t78.5 167.5q0 209 -338 209q-79 0 -131 -8v739h682v-249l-436 2v-275q240 1 370 -101.5t130 -289.5z" />
    <glyph glyph-name="six" unicode="6" horiz-adv-x="1183" 
d="M1108 473q0 -222 -144.5 -359t-375.5 -137q-100 0 -181 32t-136.5 87t-93 132t-54.5 165t-17 187q0 201 55 359.5t152 258.5t225.5 151.5t280.5 51.5q110 0 162 -8v-236q-77 19 -166 19q-329 0 -414 -332q-12 -54 -16 -70l2 -2q113 113 297 113q196 0 310 -113t114 -299z
M831 436q0 108 -55.5 170t-159.5 62q-100 0 -161.5 -63t-61.5 -152q0 -117 57 -184.5t160 -67.5q100 0 160.5 65t60.5 170z" />
    <glyph glyph-name="seven" unicode="7" horiz-adv-x="940" 
d="M891 1157q-113 -250 -212 -564t-157 -593h-293q62 284 168.5 605.5t198.5 524.5q-156 -4 -551 -4v256h846v-225z" />
    <glyph glyph-name="eight" unicode="8" horiz-adv-x="1140" 
d="M1053 375q0 -127 -71 -219.5t-184 -136.5t-251 -44q-216 0 -338.5 99.5t-122.5 265.5q0 200 250 356q-227 129 -227 324q0 178 134.5 284.5t346.5 106.5q195 0 314.5 -96t119.5 -244q0 -107 -62 -186.5t-174 -155.5q125 -70 195 -154.5t70 -199.5zM756 1049
q0 64 -48 107.5t-139 43.5q-92 0 -143 -42t-51 -111q0 -63 48.5 -111t151.5 -102q94 59 137.5 108.5t43.5 106.5zM778 356q0 39 -17.5 73t-53.5 63.5t-70.5 50.5t-89.5 49q-93 -60 -140 -110t-47 -117q0 -79 56 -125.5t155 -46.5q90 0 148.5 44t58.5 119z" />
    <glyph glyph-name="nine" unicode="9" horiz-adv-x="1189" 
d="M1085 805q0 -396 -185.5 -610.5t-539.5 -214.5q-104 0 -184 14v237q91 -26 205 -26q304 0 381 293q7 20 15 54.5t11 43.5l-2 2q-41 -51 -115 -83t-169 -32q-191 0 -303.5 115t-112.5 309q0 215 142.5 356.5t363.5 141.5q104 0 188 -32t140.5 -87.5t94 -132.5t54 -163.5
t16.5 -184.5zM791 924q0 122 -57 189t-156 67q-97 0 -158.5 -65.5t-61.5 -172.5q0 -105 55.5 -167t157.5 -62q96 0 158 65.5t62 145.5z" />
    <glyph glyph-name="colon" unicode=":" horiz-adv-x="610" 
d="M496 725q0 -69 -48.5 -118.5t-117.5 -49.5t-118.5 49.5t-49.5 118.5q0 68 49.5 117t118.5 49t117.5 -49t48.5 -117zM496 145q0 -69 -48.5 -118.5t-117.5 -49.5t-118.5 49.5t-49.5 118.5q0 68 49.5 117t118.5 49t117.5 -49t48.5 -117z" />
    <glyph glyph-name="semicolon" unicode=";" horiz-adv-x="610" 
d="M496 725q0 -69 -48.5 -118.5t-117.5 -49.5t-118.5 49.5t-49.5 118.5q0 68 49.5 117t118.5 49t117.5 -49t48.5 -117zM328 305q89 0 136 -77q57 -94 14 -235q-53 -177 -247 -347l-108 96q68 74 97 131.5t24.5 100t-37.5 83.5q-28 33 -32.5 76.5t11 81.5t53.5 64t89 26z" />
    <glyph glyph-name="less" unicode="&#x3c;" 
d="M954 190l-172 -178l-653 604l651 603l172 -172l-485 -429z" />
    <glyph glyph-name="equal" unicode="=" 
d="M1018 698h-909v211h909v-211zM1018 307h-909v211h909v-211z" />
    <glyph glyph-name="greater" unicode="&#x3e;" 
d="M997 614l-651 -602l-172 172l485 428l-487 428l172 179z" />
    <glyph glyph-name="question" unicode="?" horiz-adv-x="923" 
d="M827 1049q0 -61 -17 -113.5t-44.5 -88.5t-61.5 -72t-67.5 -64t-62.5 -63t-47.5 -70t-21.5 -85t15 -108h-256q-27 85 -26 146t23.5 113t56.5 89t73 73.5t72.5 66.5t55.5 69t22 80q0 92 -107.5 147.5t-296.5 61.5l33 237q164 -4 292 -39.5t206.5 -94t118.5 -131t40 -154.5z
M555 133q0 -66 -46 -111t-114 -45q-67 0 -113 45t-46 111q0 65 46 110.5t113 45.5t113.5 -45.5t46.5 -110.5z" />
    <glyph glyph-name="at" unicode="@" horiz-adv-x="1986" 
d="M1804 846q0 -277 -136.5 -428.5t-356.5 -151.5q-109 0 -163.5 55t-51.5 142h-6q-37 -76 -116.5 -136.5t-172.5 -60.5q-98 0 -152.5 74.5t-54.5 218.5q0 116 29.5 214t86.5 173t150 117.5t213 42.5q145 0 250 -41l-72 -406q-18 -101 4 -144.5t86 -43.5q102 0 165 90.5
t63 272.5q0 93 -28 173.5t-86.5 147t-160.5 105t-237 38.5q-136 0 -256.5 -51t-208.5 -141t-139.5 -221.5t-51.5 -284.5q0 -264 145.5 -408.5t436.5 -144.5q181 0 358 59l39 -204q-99 -33 -215.5 -51.5t-214.5 -18.5q-378 0 -582 198.5t-204 542.5q0 200 71 374.5t192.5 297
t288.5 192.5t355 70q143 0 263 -33.5t206 -94t146 -143.5t89 -181.5t29 -208.5zM1102 920q-40 12 -90 12q-67 0 -118 -55.5t-74 -129t-23 -145.5q0 -133 65 -133q62 0 124 92t97 268z" />
    <glyph glyph-name="A" unicode="A" horiz-adv-x="1282" 
d="M1280 0h-295l-94 283h-524l-97 -283h-268l477 1382h314zM823 494l-141 411q-35 103 -55 191h-2q-18 -68 -54 -191l-141 -411h393z" />
    <glyph glyph-name="B" unicode="B" horiz-adv-x="1187" 
d="M1104 426q0 -84 -31 -158t-94.5 -136.5t-174.5 -99t-257 -36.5q-36 0 -171.5 2t-232.5 2v1380q214 11 459 11q223 0 343 -88.5t120 -253.5q0 -104 -55 -187.5t-154 -122.5v-4q111 -23 179.5 -108.5t68.5 -200.5zM782 1006q0 172 -223 172q-63 0 -149 -4v-363
q33 -2 108 -2q133 0 198.5 51t65.5 146zM819 418q0 96 -76.5 144t-216.5 48q-87 0 -116 -2v-391q99 -6 147 -6q127 0 194.5 56.5t67.5 150.5z" />
    <glyph glyph-name="C" unicode="C" horiz-adv-x="1159" 
d="M1077 47q-165 -63 -360 -63q-141 0 -251.5 36.5t-182.5 97.5t-119 147.5t-66.5 180t-19.5 201.5q0 166 43.5 302t128 236t217.5 155t303 55q158 0 295 -41l-37 -246q-125 49 -270 49q-189 0 -288 -127.5t-99 -337.5q0 -467 403 -467q63 0 135.5 16t126.5 42z" />
    <glyph glyph-name="D" unicode="D" horiz-adv-x="1366" 
d="M1290 715q0 -174 -55.5 -312t-156.5 -227.5t-240.5 -136.5t-309.5 -47q-93 0 -385 10v1378q300 11 447 11q700 0 700 -676zM1004 694q0 232 -102.5 352.5t-330.5 120.5q-97 0 -161 -6v-932q62 -10 145 -10q99 0 180 28.5t141.5 85.5t94 149t33.5 212z" />
    <glyph glyph-name="E" unicode="E" horiz-adv-x="1009" 
d="M895 0h-752v1382h752v-223h-485v-340h460v-217h-460v-373h485v-229z" />
    <glyph glyph-name="F" unicode="F" horiz-adv-x="952" 
d="M883 1155h-473v-354h446v-219h-446v-582h-267v1382h740v-227z" />
    <glyph glyph-name="G" unicode="G" horiz-adv-x="1382" 
d="M1245 66q-214 -86 -473 -86q-337 0 -517.5 178t-180.5 491q0 226 86.5 394.5t261.5 264t420 95.5q201 0 391 -60l-53 -243q-157 65 -355 65q-119 0 -210 -38t-145 -105t-81 -152t-27 -186q0 -222 113.5 -343.5t327.5 -121.5q93 0 176 25v481h266v-659z" />
    <glyph glyph-name="H" unicode="H" horiz-adv-x="1404" 
d="M1264 0h-269v600h-585v-600h-267v1382h267v-553h585v553h269v-1382z" />
    <glyph glyph-name="I" unicode="I" horiz-adv-x="552" 
d="M410 0h-267v1382h267v-1382z" />
    <glyph glyph-name="J" unicode="J" horiz-adv-x="686" 
d="M545 387q0 -89 -19.5 -159.5t-61.5 -127.5t-116 -87.5t-176 -30.5q-78 0 -172 16v229q55 -20 127 -20q77 0 114.5 41.5t37.5 148.5v985h266v-995z" />
    <glyph glyph-name="K" unicode="K" horiz-adv-x="1222" 
d="M1204 0h-350l-444 664v-664h-267v1382h267v-626l446 626h328l-508 -667z" />
    <glyph glyph-name="L" unicode="L" horiz-adv-x="878" 
d="M858 0h-715v1382h267v-1149h448v-233z" />
    <glyph glyph-name="M" unicode="M" horiz-adv-x="1804" 
d="M1741 0h-277l-100 668q-25 175 -43 346h-4q-39 -189 -78 -316l-223 -698h-258l-213 649q-59 190 -90 365h-4q-13 -166 -37 -369l-80 -645h-268l210 1382h314l233 -714q47 -150 76 -291h4q48 200 76 287l235 718h312z" />
    <glyph glyph-name="N" unicode="N" horiz-adv-x="1431" 
d="M1288 0h-352l-428 762q-88 172 -123 270q14 -212 14 -657v-375h-256v1382h353l417 -743q72 -127 134 -277q-15 261 -15 672v348h256v-1382z" />
    <glyph glyph-name="O" unicode="O" horiz-adv-x="1439" 
d="M1372 713q0 -168 -53.5 -308t-145.5 -233t-215 -144t-262 -51q-310 0 -469 183.5t-159 509.5q0 168 53.5 308t145 232.5t214.5 143.5t262 51q310 0 469.5 -183t159.5 -509zM1087 682q0 226 -92.5 354.5t-273.5 128.5q-162 0 -265.5 -123t-103.5 -340q0 -227 92.5 -355
t274.5 -128q162 0 265 122.5t103 340.5z" />
    <glyph glyph-name="P" unicode="P" horiz-adv-x="1087" 
d="M1040 963q0 -100 -37.5 -188t-106 -152.5t-171 -102t-225.5 -37.5q-57 0 -90 4v-487h-267v1382q169 9 371 9q254 0 390 -112t136 -316zM764 946q0 108 -64.5 168t-195.5 60q-48 0 -94 -3v-460q41 -6 77 -6q125 2 201 66t76 175z" />
    <glyph glyph-name="Q" unicode="Q" horiz-adv-x="1439" 
d="M1438 -135q-113 -14 -181.5 -8t-133.5 25.5t-111 40.5t-114 37.5t-142 16.5h-60q-310 0 -469 183.5t-159 509.5q0 168 53.5 308t145 232.5t214.5 143.5t262 51q310 0 469.5 -183t159.5 -509q0 -206 -76 -359t-209 -221q44 0 99.5 -15.5t117 -25.5t134.5 0v-227zM1087 682
q0 226 -92.5 354.5t-273.5 128.5q-162 0 -265.5 -123t-103.5 -340q0 -227 92.5 -355t274.5 -128q161 0 264.5 123.5t103.5 339.5z" />
    <glyph glyph-name="R" unicode="R" horiz-adv-x="1161" 
d="M1135 0h-330l-373 571h-22v-571h-267v1382q164 9 398 9q501 0 501 -390q0 -150 -96 -255t-244 -130q78 -102 111 -151zM764 975q0 199 -250 199q-57 0 -104 -7v-399q36 -4 96 -4q120 0 189 57t69 154z" />
    <glyph glyph-name="S" unicode="S" horiz-adv-x="1030" 
d="M956 424q0 -194 -148.5 -320.5t-385.5 -126.5q-184 0 -320 37l29 256q140 -59 301 -59q102 0 167 44.5t65 135.5q0 53 -32 91.5t-83.5 63.5t-113.5 47.5t-124 53t-113.5 71t-83.5 110t-32 161.5q0 188 138 302t384 114q118 0 250 -27l-25 -233q-119 39 -237 39
q-113 0 -170 -44.5t-57 -121.5q0 -39 20 -70.5t54.5 -53.5t79 -41.5t93 -39.5t97.5 -42t93.5 -53.5t79 -70t54.5 -96t20 -127.5z" />
    <glyph glyph-name="T" unicode="T" horiz-adv-x="1044" 
d="M1014 1155h-359v-1155h-266v1155h-358v227h983v-227z" />
    <glyph glyph-name="U" unicode="U" horiz-adv-x="1394" 
d="M1251 537q0 -280 -147.5 -420t-425.5 -140q-91 0 -166.5 14t-130.5 39t-96.5 61.5t-68 78.5t-43.5 94t-23.5 103.5t-6.5 111.5v903h267v-886q0 -69 13 -120.5t44 -93t88.5 -62.5t140.5 -21q156 0 223.5 73t67.5 248v862h264v-845z" />
    <glyph glyph-name="V" unicode="V" horiz-adv-x="1286" 
d="M1280 1382l-485 -1382h-308l-481 1382h291l268 -809q55 -160 80 -266h4q36 140 84 283l273 792h274z" />
    <glyph glyph-name="W" unicode="W" horiz-adv-x="1947" 
d="M1898 1382l-352 -1382h-327l-201 762q-27 104 -53 285h-2q-15 -142 -52 -279l-200 -768h-310l-352 1382h285l188 -764q31 -123 51 -280h2q24 157 54 272l211 772h282l213 -768q43 -163 56 -268h2q20 137 51 264l188 772h266z" />
    <glyph glyph-name="X" unicode="X" horiz-adv-x="1286" 
d="M1266 0h-336l-297 508l-297 -508h-316l441 707l-414 675h309l281 -479l278 479h304l-408 -673z" />
    <glyph glyph-name="Y" unicode="Y" horiz-adv-x="1148" 
d="M1145 1382l-440 -893v-489h-267v487l-432 895h291l182 -397q48 -107 94 -229h5q33 90 110 256l174 370h283z" />
    <glyph glyph-name="Z" unicode="Z" horiz-adv-x="1099" 
d="M1010 0h-918v205l498 811q64 98 90 131q-98 -4 -252 -4h-319v239h892v-215l-526 -829q-39 -64 -63 -96q35 4 299 4h299v-246z" />
    <glyph glyph-name="bracketleft" unicode="[" horiz-adv-x="671" 
d="M598 -420h-453v2011h453v-207h-207v-1593h207v-211z" />
    <glyph glyph-name="backslash" unicode="\" horiz-adv-x="980" 
d="M989 -330h-258l-717 1880h258z" />
    <glyph glyph-name="bracketright" unicode="]" horiz-adv-x="671" 
d="M524 -420h-450v211h205v1593h-205v207h450v-2011z" />
    <glyph glyph-name="asciicircum" unicode="^" 
d="M999 784l-188 -94l-268 506l-256 -506l-174 92l336 600h200z" />
    <glyph glyph-name="underscore" unicode="_" 
d="M1126 -504h-1126v211h1126v-211z" />
    <glyph glyph-name="grave" unicode="`" horiz-adv-x="765" 
d="M606 1288l-98 -141l-371 221l121 176z" />
    <glyph glyph-name="a" unicode="a" horiz-adv-x="1073" 
d="M936 0h-250q0 106 10 172l-2 2q-37 -87 -124.5 -140.5t-200.5 -53.5q-135 0 -213 81t-78 209q0 118 73.5 199t203.5 118.5t311 37.5v37q0 94 -41.5 136t-141.5 42q-67 0 -152 -20t-155 -50l-43 201q172 69 385 69q116 0 196.5 -23.5t127 -71t66.5 -111t20 -152.5v-420
q0 -150 8 -262zM666 426v27q-96 0 -163.5 -11.5t-104 -33t-52.5 -48t-16 -61.5q0 -51 33.5 -85t89.5 -34q92 0 152.5 75t60.5 171z" />
    <glyph glyph-name="b" unicode="b" horiz-adv-x="1144" 
d="M1071 561q0 -263 -146.5 -422t-404.5 -159q-205 0 -379 49v1466h262v-438q0 -114 -16 -199h2q38 84 120 132t187 48q182 0 278.5 -125t96.5 -352zM797 535q0 286 -174 286q-99 0 -159.5 -96.5t-60.5 -230.5v-287q59 -19 138 -19q118 0 187 83.5t69 263.5z" />
    <glyph glyph-name="c" unicode="c" horiz-adv-x="870" 
d="M815 29q-121 -47 -287 -47q-220 0 -339 120.5t-119 372.5q0 162 55 286.5t173.5 199.5t289.5 75q123 0 223 -35l-41 -225q-93 39 -190 39q-114 0 -175 -84t-61 -229q0 -295 238 -295q108 0 198 41z" />
    <glyph glyph-name="d" unicode="d" horiz-adv-x="1142" 
d="M999 0h-243q0 88 12 170h-4q-41 -88 -125 -140.5t-197 -52.5q-182 0 -276 127t-94 351q0 262 144 421.5t394 159.5q69 0 129 -8v467h260v-1495zM739 528v285q-75 16 -137 16q-120 0 -188 -83t-68 -263q0 -288 174 -288q99 0 159 98t60 235z" />
    <glyph glyph-name="e" unicode="e" horiz-adv-x="1052" 
d="M975 606q0 -87 -10 -143h-629q-2 -142 65.5 -210.5t214.5 -68.5t295 60l29 -199q-176 -65 -369 -65q-501 0 -501 520q0 153 56.5 274.5t167.5 192.5t259 71q212 0 317 -119.5t105 -312.5zM715 637q3 99 -44.5 154t-131.5 55q-81 0 -134.5 -56.5t-64.5 -152.5h375z" />
    <glyph glyph-name="f" unicode="f" horiz-adv-x="724" 
d="M766 1495l-18 -215q-53 18 -127 18q-86 0 -126 -46.5t-40 -147.5v-86h237v-203h-237v-815h-260v815h-179v203h179v84q0 207 98.5 308t306.5 101q95 0 166 -16z" />
    <glyph glyph-name="g" unicode="g" horiz-adv-x="1116" 
d="M1065 -109q0 -169 -156 -287t-403 -118q-206 0 -321 78t-115 225q0 77 45.5 146t111.5 104q-46 22 -73 63t-27 93q0 59 34 108.5t87 73.5q-72 39 -112 109.5t-40 168.5q0 78 29 147t83.5 122.5t141.5 84.5t195 31q80 0 166 -22h346v-205h-139q51 -48 51 -129
q0 -168 -112.5 -267.5t-324.5 -99.5q-36 0 -79 9q-24 -10 -37 -28t-13 -38q0 -35 33.5 -47.5t124.5 -15.5l158 -7q346 -13 346 -299zM719 670q0 83 -47.5 131.5t-136.5 48.5q-87 0 -138 -50t-51 -128q0 -83 49 -129.5t140 -46.5q86 0 135 46t49 128zM805 -143q0 58 -39.5 93
t-120.5 38l-176 6h-47q-94 -69 -94 -156q0 -70 59 -110.5t158 -40.5q123 0 191.5 47.5t68.5 122.5z" />
    <glyph glyph-name="h" unicode="h" horiz-adv-x="1169" 
d="M1026 0h-260v651q0 83 -28.5 125.5t-98.5 42.5q-98 0 -167 -97t-69 -233v-489h-262v1495h262v-438q0 -129 -18 -207h4q46 87 132 137.5t202 50.5q83 0 143.5 -25t94.5 -70.5t49.5 -101.5t15.5 -126v-715z" />
    <glyph glyph-name="i" unicode="i" horiz-adv-x="544" 
d="M436 1327q0 -65 -48.5 -111.5t-115.5 -46.5t-114 46t-47 112t47 113t114 47q68 0 116 -46.5t48 -113.5zM403 0h-262v1018h262v-1018z" />
    <glyph glyph-name="j" unicode="j" horiz-adv-x="555" 
d="M444 1327q0 -65 -48 -111.5t-115 -46.5q-68 0 -116 46t-48 112t48 113t116 47t115.5 -46.5t47.5 -113.5zM412 -76q0 -216 -91 -324t-305 -108q-70 0 -145 21l18 223q66 -25 121 -25q81 0 111.5 41.5t30.5 145.5v1120h260v-1094z" />
    <glyph glyph-name="k" unicode="k" horiz-adv-x="1071" 
d="M1047 0h-328l-316 504v-504h-262v1495h262v-901l297 424h320l-356 -465z" />
    <glyph glyph-name="l" unicode="l" horiz-adv-x="544" 
d="M403 0h-262v1495h262v-1495z" />
    <glyph glyph-name="m" unicode="m" horiz-adv-x="1773" 
d="M1632 0h-262v643q0 88 -26.5 132t-94.5 44q-91 0 -162 -94.5t-71 -237.5v-487h-258v645q0 84 -25.5 129t-95.5 45q-93 0 -163.5 -96.5t-70.5 -235.5v-487h-262v1018h248q0 -97 -12 -182l2 -2q46 95 134.5 149.5t201.5 54.5q65 0 116 -17.5t83 -47.5t51.5 -63.5
t29.5 -73.5q40 83 126.5 142.5t205.5 59.5q305 0 305 -338v-700z" />
    <glyph glyph-name="n" unicode="n" horiz-adv-x="1169" 
d="M1026 0h-260v651q0 83 -28.5 125.5t-98.5 42.5q-98 0 -167 -96.5t-69 -230.5v-492h-262v1018h248q0 -108 -14 -182h2q48 93 137 147.5t209 54.5q83 0 143.5 -25t94.5 -70.5t49.5 -101.5t15.5 -126v-715z" />
    <glyph glyph-name="o" unicode="o" horiz-adv-x="1132" 
d="M1063 528q0 -240 -146 -394t-374 -154q-226 0 -350.5 125t-124.5 387q0 239 144.5 392.5t375.5 153.5q224 0 349.5 -127.5t125.5 -382.5zM793 514q0 303 -224 303q-96 0 -163.5 -76t-67.5 -223q0 -315 227 -315q101 0 164.5 80.5t63.5 230.5z" />
    <glyph glyph-name="p" unicode="p" horiz-adv-x="1144" 
d="M1071 563q0 -270 -138 -423.5t-398 -153.5q-75 0 -132 8v-488h-262v1512h244q0 -104 -10 -170h4q44 91 125 140.5t194 49.5q180 0 276.5 -124t96.5 -351zM797 535q0 288 -174 288q-99 0 -159.5 -98.5t-60.5 -235.5v-282q65 -19 138 -19q118 0 187 83.5t69 263.5z" />
    <glyph glyph-name="q" unicode="q" horiz-adv-x="1144" 
d="M1001 -494h-260v461q0 115 15 197l-4 2q-40 -88 -120 -138.5t-181 -50.5q-184 0 -280.5 122t-96.5 356q0 264 146 422.5t409 158.5q187 0 372 -30v-1500zM741 532v283q-75 14 -137 14q-120 0 -188 -83t-68 -263q0 -288 172 -288q99 0 160 99t61 238z" />
    <glyph glyph-name="r" unicode="r" horiz-adv-x="727" 
d="M698 1038l-12 -256q-141 28 -212 -63t-71 -303v-416h-262v1018h248q0 -97 -18 -205h4q41 109 120.5 172.5t202.5 52.5z" />
    <glyph glyph-name="s" unicode="s" horiz-adv-x="854" 
d="M774 317q0 -152 -123 -244.5t-325 -92.5q-133 0 -228 26l19 219q93 -41 217 -41q74 0 119 30t45 81q0 36 -23 61.5t-59.5 40.5t-80.5 29.5t-88 35t-80.5 50t-59.5 81.5t-23 122q0 143 110 234t322 91q89 0 184 -20l-12 -205q-93 27 -184 27q-74 0 -112 -28t-38 -77
q0 -35 23 -59.5t60 -41t82 -31.5t90 -37t82 -51.5t60 -80.5t23 -119z" />
    <glyph glyph-name="t" unicode="t" horiz-adv-x="768" 
d="M705 8q-115 -28 -222 -28q-168 0 -231.5 69.5t-63.5 249.5v516h-176v203h176v313l261 70v-383h247v-203h-247v-446q0 -97 26 -132.5t94 -35.5t117 14z" />
    <glyph glyph-name="u" unicode="u" horiz-adv-x="1167" 
d="M1026 0h-246q0 113 13 182h-2q-48 -93 -136.5 -147.5t-210.5 -54.5q-83 0 -143.5 25t-94.5 70.5t-49.5 101.5t-15.5 126v715h260v-651q0 -83 28.5 -125.5t98.5 -42.5q99 0 167.5 96t68.5 231v492h262v-1018z" />
    <glyph glyph-name="v" unicode="v" horiz-adv-x="1036" 
d="M1034 1018l-381 -1018h-266l-377 1018h287l162 -457q52 -169 67 -227h4q21 93 62 217l164 467h278z" />
    <glyph glyph-name="w" unicode="w" horiz-adv-x="1630" 
d="M1610 1018l-320 -1018h-284l-148 451q-37 132 -57 229h-2q-24 -113 -70 -256l-129 -424h-270l-312 1018h287l109 -385q57 -209 80 -307h2q22 126 73 295l123 397h252l125 -385q62 -208 82 -307h4q24 124 70 295l116 397h269z" />
    <glyph glyph-name="x" unicode="x" horiz-adv-x="1081" 
d="M1059 0h-330l-197 342l-196 -342h-313l350 514l-330 504h313l197 -336l199 336h290l-319 -502z" />
    <glyph glyph-name="y" unicode="y" horiz-adv-x="1028" 
d="M1022 1018l-404 -1075q-50 -132 -102.5 -219.5t-115.5 -139t-132.5 -73t-161.5 -21.5q-75 0 -143 14l31 226q68 -21 129 -21q162 0 231 201l33 90l-377 1018h293l137 -389q40 -123 80 -281h2q36 146 99 324l120 346h281z" />
    <glyph glyph-name="z" unicode="z" horiz-adv-x="921" 
d="M825 0h-733v186l410 600q-78 -4 -217 -4h-181v236h713v-187l-401 -593q43 2 231 2h178v-240z" />
    <glyph glyph-name="braceleft" unicode="{" horiz-adv-x="741" 
d="M676 -420h-43q-198 0 -285.5 109t-87.5 348v276q0 123 -49 173.5t-156 56.5v196q110 6 157.5 52.5t47.5 169.5v178q0 230 87.5 341t285.5 111h43v-207q-101 0 -136.5 -47.5t-35.5 -193.5v-176q0 -156 -49 -232t-140 -92v-4q189 -27 189 -330v-274q0 -101 16 -152.5
t51.5 -71.5t104.5 -20v-211z" />
    <glyph glyph-name="bar" unicode="|" horiz-adv-x="589" 
d="M395 -494h-209v2048h209v-2048z" />
    <glyph glyph-name="braceright" unicode="}" horiz-adv-x="737" 
d="M692 543q-106 -6 -155.5 -56.5t-49.5 -173.5v-276q0 -240 -86.5 -348.5t-283.5 -108.5h-45v211q102 0 138 48.5t36 195.5v274q0 304 188 330v4q-188 26 -188 318v182q0 145 -36 193t-138 48v207h45q198 0 284 -111t86 -341v-172q0 -128 47 -175t158 -53v-196z" />
    <glyph glyph-name="asciitilde" unicode="~" 
d="M1042 1159q0 -149 -83.5 -238.5t-225.5 -89.5q-65 0 -114.5 22t-78.5 53.5t-53 62.5t-51 53t-59 22q-93 0 -96 -163h-195v37q0 148 83.5 237.5t225.5 89.5q55 0 99 -16t71 -40t52 -51.5t42.5 -51.5t41.5 -40t51 -16q93 0 96 166h194v-37z" />
    <glyph glyph-name="uni00A0" unicode="&#xa0;" horiz-adv-x="446" 
 />
    <glyph glyph-name="exclamdown" unicode="&#xa1;" horiz-adv-x="657" 
d="M473 885q0 -65 -46.5 -110.5t-113.5 -45.5t-113 45.5t-46 110.5q0 66 45.5 110.5t113.5 44.5t114 -44.5t46 -110.5zM465 -432h-307l39 1065h225z" />
    <glyph glyph-name="cent" unicode="&#xa2;" horiz-adv-x="929" 
d="M977 227q-121 -49 -297 -59l-74 -477h-178l74 485q-196 23 -308 146t-112 356q0 251 159 409t423 158l57 377h178l-59 -387q77 -10 135 -31l-21 -225q-74 29 -145 39l-96 -625q150 7 243 53zM539 412l92 610q-124 -4 -199.5 -90t-75.5 -219q0 -132 48 -207t135 -94z" />
    <glyph glyph-name="sterling" unicode="&#xa3;" horiz-adv-x="974" 
d="M924 0h-838v182q96 68 138 139.5t42 170.5q0 63 -8 124h-199v201h177q-23 145 -23 207q0 187 109 285t309 98q129 0 227 -31l-45 -215q-84 31 -168 31q-79 0 -123.5 -42t-44.5 -126q0 -35 21 -207h276v-201h-252q4 -41 4 -100q0 -94 -32.5 -166t-104.5 -135q73 12 219 12
h316v-227z" />
    <glyph glyph-name="currency" unicode="&#xa4;" 
d="M1055 242l-201 -146l-158 211q-74 -33 -151 -33q-61 0 -113 19l-141 -195l-203 144l139 174q-69 98 -69 252q0 148 80 252l-148 188l199 141l145 -198q65 26 148 26q75 0 131 -22l143 196l199 -145l-146 -182q60 -89 60 -236q0 -137 -76 -244zM739 684q0 203 -178 203
q-73 0 -123.5 -55.5t-50.5 -153.5q0 -97 43.5 -155t132.5 -58q74 0 125 56t51 163z" />
    <glyph glyph-name="yen" unicode="&#xa5;" horiz-adv-x="1230" 
d="M1190 1382l-381 -749h254v-166h-318v-119h318v-170h-318v-178h-264v178h-317v170h317v119h-317v166h256l-375 749h291l182 -376q54 -110 96 -232h4q43 124 113 258l178 350h281z" />
    <glyph glyph-name="brokenbar" unicode="&#xa6;" horiz-adv-x="589" 
d="M395 801h-209v753h209v-753zM395 -494h-209v775h209v-775z" />
    <glyph glyph-name="section" unicode="&#xa7;" horiz-adv-x="1085" 
d="M938 506q0 -87 -42.5 -164t-115.5 -133q76 -93 76 -213q0 -52 -15.5 -100t-51 -91.5t-87.5 -76t-131 -51.5t-176 -19q-94 0 -170 20l17 220q86 -25 157 -25q87 0 131.5 34.5t44.5 90.5q0 37 -25 75.5t-65 74.5t-88 75t-96 85t-88 97t-65 118.5t-25 142.5q0 182 156 297
q-76 95 -76 213q0 147 106 241t324 94q100 0 168 -16l-15 -217q-70 20 -145 20q-158 0 -158 -114q0 -36 25 -74t65 -75t88.5 -78t97.5 -89t89 -100t65 -120t25 -142zM700 471q0 32 -11 63.5t-27 56.5t-45.5 57.5t-54 55t-67 61.5t-69.5 66q-66 -51 -66 -131q0 -35 13.5 -70
t30.5 -61.5t60.5 -69.5t73.5 -70t99 -87q63 48 63 129z" />
    <glyph glyph-name="dieresis" unicode="&#xa8;" horiz-adv-x="1118" 
d="M889 1327q0 -59 -41.5 -100t-99.5 -41q-59 0 -100.5 41.5t-41.5 99.5q0 60 41.5 100.5t100.5 40.5t100 -40.5t41 -100.5zM475 1327q0 -59 -41.5 -100t-99.5 -41t-99.5 41t-41.5 100q0 60 41 100.5t100 40.5t100 -40.5t41 -100.5z" />
    <glyph glyph-name="copyright" unicode="&#xa9;" horiz-adv-x="1560" 
d="M1479 684q0 -190 -94 -351.5t-255.5 -255t-351.5 -93.5q-145 0 -275 55t-223 148.5t-147.5 222.5t-54.5 272t55.5 272.5t149 223t223 149t272.5 55.5q190 0 351.5 -93t255.5 -254t94 -351zM1280 682q0 136 -66.5 252.5t-182.5 185t-253 68.5q-209 0 -356.5 -147.5
t-147.5 -356.5q0 -137 67.5 -253.5t183.5 -184.5t253 -68q209 0 355.5 147.5t146.5 356.5zM983 362q-84 -40 -209 -40q-155 0 -242.5 95.5t-87.5 258.5q0 77 21.5 143t64 118t113.5 82t162 30t168 -31l-29 -174q-54 35 -129 35q-153 0 -153 -199q0 -178 143 -178
q83 0 143 28z" />
    <glyph glyph-name="ordfeminine" unicode="&#xaa;" horiz-adv-x="825" 
d="M698 666h-198q0 56 8 100l-2 2q-24 -52 -82 -86.5t-125 -34.5q-109 0 -163 54t-54 145q0 131 112.5 198.5t294.5 65.5v31q0 42 -24 69t-94 27q-113 0 -226 -55l-18 176q123 45 276 45q82 0 141 -19.5t91 -54t46.5 -75t14.5 -89.5v-325q0 -125 2 -174zM739 360h-637v203
h637v-203zM489 956v21q-108 0 -159 -24.5t-51 -78.5q0 -28 20.5 -46.5t54.5 -18.5q61 0 98 49t37 98z" />
    <glyph glyph-name="guillemotleft" unicode="&#xab;" horiz-adv-x="1093" 
d="M977 307l-205 -96l-242 387l246 393l197 -94l-189 -297zM516 295l-211 -94l-219 397l225 403l201 -92l-174 -309z" />
    <glyph glyph-name="logicalnot" unicode="&#xac;" 
d="M1001 195h-231v305h-690v219h921v-524z" />
    <glyph glyph-name="uni00AD" unicode="&#xad;" horiz-adv-x="684" 
d="M594 463h-504v211h504v-211z" />
    <glyph glyph-name="registered" unicode="&#xae;" horiz-adv-x="1155" 
d="M1057 1085q0 -96 -38.5 -183.5t-102.5 -150.5t-152.5 -100t-185.5 -37q-201 0 -340.5 136.5t-139.5 334.5q0 197 140.5 335.5t339.5 138.5q200 0 339.5 -137t139.5 -337zM897 1085q0 132 -93.5 228t-225.5 96q-134 0 -228 -94.5t-94 -227.5q0 -132 94.5 -227.5
t227.5 -95.5q132 0 225.5 94t93.5 227zM772 860h-147l-78 174h-15v-174h-122v457h190q82 0 122 -34t40 -93q0 -103 -92 -129q20 -24 35 -55zM627 1174q0 49 -62 49h-33v-105h23q35 0 53.5 15.5t18.5 40.5z" />
    <glyph glyph-name="macron" unicode="&#xaf;" horiz-adv-x="808" 
d="M680 1229h-551v188h551v-188z" />
    <glyph glyph-name="macron" unicode="&#x2c9;" horiz-adv-x="808" 
d="M680 1229h-551v188h551v-188z" />
    <glyph glyph-name="degree" unicode="&#xb0;" horiz-adv-x="794" 
d="M696 1237q0 -134 -93.5 -212.5t-221.5 -78.5q-137 0 -216 76.5t-79 208.5q0 87 46 154.5t115.5 101t147.5 33.5q151 0 226 -80t75 -203zM502 1237q0 47 -28 83t-81 36q-50 0 -81 -34t-31 -89q0 -56 30 -88.5t80 -32.5t80.5 35t30.5 90z" />
    <glyph glyph-name="plusminus" unicode="&#xb1;" 
d="M1047 709h-359v-375h-250v375h-358v217h358v372h250v-372h359v-217zM1038 0h-950v219h950v-219z" />
    <glyph glyph-name="twosuperior" unicode="&#xb2;" horiz-adv-x="733" 
d="M553 725h-481v143l118 101q65 53 90 86.5t25 64.5t-20 49.5t-58 18.5q-54 0 -112 -35l-37 156q110 43 211 43q127 0 187.5 -54t60.5 -137q0 -55 -31.5 -106.5t-104.5 -110.5l-67 -57h219v-162z" />
    <glyph glyph-name="threesuperior" unicode="&#xb3;" horiz-adv-x="698" 
d="M522 907q0 -97 -80 -149.5t-231 -52.5q-71 0 -154 16l21 133q47 -14 106 -14q109 0 109 65q0 43 -43 59.5t-150 2.5v120h29q152 0 152 74q0 58 -80 58q-59 0 -111 -27l-27 127q83 33 197 33q123 0 180.5 -47t57.5 -117q0 -105 -92 -148q53 -6 84.5 -45t31.5 -88z" />
    <glyph glyph-name="acute" unicode="&#xb4;" horiz-adv-x="804" 
d="M682 1368l-371 -221l-96 141l346 256z" />
    <glyph glyph-name="mu" unicode="&#xb5;" horiz-adv-x="1191" 
d="M1139 -8q-58 -10 -105 -10q-125 0 -176.5 51t-54.5 145h-2q-38 -90 -112 -141t-179 -51q-87 0 -131 47l31 -527h-269v1512h262v-660q0 -82 30.5 -120.5t94.5 -38.5q105 0 171.5 92t66.5 239v488h260v-651q0 -103 22.5 -135.5t90.5 -32.5v-207z" />
    <glyph glyph-name="mu" unicode="&#x3bc;" horiz-adv-x="1191" 
d="M1139 -8q-58 -10 -105 -10q-125 0 -176.5 51t-54.5 145h-2q-38 -90 -112 -141t-179 -51q-87 0 -131 47l31 -527h-269v1512h262v-660q0 -82 30.5 -120.5t94.5 -38.5q105 0 171.5 92t66.5 239v488h260v-651q0 -103 22.5 -135.5t90.5 -32.5v-207z" />
    <glyph glyph-name="paragraph" unicode="&#xb6;" horiz-adv-x="1218" 
d="M1114 1174h-133v-1371h-367v209h144v1370h356v-208zM600 473q-99 -1 -181 23t-138.5 65.5t-95 100t-56.5 125.5t-18 143q0 204 135.5 328t353.5 124v-909z" />
    <glyph glyph-name="periodcentered" unicode="&#xb7;" horiz-adv-x="550" 
d="M446 610q0 -70 -50.5 -120t-119.5 -50q-70 0 -120 50t-50 120q0 69 50 119.5t120 50.5q69 0 119.5 -50.5t50.5 -119.5z" />
    <glyph glyph-name="periodcentered" unicode="&#x2219;" horiz-adv-x="550" 
d="M446 610q0 -70 -50.5 -120t-119.5 -50q-70 0 -120 50t-50 120q0 69 50 119.5t120 50.5q69 0 119.5 -50.5t50.5 -119.5z" />
    <glyph glyph-name="cedilla" unicode="&#xb8;" horiz-adv-x="819" 
d="M524 -82q148 -202 -41 -397h-196q51 62 71 111.5t8.5 103t-59.5 114.5z" />
    <glyph glyph-name="onesuperior" unicode="&#xb9;" horiz-adv-x="589" 
d="M408 725h-213v440l-134 -57l-38 152l188 71h197v-606z" />
    <glyph glyph-name="ordmasculine" unicode="&#xba;" horiz-adv-x="872" 
d="M788 1036q0 -175 -105 -281t-269 -106q-152 0 -244 90t-92 283q0 173 105 278t263 105q157 0 249.5 -88.5t92.5 -280.5zM760 360h-651v203h651v-203zM575 1032q0 189 -141 189q-60 0 -101.5 -47.5t-41.5 -145.5q0 -86 32.5 -141.5t104.5 -55.5q65 0 106 48.5t41 152.5z
" />
    <glyph glyph-name="guillemotright" unicode="&#xbb;" horiz-adv-x="1093" 
d="M1008 604l-226 -403l-202 92l176 309l-178 305l210 94zM563 604l-248 -393l-196 94l190 297l-192 293l205 96z" />
    <glyph glyph-name="onequarter" unicode="&#xbc;" horiz-adv-x="1462" 
d="M1300 1311l-1030 -1358l-164 119l1031 1358zM1386 111h-90v-111h-206v111h-314l-8 135l231 418h297v-394h90v-159zM449 719h-218v471l-112 -47l-31 172l174 67h187v-663zM1087 268v256l-145 -258q41 2 145 2z" />
    <glyph glyph-name="onehalf" unicode="&#xbd;" horiz-adv-x="1488" 
d="M1376 0h-479v164l113 102q114 89 114 160q0 74 -75 74q-63 0 -121 -33l-25 170q98 41 213 41q123 0 182.5 -54.5t59.5 -144.5q0 -61 -30 -117.5t-99 -121.5l-70 -66q63 4 217 4v-178zM1300 1311l-1030 -1358l-164 119l1031 1358zM449 719h-218v471l-112 -47l-31 172
l174 67h187v-663z" />
    <glyph glyph-name="threequarters" unicode="&#xbe;" horiz-adv-x="1490" 
d="M1331 1311l-1030 -1358l-164 119l1030 1358zM1417 111h-90v-111h-207v111h-313l-10 135l231 418h299v-394h90v-159zM565 924q0 -101 -79 -161.5t-226 -60.5q-73 0 -154 15l19 145q55 -18 115 -18q46 0 75 21.5t29 56.5q0 24 -16.5 41t-62.5 26.5t-126 -4.5v129
q201 0 201 88q0 55 -78 55q-65 0 -129 -28l-20 137q94 33 206 33q118 0 176 -46t58 -124q0 -106 -109 -156q53 -10 87 -53t34 -96zM1118 268v256l-145 -258q41 2 145 2z" />
    <glyph glyph-name="questiondown" unicode="&#xbf;" horiz-adv-x="923" 
d="M688 885q0 -65 -46.5 -110.5t-113.5 -45.5t-113 45.5t-46 110.5q0 66 45.5 110.5t113.5 44.5t114 -44.5t46 -110.5zM786 -213l-32 -238q-164 4 -292.5 39.5t-206.5 94.5t-118.5 131.5t-40.5 154.5q0 61 17 113.5t44.5 88.5t61.5 72t67.5 64t62.5 63t47.5 70t21.5 85
t-15 108h256q27 -85 26 -146t-23.5 -113t-56 -89t-72.5 -73.5t-72.5 -66.5t-55.5 -69t-22 -80q0 -92 107 -147.5t296 -61.5z" />
    <glyph glyph-name="Agrave" unicode="&#xc0;" horiz-adv-x="1282" 
d="M1280 0h-295l-94 283h-524l-97 -283h-268l477 1382h314zM823 494l-141 411q-35 103 -55 191h-2q-18 -68 -54 -191l-141 -411h393zM805 1610l-43 -144l-440 109l59 188z" />
    <glyph glyph-name="Aacute" unicode="&#xc1;" horiz-adv-x="1282" 
d="M1280 0h-295l-94 283h-524l-97 -283h-268l477 1382h314zM823 494l-141 411q-35 103 -55 191h-2q-18 -68 -54 -191l-141 -411h393zM940 1575l-442 -109l-43 144l426 153z" />
    <glyph glyph-name="Acircumflex" unicode="&#xc2;" horiz-adv-x="1282" 
d="M1280 0h-295l-94 283h-524l-97 -283h-268l477 1382h314zM823 494l-141 411q-35 103 -55 191h-2q-18 -68 -54 -191l-141 -411h393zM975 1604l-64 -140l-284 115l-273 -113l-57 131l338 175z" />
    <glyph glyph-name="Atilde" unicode="&#xc3;" horiz-adv-x="1282" 
d="M1280 0h-295l-94 283h-524l-97 -283h-268l477 1382h314zM823 494l-141 411q-35 103 -55 191h-2q-18 -68 -54 -191l-141 -411h393zM1022 1659q-94 -168 -256 -168q-48 0 -89 15t-65 33t-53 33t-55 15q-68 0 -119 -88l-129 90q94 168 256 168q48 0 89 -15t64.5 -33
t52.5 -33t56 -15q66 0 119 86z" />
    <glyph glyph-name="Adieresis" unicode="&#xc4;" horiz-adv-x="1282" 
d="M1280 0h-295l-94 283h-524l-97 -283h-268l477 1382h314zM823 494l-141 411q-35 103 -55 191h-2q-18 -68 -54 -191l-141 -411h393zM991 1608q0 -57 -40 -96t-97 -39t-96 39t-39 96t39 96t96 39t97 -39t40 -96zM551 1608q0 -57 -40 -96t-97 -39t-97.5 39t-40.5 96t40.5 96
t97.5 39t97 -39t40 -96z" />
    <glyph glyph-name="Aring" unicode="&#xc5;" horiz-adv-x="1282" 
d="M1280 0h-295l-94 283h-524l-97 -283h-268l477 1382h314zM823 494l-141 411q-35 103 -55 191h-2q-18 -68 -54 -191l-141 -411h393zM883 1688q0 -96 -71.5 -164t-170.5 -68q-100 0 -169 64.5t-69 162.5q0 97 70.5 163.5t169.5 66.5q101 0 170.5 -64t69.5 -161zM739 1686
q0 40 -28 69t-68 29t-69 -29t-29 -69t29 -69.5t69 -29.5q39 0 67.5 29.5t28.5 69.5z" />
    <glyph glyph-name="AE" unicode="&#xc6;" horiz-adv-x="1607" 
d="M1493 0h-748v305h-403l-147 -305h-273l684 1382h873v-223h-478v-340h461v-217h-461v-373h492v-229zM745 514v645h-4q-52 -131 -127 -289l-182 -356h313z" />
    <glyph glyph-name="Ccedilla" unicode="&#xc7;" horiz-adv-x="1159" 
d="M1077 47q-165 -63 -360 -63q-141 0 -251.5 36.5t-182.5 97.5t-119 147.5t-66.5 180t-19.5 201.5q0 166 43.5 302t128 236t217.5 155t303 55q158 0 295 -41l-37 -246q-125 49 -270 49q-189 0 -288 -127.5t-99 -337.5q0 -467 403 -467q63 0 135.5 16t126.5 42zM743 -82
q148 -202 -41 -397h-196q51 62 71 111.5t8.5 103t-59.5 114.5z" />
    <glyph glyph-name="Egrave" unicode="&#xc8;" horiz-adv-x="1009" 
d="M895 0h-752v1382h752v-223h-485v-340h460v-217h-460v-373h485v-229zM686 1610l-43 -144l-440 109l59 188z" />
    <glyph glyph-name="Eacute" unicode="&#xc9;" horiz-adv-x="1009" 
d="M895 0h-752v1382h752v-223h-485v-340h460v-217h-460v-373h485v-229zM821 1575l-442 -109l-43 144l426 153z" />
    <glyph glyph-name="Ecircumflex" unicode="&#xca;" horiz-adv-x="1009" 
d="M895 0h-752v1382h752v-223h-485v-340h460v-217h-460v-373h485v-229zM856 1604l-63 -140l-285 115l-272 -113l-58 131l338 175z" />
    <glyph glyph-name="Edieresis" unicode="&#xcb;" horiz-adv-x="1009" 
d="M895 0h-752v1382h752v-223h-485v-340h460v-217h-460v-373h485v-229zM868 1608q0 -57 -40 -96t-97 -39t-96 39t-39 96t39 96t96 39t97 -39t40 -96zM428 1608q0 -57 -40 -96t-97 -39t-97 39t-40 96t40 96t97 39t97 -39t40 -96z" />
    <glyph glyph-name="Igrave" unicode="&#xcc;" horiz-adv-x="552" 
d="M410 0h-267v1382h267v-1382zM446 1610l-43 -144l-440 109l60 188z" />
    <glyph glyph-name="Iacute" unicode="&#xcd;" horiz-adv-x="552" 
d="M410 0h-267v1382h267v-1382zM594 1575l-442 -109l-43 144l426 153z" />
    <glyph glyph-name="Icircumflex" unicode="&#xce;" horiz-adv-x="552" 
d="M410 0h-267v1382h267v-1382zM618 1604l-63 -140l-285 115l-272 -113l-57 131l338 175z" />
    <glyph glyph-name="Idieresis" unicode="&#xcf;" horiz-adv-x="552" 
d="M410 0h-267v1382h267v-1382zM633 1608q0 -57 -40 -96t-97 -39t-96.5 39t-39.5 96t39.5 96t96.5 39t97 -39t40 -96zM193 1608q0 -57 -40.5 -96t-97.5 -39t-97 39t-40 96t40 96t97 39t97.5 -39t40.5 -96z" />
    <glyph glyph-name="Eth" unicode="&#xd0;" horiz-adv-x="1384" 
d="M1309 715q0 -343 -204.5 -533t-557.5 -190q-93 0 -385 10v600h-154v201h154v577q300 11 448 11q699 0 699 -676zM1022 694q0 232 -102 352.5t-332 120.5q-98 0 -162 -6v-358h250v-201h-250v-373q62 -10 145 -10q206 0 328.5 119t122.5 356z" />
    <glyph glyph-name="Ntilde" unicode="&#xd1;" horiz-adv-x="1431" 
d="M1288 0h-352l-428 762q-88 172 -123 270q14 -212 14 -657v-375h-256v1382h353l417 -743q72 -127 134 -277q-15 261 -15 672v348h256v-1382zM1102 1659q-94 -168 -256 -168q-48 0 -89 15t-65 33t-53 33t-55 15q-68 0 -119 -88l-129 90q94 168 256 168q48 0 89 -15
t64.5 -33t52.5 -33t56 -15q66 0 119 86z" />
    <glyph glyph-name="Ograve" unicode="&#xd2;" horiz-adv-x="1439" 
d="M1372 713q0 -168 -53.5 -308t-145.5 -233t-215 -144t-262 -51q-310 0 -469 183.5t-159 509.5q0 168 53.5 308t145 232.5t214.5 143.5t262 51q310 0 469.5 -183t159.5 -509zM1087 682q0 226 -92.5 354.5t-273.5 128.5q-162 0 -265.5 -123t-103.5 -340q0 -227 92.5 -355
t274.5 -128q162 0 265 122.5t103 340.5zM887 1610l-43 -144l-441 109l60 188z" />
    <glyph glyph-name="Oacute" unicode="&#xd3;" horiz-adv-x="1439" 
d="M1372 713q0 -168 -53.5 -308t-145.5 -233t-215 -144t-262 -51q-310 0 -469 183.5t-159 509.5q0 168 53.5 308t145 232.5t214.5 143.5t262 51q310 0 469.5 -183t159.5 -509zM1087 682q0 226 -92.5 354.5t-273.5 128.5q-162 0 -265.5 -123t-103.5 -340q0 -227 92.5 -355
t274.5 -128q162 0 265 122.5t103 340.5zM1057 1575l-443 -109l-43 144l426 153z" />
    <glyph glyph-name="Ocircumflex" unicode="&#xd4;" horiz-adv-x="1439" 
d="M1372 713q0 -168 -53.5 -308t-145.5 -233t-215 -144t-262 -51q-310 0 -469 183.5t-159 509.5q0 168 53.5 308t145 232.5t214.5 143.5t262 51q310 0 469.5 -183t159.5 -509zM1087 682q0 226 -92.5 354.5t-273.5 128.5q-162 0 -265.5 -123t-103.5 -340q0 -227 92.5 -355
t274.5 -128q162 0 265 122.5t103 340.5zM1075 1604l-63 -140l-285 115l-272 -113l-58 131l338 175z" />
    <glyph glyph-name="Otilde" unicode="&#xd5;" horiz-adv-x="1439" 
d="M1372 713q0 -168 -53.5 -308t-145.5 -233t-215 -144t-262 -51q-310 0 -469 183.5t-159 509.5q0 168 53.5 308t145 232.5t214.5 143.5t262 51q310 0 469.5 -183t159.5 -509zM1087 682q0 226 -92.5 354.5t-273.5 128.5q-162 0 -265.5 -123t-103.5 -340q0 -227 92.5 -355
t274.5 -128q162 0 265 122.5t103 340.5zM1106 1659q-94 -168 -256 -168q-48 0 -89 15t-65 33t-53 33t-55 15q-68 0 -119 -88l-129 90q94 168 256 168q48 0 89 -15t64.5 -33t52.5 -33t56 -15q66 0 119 86z" />
    <glyph glyph-name="Odieresis" unicode="&#xd6;" horiz-adv-x="1439" 
d="M1372 713q0 -168 -53.5 -308t-145.5 -233t-215 -144t-262 -51q-310 0 -469 183.5t-159 509.5q0 168 53.5 308t145 232.5t214.5 143.5t262 51q310 0 469.5 -183t159.5 -509zM1087 682q0 226 -92.5 354.5t-273.5 128.5q-162 0 -265.5 -123t-103.5 -340q0 -227 92.5 -355
t274.5 -128q162 0 265 122.5t103 340.5zM1090 1608q0 -57 -40.5 -96t-97.5 -39t-96 39t-39 96t39 96t96 39t97.5 -39t40.5 -96zM649 1608q0 -57 -40 -96t-97 -39t-97 39t-40 96t40 96t97 39t97 -39t40 -96z" />
    <glyph glyph-name="multiply" unicode="&#xd7;" 
d="M1030 301l-160 -160l-315 316l-315 -316l-144 144l316 315l-316 315l160 160l315 -315l316 315l143 -143l-315 -316z" />
    <glyph glyph-name="Oslash" unicode="&#xd8;" horiz-adv-x="1439" 
d="M1372 707q0 -168 -52.5 -306.5t-143.5 -230.5t-215 -142.5t-267 -50.5q-95 0 -182 19l-92 -207l-187 84l93 205q-130 83 -194 236t-64 360q0 167 53.5 305.5t145 231t214.5 143.5t262 51q86 0 168 -16l93 204l186 -82l-88 -198q131 -78 200.5 -230.5t69.5 -375.5z
M1098 688q0 133 -32 232t-85 151l-363 -850q36 -10 91 -10q78 0 146 27.5t123.5 83.5t87.5 150t32 216zM807 1165h-2q-45 9 -86 9q-75 0 -141.5 -30t-120 -86.5t-84.5 -148.5t-31 -207q0 -125 30.5 -221.5t76.5 -150.5z" />
    <glyph glyph-name="Ugrave" unicode="&#xd9;" horiz-adv-x="1394" 
d="M1251 537q0 -280 -147.5 -420t-425.5 -140q-91 0 -166.5 14t-130.5 39t-96.5 61.5t-68 78.5t-43.5 94t-23.5 103.5t-6.5 111.5v903h267v-886q0 -69 13 -120.5t44 -93t88.5 -62.5t140.5 -21q156 0 223.5 73t67.5 248v862h264v-845zM821 1610l-43 -144l-440 109l59 188z
" />
    <glyph glyph-name="Uacute" unicode="&#xda;" horiz-adv-x="1394" 
d="M1251 537q0 -280 -147.5 -420t-425.5 -140q-91 0 -166.5 14t-130.5 39t-96.5 61.5t-68 78.5t-43.5 94t-23.5 103.5t-6.5 111.5v903h267v-886q0 -69 13 -120.5t44 -93t88.5 -62.5t140.5 -21q156 0 223.5 73t67.5 248v862h264v-845zM1094 1575l-443 -109l-43 144l426 153z
" />
    <glyph glyph-name="Ucircumflex" unicode="&#xdb;" horiz-adv-x="1394" 
d="M1251 537q0 -280 -147.5 -420t-425.5 -140q-91 0 -166.5 14t-130.5 39t-96.5 61.5t-68 78.5t-43.5 94t-23.5 103.5t-6.5 111.5v903h267v-886q0 -69 13 -120.5t44 -93t88.5 -62.5t140.5 -21q156 0 223.5 73t67.5 248v862h264v-845zM1040 1604l-63 -140l-285 115l-272 -113
l-58 131l338 175z" />
    <glyph glyph-name="Udieresis" unicode="&#xdc;" horiz-adv-x="1394" 
d="M1251 537q0 -280 -147.5 -420t-425.5 -140q-91 0 -166.5 14t-130.5 39t-96.5 61.5t-68 78.5t-43.5 94t-23.5 103.5t-6.5 111.5v903h267v-886q0 -69 13 -120.5t44 -93t88.5 -62.5t140.5 -21q156 0 223.5 73t67.5 248v862h264v-845zM1053 1608q0 -57 -40.5 -96t-97.5 -39
t-96 39t-39 96t39 96t96 39t97.5 -39t40.5 -96zM612 1608q0 -57 -40 -96t-97 -39t-97 39t-40 96t40 96t97 39t97 -39t40 -96z" />
    <glyph glyph-name="Yacute" unicode="&#xdd;" horiz-adv-x="1148" 
d="M1145 1382l-440 -893v-489h-267v487l-432 895h291l182 -397q48 -107 94 -229h5q33 90 110 256l174 370h283zM956 1575l-442 -109l-43 144l426 153z" />
    <glyph glyph-name="Thorn" unicode="&#xde;" horiz-adv-x="1114" 
d="M1081 748q0 -217 -155.5 -355.5t-413.5 -138.5q-69 0 -102 4v-258h-267v1382h267v-192q90 4 149 4q247 0 384.5 -113.5t137.5 -332.5zM807 731q0 113 -70 179.5t-217 66.5q-32 0 -110 -8v-490q47 -8 118 -8q127 0 203 67t76 193z" />
    <glyph glyph-name="germandbls" unicode="&#xdf;" horiz-adv-x="1243" 
d="M1180 322q0 -155 -117.5 -250t-306.5 -95q-135 0 -217 29l14 215q90 -41 186 -41q86 0 128 33t42 82q0 36 -20 65t-52 51t-71 44t-78 49t-71 60.5t-52 85.5t-20 116q0 66 24 118t57.5 85t67.5 63t58 69t24 87q0 58 -40.5 88.5t-112.5 30.5q-106 0 -163 -70t-57 -213
v-1024h-262v1012q0 131 38.5 229.5t107.5 155.5t155.5 84.5t190.5 27.5q190 0 303 -81.5t113 -223.5q0 -73 -24.5 -126.5t-59.5 -85t-70 -57.5t-59.5 -60.5t-24.5 -77.5q0 -35 20.5 -64.5t53 -52t71.5 -45t78.5 -51t72 -62.5t53 -85.5t20.5 -114.5z" />
    <glyph glyph-name="agrave" unicode="&#xe0;" horiz-adv-x="1073" 
d="M936 0h-250q0 106 10 172l-2 2q-37 -87 -124.5 -140.5t-200.5 -53.5q-135 0 -213 81t-78 209q0 118 73.5 199t203.5 118.5t311 37.5v37q0 94 -41.5 136t-141.5 42q-67 0 -152 -20t-155 -50l-43 201q172 69 385 69q116 0 196.5 -23.5t127 -71t66.5 -111t20 -152.5v-420
q0 -150 8 -262zM666 426v27q-96 0 -163.5 -11.5t-104 -33t-52.5 -48t-16 -61.5q0 -51 33.5 -85t89.5 -34q92 0 152.5 75t60.5 171zM700 1288l-98 -141l-371 221l121 176z" />
    <glyph glyph-name="aacute" unicode="&#xe1;" horiz-adv-x="1073" 
d="M936 0h-250q0 106 10 172l-2 2q-37 -87 -124.5 -140.5t-200.5 -53.5q-135 0 -213 81t-78 209q0 118 73.5 199t203.5 118.5t311 37.5v37q0 94 -41.5 136t-141.5 42q-67 0 -152 -20t-155 -50l-43 201q172 69 385 69q116 0 196.5 -23.5t127 -71t66.5 -111t20 -152.5v-420
q0 -150 8 -262zM666 426v27q-96 0 -163.5 -11.5t-104 -33t-52.5 -48t-16 -61.5q0 -51 33.5 -85t89.5 -34q92 0 152.5 75t60.5 171zM856 1368l-371 -221l-96 141l346 256z" />
    <glyph glyph-name="acircumflex" unicode="&#xe2;" horiz-adv-x="1073" 
d="M936 0h-250q0 106 10 172l-2 2q-37 -87 -124.5 -140.5t-200.5 -53.5q-135 0 -213 81t-78 209q0 118 73.5 199t203.5 118.5t311 37.5v37q0 94 -41.5 136t-141.5 42q-67 0 -152 -20t-155 -50l-43 201q172 69 385 69q116 0 196.5 -23.5t127 -71t66.5 -111t20 -152.5v-420
q0 -150 8 -262zM666 426v27q-96 0 -163.5 -11.5t-104 -33t-52.5 -48t-16 -61.5q0 -51 33.5 -85t89.5 -34q92 0 152.5 75t60.5 171zM856 1268l-102 -121l-213 166l-211 -166l-101 119l314 278z" />
    <glyph glyph-name="atilde" unicode="&#xe3;" horiz-adv-x="1073" 
d="M936 0h-250q0 106 10 172l-2 2q-37 -87 -124.5 -140.5t-200.5 -53.5q-135 0 -213 81t-78 209q0 118 73.5 199t203.5 118.5t311 37.5v37q0 94 -41.5 136t-141.5 42q-67 0 -152 -20t-155 -50l-43 201q172 69 385 69q116 0 196.5 -23.5t127 -71t66.5 -111t20 -152.5v-420
q0 -150 8 -262zM666 426v27q-96 0 -163.5 -11.5t-104 -33t-52.5 -48t-16 -61.5q0 -51 33.5 -85t89.5 -34q92 0 152.5 75t60.5 171zM909 1364q-92 -182 -250 -182q-46 0 -85 16t-62 36t-51 36t-53 16q-62 0 -113 -92l-125 96q92 183 250 183q46 0 85 -16.5t61.5 -36t50.5 -36
t53 -16.5q63 0 114 92z" />
    <glyph glyph-name="adieresis" unicode="&#xe4;" horiz-adv-x="1073" 
d="M936 0h-250q0 106 10 172l-2 2q-37 -87 -124.5 -140.5t-200.5 -53.5q-135 0 -213 81t-78 209q0 118 73.5 199t203.5 118.5t311 37.5v37q0 94 -41.5 136t-141.5 42q-67 0 -152 -20t-155 -50l-43 201q172 69 385 69q116 0 196.5 -23.5t127 -71t66.5 -111t20 -152.5v-420
q0 -150 8 -262zM666 426v27q-96 0 -163.5 -11.5t-104 -33t-52.5 -48t-16 -61.5q0 -51 33.5 -85t89.5 -34q92 0 152.5 75t60.5 171zM889 1327q0 -59 -41.5 -100t-99.5 -41q-59 0 -100.5 41.5t-41.5 99.5q0 60 41.5 100.5t100.5 40.5t100 -40.5t41 -100.5zM475 1327
q0 -59 -41.5 -100t-99.5 -41t-99.5 41t-41.5 100q0 60 41 100.5t100 40.5t100 -40.5t41 -100.5z" />
    <glyph glyph-name="aring" unicode="&#xe5;" horiz-adv-x="1073" 
d="M936 0h-250q0 106 10 172l-2 2q-37 -87 -124.5 -140.5t-200.5 -53.5q-135 0 -213 81t-78 209q0 118 73.5 199t203.5 118.5t311 37.5v37q0 94 -41.5 136t-141.5 42q-67 0 -152 -20t-155 -50l-43 201q172 69 385 69q116 0 196.5 -23.5t127 -71t66.5 -111t20 -152.5v-420
q0 -150 8 -262zM666 426v27q-96 0 -163.5 -11.5t-104 -33t-52.5 -48t-16 -61.5q0 -51 33.5 -85t89.5 -34q92 0 152.5 75t60.5 171zM807 1368q0 -105 -77 -177.5t-185 -72.5q-109 0 -184.5 70.5t-75.5 177.5q0 106 77.5 178t184.5 72q110 0 185 -71t75 -177zM653 1366
q0 45 -31 77t-75 32t-76.5 -32.5t-32.5 -76.5t32.5 -76.5t76.5 -32.5t75 32t31 77z" />
    <glyph glyph-name="ae" unicode="&#xe6;" horiz-adv-x="1638" 
d="M1561 584q0 -50 -9 -121h-630q-3 -279 280 -279q152 0 295 64l29 -201q-165 -67 -369 -67q-159 0 -263.5 55t-145.5 151h-3q-50 -93 -145.5 -149.5t-228.5 -56.5q-136 0 -214.5 81t-78.5 209q0 177 156.5 267t431.5 90v51q0 82 -46 122t-153 40q-67 0 -145.5 -20
t-141.5 -52l-47 207q170 65 379 65q226 0 319 -127h3q47 57 126 92t173 35q108 0 191.5 -35t134.5 -98t76.5 -144.5t25.5 -178.5zM1300 639q3 98 -44.5 153.5t-131.5 55.5q-81 0 -134 -56.5t-64 -152.5h374zM666 426v31q-97 0 -164.5 -12t-104.5 -34.5t-53 -49.5t-16 -62
q0 -51 33 -85t88 -34q93 0 155 75t62 171z" />
    <glyph glyph-name="ccedilla" unicode="&#xe7;" horiz-adv-x="870" 
d="M815 29q-121 -47 -287 -47q-220 0 -339 120.5t-119 372.5q0 162 55 286.5t173.5 199.5t289.5 75q123 0 223 -35l-41 -225q-93 39 -190 39q-114 0 -175 -84t-61 -229q0 -295 238 -295q108 0 198 41zM569 -82q148 -202 -41 -397h-196q51 62 71 111.5t8.5 103t-59.5 114.5z
" />
    <glyph glyph-name="egrave" unicode="&#xe8;" horiz-adv-x="1052" 
d="M975 606q0 -87 -10 -143h-629q-2 -142 65.5 -210.5t214.5 -68.5t295 60l29 -199q-176 -65 -369 -65q-501 0 -501 520q0 153 56.5 274.5t167.5 192.5t259 71q212 0 317 -119.5t105 -312.5zM715 637q3 99 -44.5 154t-131.5 55q-81 0 -134.5 -56.5t-64.5 -152.5h375z
M702 1288l-98 -141l-371 221l121 176z" />
    <glyph glyph-name="eacute" unicode="&#xe9;" horiz-adv-x="1052" 
d="M975 606q0 -87 -10 -143h-629q-2 -142 65.5 -210.5t214.5 -68.5t295 60l29 -199q-176 -65 -369 -65q-501 0 -501 520q0 153 56.5 274.5t167.5 192.5t259 71q212 0 317 -119.5t105 -312.5zM715 637q3 99 -44.5 154t-131.5 55q-81 0 -134.5 -56.5t-64.5 -152.5h375z
M854 1368l-371 -221l-96 141l346 256z" />
    <glyph glyph-name="ecircumflex" unicode="&#xea;" horiz-adv-x="1052" 
d="M975 606q0 -87 -10 -143h-629q-2 -142 65.5 -210.5t214.5 -68.5t295 60l29 -199q-176 -65 -369 -65q-501 0 -501 520q0 153 56.5 274.5t167.5 192.5t259 71q212 0 317 -119.5t105 -312.5zM715 637q3 99 -44.5 154t-131.5 55q-81 0 -134.5 -56.5t-64.5 -152.5h375z
M860 1268l-102 -121l-213 166l-211 -166l-101 119l314 278z" />
    <glyph glyph-name="edieresis" unicode="&#xeb;" horiz-adv-x="1052" 
d="M975 606q0 -87 -10 -143h-629q-2 -142 65.5 -210.5t214.5 -68.5t295 60l29 -199q-176 -65 -369 -65q-501 0 -501 520q0 153 56.5 274.5t167.5 192.5t259 71q212 0 317 -119.5t105 -312.5zM715 637q3 99 -44.5 154t-131.5 55q-81 0 -134.5 -56.5t-64.5 -152.5h375z
M893 1327q0 -59 -41.5 -100t-99.5 -41q-59 0 -100.5 41.5t-41.5 99.5q0 60 41.5 100.5t100.5 40.5t100 -40.5t41 -100.5zM479 1327q0 -59 -41.5 -100t-99.5 -41t-99.5 41t-41.5 100q0 60 41 100.5t100 40.5t100 -40.5t41 -100.5z" />
    <glyph glyph-name="igrave" unicode="&#xec;" horiz-adv-x="544" 
d="M403 0h-262v1018h262v-1018zM467 1288l-98 -141l-371 221l121 176z" />
    <glyph glyph-name="iacute" unicode="&#xed;" horiz-adv-x="544" 
d="M403 0h-262v1018h262v-1018zM543 1368l-371 -221l-96 141l346 256z" />
    <glyph glyph-name="icircumflex" unicode="&#xee;" horiz-adv-x="544" 
d="M403 0h-262v1018h262v-1018zM588 1268l-103 -121l-213 166l-211 -166l-100 119l313 278z" />
    <glyph glyph-name="idieresis" unicode="&#xef;" horiz-adv-x="544" 
d="M403 0h-262v1018h262v-1018zM621 1327q0 -58 -41.5 -99.5t-100.5 -41.5t-100 41t-41 100q0 60 41 100.5t100 40.5t100.5 -40.5t41.5 -100.5zM207 1327q0 -59 -41.5 -100t-99.5 -41q-59 0 -100.5 41.5t-41.5 99.5q0 60 41.5 100.5t100.5 40.5t100 -40.5t41 -100.5z" />
    <glyph glyph-name="eth" unicode="&#xf0;" horiz-adv-x="1136" 
d="M1061 569q0 -146 -39.5 -260t-109.5 -185t-161 -107.5t-198 -36.5q-223 0 -354 129t-131 383q0 242 138.5 392t354.5 150q116 0 162 -63q-8 15 -17.5 31t-19.5 31.5t-14 21.5q-39 68 -109 141l-188 -84l-107 123l172 76q-55 47 -155 116l256 109q73 -56 141 -123l182 80
l105 -123l-176 -76q268 -329 268 -725zM788 532q0 134 -56 209.5t-167 75.5q-96 0 -160.5 -77.5t-64.5 -227.5q0 -149 61 -229t170 -80q100 0 158.5 82t58.5 247z" />
    <glyph glyph-name="ntilde" unicode="&#xf1;" horiz-adv-x="1169" 
d="M1026 0h-260v651q0 83 -28.5 125.5t-98.5 42.5q-98 0 -167 -96.5t-69 -230.5v-492h-262v1018h248q0 -108 -14 -182h2q48 93 137 147.5t209 54.5q83 0 143.5 -25t94.5 -70.5t49.5 -101.5t15.5 -126v-715zM958 1364q-92 -182 -249 -182q-46 0 -85.5 16t-62 36t-51 36
t-53.5 16q-62 0 -113 -92l-125 96q92 183 250 183q46 0 85 -16.5t61.5 -36t50.5 -36t53 -16.5q64 0 115 92z" />
    <glyph glyph-name="ograve" unicode="&#xf2;" horiz-adv-x="1132" 
d="M1063 528q0 -240 -146 -394t-374 -154q-226 0 -350.5 125t-124.5 387q0 239 144.5 392.5t375.5 153.5q224 0 349.5 -127.5t125.5 -382.5zM793 514q0 303 -224 303q-96 0 -163.5 -76t-67.5 -223q0 -315 227 -315q101 0 164.5 80.5t63.5 230.5zM731 1288l-98 -141l-371 221
l121 176z" />
    <glyph glyph-name="oacute" unicode="&#xf3;" horiz-adv-x="1132" 
d="M1063 528q0 -240 -146 -394t-374 -154q-226 0 -350.5 125t-124.5 387q0 239 144.5 392.5t375.5 153.5q224 0 349.5 -127.5t125.5 -382.5zM793 514q0 303 -224 303q-96 0 -163.5 -76t-67.5 -223q0 -315 227 -315q101 0 164.5 80.5t63.5 230.5zM879 1368l-371 -221l-96 141
l346 256z" />
    <glyph glyph-name="ocircumflex" unicode="&#xf4;" horiz-adv-x="1132" 
d="M1063 528q0 -240 -146 -394t-374 -154q-226 0 -350.5 125t-124.5 387q0 239 144.5 392.5t375.5 153.5q224 0 349.5 -127.5t125.5 -382.5zM793 514q0 303 -224 303q-96 0 -163.5 -76t-67.5 -223q0 -315 227 -315q101 0 164.5 80.5t63.5 230.5zM893 1268l-102 -121
l-213 166l-211 -166l-101 119l314 278z" />
    <glyph glyph-name="otilde" unicode="&#xf5;" horiz-adv-x="1132" 
d="M1063 528q0 -240 -146 -394t-374 -154q-226 0 -350.5 125t-124.5 387q0 239 144.5 392.5t375.5 153.5q224 0 349.5 -127.5t125.5 -382.5zM793 514q0 303 -224 303q-96 0 -163.5 -76t-67.5 -223q0 -315 227 -315q101 0 164.5 80.5t63.5 230.5zM952 1364
q-92 -182 -250 -182q-46 0 -85 16t-62 36t-51 36t-53 16q-62 0 -113 -92l-125 96q92 183 250 183q46 0 85 -16.5t61.5 -36t50.5 -36t53 -16.5q63 0 114 92z" />
    <glyph glyph-name="odieresis" unicode="&#xf6;" horiz-adv-x="1132" 
d="M1063 528q0 -240 -146 -394t-374 -154q-226 0 -350.5 125t-124.5 387q0 239 144.5 392.5t375.5 153.5q224 0 349.5 -127.5t125.5 -382.5zM793 514q0 303 -224 303q-96 0 -163.5 -76t-67.5 -223q0 -315 227 -315q101 0 164.5 80.5t63.5 230.5zM926 1327q0 -58 -41.5 -99.5
t-100.5 -41.5q-58 0 -99.5 41t-41.5 100q0 60 41 100.5t100 40.5t100.5 -40.5t41.5 -100.5zM512 1327q0 -59 -41 -100t-100 -41t-100.5 41.5t-41.5 99.5q0 60 41.5 100.5t100.5 40.5t100 -40.5t41 -100.5z" />
    <glyph glyph-name="divide" unicode="&#xf7;" 
d="M721 1020q0 -66 -47 -113t-113 -47t-113 47t-47 113t47 113t113 47t113 -47t47 -113zM1047 500h-967v219h967v-219zM721 199q0 -66 -47 -113t-113 -47t-113 47t-47 113t47 112.5t113 46.5t113 -46.5t47 -112.5z" />
    <glyph glyph-name="oslash" unicode="&#xf8;" horiz-adv-x="1136" 
d="M1069 528q0 -241 -145 -394.5t-377 -153.5q-93 0 -166 20l-100 -201l-144 66l103 203q-172 123 -172 424q0 240 143.5 393t378.5 153q74 0 139 -12l94 180l144 -67l-93 -178q195 -128 195 -433zM819 514q0 155 -76 219l-247 -534q27 -11 71 -11q116 0 184 84t68 242z
M618 829q-35 5 -47 5q-50 0 -94 -17.5t-80.5 -53.5t-58 -98.5t-21.5 -144.5q0 -139 60 -211z" />
    <glyph glyph-name="ugrave" unicode="&#xf9;" horiz-adv-x="1167" 
d="M1026 0h-246q0 113 13 182h-2q-48 -93 -136.5 -147.5t-210.5 -54.5q-83 0 -143.5 25t-94.5 70.5t-49.5 101.5t-15.5 126v715h260v-651q0 -83 28.5 -125.5t98.5 -42.5q99 0 167.5 96t68.5 231v492h262v-1018zM729 1288l-98 -141l-371 221l121 176z" />
    <glyph glyph-name="uacute" unicode="&#xfa;" horiz-adv-x="1167" 
d="M1026 0h-246q0 113 13 182h-2q-48 -93 -136.5 -147.5t-210.5 -54.5q-83 0 -143.5 25t-94.5 70.5t-49.5 101.5t-15.5 126v715h260v-651q0 -83 28.5 -125.5t98.5 -42.5q99 0 167.5 96t68.5 231v492h262v-1018zM911 1368l-370 -221l-97 141l347 256z" />
    <glyph glyph-name="ucircumflex" unicode="&#xfb;" horiz-adv-x="1167" 
d="M1026 0h-246q0 113 13 182h-2q-48 -93 -136.5 -147.5t-210.5 -54.5q-83 0 -143.5 25t-94.5 70.5t-49.5 101.5t-15.5 126v715h260v-651q0 -83 28.5 -125.5t98.5 -42.5q99 0 167.5 96t68.5 231v492h262v-1018zM897 1268l-102 -121l-213 166l-211 -166l-101 119l314 278z
" />
    <glyph glyph-name="udieresis" unicode="&#xfc;" horiz-adv-x="1167" 
d="M1026 0h-246q0 113 13 182h-2q-48 -93 -136.5 -147.5t-210.5 -54.5q-83 0 -143.5 25t-94.5 70.5t-49.5 101.5t-15.5 126v715h260v-651q0 -83 28.5 -125.5t98.5 -42.5q99 0 167.5 96t68.5 231v492h262v-1018zM932 1327q0 -59 -41 -100t-100 -41t-100.5 41.5t-41.5 99.5
q0 60 41.5 100.5t100.5 40.5t100 -40.5t41 -100.5zM518 1327q0 -59 -41 -100t-100 -41t-100 41t-41 100q0 60 41 100.5t100 40.5t100 -40.5t41 -100.5z" />
    <glyph glyph-name="yacute" unicode="&#xfd;" horiz-adv-x="1028" 
d="M1022 1018l-404 -1075q-50 -132 -102.5 -219.5t-115.5 -139t-132.5 -73t-161.5 -21.5q-75 0 -143 14l31 226q68 -21 129 -21q162 0 231 201l33 90l-377 1018h293l137 -389q40 -123 80 -281h2q36 146 99 324l120 346h281zM848 1368l-371 -221l-96 141l346 256z" />
    <glyph glyph-name="thorn" unicode="&#xfe;" horiz-adv-x="1144" 
d="M1071 563q0 -270 -138 -423.5t-398 -153.5q-75 0 -132 8v-488h-262v1989h262v-418q0 -133 -10 -209h4q40 79 116.5 124.5t184.5 45.5q180 0 276.5 -124t96.5 -351zM797 535q0 288 -174 288q-99 0 -159.5 -98.5t-60.5 -235.5v-282q65 -19 138 -19q118 0 187 83.5t69 263.5
z" />
    <glyph glyph-name="ydieresis" unicode="&#xff;" horiz-adv-x="1028" 
d="M1022 1018l-404 -1075q-50 -132 -102.5 -219.5t-115.5 -139t-132.5 -73t-161.5 -21.5q-75 0 -143 14l31 226q68 -21 129 -21q162 0 231 201l33 90l-377 1018h293l137 -389q40 -123 80 -281h2q36 146 99 324l120 346h281zM870 1327q0 -59 -41 -100t-100 -41t-100 41
t-41 100q0 60 41 100.5t100 40.5t100 -40.5t41 -100.5zM457 1327q0 -58 -41.5 -99.5t-100.5 -41.5t-100 41t-41 100q0 60 41 100.5t100 40.5t100.5 -40.5t41.5 -100.5z" />
    <glyph glyph-name="Amacron" unicode="&#x100;" horiz-adv-x="1282" 
d="M1280 0h-295l-94 283h-524l-97 -283h-268l477 1382h314zM823 494l-141 411q-35 103 -55 191h-2q-18 -68 -54 -191l-141 -411h393zM932 1518h-600v165h600v-165z" />
    <glyph glyph-name="amacron" unicode="&#x101;" horiz-adv-x="1073" 
d="M936 0h-250q0 106 10 172l-2 2q-37 -87 -124.5 -140.5t-200.5 -53.5q-135 0 -213 81t-78 209q0 118 73.5 199t203.5 118.5t311 37.5v37q0 94 -41.5 136t-141.5 42q-67 0 -152 -20t-155 -50l-43 201q172 69 385 69q116 0 196.5 -23.5t127 -71t66.5 -111t20 -152.5v-420
q0 -150 8 -262zM666 426v27q-96 0 -163.5 -11.5t-104 -33t-52.5 -48t-16 -61.5q0 -51 33.5 -85t89.5 -34q92 0 152.5 75t60.5 171zM817 1229h-551v188h551v-188z" />
    <glyph glyph-name="Abreve" unicode="&#x102;" horiz-adv-x="1282" 
d="M1280 0h-295l-94 283h-524l-97 -283h-268l477 1382h314zM823 494l-141 411q-35 103 -55 191h-2q-18 -68 -54 -191l-141 -411h393zM924 1759q0 -120 -77.5 -199t-215.5 -79q-137 0 -213 79.5t-76 198.5h156q0 -50 38 -83.5t97 -33.5q61 0 97 33t36 84h158z" />
    <glyph glyph-name="abreve" unicode="&#x103;" horiz-adv-x="1073" 
d="M936 0h-250q0 106 10 172l-2 2q-37 -87 -124.5 -140.5t-200.5 -53.5q-135 0 -213 81t-78 209q0 118 73.5 199t203.5 118.5t311 37.5v37q0 94 -41.5 136t-141.5 42q-67 0 -152 -20t-155 -50l-43 201q172 69 385 69q116 0 196.5 -23.5t127 -71t66.5 -111t20 -152.5v-420
q0 -150 8 -262zM666 426v27q-96 0 -163.5 -11.5t-104 -33t-52.5 -48t-16 -61.5q0 -51 33.5 -85t89.5 -34q92 0 152.5 75t60.5 171zM825 1475q0 -63 -16.5 -118.5t-49.5 -100t-88.5 -70t-127.5 -25.5t-127 26t-87 70.5t-47.5 99.5t-15.5 118h168q0 -56 28.5 -90.5t82.5 -34.5
q52 0 81 31.5t29 93.5h170z" />
    <glyph glyph-name="Aogonek" unicode="&#x104;" horiz-adv-x="1282" 
d="M1352 -317q-114 -142 -295 -142q-114 0 -174 50.5t-60 134.5q0 68 40.5 139.5t121.5 134.5l-94 283h-524l-97 -283h-268l477 1382h314l487 -1382q-104 -41 -155.5 -93t-51.5 -104q0 -29 19 -46t51 -17q61 0 106 63zM823 494l-141 411q-35 103 -55 191h-2
q-18 -68 -54 -191l-141 -411h393z" />
    <glyph glyph-name="aogonek" unicode="&#x105;" horiz-adv-x="1073" 
d="M1055 -305q-55 -73 -135.5 -113.5t-169.5 -40.5q-96 0 -155.5 47.5t-59.5 137.5q0 154 176 292q-17 83 -17 148h-2q-42 -85 -127.5 -135.5t-195.5 -50.5q-135 0 -213 81t-78 209q0 177 156.5 267t431.5 90v51q0 82 -42.5 122t-140.5 40q-68 0 -153 -19t-154 -49l-43 201
q175 67 385 67q117 0 198 -23t127 -70t65.5 -108t19.5 -145v-358q0 -195 33 -336q-183 -96 -183 -193q0 -29 18.5 -44t49.5 -15q29 0 58 18t48 48zM666 426v31q-97 0 -164.5 -12t-104.5 -34.5t-53 -49.5t-16 -62q0 -51 33 -85t88 -34q93 0 155 75t62 171z" />
    <glyph glyph-name="Cacute" unicode="&#x106;" horiz-adv-x="1159" 
d="M1077 47q-165 -63 -360 -63q-141 0 -251.5 36.5t-182.5 97.5t-119 147.5t-66.5 180t-19.5 201.5q0 166 43.5 302t128 236t217.5 155t303 55q158 0 295 -41l-37 -246q-125 49 -270 49q-189 0 -288 -127.5t-99 -337.5q0 -467 403 -467q63 0 135.5 16t126.5 42zM1022 1575
l-442 -109l-43 144l426 153z" />
    <glyph glyph-name="cacute" unicode="&#x107;" horiz-adv-x="870" 
d="M815 29q-121 -47 -287 -47q-220 0 -339 120.5t-119 372.5q0 162 55 286.5t173.5 199.5t289.5 75q123 0 223 -35l-41 -225q-93 39 -190 39q-114 0 -175 -84t-61 -229q0 -295 238 -295q108 0 198 41zM819 1368l-370 -221l-97 141l346 256z" />
    <glyph glyph-name="Ccircumflex" unicode="&#x108;" horiz-adv-x="1159" 
d="M1077 47q-165 -63 -360 -63q-141 0 -251.5 36.5t-182.5 97.5t-119 147.5t-66.5 180t-19.5 201.5q0 166 43.5 302t128 236t217.5 155t303 55q158 0 295 -41l-37 -246q-125 49 -270 49q-189 0 -288 -127.5t-99 -337.5q0 -467 403 -467q63 0 135.5 16t126.5 42zM1036 1604
l-63 -140l-285 115l-272 -113l-58 131l338 175z" />
    <glyph glyph-name="ccircumflex" unicode="&#x109;" horiz-adv-x="870" 
d="M815 29q-121 -47 -287 -47q-220 0 -339 120.5t-119 372.5q0 162 55 286.5t173.5 199.5t289.5 75q123 0 223 -35l-41 -225q-93 39 -190 39q-114 0 -175 -84t-61 -229q0 -295 238 -295q108 0 198 41zM825 1268l-102 -121l-213 166l-211 -166l-100 119l313 278z" />
    <glyph glyph-name="Cdotaccent" unicode="&#x10a;" horiz-adv-x="1159" 
d="M1077 47q-165 -63 -360 -63q-141 0 -251.5 36.5t-182.5 97.5t-119 147.5t-66.5 180t-19.5 201.5q0 166 43.5 302t128 236t217.5 155t303 55q158 0 295 -41l-37 -246q-125 49 -270 49q-189 0 -288 -127.5t-99 -337.5q0 -467 403 -467q63 0 135.5 16t126.5 42zM856 1610
q0 -59 -42.5 -100.5t-102.5 -41.5t-103 42t-43 100q0 57 43 99t103 42t102.5 -41.5t42.5 -99.5z" />
    <glyph glyph-name="cdotaccent" unicode="&#x10b;" horiz-adv-x="870" 
d="M815 29q-121 -47 -287 -47q-220 0 -339 120.5t-119 372.5q0 162 55 286.5t173.5 199.5t289.5 75q123 0 223 -35l-41 -225q-93 39 -190 39q-114 0 -175 -84t-61 -229q0 -295 238 -295q108 0 198 41zM692 1327q0 -65 -48.5 -111.5t-115.5 -46.5q-68 0 -115.5 46t-47.5 112
t48 113t115 47q68 0 116 -46.5t48 -113.5z" />
    <glyph glyph-name="Ccaron" unicode="&#x10c;" horiz-adv-x="1159" 
d="M1077 47q-165 -63 -360 -63q-141 0 -251.5 36.5t-182.5 97.5t-119 147.5t-66.5 180t-19.5 201.5q0 166 43.5 302t128 236t217.5 155t303 55q158 0 295 -41l-37 -246q-125 49 -270 49q-189 0 -288 -127.5t-99 -337.5q0 -467 403 -467q63 0 135.5 16t126.5 42zM1036 1640
l-338 -176l-340 168l64 140l283 -115l274 112z" />
    <glyph glyph-name="ccaron" unicode="&#x10d;" horiz-adv-x="870" 
d="M815 29q-121 -47 -287 -47q-220 0 -339 120.5t-119 372.5q0 162 55 286.5t173.5 199.5t289.5 75q123 0 223 -35l-41 -225q-93 39 -190 39q-114 0 -175 -84t-61 -229q0 -295 238 -295q108 0 198 41zM836 1423l-316 -276l-313 274l102 123l213 -168l211 168z" />
    <glyph glyph-name="Dcaron" unicode="&#x10e;" horiz-adv-x="1366" 
d="M1290 715q0 -174 -55.5 -312t-156.5 -227.5t-240.5 -136.5t-309.5 -47q-93 0 -385 10v1378q300 11 447 11q700 0 700 -676zM1004 694q0 232 -102.5 352.5t-330.5 120.5q-97 0 -161 -6v-932q62 -10 145 -10q99 0 180 28.5t141.5 85.5t94 149t33.5 212zM940 1640l-338 -176
l-340 168l64 140l282 -115l275 112z" />
    <glyph glyph-name="dcaron" unicode="&#x10f;" horiz-adv-x="1249" 
d="M999 0h-243q0 88 12 170h-4q-41 -88 -125 -140.5t-197 -52.5q-182 0 -276 127t-94 351q0 262 144 421.5t394 159.5q69 0 129 -8v467h260v-1495zM739 528v285q-75 16 -137 16q-120 0 -188 -83t-68 -263q0 -288 174 -288q99 0 159 98t60 235zM1384 1544l-143 -411l-168 36
l103 420z" />
    <glyph glyph-name="Dcroat" unicode="&#x110;" horiz-adv-x="1384" 
d="M1309 715q0 -343 -204.5 -533t-557.5 -190q-93 0 -385 10v600h-154v201h154v577q300 11 448 11q699 0 699 -676zM1022 694q0 232 -102 352.5t-332 120.5q-98 0 -162 -6v-358h250v-201h-250v-373q62 -10 145 -10q206 0 328.5 119t122.5 356z" />
    <glyph glyph-name="dcroat" unicode="&#x111;" horiz-adv-x="1142" 
d="M1124 1192h-125v-1192h-243q0 88 12 170h-4q-41 -88 -125 -140.5t-197 -52.5q-182 0 -276 127t-94 351q0 262 144 421.5t394 159.5q69 0 129 -8v164h-215v166h215v137h260v-137h125v-166zM739 528v285q-75 16 -137 16q-120 0 -188 -83t-68 -263q0 -288 174 -288
q99 0 159 98t60 235z" />
    <glyph glyph-name="Emacron" unicode="&#x112;" horiz-adv-x="1009" 
d="M895 0h-752v1382h752v-223h-485v-340h460v-217h-460v-373h485v-229zM815 1518h-600v165h600v-165z" />
    <glyph glyph-name="emacron" unicode="&#x113;" horiz-adv-x="1052" 
d="M975 606q0 -87 -10 -143h-629q-2 -142 65.5 -210.5t214.5 -68.5t295 60l29 -199q-176 -65 -369 -65q-501 0 -501 520q0 153 56.5 274.5t167.5 192.5t259 71q212 0 317 -119.5t105 -312.5zM715 637q3 99 -44.5 154t-131.5 55q-81 0 -134.5 -56.5t-64.5 -152.5h375z
M813 1229h-551v188h551v-188z" />
    <glyph glyph-name="Ebreve" unicode="&#x114;" horiz-adv-x="1009" 
d="M895 0h-752v1382h752v-223h-485v-340h460v-217h-460v-373h485v-229zM819 1759q0 -120 -77.5 -199t-215.5 -79q-137 0 -212.5 79.5t-75.5 198.5h155q0 -50 38 -83.5t97 -33.5q62 0 98 33t36 84h157z" />
    <glyph glyph-name="ebreve" unicode="&#x115;" horiz-adv-x="1052" 
d="M975 606q0 -87 -10 -143h-629q-2 -142 65.5 -210.5t214.5 -68.5t295 60l29 -199q-176 -65 -369 -65q-501 0 -501 520q0 153 56.5 274.5t167.5 192.5t259 71q212 0 317 -119.5t105 -312.5zM715 637q3 99 -44.5 154t-131.5 55q-81 0 -134.5 -56.5t-64.5 -152.5h375z
M813 1475q0 -63 -16.5 -118.5t-50 -100t-89 -70t-127.5 -25.5t-126.5 26t-86.5 71t-47.5 99.5t-15.5 117.5h168q0 -56 28 -90.5t82 -34.5q52 0 81.5 31.5t29.5 93.5h170z" />
    <glyph glyph-name="Edotaccent" unicode="&#x116;" horiz-adv-x="1009" 
d="M895 0h-752v1382h752v-223h-485v-340h460v-217h-460v-373h485v-229zM668 1610q0 -58 -43 -100t-103 -42t-102.5 41.5t-42.5 100.5q0 57 42.5 99t102.5 42t103 -41.5t43 -99.5z" />
    <glyph glyph-name="edotaccent" unicode="&#x117;" horiz-adv-x="1052" 
d="M975 606q0 -87 -10 -143h-629q-2 -142 65.5 -210.5t214.5 -68.5t295 60l29 -199q-176 -65 -369 -65q-501 0 -501 520q0 153 56.5 274.5t167.5 192.5t259 71q212 0 317 -119.5t105 -312.5zM715 637q3 99 -44.5 154t-131.5 55q-81 0 -134.5 -56.5t-64.5 -152.5h375z
M709 1327q0 -65 -48.5 -111.5t-115.5 -46.5q-68 0 -116 46t-48 112t48 113t116 47t116 -46.5t48 -113.5z" />
    <glyph glyph-name="Eogonek" unicode="&#x118;" horiz-adv-x="1009" 
d="M977 -317q-114 -142 -295 -142q-114 0 -176 50.5t-62 134.5q0 70 42 143t118 131h-461v1382h746v-223h-479v-340h454v-217h-454v-373h493v-223q-96 -26 -150.5 -84.5t-54.5 -118.5q0 -29 19.5 -46t50.5 -17q61 0 109 63z" />
    <glyph glyph-name="eogonek" unicode="&#x119;" horiz-adv-x="1052" 
d="M940 45q-122 -36 -190 -106t-68 -136q0 -29 17.5 -46t48.5 -17q30 0 65 15.5t61 41.5l78 -139q-111 -117 -286 -117q-115 0 -174.5 50t-59.5 135q0 63 39 133.5t111 128.5q-32 -4 -54 -4q-71 0 -134.5 15t-124 52t-103.5 94.5t-69.5 148t-26.5 206.5q0 153 56.5 274.5
t167.5 192.5t259 71q212 0 317 -119.5t105 -312.5q0 -87 -10 -143h-629q-2 -142 65.5 -210.5t214.5 -68.5t295 60zM715 637q3 99 -44.5 154t-131.5 55q-81 0 -134.5 -56.5t-64.5 -152.5h375z" />
    <glyph glyph-name="Ecaron" unicode="&#x11a;" horiz-adv-x="1009" 
d="M895 0h-752v1382h752v-223h-485v-340h460v-217h-460v-373h485v-229zM852 1640l-338 -176l-340 168l64 140l282 -115l275 112z" />
    <glyph glyph-name="ecaron" unicode="&#x11b;" horiz-adv-x="1052" 
d="M975 606q0 -87 -10 -143h-629q-2 -142 65.5 -210.5t214.5 -68.5t295 60l29 -199q-176 -65 -369 -65q-501 0 -501 520q0 153 56.5 274.5t167.5 192.5t259 71q212 0 317 -119.5t105 -312.5zM715 637q3 99 -44.5 154t-131.5 55q-81 0 -134.5 -56.5t-64.5 -152.5h375z
M858 1423l-315 -276l-314 274l103 123l213 -168l211 168z" />
    <glyph glyph-name="Gcircumflex" unicode="&#x11c;" horiz-adv-x="1382" 
d="M1245 66q-214 -86 -473 -86q-337 0 -517.5 178t-180.5 491q0 226 86.5 394.5t261.5 264t420 95.5q201 0 391 -60l-53 -243q-157 65 -355 65q-119 0 -210 -38t-145 -105t-81 -152t-27 -186q0 -222 113.5 -343.5t327.5 -121.5q93 0 176 25v481h266v-659zM1118 1604
l-63 -140l-285 115l-272 -113l-58 131l338 175z" />
    <glyph glyph-name="gcircumflex" unicode="&#x11d;" horiz-adv-x="1116" 
d="M1065 -109q0 -169 -156 -287t-403 -118q-206 0 -321 78t-115 225q0 77 45.5 146t111.5 104q-46 22 -73 63t-27 93q0 59 34 108.5t87 73.5q-72 39 -112 109.5t-40 168.5q0 78 29 147t83.5 122.5t141.5 84.5t195 31q80 0 166 -22h346v-205h-139q51 -48 51 -129
q0 -168 -112.5 -267.5t-324.5 -99.5q-36 0 -79 9q-24 -10 -37 -28t-13 -38q0 -35 33.5 -47.5t124.5 -15.5l158 -7q346 -13 346 -299zM719 670q0 83 -47.5 131.5t-136.5 48.5q-87 0 -138 -50t-51 -128q0 -83 49 -129.5t140 -46.5q86 0 135 46t49 128zM805 -143q0 58 -39.5 93
t-120.5 38l-176 6h-47q-94 -69 -94 -156q0 -70 59 -110.5t158 -40.5q123 0 191.5 47.5t68.5 122.5zM848 1268l-103 -121l-213 166l-210 -166l-101 119l314 278z" />
    <glyph glyph-name="Gbreve" unicode="&#x11e;" horiz-adv-x="1382" 
d="M1245 66q-214 -86 -473 -86q-337 0 -517.5 178t-180.5 491q0 226 86.5 394.5t261.5 264t420 95.5q201 0 391 -60l-53 -243q-157 65 -355 65q-119 0 -210 -38t-145 -105t-81 -152t-27 -186q0 -222 113.5 -343.5t327.5 -121.5q93 0 176 25v481h266v-659zM1090 1759
q0 -120 -77.5 -199t-215.5 -79q-137 0 -213 79.5t-76 198.5h156q0 -50 38 -83.5t97 -33.5q61 0 97 33t36 84h158z" />
    <glyph glyph-name="gbreve" unicode="&#x11f;" horiz-adv-x="1116" 
d="M1065 -109q0 -169 -156 -287t-403 -118q-206 0 -321 78t-115 225q0 77 45.5 146t111.5 104q-46 22 -73 63t-27 93q0 59 34 108.5t87 73.5q-72 39 -112 109.5t-40 168.5q0 78 29 147t83.5 122.5t141.5 84.5t195 31q80 0 166 -22h346v-205h-139q51 -48 51 -129
q0 -168 -112.5 -267.5t-324.5 -99.5q-36 0 -79 9q-24 -10 -37 -28t-13 -38q0 -35 33.5 -47.5t124.5 -15.5l158 -7q346 -13 346 -299zM719 670q0 83 -47.5 131.5t-136.5 48.5q-87 0 -138 -50t-51 -128q0 -83 49 -129.5t140 -46.5q86 0 135 46t49 128zM805 -143q0 58 -39.5 93
t-120.5 38l-176 6h-47q-94 -69 -94 -156q0 -70 59 -110.5t158 -40.5q123 0 191.5 47.5t68.5 122.5zM827 1475q0 -63 -16.5 -118.5t-49.5 -100t-88.5 -70t-127.5 -25.5t-127 26t-87 70.5t-47.5 99.5t-15.5 118h168q0 -56 28.5 -90.5t82.5 -34.5q52 0 81 31.5t29 93.5h170z
" />
    <glyph glyph-name="Gdotaccent" unicode="&#x120;" horiz-adv-x="1382" 
d="M1245 66q-214 -86 -473 -86q-337 0 -517.5 178t-180.5 491q0 226 86.5 394.5t261.5 264t420 95.5q201 0 391 -60l-53 -243q-157 65 -355 65q-119 0 -210 -38t-145 -105t-81 -152t-27 -186q0 -222 113.5 -343.5t327.5 -121.5q93 0 176 25v481h266v-659zM938 1610
q0 -59 -42.5 -100.5t-102.5 -41.5t-103 42t-43 100q0 57 43 99t103 42t102.5 -41.5t42.5 -99.5z" />
    <glyph glyph-name="gdotaccent" unicode="&#x121;" horiz-adv-x="1116" 
d="M1065 -109q0 -169 -156 -287t-403 -118q-206 0 -321 78t-115 225q0 77 45.5 146t111.5 104q-46 22 -73 63t-27 93q0 59 34 108.5t87 73.5q-72 39 -112 109.5t-40 168.5q0 78 29 147t83.5 122.5t141.5 84.5t195 31q80 0 166 -22h346v-205h-139q51 -48 51 -129
q0 -168 -112.5 -267.5t-324.5 -99.5q-36 0 -79 9q-24 -10 -37 -28t-13 -38q0 -35 33.5 -47.5t124.5 -15.5l158 -7q346 -13 346 -299zM719 670q0 83 -47.5 131.5t-136.5 48.5q-87 0 -138 -50t-51 -128q0 -83 49 -129.5t140 -46.5q86 0 135 46t49 128zM805 -143q0 58 -39.5 93
t-120.5 38l-176 6h-47q-94 -69 -94 -156q0 -70 59 -110.5t158 -40.5q123 0 191.5 47.5t68.5 122.5zM694 1327q0 -65 -48.5 -111.5t-115.5 -46.5q-68 0 -115.5 46t-47.5 112t48 113t115 47q68 0 116 -46.5t48 -113.5z" />
    <glyph glyph-name="Gcommaaccent" unicode="&#x122;" horiz-adv-x="1382" 
d="M1245 66q-214 -86 -473 -86q-337 0 -517.5 178t-180.5 491q0 226 86.5 394.5t261.5 264t420 95.5q201 0 391 -60l-53 -243q-157 65 -355 65q-119 0 -210 -38t-145 -105t-81 -152t-27 -186q0 -222 113.5 -343.5t327.5 -121.5q93 0 176 25v481h266v-659zM784 -96
q57 0 91 -37.5t34 -97.5q0 -81 -70 -154.5t-216 -110.5l-43 95q56 30 79 55.5t23 54.5q0 18 -9 41t-9 39q0 47 32 81t88 34z" />
    <glyph glyph-name="gcommaaccent" unicode="&#x123;" horiz-adv-x="1116" 
d="M1065 -109q0 -169 -156 -287t-403 -118q-206 0 -321 78t-115 225q0 77 45.5 146t111.5 104q-46 22 -73 63t-27 93q0 59 34 108.5t87 73.5q-72 39 -112 109.5t-40 168.5q0 78 29 147t83.5 122.5t141.5 84.5t195 31q80 0 166 -22h346v-205h-139q51 -48 51 -129
q0 -168 -112.5 -267.5t-324.5 -99.5q-36 0 -79 9q-24 -10 -37 -28t-13 -38q0 -35 33.5 -47.5t124.5 -15.5l158 -7q346 -13 346 -299zM719 670q0 83 -47.5 131.5t-136.5 48.5q-87 0 -138 -50t-51 -128q0 -83 49 -129.5t140 -46.5q86 0 135 46t49 128zM805 -143q0 58 -39.5 93
t-120.5 38l-176 6h-47q-94 -69 -94 -156q0 -70 59 -110.5t158 -40.5q123 0 191.5 47.5t68.5 122.5zM516 1149q-56 0 -90.5 40t-34.5 97q0 35 15 71.5t46.5 73t89.5 68t136 49.5l43 -94q-103 -50 -103 -108q0 -18 9.5 -41t9.5 -41q0 -50 -34.5 -82.5t-86.5 -32.5z" />
    <glyph glyph-name="Hcircumflex" unicode="&#x124;" horiz-adv-x="1404" 
d="M1264 0h-269v600h-585v-600h-267v1382h267v-553h585v553h269v-1382zM1042 1604l-63 -140l-285 115l-272 -113l-57 131l337 175z" />
    <glyph glyph-name="hcircumflex" unicode="&#x125;" horiz-adv-x="1169" 
d="M1026 0h-260v651q0 83 -28.5 125.5t-98.5 42.5q-98 0 -167 -97t-69 -233v-489h-262v1495h262v-438q0 -129 -18 -207h4q46 87 132 137.5t202 50.5q83 0 143.5 -25t94.5 -70.5t49.5 -101.5t15.5 -126v-715zM913 1677l-63 -139l-285 115l-272 -113l-57 131l337 174z" />
    <glyph glyph-name="Hbar" unicode="&#x126;" horiz-adv-x="1445" 
d="M1284 1204h133v-217h-133v-987h-268v567h-586v-567h-266v987h-133v217h133v178h266v-178h586v178h268v-178zM1016 987h-586v-203h586v203z" />
    <glyph glyph-name="hbar" unicode="&#x127;" horiz-adv-x="1181" 
d="M1038 0h-260v645q0 84 -29 126t-98 42q-99 0 -167 -97t-68 -233v-483h-262v1151h-154v203h154v141h262v-141h243v-203h-243v-119q0 -93 -19 -186l2 -2q46 87 132.5 137.5t203.5 50.5q83 0 143.5 -25t94.5 -70.5t49.5 -101.5t15.5 -126v-709z" />
    <glyph glyph-name="Itilde" unicode="&#x128;" horiz-adv-x="552" 
d="M410 0h-267v1382h267v-1382zM662 1659q-94 -168 -256 -168q-48 0 -89.5 15t-65.5 33t-53 33t-55 15q-67 0 -118 -88l-129 90q94 168 256 168q48 0 89 -15t64.5 -33t52.5 -33t56 -15q36 0 63.5 21t54.5 65z" />
    <glyph glyph-name="itilde" unicode="&#x129;" horiz-adv-x="544" 
d="M403 0h-262v1018h262v-1018zM643 1364q-92 -182 -250 -182q-46 0 -85.5 16t-62 36t-51 36t-53.5 16q-61 0 -112 -92l-125 96q92 183 250 183q46 0 85 -16.5t61 -36t50 -36t53 -16.5q64 0 115 92z" />
    <glyph glyph-name="Imacron" unicode="&#x12a;" horiz-adv-x="552" 
d="M410 0h-267v1382h267v-1382zM578 1518h-601v165h601v-165z" />
    <glyph glyph-name="imacron" unicode="&#x12b;" horiz-adv-x="544" 
d="M403 0h-262v1018h262v-1018zM549 1229h-551v188h551v-188z" />
    <glyph glyph-name="Ibreve" unicode="&#x12c;" horiz-adv-x="552" 
d="M410 0h-267v1382h267v-1382zM567 1759q0 -120 -77.5 -199t-215.5 -79q-137 0 -212.5 79.5t-75.5 198.5h155q0 -50 38 -83.5t97 -33.5q62 0 98 33t36 84h157z" />
    <glyph glyph-name="ibreve" unicode="&#x12d;" horiz-adv-x="544" 
d="M403 0h-262v1018h262v-1018zM555 1475q0 -63 -16.5 -118.5t-50 -100t-89 -70t-127.5 -25.5t-126.5 26t-86.5 71t-47.5 99.5t-15.5 117.5h168q0 -56 28 -90.5t82 -34.5q52 0 81.5 31.5t29.5 93.5h170z" />
    <glyph glyph-name="Iogonek" unicode="&#x12e;" horiz-adv-x="552" 
d="M502 -307q-55 -74 -134 -113t-169 -39q-96 0 -155.5 47.5t-59.5 137.5q0 79 45 152t114 128v1376h267v-1382q-95 -47 -139 -96.5t-44 -96.5q0 -30 19 -46.5t49 -16.5q28 0 57 18t49 48z" />
    <glyph glyph-name="iogonek" unicode="&#x12f;" horiz-adv-x="544" 
d="M436 1327q0 -65 -48.5 -111.5t-115.5 -46.5t-114 46t-47 112t47 113t114 47q68 0 116 -46.5t48 -113.5zM498 -307q-55 -74 -134.5 -113t-168.5 -39q-98 0 -156.5 47t-58.5 138q0 77 43 150t118 130v1012h262v-1018q-94 -47 -137 -96.5t-43 -96.5q0 -30 19 -46.5t49 -16.5
q28 0 57 18t49 48z" />
    <glyph glyph-name="Idotaccent" unicode="&#x130;" horiz-adv-x="552" 
d="M410 0h-267v1382h267v-1382zM424 1610q0 -59 -42.5 -100.5t-102.5 -41.5t-103 42t-43 100q0 57 43 99t103 42t102.5 -41.5t42.5 -99.5z" />
    <glyph glyph-name="dotlessi" unicode="&#x131;" horiz-adv-x="544" 
d="M403 0h-262v1018h262v-1018z" />
    <glyph glyph-name="IJ" unicode="&#x132;" horiz-adv-x="1239" 
d="M410 0h-267v1382h267v-1382zM1098 387q0 -89 -19.5 -159.5t-61.5 -127.5t-116 -87.5t-176 -30.5q-78 0 -172 16v229q55 -20 127 -20q77 0 114 41.5t37 148.5v985h267v-995z" />
    <glyph glyph-name="ij" unicode="&#x133;" horiz-adv-x="1099" 
d="M436 1327q0 -65 -48.5 -111.5t-115.5 -46.5t-114 46t-47 112t47 113t114 47q68 0 116 -46.5t48 -113.5zM403 0h-262v1018h262v-1018zM989 1327q0 -65 -48.5 -111.5t-115.5 -46.5q-68 0 -115.5 46t-47.5 112t48 113t115 47q68 0 116 -46.5t48 -113.5zM956 -76
q0 -216 -90.5 -324t-304.5 -108q-70 0 -145 21l18 223q66 -25 121 -25q81 0 111 41.5t30 145.5v1120h260v-1094z" />
    <glyph glyph-name="Jcircumflex" unicode="&#x134;" horiz-adv-x="686" 
d="M545 387q0 -89 -19.5 -159.5t-61.5 -127.5t-116 -87.5t-176 -30.5q-78 0 -172 16v229q55 -20 127 -20q77 0 114.5 41.5t37.5 148.5v985h266v-995zM748 1604l-64 -140l-285 115l-272 -113l-57 131l338 175z" />
    <glyph glyph-name="jcircumflex" unicode="&#x135;" horiz-adv-x="555" 
d="M412 -76q0 -216 -91 -324t-305 -108q-70 0 -145 21l18 223q66 -25 121 -25q81 0 111.5 41.5t30.5 145.5v1120h260v-1094zM598 1268l-102 -121l-213 166l-211 -166l-101 119l314 278z" />
    <glyph glyph-name="Kcommaaccent" unicode="&#x136;" horiz-adv-x="1222" 
d="M1204 0h-350l-444 664v-664h-267v1382h267v-626l446 626h328l-508 -667zM616 -96q57 0 91 -37.5t34 -97.5q0 -81 -70 -154.5t-216 -110.5l-43 95q56 30 79 55.5t23 54.5q0 18 -9 41t-9 39q0 47 32 81t88 34z" />
    <glyph glyph-name="kcommaaccent" unicode="&#x137;" horiz-adv-x="1071" 
d="M1047 0h-328l-316 504v-504h-262v1495h262v-901l297 424h320l-356 -465zM549 -96q57 0 91 -37.5t34 -97.5q0 -81 -70.5 -154.5t-216.5 -110.5l-43 95q56 30 79 55.5t23 54.5q0 18 -9 41t-9 39q0 47 32.5 81t88.5 34z" />
    <glyph glyph-name="kgreenlandic" unicode="&#x138;" horiz-adv-x="1071" 
d="M1047 0h-328l-316 504v-504h-262v1018h262v-424l297 424h320l-356 -465z" />
    <glyph glyph-name="Lacute" unicode="&#x139;" horiz-adv-x="878" 
d="M858 0h-715v1382h267v-1149h448v-233zM696 1575l-442 -109l-43 144l426 153z" />
    <glyph glyph-name="lacute" unicode="&#x13a;" horiz-adv-x="544" 
d="M403 0h-262v1495h262v-1495zM623 1659l-443 -109l-43 144l426 153z" />
    <glyph glyph-name="Lcommaaccent" unicode="&#x13b;" horiz-adv-x="878" 
d="M858 0h-715v1382h267v-1149h448v-233zM516 -96q57 0 91 -37.5t34 -97.5q0 -81 -70.5 -154.5t-216.5 -110.5l-43 95q57 30 80 55.5t23 54.5q0 18 -9.5 41t-9.5 39q0 47 32.5 81t88.5 34z" />
    <glyph glyph-name="lcommaaccent" unicode="&#x13c;" horiz-adv-x="544" 
d="M403 0h-262v1495h262v-1495zM281 -96q57 0 91 -37.5t34 -97.5q0 -81 -70.5 -154.5t-216.5 -110.5l-43 95q56 30 79 55.5t23 54.5q0 18 -9 41t-9 39q0 47 32.5 81t88.5 34z" />
    <glyph glyph-name="Lcaron" unicode="&#x13d;" horiz-adv-x="888" 
d="M858 0h-715v1382h267v-1149h448v-233zM911 1563l-249 -359l-152 82l213 375z" />
    <glyph glyph-name="lcaron" unicode="&#x13e;" horiz-adv-x="653" 
d="M403 0h-262v1495h262v-1495zM788 1544l-143 -411l-168 36l103 420z" />
    <glyph glyph-name="Ldot" unicode="&#x13f;" horiz-adv-x="1331" 
d="M858 0h-715v1382h267v-1149h448v-233zM1225 610q0 -70 -50.5 -120t-119.5 -50q-71 0 -120.5 50t-49.5 120q0 69 50 119.5t120 50.5q69 0 119.5 -50.5t50.5 -119.5z" />
    <glyph glyph-name="ldot" unicode="&#x140;" horiz-adv-x="1079" 
d="M403 0h-262v1495h262v-1495zM975 610q0 -70 -50.5 -120t-119.5 -50q-71 0 -120.5 50t-49.5 120q0 69 50 119.5t120 50.5q69 0 119.5 -50.5t50.5 -119.5z" />
    <glyph glyph-name="Lslash" unicode="&#x141;" horiz-adv-x="897" 
d="M877 0h-715v645l-135 -63l-47 206l182 84v510h266v-385l201 93l49 -207l-250 -113v-537h449v-233z" />
    <glyph glyph-name="lslash" unicode="&#x142;" horiz-adv-x="614" 
d="M604 895l-164 -90v-805h-262v668l-104 -60l-51 195l155 86v606h262v-469l111 64z" />
    <glyph glyph-name="Nacute" unicode="&#x143;" horiz-adv-x="1431" 
d="M1288 0h-352l-428 762q-88 172 -123 270q14 -212 14 -657v-375h-256v1382h353l417 -743q72 -127 134 -277q-15 261 -15 672v348h256v-1382zM1098 1575l-443 -109l-43 144l426 153z" />
    <glyph glyph-name="nacute" unicode="&#x144;" horiz-adv-x="1169" 
d="M1026 0h-260v651q0 83 -28.5 125.5t-98.5 42.5q-98 0 -167 -96.5t-69 -230.5v-492h-262v1018h248q0 -108 -14 -182h2q48 93 137 147.5t209 54.5q83 0 143.5 -25t94.5 -70.5t49.5 -101.5t15.5 -126v-715zM915 1368l-370 -221l-96 141l346 256z" />
    <glyph glyph-name="Ncommaaccent" unicode="&#x145;" horiz-adv-x="1431" 
d="M1288 0h-352l-428 762q-88 172 -123 270q14 -212 14 -657v-375h-256v1382h353l417 -743q72 -127 134 -277q-15 261 -15 672v348h256v-1382zM713 -96q57 0 91 -37.5t34 -97.5q0 -81 -70.5 -154.5t-216.5 -110.5l-43 95q56 30 79 55.5t23 54.5q0 18 -9 41t-9 39
q0 47 32.5 81t88.5 34z" />
    <glyph glyph-name="ncommaaccent" unicode="&#x146;" horiz-adv-x="1169" 
d="M1026 0h-260v651q0 83 -28.5 125.5t-98.5 42.5q-98 0 -167 -96.5t-69 -230.5v-492h-262v1018h248q0 -108 -14 -182h2q48 93 137 147.5t209 54.5q83 0 143.5 -25t94.5 -70.5t49.5 -101.5t15.5 -126v-715zM594 -96q57 0 91 -37.5t34 -97.5q0 -81 -70.5 -154.5
t-216.5 -110.5l-43 95q57 30 80 55.5t23 54.5q0 18 -9.5 41t-9.5 39q0 47 32.5 81t88.5 34z" />
    <glyph glyph-name="Ncaron" unicode="&#x147;" horiz-adv-x="1431" 
d="M1288 0h-352l-428 762q-88 172 -123 270q14 -212 14 -657v-375h-256v1382h353l417 -743q72 -127 134 -277q-15 261 -15 672v348h256v-1382zM1057 1640l-338 -176l-340 168l63 140l283 -115l274 112z" />
    <glyph glyph-name="ncaron" unicode="&#x148;" horiz-adv-x="1169" 
d="M1026 0h-260v651q0 83 -28.5 125.5t-98.5 42.5q-98 0 -167 -96.5t-69 -230.5v-492h-262v1018h248q0 -108 -14 -182h2q48 93 137 147.5t209 54.5q83 0 143.5 -25t94.5 -70.5t49.5 -101.5t15.5 -126v-715zM895 1423l-315 -276l-314 274l103 123l213 -168l211 168z" />
    <glyph glyph-name="napostrophe" unicode="&#x149;" horiz-adv-x="1394" 
d="M217 1532q81 0 123 -72q53 -89 9 -222q-51 -155 -220 -302l-98 86q62 66 88.5 119t22 92t-35.5 74q-26 30 -30 69.5t10.5 74t49.5 58t81 23.5zM1251 0h-260v651q0 83 -28.5 125.5t-98.5 42.5q-98 0 -166.5 -96.5t-68.5 -230.5v-492h-262v1018h247q0 -108 -14 -182h2
q48 93 137 147.5t209 54.5q83 0 143.5 -25t94.5 -70.5t49.5 -101.5t15.5 -126v-715z" />
    <glyph glyph-name="Eng" unicode="&#x14a;" horiz-adv-x="1431" 
d="M1288 1382v-1384q0 -242 -102.5 -359t-321.5 -153l-57 209q112 20 165.5 77.5t53.5 182.5l-506 799q-78 123 -135 250q14 -212 14 -629v-375h-256v1382h303l469 -727q83 -134 132 -235q-15 261 -15 614v348h256z" />
    <glyph glyph-name="eng" unicode="&#x14b;" horiz-adv-x="1169" 
d="M1036 377q0 -226 -16 -361.5t-46 -206t-85 -124.5q-83 -85 -266 -134l-62 205q89 27 133 68q33 33 48.5 73t24.5 138t9 280v43q0 194 -17 295.5t-47.5 133.5t-86.5 32q-88 0 -155 -92.5t-67 -216.5v-510h-262v1018h248q0 -108 -14 -180h2q47 93 134 146.5t191 53.5
q125 0 196 -57t104.5 -190.5t33.5 -368.5v-45z" />
    <glyph glyph-name="Omacron" unicode="&#x14c;" horiz-adv-x="1439" 
d="M1372 713q0 -168 -53.5 -308t-145.5 -233t-215 -144t-262 -51q-310 0 -469 183.5t-159 509.5q0 168 53.5 308t145 232.5t214.5 143.5t262 51q310 0 469.5 -183t159.5 -509zM1087 682q0 226 -92.5 354.5t-273.5 128.5q-162 0 -265.5 -123t-103.5 -340q0 -227 92.5 -355
t274.5 -128q162 0 265 122.5t103 340.5zM1026 1518h-600v165h600v-165z" />
    <glyph glyph-name="omacron" unicode="&#x14d;" horiz-adv-x="1132" 
d="M1063 528q0 -240 -146 -394t-374 -154q-226 0 -350.5 125t-124.5 387q0 239 144.5 392.5t375.5 153.5q224 0 349.5 -127.5t125.5 -382.5zM793 514q0 303 -224 303q-96 0 -163.5 -76t-67.5 -223q0 -315 227 -315q101 0 164.5 80.5t63.5 230.5zM856 1229h-551v188h551v-188
z" />
    <glyph glyph-name="Obreve" unicode="&#x14e;" horiz-adv-x="1439" 
d="M1372 713q0 -168 -53.5 -308t-145.5 -233t-215 -144t-262 -51q-310 0 -469 183.5t-159 509.5q0 168 53.5 308t145 232.5t214.5 143.5t262 51q310 0 469.5 -183t159.5 -509zM1087 682q0 226 -92.5 354.5t-273.5 128.5q-162 0 -265.5 -123t-103.5 -340q0 -227 92.5 -355
t274.5 -128q162 0 265 122.5t103 340.5zM1010 1759q0 -120 -77.5 -199t-215.5 -79q-137 0 -213 79.5t-76 198.5h156q0 -50 38 -83.5t97 -33.5q61 0 97 33t36 84h158z" />
    <glyph glyph-name="obreve" unicode="&#x14f;" horiz-adv-x="1132" 
d="M1063 528q0 -240 -146 -394t-374 -154q-226 0 -350.5 125t-124.5 387q0 239 144.5 392.5t375.5 153.5q224 0 349.5 -127.5t125.5 -382.5zM793 514q0 303 -224 303q-96 0 -163.5 -76t-67.5 -223q0 -315 227 -315q101 0 164.5 80.5t63.5 230.5zM846 1475
q0 -63 -16.5 -118.5t-50 -100t-89 -70t-127.5 -25.5t-126.5 26t-86.5 71t-47.5 99.5t-15.5 117.5h168q0 -56 28 -90.5t82 -34.5q52 0 81.5 31.5t29.5 93.5h170z" />
    <glyph glyph-name="Ohungarumlaut" unicode="&#x150;" horiz-adv-x="1439" 
d="M1372 713q0 -168 -53.5 -308t-145.5 -233t-215 -144t-262 -51q-310 0 -469 183.5t-159 509.5q0 168 53.5 308t145 232.5t214.5 143.5t262 51q310 0 469.5 -183t159.5 -509zM1087 682q0 226 -92.5 354.5t-273.5 128.5q-162 0 -265.5 -123t-103.5 -340q0 -227 92.5 -355
t274.5 -128q162 0 265 122.5t103 340.5zM1311 1632l-359 -170l-75 123l340 205zM852 1657l-338 -197l-80 117l314 231z" />
    <glyph glyph-name="ohungarumlaut" unicode="&#x151;" horiz-adv-x="1132" 
d="M1063 528q0 -240 -146 -394t-374 -154q-226 0 -350.5 125t-124.5 387q0 239 144.5 392.5t375.5 153.5q224 0 349.5 -127.5t125.5 -382.5zM793 514q0 303 -224 303q-96 0 -163.5 -76t-67.5 -223q0 -315 227 -315q101 0 164.5 80.5t63.5 230.5zM1118 1415l-319 -268
l-115 104l293 301zM705 1442l-293 -295l-123 104l264 318z" />
    <glyph glyph-name="OE" unicode="&#x152;" horiz-adv-x="1761" 
d="M1647 0h-727q-115 -23 -224 -23q-310 0 -469 184t-159 513q0 166 53.5 305.5t144.5 231.5t211.5 143t255.5 51q107 0 215 -23h699v-223h-484v-340h459v-217h-459v-373h484v-229zM897 252v887q-89 26 -176 26q-74 0 -139.5 -29t-117 -85t-82 -146t-30.5 -203
q0 -227 91 -355t272 -128q88 0 182 33z" />
    <glyph glyph-name="oe" unicode="&#x153;" horiz-adv-x="1761" 
d="M1681 584q0 -58 -8 -121h-629q-3 -279 279 -279q155 0 295 64l29 -201q-165 -67 -369 -67q-258 0 -379 165q-58 -76 -149.5 -120.5t-206.5 -44.5q-225 0 -350 125t-125 387q0 241 144 393.5t376 152.5q103 0 194 -37.5t146 -111.5q121 151 325 151q109 0 192.5 -35
t134 -98t76 -144.5t25.5 -178.5zM1421 639q3 98 -44 153.5t-132 55.5q-81 0 -134 -56.5t-64 -152.5h374zM793 514q0 303 -224 303q-96 0 -163.5 -76t-67.5 -223q0 -315 227 -315q101 0 164.5 80.5t63.5 230.5z" />
    <glyph glyph-name="Racute" unicode="&#x154;" horiz-adv-x="1161" 
d="M1135 0h-330l-373 571h-22v-571h-267v1382q164 9 398 9q501 0 501 -390q0 -150 -96 -255t-244 -130q78 -102 111 -151zM764 975q0 199 -250 199q-57 0 -104 -7v-399q36 -4 96 -4q120 0 189 57t69 154zM893 1575l-442 -109l-43 144l426 153z" />
    <glyph glyph-name="racute" unicode="&#x155;" horiz-adv-x="727" 
d="M698 1038l-12 -256q-141 28 -212 -63t-71 -303v-416h-262v1018h248q0 -97 -18 -205h4q41 109 120.5 172.5t202.5 52.5zM739 1368l-370 -221l-97 141l346 256z" />
    <glyph glyph-name="Rcommaaccent" unicode="&#x156;" horiz-adv-x="1161" 
d="M1135 0h-330l-373 571h-22v-571h-267v1382q164 9 398 9q501 0 501 -390q0 -150 -96 -255t-244 -130q78 -102 111 -151zM764 975q0 199 -250 199q-57 0 -104 -7v-399q36 -4 96 -4q120 0 189 57t69 154zM594 -96q57 0 91 -37.5t34 -97.5q0 -81 -70.5 -154.5t-216.5 -110.5
l-43 95q57 30 80 55.5t23 54.5q0 18 -9.5 41t-9.5 39q0 47 32.5 81t88.5 34z" />
    <glyph glyph-name="rcommaaccent" unicode="&#x157;" horiz-adv-x="727" 
d="M698 1038l-12 -256q-141 28 -212 -63t-71 -303v-416h-262v1018h248q0 -97 -18 -205h4q41 109 120.5 172.5t202.5 52.5zM299 -96q57 0 91 -37.5t34 -97.5q0 -81 -70.5 -154.5t-216.5 -110.5l-43 95q57 30 80 55.5t23 54.5q0 18 -9.5 41t-9.5 39q0 47 32.5 81t88.5 34z" />
    <glyph glyph-name="Rcaron" unicode="&#x158;" horiz-adv-x="1161" 
d="M1135 0h-330l-373 571h-22v-571h-267v1382q164 9 398 9q501 0 501 -390q0 -150 -96 -255t-244 -130q78 -102 111 -151zM764 975q0 199 -250 199q-57 0 -104 -7v-399q36 -4 96 -4q120 0 189 57t69 154zM887 1640l-338 -176l-340 168l63 140l283 -115l274 112z" />
    <glyph glyph-name="rcaron" unicode="&#x159;" horiz-adv-x="727" 
d="M698 1038l-12 -256q-141 28 -212 -63t-71 -303v-416h-262v1018h248q0 -97 -18 -205h4q41 109 120.5 172.5t202.5 52.5zM733 1423l-315 -276l-314 274l103 123l213 -168l211 168z" />
    <glyph glyph-name="Sacute" unicode="&#x15a;" horiz-adv-x="1030" 
d="M956 424q0 -194 -148.5 -320.5t-385.5 -126.5q-184 0 -320 37l29 256q140 -59 301 -59q102 0 167 44.5t65 135.5q0 53 -32 91.5t-83.5 63.5t-113.5 47.5t-124 53t-113.5 71t-83.5 110t-32 161.5q0 188 138 302t384 114q118 0 250 -27l-25 -233q-119 39 -237 39
q-113 0 -170 -44.5t-57 -121.5q0 -39 20 -70.5t54.5 -53.5t79 -41.5t93 -39.5t97.5 -42t93.5 -53.5t79 -70t54.5 -96t20 -127.5zM872 1575l-442 -109l-43 144l426 153z" />
    <glyph glyph-name="sacute" unicode="&#x15b;" horiz-adv-x="854" 
d="M774 317q0 -152 -123 -244.5t-325 -92.5q-133 0 -228 26l19 219q93 -41 217 -41q74 0 119 30t45 81q0 36 -23 61.5t-59.5 40.5t-80.5 29.5t-88 35t-80.5 50t-59.5 81.5t-23 122q0 143 110 234t322 91q89 0 184 -20l-12 -205q-93 27 -184 27q-74 0 -112 -28t-38 -77
q0 -35 23 -59.5t60 -41t82 -31.5t90 -37t82 -51.5t60 -80.5t23 -119zM754 1368l-371 -221l-96 141l346 256z" />
    <glyph glyph-name="Scircumflex" unicode="&#x15c;" horiz-adv-x="1030" 
d="M956 424q0 -194 -148.5 -320.5t-385.5 -126.5q-184 0 -320 37l29 256q140 -59 301 -59q102 0 167 44.5t65 135.5q0 53 -32 91.5t-83.5 63.5t-113.5 47.5t-124 53t-113.5 71t-83.5 110t-32 161.5q0 188 138 302t384 114q118 0 250 -27l-25 -233q-119 39 -237 39
q-113 0 -170 -44.5t-57 -121.5q0 -39 20 -70.5t54.5 -53.5t79 -41.5t93 -39.5t97.5 -42t93.5 -53.5t79 -70t54.5 -96t20 -127.5zM874 1604l-63 -140l-285 115l-272 -113l-57 131l338 175z" />
    <glyph glyph-name="scircumflex" unicode="&#x15d;" horiz-adv-x="854" 
d="M774 317q0 -152 -123 -244.5t-325 -92.5q-133 0 -228 26l19 219q93 -41 217 -41q74 0 119 30t45 81q0 36 -23 61.5t-59.5 40.5t-80.5 29.5t-88 35t-80.5 50t-59.5 81.5t-23 122q0 143 110 234t322 91q89 0 184 -20l-12 -205q-93 27 -184 27q-74 0 -112 -28t-38 -77
q0 -35 23 -59.5t60 -41t82 -31.5t90 -37t82 -51.5t60 -80.5t23 -119zM733 1268l-102 -121l-213 166l-211 -166l-101 119l314 278z" />
    <glyph glyph-name="Scedilla" unicode="&#x15e;" horiz-adv-x="1030" 
d="M956 424q0 -194 -148.5 -320.5t-385.5 -126.5q-184 0 -320 37l29 256q140 -59 301 -59q102 0 167 44.5t65 135.5q0 53 -32 91.5t-83.5 63.5t-113.5 47.5t-124 53t-113.5 71t-83.5 110t-32 161.5q0 188 138 302t384 114q118 0 250 -27l-25 -233q-119 39 -237 39
q-113 0 -170 -44.5t-57 -121.5q0 -39 20 -70.5t54.5 -53.5t79 -41.5t93 -39.5t97.5 -42t93.5 -53.5t79 -70t54.5 -96t20 -127.5zM586 -82q148 -202 -41 -397h-197q51 63 71 112t9 102.5t-59 114.5z" />
    <glyph glyph-name="scedilla" unicode="&#x15f;" horiz-adv-x="854" 
d="M774 317q0 -152 -123 -244.5t-325 -92.5q-133 0 -228 26l19 219q93 -41 217 -41q74 0 119 30t45 81q0 36 -23 61.5t-59.5 40.5t-80.5 29.5t-88 35t-80.5 50t-59.5 81.5t-23 122q0 143 110 234t322 91q89 0 184 -20l-12 -205q-93 27 -184 27q-74 0 -112 -28t-38 -77
q0 -35 23 -59.5t60 -41t82 -31.5t90 -37t82 -51.5t60 -80.5t23 -119zM512 -82q148 -202 -41 -397h-197q51 63 71 112t9 102.5t-59 114.5z" />
    <glyph glyph-name="Scaron" unicode="&#x160;" horiz-adv-x="1030" 
d="M956 424q0 -194 -148.5 -320.5t-385.5 -126.5q-184 0 -320 37l29 256q140 -59 301 -59q102 0 167 44.5t65 135.5q0 53 -32 91.5t-83.5 63.5t-113.5 47.5t-124 53t-113.5 71t-83.5 110t-32 161.5q0 188 138 302t384 114q118 0 250 -27l-25 -233q-119 39 -237 39
q-113 0 -170 -44.5t-57 -121.5q0 -39 20 -70.5t54.5 -53.5t79 -41.5t93 -39.5t97.5 -42t93.5 -53.5t79 -70t54.5 -96t20 -127.5zM860 1640l-338 -176l-340 168l64 140l282 -115l275 112z" />
    <glyph glyph-name="scaron" unicode="&#x161;" horiz-adv-x="854" 
d="M774 317q0 -152 -123 -244.5t-325 -92.5q-133 0 -228 26l19 219q93 -41 217 -41q74 0 119 30t45 81q0 36 -23 61.5t-59.5 40.5t-80.5 29.5t-88 35t-80.5 50t-59.5 81.5t-23 122q0 143 110 234t322 91q89 0 184 -20l-12 -205q-93 27 -184 27q-74 0 -112 -28t-38 -77
q0 -35 23 -59.5t60 -41t82 -31.5t90 -37t82 -51.5t60 -80.5t23 -119zM745 1423l-315 -276l-313 274l102 123l213 -168l211 168z" />
    <glyph glyph-name="uni0162" unicode="&#x162;" horiz-adv-x="1044" 
d="M1014 1155h-359v-1155h-266v1155h-358v227h983v-227zM614 -82q148 -202 -41 -397h-196q51 62 71 111.5t8.5 103t-59.5 114.5z" />
    <glyph glyph-name="uni0163" unicode="&#x163;" horiz-adv-x="768" 
d="M705 8q-115 -28 -222 -28q-168 0 -231.5 69.5t-63.5 249.5v516h-176v203h176v313l261 70v-383h247v-203h-247v-446q0 -97 26 -132.5t94 -35.5t117 14zM528 -82q148 -202 -41 -397h-196q51 62 71 111.5t8.5 103t-59.5 114.5z" />
    <glyph glyph-name="Tcaron" unicode="&#x164;" horiz-adv-x="1044" 
d="M1014 1155h-359v-1155h-266v1155h-358v227h983v-227zM860 1640l-338 -176l-340 168l64 140l282 -115l275 112z" />
    <glyph glyph-name="tcaron" unicode="&#x165;" horiz-adv-x="776" 
d="M705 8q-115 -28 -222 -28q-168 0 -231.5 69.5t-63.5 249.5v516h-176v203h176v313l261 70v-383h247v-203h-247v-446q0 -97 26 -132.5t94 -35.5t117 14zM844 1544l-144 -411l-168 36l103 420z" />
    <glyph glyph-name="Tbar" unicode="&#x166;" horiz-adv-x="1044" 
d="M389 819v336h-358v227h983v-227h-359v-336h215v-217h-215v-602h-266v602h-213v217h213z" />
    <glyph glyph-name="tbar" unicode="&#x167;" horiz-adv-x="819" 
d="M467 643h246v-190h-246v-97q0 -89 26 -122t95 -33q65 0 114 14l19 -207q-110 -28 -221 -28q-168 0 -231.5 69.5t-63.5 249.5v154h-176v190h176v184h-176v191h176v313l262 70v-383h246v-191h-246v-184z" />
    <glyph glyph-name="Utilde" unicode="&#x168;" horiz-adv-x="1394" 
d="M1251 537q0 -280 -147.5 -420t-425.5 -140q-91 0 -166.5 14t-130.5 39t-96.5 61.5t-68 78.5t-43.5 94t-23.5 103.5t-6.5 111.5v903h267v-886q0 -69 13 -120.5t44 -93t88.5 -62.5t140.5 -21q156 0 223.5 73t67.5 248v862h264v-845zM1081 1659q-94 -168 -256 -168
q-48 0 -89 15t-65 33t-53 33t-55 15q-68 0 -119 -88l-129 90q94 168 256 168q48 0 89 -15t65 -33t53 -33t56 -15q36 0 63.5 21t54.5 65z" />
    <glyph glyph-name="utilde" unicode="&#x169;" horiz-adv-x="1167" 
d="M1026 0h-246q0 113 13 182h-2q-48 -93 -136.5 -147.5t-210.5 -54.5q-83 0 -143.5 25t-94.5 70.5t-49.5 101.5t-15.5 126v715h260v-651q0 -83 28.5 -125.5t98.5 -42.5q99 0 167.5 96t68.5 231v492h262v-1018zM952 1364q-92 -182 -250 -182q-46 0 -85 16t-62 36t-51 36
t-53 16q-62 0 -113 -92l-125 96q92 183 250 183q46 0 85 -16.5t61.5 -36t50.5 -36t53 -16.5q63 0 114 92z" />
    <glyph glyph-name="Umacron" unicode="&#x16a;" horiz-adv-x="1394" 
d="M1251 537q0 -280 -147.5 -420t-425.5 -140q-91 0 -166.5 14t-130.5 39t-96.5 61.5t-68 78.5t-43.5 94t-23.5 103.5t-6.5 111.5v903h267v-886q0 -69 13 -120.5t44 -93t88.5 -62.5t140.5 -21q156 0 223.5 73t67.5 248v862h264v-845zM1001 1518h-600v165h600v-165z" />
    <glyph glyph-name="umacron" unicode="&#x16b;" horiz-adv-x="1167" 
d="M1026 0h-246q0 113 13 182h-2q-48 -93 -136.5 -147.5t-210.5 -54.5q-83 0 -143.5 25t-94.5 70.5t-49.5 101.5t-15.5 126v715h260v-651q0 -83 28.5 -125.5t98.5 -42.5q99 0 167.5 96t68.5 231v492h262v-1018zM860 1229h-551v188h551v-188z" />
    <glyph glyph-name="Ubreve" unicode="&#x16c;" horiz-adv-x="1394" 
d="M1251 537q0 -280 -147.5 -420t-425.5 -140q-91 0 -166.5 14t-130.5 39t-96.5 61.5t-68 78.5t-43.5 94t-23.5 103.5t-6.5 111.5v903h267v-886q0 -69 13 -120.5t44 -93t88.5 -62.5t140.5 -21q156 0 223.5 73t67.5 248v862h264v-845zM989 1759q0 -120 -77.5 -199t-215.5 -79
q-137 0 -212.5 79.5t-75.5 198.5h155q0 -50 38 -83.5t97 -33.5q61 0 97 33t36 84h158z" />
    <glyph glyph-name="ubreve" unicode="&#x16d;" horiz-adv-x="1167" 
d="M1026 0h-246q0 113 13 182h-2q-48 -93 -136.5 -147.5t-210.5 -54.5q-83 0 -143.5 25t-94.5 70.5t-49.5 101.5t-15.5 126v715h260v-651q0 -83 28.5 -125.5t98.5 -42.5q99 0 167.5 96t68.5 231v492h262v-1018zM862 1475q0 -63 -16.5 -118.5t-49.5 -100t-88.5 -70
t-127.5 -25.5t-127 26t-87 70.5t-47.5 99.5t-15.5 118h168q0 -56 28.5 -90.5t82.5 -34.5q52 0 81 31.5t29 93.5h170z" />
    <glyph glyph-name="Uring" unicode="&#x16e;" horiz-adv-x="1394" 
d="M1251 537q0 -280 -147.5 -420t-425.5 -140q-91 0 -166.5 14t-130.5 39t-96.5 61.5t-68 78.5t-43.5 94t-23.5 103.5t-6.5 111.5v903h267v-886q0 -69 13 -120.5t44 -93t88.5 -62.5t140.5 -21q156 0 223.5 73t67.5 248v862h264v-845zM940 1597q0 -96 -71.5 -163.5
t-170.5 -67.5q-100 0 -168.5 64.5t-68.5 162.5q0 97 70 163.5t169 66.5q101 0 170.5 -64.5t69.5 -161.5zM797 1595q0 40 -28.5 69.5t-68.5 29.5t-69 -29.5t-29 -69.5t29 -69t69 -29t68.5 29t28.5 69z" />
    <glyph glyph-name="uring" unicode="&#x16f;" horiz-adv-x="1167" 
d="M1026 0h-246q0 113 13 182h-2q-48 -93 -136.5 -147.5t-210.5 -54.5q-83 0 -143.5 25t-94.5 70.5t-49.5 101.5t-15.5 126v715h260v-651q0 -83 28.5 -125.5t98.5 -42.5q99 0 167.5 96t68.5 231v492h262v-1018zM842 1354q0 -105 -77 -177.5t-185 -72.5q-109 0 -185 70.5
t-76 177.5q0 106 78 178t185 72q110 0 185 -71t75 -177zM688 1352q0 44 -31 76t-75 32t-76.5 -32t-32.5 -76t32.5 -76.5t76.5 -32.5t75 32t31 77z" />
    <glyph glyph-name="Uhungarumlaut" unicode="&#x170;" horiz-adv-x="1394" 
d="M1251 537q0 -280 -147.5 -420t-425.5 -140q-91 0 -166.5 14t-130.5 39t-96.5 61.5t-68 78.5t-43.5 94t-23.5 103.5t-6.5 111.5v903h267v-886q0 -69 13 -120.5t44 -93t88.5 -62.5t140.5 -21q156 0 223.5 73t67.5 248v862h264v-845zM1257 1632l-358 -170l-76 123l340 205z
M799 1657l-338 -197l-80 117l313 231z" />
    <glyph glyph-name="uhungarumlaut" unicode="&#x171;" horiz-adv-x="1167" 
d="M1026 0h-246q0 113 13 182h-2q-48 -93 -136.5 -147.5t-210.5 -54.5q-83 0 -143.5 25t-94.5 70.5t-49.5 101.5t-15.5 126v715h260v-651q0 -83 28.5 -125.5t98.5 -42.5q99 0 167.5 96t68.5 231v492h262v-1018zM1116 1415l-319 -268l-115 104l293 301zM702 1442l-292 -295
l-123 104l264 318z" />
    <glyph glyph-name="Uogonek" unicode="&#x172;" horiz-adv-x="1394" 
d="M1251 537q0 -359 -247 -492q-92 -49 -147.5 -116.5t-55.5 -125.5q0 -29 19 -46t50 -17q58 0 109 63l100 -120q-117 -142 -295 -142q-114 0 -173.5 50t-59.5 135q0 138 143 258q-14 -2 -49 -2q-502 0 -502 497v903h267v-886q0 -69 13 -120.5t44 -93t88.5 -62.5t140.5 -21
q156 0 223.5 73t67.5 248v862h264v-845z" />
    <glyph glyph-name="uogonek" unicode="&#x173;" horiz-adv-x="1167" 
d="M1151 -305q-55 -73 -135.5 -113.5t-169.5 -40.5q-96 0 -154.5 47t-58.5 138q0 156 174 292q-17 84 -14 156h-2q-53 -90 -140 -142t-207 -52q-83 0 -143.5 25t-94.5 70.5t-49.5 101.5t-15.5 126v715h260v-651q0 -83 28.5 -125.5t98.5 -42.5q99 0 167.5 96t68.5 231v492
h262v-682q0 -184 31 -336q-180 -95 -180 -193q0 -29 18 -44t49 -15q28 0 57.5 18.5t49.5 47.5z" />
    <glyph glyph-name="Wcircumflex" unicode="&#x174;" horiz-adv-x="1947" 
d="M1898 1382l-352 -1382h-327l-201 762q-27 104 -53 285h-2q-15 -142 -52 -279l-200 -768h-310l-352 1382h285l188 -764q31 -123 51 -280h2q24 157 54 272l211 772h282l213 -768q43 -163 56 -268h2q20 137 51 264l188 772h266zM1313 1604l-64 -140l-284 115l-273 -113
l-57 131l338 175z" />
    <glyph glyph-name="wcircumflex" unicode="&#x175;" horiz-adv-x="1630" 
d="M1610 1018l-320 -1018h-284l-148 451q-37 132 -57 229h-2q-24 -113 -70 -256l-129 -424h-270l-312 1018h287l109 -385q57 -209 80 -307h2q22 126 73 295l123 397h252l125 -385q62 -208 82 -307h4q24 124 70 295l116 397h269zM1128 1268l-102 -121l-213 166l-211 -166
l-100 119l313 278z" />
    <glyph glyph-name="Ycircumflex" unicode="&#x176;" horiz-adv-x="1148" 
d="M1145 1382l-440 -893v-489h-267v487l-432 895h291l182 -397q48 -107 94 -229h5q33 90 110 256l174 370h283zM911 1604l-63 -140l-285 115l-272 -113l-58 131l338 175z" />
    <glyph glyph-name="ycircumflex" unicode="&#x177;" horiz-adv-x="1028" 
d="M1022 1018l-404 -1075q-50 -132 -102.5 -219.5t-115.5 -139t-132.5 -73t-161.5 -21.5q-75 0 -143 14l31 226q68 -21 129 -21q162 0 231 201l33 90l-377 1018h293l137 -389q40 -123 80 -281h2q36 146 99 324l120 346h281zM831 1268l-102 -121l-213 166l-211 -166l-100 119
l313 278z" />
    <glyph glyph-name="Ydieresis" unicode="&#x178;" horiz-adv-x="1148" 
d="M1145 1382l-440 -893v-489h-267v487l-432 895h291l182 -397q48 -107 94 -229h5q33 90 110 256l174 370h283zM938 1608q0 -57 -40 -96t-97 -39t-96 39t-39 96t39 96t96 39t97 -39t40 -96zM498 1608q0 -57 -40.5 -96t-97.5 -39t-97 39t-40 96t40 96t97 39t97.5 -39
t40.5 -96z" />
    <glyph glyph-name="Zacute" unicode="&#x179;" horiz-adv-x="1099" 
d="M1010 0h-918v205l498 811q64 98 90 131q-98 -4 -252 -4h-319v239h892v-215l-526 -829q-39 -64 -63 -96q35 4 299 4h299v-246zM895 1575l-442 -109l-43 144l426 153z" />
    <glyph glyph-name="zacute" unicode="&#x17a;" horiz-adv-x="921" 
d="M825 0h-733v186l410 600q-78 -4 -217 -4h-181v236h713v-187l-401 -593q43 2 231 2h178v-240zM774 1368l-371 -221l-96 141l346 256z" />
    <glyph glyph-name="Zdotaccent" unicode="&#x17b;" horiz-adv-x="1099" 
d="M1010 0h-918v205l498 811q64 98 90 131q-98 -4 -252 -4h-319v239h892v-215l-526 -829q-39 -64 -63 -96q35 4 299 4h299v-246zM698 1610q0 -59 -42.5 -100.5t-102.5 -41.5t-102.5 41.5t-42.5 100.5q0 57 42.5 99t102.5 42t102.5 -41.5t42.5 -99.5z" />
    <glyph glyph-name="zdotaccent" unicode="&#x17c;" horiz-adv-x="921" 
d="M825 0h-733v186l410 600q-78 -4 -217 -4h-181v236h713v-187l-401 -593q43 2 231 2h178v-240zM623 1327q0 -65 -48.5 -111.5t-115.5 -46.5q-68 0 -116 46t-48 112t48 113t116 47t116 -46.5t48 -113.5z" />
    <glyph glyph-name="Zcaron" unicode="&#x17d;" horiz-adv-x="1099" 
d="M1010 0h-918v205l498 811q64 98 90 131q-98 -4 -252 -4h-319v239h892v-215l-526 -829q-39 -64 -63 -96q35 4 299 4h299v-246zM893 1640l-338 -176l-340 168l64 140l282 -115l275 112z" />
    <glyph glyph-name="zcaron" unicode="&#x17e;" horiz-adv-x="921" 
d="M825 0h-733v186l410 600q-78 -4 -217 -4h-181v236h713v-187l-401 -593q43 2 231 2h178v-240zM778 1423l-315 -276l-313 274l102 123l213 -168l211 168z" />
    <glyph glyph-name="longs" unicode="&#x17f;" horiz-adv-x="536" 
d="M651 1505l-20 -215q-33 8 -78 8q-83 0 -118.5 -51.5t-35.5 -167.5v-1079h-262v1067q0 444 402 444q63 0 112 -6z" />
    <glyph glyph-name="florin" unicode="&#x192;" horiz-adv-x="929" 
d="M518 664l-45 -449q-22 -206 -76 -326.5t-146 -173.5t-237 -53q-77 0 -151 19l39 227q79 -27 131 -27q83 0 120 58t54 219l49 506h-227v200h245l23 203q24 227 129 338t305 111q78 0 148 -15l-29 -215q-63 17 -127 17q-73 0 -113.5 -50t-52.5 -168l-20 -221h294v-200h-313
z" />
    <glyph glyph-name="Gcaron" unicode="&#x1e6;" horiz-adv-x="1382" 
d="M1245 66q-214 -86 -473 -86q-337 0 -517.5 178t-180.5 491q0 226 86.5 394.5t261.5 264t420 95.5q201 0 391 -60l-53 -243q-157 65 -355 65q-119 0 -210 -38t-145 -105t-81 -152t-27 -186q0 -222 113.5 -343.5t327.5 -121.5q93 0 176 25v481h266v-659zM1106 1640
l-338 -176l-340 168l64 140l282 -115l275 112z" />
    <glyph glyph-name="gcaron" unicode="&#x1e7;" horiz-adv-x="1116" 
d="M1065 -109q0 -169 -156 -287t-403 -118q-206 0 -321 78t-115 225q0 77 45.5 146t111.5 104q-46 22 -73 63t-27 93q0 59 34 108.5t87 73.5q-72 39 -112 109.5t-40 168.5q0 78 29 147t83.5 122.5t141.5 84.5t195 31q80 0 166 -22h346v-205h-139q51 -48 51 -129
q0 -168 -112.5 -267.5t-324.5 -99.5q-36 0 -79 9q-24 -10 -37 -28t-13 -38q0 -35 33.5 -47.5t124.5 -15.5l158 -7q346 -13 346 -299zM719 670q0 83 -47.5 131.5t-136.5 48.5q-87 0 -138 -50t-51 -128q0 -83 49 -129.5t140 -46.5q86 0 135 46t49 128zM805 -143q0 58 -39.5 93
t-120.5 38l-176 6h-47q-94 -69 -94 -156q0 -70 59 -110.5t158 -40.5q123 0 191.5 47.5t68.5 122.5zM872 1423l-315 -276l-313 274l102 123l213 -168l211 168z" />
    <glyph glyph-name="Aringacute" unicode="&#x1fa;" horiz-adv-x="1282" 
d="M1280 0h-295l-94 283h-524l-97 -283h-268l477 1382h314zM823 494l-141 411q-35 103 -55 191h-2q-18 -68 -54 -191l-141 -411h393zM854 1593q0 -75 -64 -126.5t-155 -51.5q-90 0 -151.5 49t-61.5 125q0 75 64 126.5t155 51.5q90 0 151.5 -49t61.5 -125zM723 1591
q0 34 -24.5 58t-59.5 24q-36 0 -61 -24.5t-25 -57.5q0 -34 24.5 -58t59.5 -24q36 0 61 24.5t25 57.5zM936 1874l-406 -82l-32 98l387 117z" />
    <glyph glyph-name="aringacute" unicode="&#x1fb;" horiz-adv-x="1073" 
d="M936 0h-250q0 106 10 172l-2 2q-37 -87 -124.5 -140.5t-200.5 -53.5q-135 0 -213 81t-78 209q0 118 73.5 199t203.5 118.5t311 37.5v37q0 94 -41.5 136t-141.5 42q-67 0 -152 -20t-155 -50l-43 201q172 69 385 69q116 0 196.5 -23.5t127 -71t66.5 -111t20 -152.5v-420
q0 -150 8 -262zM666 426v27q-96 0 -163.5 -11.5t-104 -33t-52.5 -48t-16 -61.5q0 -51 33.5 -85t89.5 -34q92 0 152.5 75t60.5 171zM741 1325q0 -90 -67 -154.5t-160 -64.5q-96 0 -161.5 61.5t-65.5 155.5q0 92 66.5 154.5t160.5 62.5q96 0 161.5 -61t65.5 -154zM610 1325
q0 40 -28 68t-68 28q-38 0 -66 -28t-28 -68t28 -69t66 -29q40 0 68 29t28 69zM834 1692l-428 -97l-41 119l409 135z" />
    <glyph glyph-name="AEacute" unicode="&#x1fc;" horiz-adv-x="1607" 
d="M1493 0h-748v305h-403l-147 -305h-273l684 1382h873v-223h-478v-340h461v-217h-461v-373h492v-229zM745 514v645h-4q-52 -131 -127 -289l-182 -356h313zM1309 1575l-443 -109l-43 144l426 153z" />
    <glyph glyph-name="aeacute" unicode="&#x1fd;" horiz-adv-x="1638" 
d="M1561 584q0 -50 -9 -121h-630q-3 -279 280 -279q152 0 295 64l29 -201q-165 -67 -369 -67q-159 0 -263.5 55t-145.5 151h-3q-50 -93 -145.5 -149.5t-228.5 -56.5q-136 0 -214.5 81t-78.5 209q0 177 156.5 267t431.5 90v51q0 82 -46 122t-153 40q-67 0 -145.5 -20
t-141.5 -52l-47 207q170 65 379 65q226 0 319 -127h3q47 57 126 92t173 35q108 0 191.5 -35t134.5 -98t76.5 -144.5t25.5 -178.5zM1300 639q3 98 -44.5 153.5t-131.5 55.5q-81 0 -134 -56.5t-64 -152.5h374zM666 426v31q-97 0 -164.5 -12t-104.5 -34.5t-53 -49.5t-16 -62
q0 -51 33 -85t88 -34q93 0 155 75t62 171zM1200 1368l-371 -221l-96 141l346 256z" />
    <glyph glyph-name="Oslashacute" unicode="&#x1fe;" horiz-adv-x="1439" 
d="M1372 707q0 -168 -52.5 -306.5t-143.5 -230.5t-215 -142.5t-267 -50.5q-95 0 -182 19l-92 -207l-187 84l93 205q-130 83 -194 236t-64 360q0 167 53.5 305.5t145 231t214.5 143.5t262 51q86 0 168 -16l93 204l186 -82l-88 -198q131 -78 200.5 -230.5t69.5 -375.5z
M1098 688q0 133 -32 232t-85 151l-363 -850q36 -10 91 -10q78 0 146 27.5t123.5 83.5t87.5 150t32 216zM807 1165h-2q-45 9 -86 9q-75 0 -141.5 -30t-120 -86.5t-84.5 -148.5t-31 -207q0 -125 30.5 -221.5t76.5 -150.5zM983 1683l-442 -108l-43 143l426 154z" />
    <glyph glyph-name="oslashacute" unicode="&#x1ff;" horiz-adv-x="1136" 
d="M1069 528q0 -241 -145 -394.5t-377 -153.5q-93 0 -166 20l-100 -201l-144 66l103 203q-172 123 -172 424q0 240 143.5 393t378.5 153q74 0 139 -12l94 180l144 -67l-93 -178q195 -128 195 -433zM819 514q0 155 -76 219l-247 -534q27 -11 71 -11q116 0 184 84t68 242z
M618 829q-35 5 -47 5q-50 0 -94 -17.5t-80.5 -53.5t-58 -98.5t-21.5 -144.5q0 -139 60 -211zM848 1368l-371 -221l-96 141l346 256z" />
    <glyph glyph-name="Scommaaccent" unicode="&#x218;" horiz-adv-x="1030" 
d="M956 424q0 -194 -148.5 -320.5t-385.5 -126.5q-184 0 -320 37l29 256q140 -59 301 -59q102 0 167 44.5t65 135.5q0 53 -32 91.5t-83.5 63.5t-113.5 47.5t-124 53t-113.5 71t-83.5 110t-32 161.5q0 188 138 302t384 114q118 0 250 -27l-25 -233q-119 39 -237 39
q-113 0 -170 -44.5t-57 -121.5q0 -39 20 -70.5t54.5 -53.5t79 -41.5t93 -39.5t97.5 -42t93.5 -53.5t79 -70t54.5 -96t20 -127.5zM516 -96q57 0 91 -37.5t34 -97.5q0 -81 -70.5 -154.5t-216.5 -110.5l-43 95q57 30 80 55.5t23 54.5q0 18 -9.5 41t-9.5 39q0 47 32.5 81
t88.5 34z" />
    <glyph glyph-name="scommaaccent" unicode="&#x219;" horiz-adv-x="854" 
d="M774 317q0 -152 -123 -244.5t-325 -92.5q-133 0 -228 26l19 219q93 -41 217 -41q74 0 119 30t45 81q0 36 -23 61.5t-59.5 40.5t-80.5 29.5t-88 35t-80.5 50t-59.5 81.5t-23 122q0 143 110 234t322 91q89 0 184 -20l-12 -205q-93 27 -184 27q-74 0 -112 -28t-38 -77
q0 -35 23 -59.5t60 -41t82 -31.5t90 -37t82 -51.5t60 -80.5t23 -119zM442 -96q57 0 91 -37.5t34 -97.5q0 -81 -70 -154.5t-216 -110.5l-43 95q56 30 79 55.5t23 54.5q0 18 -9 41t-9 39q0 47 32 81t88 34z" />
    <glyph glyph-name="Tcommaaccent" unicode="&#x21a;" horiz-adv-x="1044" 
d="M1014 1155h-359v-1155h-266v1155h-358v227h983v-227zM535 -96q57 0 90.5 -37.5t33.5 -97.5q0 -81 -70 -154.5t-216 -110.5l-43 95q56 30 79 55.5t23 54.5q0 18 -9 41t-9 39q0 47 32.5 81t88.5 34z" />
    <glyph glyph-name="tcommaaccent" unicode="&#x21b;" horiz-adv-x="768" 
d="M705 8q-115 -28 -222 -28q-168 0 -231.5 69.5t-63.5 249.5v516h-176v203h176v313l261 70v-383h247v-203h-247v-446q0 -97 26 -132.5t94 -35.5t117 14zM457 -96q57 0 91 -37.5t34 -97.5q0 -81 -70.5 -154.5t-216.5 -110.5l-43 95q56 30 79 55.5t23 54.5q0 18 -9 41t-9 39
q0 47 32.5 81t88.5 34z" />
    <glyph glyph-name="dotlessj" unicode="&#x237;" horiz-adv-x="555" 
d="M412 -76q0 -216 -91 -324t-305 -108q-70 0 -145 21l18 223q66 -25 121 -25q81 0 111.5 41.5t30.5 145.5v1120h260v-1094z" />
    <glyph glyph-name="uni02BF" unicode="&#x2bf;" horiz-adv-x="391" 
d="M350 907v-166q-151 0 -230 76t-79 209q0 87 46 154.5t115.5 101t147.5 33.5v-164q-51 0 -82.5 -34t-31.5 -89q0 -57 30.5 -89t83.5 -32z" />
    <glyph glyph-name="circumflex" unicode="&#x2c6;" horiz-adv-x="872" 
d="M748 1268l-103 -121l-213 166l-211 -166l-100 119l313 278z" />
    <glyph glyph-name="caron" unicode="&#x2c7;" horiz-adv-x="872" 
d="M745 1423l-315 -276l-313 274l102 123l213 -168l211 168z" />
    <glyph glyph-name="breve" unicode="&#x2d8;" horiz-adv-x="763" 
d="M659 1475q0 -63 -16.5 -118.5t-49.5 -100t-88.5 -70t-127.5 -25.5t-127 26t-87 70.5t-47.5 99.5t-15.5 118h168q0 -56 28.5 -90.5t82.5 -34.5q52 0 81 31.5t29 93.5h170z" />
    <glyph glyph-name="dotaccent" unicode="&#x2d9;" horiz-adv-x="587" 
d="M449 1327q0 -65 -48.5 -111.5t-115.5 -46.5q-68 0 -116 46t-48 112t48 113t116 47t116 -46.5t48 -113.5z" />
    <glyph glyph-name="ring" unicode="&#x2da;" horiz-adv-x="747" 
d="M635 1354q0 -105 -77 -177.5t-185 -72.5q-109 0 -184.5 70.5t-75.5 177.5q0 106 77.5 178t184.5 72q110 0 185 -71t75 -177zM481 1352q0 44 -31 76t-75 32t-76.5 -32t-32.5 -76t32.5 -76.5t76.5 -32.5t75 32t31 77z" />
    <glyph glyph-name="ogonek" unicode="&#x2db;" horiz-adv-x="829" 
d="M158 20l245 -20q-94 -47 -137 -96.5t-43 -96.5q0 -30 19 -46.5t49 -16.5q28 0 57 18t49 48l101 -117q-55 -74 -134 -113t-169 -39q-98 0 -156.5 47t-58.5 138q0 79 47 156.5t131 137.5z" />
    <glyph glyph-name="tilde" unicode="&#x2dc;" horiz-adv-x="956" 
d="M848 1364q-92 -182 -250 -182q-46 0 -85.5 16t-62 36t-51 36t-53.5 16q-62 0 -113 -92l-124 96q92 183 249 183q46 0 85 -16.5t61.5 -36t50.5 -36t53 -16.5q64 0 115 92z" />
    <glyph glyph-name="hungarumlaut" unicode="&#x2dd;" horiz-adv-x="1032" 
d="M956 1415l-319 -268l-115 104l293 301zM543 1442l-293 -295l-123 104l264 318z" />
    <glyph glyph-name="uni0312" unicode="&#x312;" horiz-adv-x="999" 
d="M379 1149q-56 0 -90.5 40t-34.5 97q0 35 15 71.5t46.5 73t89.5 68t136 49.5l43 -94q-103 -50 -103 -108q0 -18 9.5 -41t9.5 -41q0 -50 -34.5 -82.5t-86.5 -32.5z" />
    <glyph glyph-name="uni0326" unicode="&#x326;" horiz-adv-x="645" 
d="M328 -96q57 0 91 -37.5t34 -97.5q0 -81 -70.5 -154.5t-216.5 -110.5l-43 95q56 30 79 55.5t23 54.5q0 18 -9 41t-9 39q0 47 32.5 81t88.5 34z" />
    <glyph glyph-name="uni037E" unicode="&#x37e;" horiz-adv-x="610" 
d="M496 725q0 -69 -48.5 -118.5t-117.5 -49.5t-118.5 49.5t-49.5 118.5q0 68 49.5 117t118.5 49t117.5 -49t48.5 -117zM328 305q89 0 136 -77q57 -94 14 -235q-53 -177 -247 -347l-108 96q68 74 97 131.5t24.5 100t-37.5 83.5q-28 33 -32.5 76.5t11 81.5t53.5 64t89 26z" />
    <glyph glyph-name="tonos" unicode="&#x384;" horiz-adv-x="786" 
d="M520 1507l-86 -379l-184 19l43 381z" />
    <glyph glyph-name="dieresistonos" unicode="&#x385;" horiz-adv-x="1118" 
d="M946 1323q0 -53 -36 -89t-87 -36q-53 0 -89 35.5t-36 89.5q0 51 36 86t89 35q51 0 87 -35t36 -86zM664 1497l-74 -371l-156 13l29 370zM381 1323q0 -53 -35.5 -89t-87.5 -36q-53 0 -89 35.5t-36 89.5q0 51 36 86t89 35q51 0 87 -35t36 -86z" />
    <glyph glyph-name="Alphatonos" unicode="&#x386;" horiz-adv-x="1282" 
d="M1280 0h-295l-94 283h-524l-97 -283h-268l477 1382h314zM823 494l-141 411q-35 103 -55 191h-2q-18 -68 -54 -191l-141 -411h393zM246 1507l-86 -379l-185 19l43 381z" />
    <glyph glyph-name="anoteleia" unicode="&#x387;" horiz-adv-x="598" 
d="M457 1018q0 -67 -46.5 -114.5t-113.5 -47.5t-114.5 48t-47.5 114t47.5 114t114.5 48t113.5 -47.5t46.5 -114.5z" />
    <glyph glyph-name="Epsilontonos" unicode="&#x388;" horiz-adv-x="1009" 
d="M895 0h-752v1382h752v-223h-485v-340h460v-217h-460v-373h485v-229zM88 1507l-86 -379l-184 19l43 381z" />
    <glyph glyph-name="Etatonos" unicode="&#x389;" horiz-adv-x="1404" 
d="M1264 0h-269v600h-585v-600h-267v1382h267v-553h585v553h269v-1382zM88 1507l-86 -379l-184 19l43 381z" />
    <glyph glyph-name="Iotatonos" unicode="&#x38a;" horiz-adv-x="552" 
d="M410 0h-267v1382h267v-1382zM88 1507l-86 -379l-184 19l43 381z" />
    <glyph glyph-name="Omicrontonos" unicode="&#x38c;" horiz-adv-x="1439" 
d="M1372 713q0 -168 -53.5 -308t-145.5 -233t-215 -144t-262 -51q-310 0 -469 183.5t-159 509.5q0 168 53.5 308t145 232.5t214.5 143.5t262 51q310 0 469.5 -183t159.5 -509zM1087 682q0 226 -92.5 354.5t-273.5 128.5q-162 0 -265.5 -123t-103.5 -340q0 -227 92.5 -355
t274.5 -128q162 0 265 122.5t103 340.5zM172 1507l-86 -379l-184 19l43 381z" />
    <glyph glyph-name="Upsilontonos" unicode="&#x38e;" horiz-adv-x="1148" 
d="M1145 1382l-440 -893v-489h-267v487l-432 895h291l182 -397q48 -107 94 -229h5q33 90 110 256l174 370h283zM-4 1507l-86 -379l-184 19l43 381z" />
    <glyph glyph-name="Omegatonos" unicode="&#x38f;" horiz-adv-x="1460" 
d="M1384 0h-538v211q122 93 180.5 210.5t58.5 293.5q0 210 -90 331t-268 121q-156 0 -255 -120.5t-99 -325.5q0 -181 53.5 -295t187.5 -215v-211h-538v215h252q-112 78 -176 205.5t-64 302.5q0 305 186 493.5t478 188.5q132 0 242 -39t194.5 -116.5t132 -204.5t47.5 -293
q0 -178 -67 -315.5t-179 -221.5h262v-215zM176 1507l-86 -379l-184 19l43 381z" />
    <glyph glyph-name="iotadieresistonos" unicode="&#x390;" horiz-adv-x="565" 
d="M512 -8q-65 -10 -104 -10q-151 0 -209 64t-58 235v737h262v-680q0 -89 20.5 -114t88.5 -25v-207zM709 1323q0 -53 -35.5 -89t-87.5 -36q-53 0 -89 35.5t-36 89.5q0 51 36 86t89 35q51 0 87 -35t36 -86zM426 1497l-74 -371l-155 13l28 370zM143 1323q0 -53 -35.5 -89
t-87.5 -36q-53 0 -88.5 35.5t-35.5 89.5q0 51 36 86t88 35q51 0 87 -35t36 -86z" />
    <glyph glyph-name="Alpha" unicode="&#x391;" horiz-adv-x="1282" 
d="M1280 0h-295l-94 283h-524l-97 -283h-268l477 1382h314zM823 494l-141 411q-35 103 -55 191h-2q-18 -68 -54 -191l-141 -411h393z" />
    <glyph glyph-name="Beta" unicode="&#x392;" horiz-adv-x="1187" 
d="M1104 426q0 -84 -31 -158t-94.5 -136.5t-174.5 -99t-257 -36.5q-36 0 -171.5 2t-232.5 2v1380q214 11 459 11q223 0 343 -88.5t120 -253.5q0 -104 -55 -187.5t-154 -122.5v-4q111 -23 179.5 -108.5t68.5 -200.5zM782 1006q0 172 -223 172q-63 0 -149 -4v-363
q33 -2 108 -2q133 0 198.5 51t65.5 146zM819 418q0 96 -76.5 144t-216.5 48q-87 0 -116 -2v-391q99 -6 147 -6q127 0 194.5 56.5t67.5 150.5z" />
    <glyph glyph-name="Gamma" unicode="&#x393;" horiz-adv-x="892" 
d="M874 1155h-464v-1155h-267v1382h731v-227z" />
    <glyph glyph-name="Delta" unicode="&#x394;" horiz-adv-x="1257" 
d="M1204 0h-1149v201l406 1181h325l418 -1181v-201zM901 240l-231 682q-35 105 -54 208h-4q-15 -78 -55 -215l-227 -675h571z" />
    <glyph glyph-name="Epsilon" unicode="&#x395;" horiz-adv-x="1009" 
d="M895 0h-752v1382h752v-223h-485v-340h460v-217h-460v-373h485v-229z" />
    <glyph glyph-name="Zeta" unicode="&#x396;" horiz-adv-x="1099" 
d="M1010 0h-918v205l498 811q64 98 90 131q-98 -4 -252 -4h-319v239h892v-215l-526 -829q-39 -64 -63 -96q35 4 299 4h299v-246z" />
    <glyph glyph-name="Eta" unicode="&#x397;" horiz-adv-x="1404" 
d="M1264 0h-269v600h-585v-600h-267v1382h267v-553h585v553h269v-1382z" />
    <glyph glyph-name="Theta" unicode="&#x398;" horiz-adv-x="1439" 
d="M1372 711q0 -167 -53 -306.5t-144.5 -232.5t-214.5 -144t-264 -51q-310 0 -469 184t-159 513q0 167 53.5 305.5t145 231t214.5 143.5t262 51q140 0 254 -42.5t198.5 -126.5t130.5 -217.5t46 -307.5zM1092 690q0 231 -95.5 354t-277.5 123q-74 0 -140 -29.5t-118 -85.5
t-82.5 -146.5t-30.5 -203.5q0 -228 91 -356.5t276 -128.5q72 0 137.5 28t120 83t87 148.5t32.5 213.5zM940 608h-440v205h440v-205z" />
    <glyph glyph-name="Iota" unicode="&#x399;" horiz-adv-x="552" 
d="M410 0h-267v1382h267v-1382z" />
    <glyph glyph-name="Kappa" unicode="&#x39a;" horiz-adv-x="1222" 
d="M1204 0h-350l-444 664v-664h-267v1382h267v-626l446 626h328l-508 -667z" />
    <glyph glyph-name="Lambda" unicode="&#x39b;" horiz-adv-x="1286" 
d="M1270 0h-295l-260 809q-55 171 -80 274h-2q-39 -155 -88 -290l-260 -793h-269l467 1382h322z" />
    <glyph glyph-name="Mu" unicode="&#x39c;" horiz-adv-x="1804" 
d="M1741 0h-277l-100 668q-25 175 -43 346h-4q-39 -189 -78 -316l-223 -698h-258l-213 649q-59 190 -90 365h-4q-13 -166 -37 -369l-80 -645h-268l210 1382h314l233 -714q47 -150 76 -291h4q48 200 76 287l235 718h312z" />
    <glyph glyph-name="Nu" unicode="&#x39d;" horiz-adv-x="1431" 
d="M1288 0h-352l-428 762q-88 172 -123 270q14 -212 14 -657v-375h-256v1382h353l417 -743q72 -127 134 -277q-15 261 -15 672v348h256v-1382z" />
    <glyph glyph-name="Xi" unicode="&#x39e;" horiz-adv-x="1114" 
d="M1008 1143h-902v239h902v-239zM887 598h-668v225h668v-225zM1022 0h-930v244h930v-244z" />
    <glyph glyph-name="Omicron" unicode="&#x39f;" horiz-adv-x="1439" 
d="M1372 713q0 -168 -53.5 -308t-145.5 -233t-215 -144t-262 -51q-310 0 -469 183.5t-159 509.5q0 168 53.5 308t145 232.5t214.5 143.5t262 51q310 0 469.5 -183t159.5 -509zM1087 682q0 226 -92.5 354.5t-273.5 128.5q-162 0 -265.5 -123t-103.5 -340q0 -227 92.5 -355
t274.5 -128q162 0 265 122.5t103 340.5z" />
    <glyph glyph-name="Pi" unicode="&#x3a0;" horiz-adv-x="1353" 
d="M1210 0h-266v1155h-534v-1155h-267v1382h1067v-1382z" />
    <glyph glyph-name="Rho" unicode="&#x3a1;" horiz-adv-x="1101" 
d="M1055 961q0 -215 -145.5 -351.5t-401.5 -136.5q-58 0 -98 6v-479h-267v1382q169 9 387 9q252 0 388.5 -112.5t136.5 -317.5zM778 934q0 237 -266 237q-71 0 -102 -2v-464q53 -11 112 -11q122 0 189 63t67 177z" />
    <glyph glyph-name="Sigma" unicode="&#x3a3;" horiz-adv-x="1056" 
d="M997 0h-905v201l422 483l-401 471v227h868v-233h-537l381 -447l-407 -462h579v-240z" />
    <glyph glyph-name="Tau" unicode="&#x3a4;" horiz-adv-x="1044" 
d="M1014 1155h-359v-1155h-266v1155h-358v227h983v-227z" />
    <glyph glyph-name="Upsilon" unicode="&#x3a5;" horiz-adv-x="1148" 
d="M1145 1382l-440 -893v-489h-267v487l-432 895h291l182 -397q48 -107 94 -229h5q33 90 110 256l174 370h283z" />
    <glyph glyph-name="Phi" unicode="&#x3a6;" horiz-adv-x="1687" 
d="M1620 705q0 -188 -84.5 -335t-230.5 -231.5t-334 -101.5v-152h-256v148q-313 10 -480 182.5t-167 464.5q0 140 48.5 259t135 204t205.5 138t258 65v147h256v-143q299 -9 474 -175.5t175 -469.5zM1343 690q0 192 -96 305.5t-276 128.5v-862q168 20 270 130t102 298z
M715 260v862q-168 -18 -269.5 -128t-101.5 -294q0 -195 94.5 -310t276.5 -130z" />
    <glyph glyph-name="Chi" unicode="&#x3a7;" horiz-adv-x="1286" 
d="M1266 0h-336l-297 508l-297 -508h-316l441 707l-414 675h309l281 -479l278 479h304l-408 -673z" />
    <glyph glyph-name="Psi" unicode="&#x3a8;" horiz-adv-x="1632" 
d="M1516 868q0 -267 -148 -419t-420 -179v-270h-266v266q-132 9 -232.5 42.5t-162.5 82t-101 117t-54 140.5t-15 159v575h266v-551q0 -68 14.5 -121.5t47.5 -99t92.5 -74t144.5 -36.5v882h266v-882q157 14 231 100.5t74 257.5v524h263v-514z" />
    <glyph glyph-name="Omega" unicode="&#x3a9;" horiz-adv-x="1460" 
d="M1384 0h-538v211q122 93 180.5 210.5t58.5 293.5q0 210 -90 331t-268 121q-156 0 -255 -120.5t-99 -325.5q0 -181 53.5 -295t187.5 -215v-211h-538v215h252q-112 78 -176 205.5t-64 302.5q0 305 186 493.5t478 188.5q132 0 242 -39t194.5 -116.5t132 -204.5t47.5 -293
q0 -178 -67 -315.5t-179 -221.5h262v-215z" />
    <glyph glyph-name="Iotadieresis" unicode="&#x3aa;" horiz-adv-x="552" 
d="M410 0h-267v1382h267v-1382zM633 1608q0 -57 -40 -96t-97 -39t-96.5 39t-39.5 96t39.5 96t96.5 39t97 -39t40 -96zM193 1608q0 -57 -40.5 -96t-97.5 -39t-97 39t-40 96t40 96t97 39t97.5 -39t40.5 -96z" />
    <glyph glyph-name="Upsilondieresis" unicode="&#x3ab;" horiz-adv-x="1148" 
d="M1145 1382l-440 -893v-489h-267v487l-432 895h291l182 -397q48 -107 94 -229h5q33 90 110 256l174 370h283zM928 1608q0 -57 -40 -96t-97 -39t-96.5 39t-39.5 96t39.5 96t96.5 39t97 -39t40 -96zM487 1608q0 -57 -40 -96t-97 -39t-97 39t-40 96t40 96t97 39t97 -39
t40 -96z" />
    <glyph glyph-name="alphatonos" unicode="&#x3ac;" horiz-adv-x="1212" 
d="M1159 197v-205q-68 -10 -108 -10q-123 0 -170 46t-43 167h-4q-31 -90 -126.5 -152.5t-224.5 -62.5q-192 0 -300.5 128.5t-108.5 374.5q0 249 133 403t338 154q102 0 183.5 -49.5t119.5 -136.5q3 74 29 164h235q-35 -121 -57.5 -288t-22.5 -308q0 -66 3 -103t9 -64.5
t22 -38t36 -15t57 -4.5zM774 506v10q0 136 -59 219.5t-152 83.5q-92 0 -154.5 -80.5t-62.5 -232.5q0 -151 56.5 -227t152.5 -76q94 0 156.5 85t62.5 218zM750 1507l-86 -379l-185 19l43 381z" />
    <glyph glyph-name="epsilontonos" unicode="&#x3ad;" horiz-adv-x="911" 
d="M864 31q-184 -51 -356 -51q-120 0 -208 21t-139 59.5t-74.5 88t-23.5 111.5q0 91 53 158.5t134 93.5v2q-70 28 -108 81t-38 126q0 143 114.5 231t340.5 88q140 0 279 -32l-45 -195q-137 39 -246 39q-189 0 -189 -125q0 -54 46 -85.5t131 -31.5h231v-178h-256
q-82 0 -126 -38t-44 -93q0 -59 55 -95t162 -36q123 0 266 47zM702 1507l-86 -379l-184 19l43 381z" />
    <glyph glyph-name="etatonos" unicode="&#x3ae;" horiz-adv-x="1187" 
d="M92 1018h254q20 -78 31 -184h2q44 93 129.5 148.5t208.5 55.5q166 0 248 -96.5t82 -259.5v-754q0 -255 32 -422h-256q-37 165 -37 383v734q0 100 -34 148t-107 48q-94 0 -157.5 -86.5t-63.5 -212.5v-520h-262v485q0 276 -70 533zM838 1507l-86 -379l-185 19l43 381z" />
    <glyph glyph-name="iotatonos" unicode="&#x3af;" horiz-adv-x="565" 
d="M512 -8q-65 -10 -104 -10q-151 0 -209 64t-58 235v737h262v-680q0 -89 20.5 -114t88.5 -25v-207zM451 1507l-86 -379l-185 19l43 381z" />
    <glyph glyph-name="upsilondieresistonos" unicode="&#x3b0;" horiz-adv-x="1161" 
d="M1042 600q0 -160 -37 -281.5t-103 -194t-151 -108.5t-188 -36q-121 0 -206 31.5t-133.5 94t-69.5 143.5t-21 191v578h262v-537q0 -155 41 -221.5t144 -66.5q98 0 149 86.5t51 289.5q0 218 -41 449h269q34 -181 34 -418zM987 1323q0 -53 -35.5 -89t-87.5 -36
q-53 0 -89 35.5t-36 89.5q0 51 36 86t89 35q51 0 87 -35t36 -86zM705 1497l-74 -371l-156 13l29 370zM422 1323q0 -53 -36 -89t-87 -36q-53 0 -89 35.5t-36 89.5q0 51 36 86t89 35q51 0 87 -35t36 -86z" />
    <glyph glyph-name="alpha" unicode="&#x3b1;" horiz-adv-x="1212" 
d="M1159 197v-205q-68 -10 -108 -10q-123 0 -170 46t-43 167h-4q-31 -90 -126.5 -152.5t-224.5 -62.5q-192 0 -300.5 128.5t-108.5 374.5q0 249 133 403t338 154q102 0 183.5 -49.5t119.5 -136.5q3 74 29 164h235q-35 -121 -57.5 -288t-22.5 -308q0 -66 3 -103t9 -64.5
t22 -38t36 -15t57 -4.5zM774 506v10q0 136 -59 219.5t-152 83.5q-92 0 -154.5 -80.5t-62.5 -232.5q0 -151 56.5 -227t152.5 -76q94 0 156.5 85t62.5 218z" />
    <glyph glyph-name="beta" unicode="&#x3b2;" horiz-adv-x="1173" 
d="M403 252q78 -55 177 -55q107 0 167 64t60 171q0 102 -54 164.5t-167 62.5h-74v211q113 6 177.5 70t64.5 170q0 79 -41 131.5t-123 52.5q-90 0 -138.5 -62.5t-48.5 -180.5v-799zM403 -72q0 -262 33 -422h-256q-39 173 -39 383v1143q0 118 36 211t100 150.5t149 87.5
t186 30q198 0 304 -102.5t106 -263.5q0 -128 -62 -217t-165 -119v-2q142 -13 216 -111t74 -243q0 -212 -143 -342.5t-397 -130.5q-87 0 -142 18v-70z" />
    <glyph glyph-name="gamma" unicode="&#x3b3;" horiz-adv-x="1032" 
d="M612 -14v-480h-260v281q0 133 -20.5 242t-88 320t-231.5 669h287q95 -270 147 -435.5t63.5 -218.5t12.5 -88h4q220 376 142 742h274q35 -253 -50 -503t-280 -529z" />
    <glyph glyph-name="delta" unicode="&#x3b4;" horiz-adv-x="1112" 
d="M596 1513q187 0 328 -83l-103 -185q-121 72 -227 72q-52 0 -76 -19.5t-24 -48.5q0 -40 38 -76.5t187 -134.5q181 -118 252 -241.5t71 -296.5q0 -145 -63 -263.5t-179.5 -187.5t-264.5 -69q-220 0 -343.5 124t-123.5 383q0 188 79.5 319t217.5 179q-79 57 -115.5 115
t-36.5 135q0 53 19.5 99.5t61.5 88t119.5 66t182.5 24.5zM772 479q0 124 -51 202t-158 146q-96 -8 -160.5 -87t-64.5 -224q0 -150 56.5 -231.5t164.5 -81.5q87 0 150 71.5t63 204.5z" />
    <glyph glyph-name="epsilon" unicode="&#x3b5;" horiz-adv-x="911" 
d="M864 31q-184 -51 -356 -51q-120 0 -208 21t-139 59.5t-74.5 88t-23.5 111.5q0 91 53 158.5t134 93.5v2q-70 28 -108 81t-38 126q0 143 114.5 231t340.5 88q140 0 279 -32l-45 -195q-137 39 -246 39q-189 0 -189 -125q0 -54 46 -85.5t131 -31.5h231v-178h-256
q-82 0 -126 -38t-44 -93q0 -59 55 -95t162 -36q123 0 266 47z" />
    <glyph glyph-name="zeta" unicode="&#x3b6;" horiz-adv-x="849" 
d="M844 -23q0 -116 -54.5 -217.5t-154.5 -205.5l-174 110q121 156 121 254q0 44 -30.5 64t-121.5 30q-196 27 -279 113t-83 270q0 131 39.5 274t101 261.5t135 212.5t143.5 141h-391v211h699v-192q-133 -89 -240.5 -245.5t-162 -314t-54.5 -280.5q0 -114 43 -157.5
t178 -63.5q153 -24 219 -89.5t66 -175.5z" />
    <glyph glyph-name="eta" unicode="&#x3b7;" horiz-adv-x="1187" 
d="M92 1018h254q20 -78 31 -184h2q44 93 129.5 148.5t208.5 55.5q166 0 248 -96.5t82 -259.5v-754q0 -255 32 -422h-256q-37 165 -37 383v734q0 100 -34 148t-107 48q-94 0 -157.5 -86.5t-63.5 -212.5v-520h-262v485q0 276 -70 533z" />
    <glyph glyph-name="theta" unicode="&#x3b8;" horiz-adv-x="1169" 
d="M1079 776q0 -399 -136.5 -597.5t-371.5 -198.5q-88 0 -160 23.5t-133 77.5t-102 137.5t-63.5 207.5t-22.5 283q0 404 136 603t374 199q232 0 355.5 -182t123.5 -553zM811 856q-4 223 -63 333.5t-164 110.5q-103 0 -161 -111.5t-65 -332.5h453zM811 655h-453
q11 -460 230 -460q208 0 223 460z" />
    <glyph glyph-name="iota" unicode="&#x3b9;" horiz-adv-x="565" 
d="M512 -8q-65 -10 -104 -10q-151 0 -209 64t-58 235v737h262v-680q0 -89 20.5 -114t88.5 -25v-207z" />
    <glyph glyph-name="kappa" unicode="&#x3ba;" horiz-adv-x="1071" 
d="M1047 0h-328l-316 492v-492h-262v1018h262v-436l304 436h317l-362 -473z" />
    <glyph glyph-name="lambda" unicode="&#x3bb;" horiz-adv-x="1028" 
d="M395 1004l-53 155q-28 79 -65 109t-91 30q-25 0 -65 -4l-8 205q61 12 135 12q126 0 206 -55.5t132 -208.5l428 -1247h-289l-217 676h-2q-30 -133 -88 -293l-137 -383h-281z" />
    <glyph glyph-name="nu" unicode="&#x3bd;" horiz-adv-x="1034" 
d="M1008 1018q-81 -516 -396 -1018h-250l-348 1018h287l150 -457q54 -196 65 -250h4q163 336 205 707h283z" />
    <glyph glyph-name="xi" unicode="&#x3be;" horiz-adv-x="841" 
d="M838 -23q0 -115 -54.5 -217.5t-154.5 -205.5l-174 110q120 155 120 254q0 47 -29.5 66t-121.5 28q-191 22 -282 109.5t-91 255.5q0 143 78 242.5t193 130.5q-94 20 -147.5 90t-53.5 164q0 98 51 176t145 108q-66 -4 -102 -4h-137v211h694v-211h-67q-89 0 -154.5 -20.5
t-102 -55.5t-54 -76t-17.5 -88q0 -74 50 -120.5t148 -46.5h152v-209h-98q-160 0 -235 -63.5t-75 -160.5q0 -93 47 -137t162 -59q167 -24 238.5 -88.5t71.5 -182.5z" />
    <glyph glyph-name="omicron" unicode="&#x3bf;" horiz-adv-x="1132" 
d="M1065 528q0 -239 -146.5 -393.5t-373.5 -154.5q-226 0 -351.5 125t-125.5 387q0 239 144.5 392.5t375.5 153.5q225 0 351 -127t126 -383zM795 514q0 303 -226 303q-96 0 -163.5 -76t-67.5 -223q0 -315 227 -315q101 0 165.5 80.5t64.5 230.5z" />
    <glyph glyph-name="pi" unicode="&#x3c0;" horiz-adv-x="1290" 
d="M1229 803h-215q0 -327 30 -471q13 -73 36.5 -103t60.5 -30q17 0 63 8l25 -209q-62 -16 -148 -16q-135 0 -201.5 60.5t-95.5 213.5q-34 176 -34 547h-261q4 -469 -114 -830l-279 54q145 416 142 776h-213v215h1204v-215z" />
    <glyph glyph-name="rho" unicode="&#x3c1;" horiz-adv-x="1118" 
d="M1047 535q0 -117 -33.5 -217t-98 -176t-165.5 -119t-228 -43q-96 0 -149 18q4 -94 4 -168v-324h-262v1026q0 236 123.5 371t355.5 135q218 0 335.5 -128.5t117.5 -374.5zM774 512q0 152 -51 230.5t-152 78.5q-95 0 -144.5 -71t-49.5 -199v-330q76 -33 160 -33
q108 0 172.5 81.5t64.5 242.5z" />
    <glyph glyph-name="sigma1" unicode="&#x3c2;" horiz-adv-x="882" 
d="M838 -23q0 -115 -54.5 -217.5t-154.5 -205.5l-174 110q120 155 120 254q0 44 -30 64t-121 30q-179 24 -266.5 136.5t-87.5 297.5q0 280 133 435t385 155q115 0 217 -30l-41 -228q-98 37 -193 37q-109 0 -168 -88t-59 -242q0 -105 47.5 -165.5t161.5 -77.5
q153 -24 219 -89.5t66 -175.5z" />
    <glyph glyph-name="sigma" unicode="&#x3c3;" horiz-adv-x="1187" 
d="M1151 803q-115 0 -188 6q92 -118 92 -305q0 -230 -141.5 -377t-360.5 -147q-232 0 -358.5 124.5t-126.5 387.5q0 159 62.5 281t191 193.5t307.5 71.5q55 0 229 -10t293 -10v-215zM793 510q0 190 -99 307q-25 2 -84 2q-130 0 -201 -75t-71 -230q0 -154 58 -232.5
t171 -78.5q99 0 162.5 80t63.5 227z" />
    <glyph glyph-name="tau" unicode="&#x3c4;" horiz-adv-x="741" 
d="M700 803h-231v-447q0 -92 19.5 -123.5t72.5 -31.5q44 0 64 4l16 -207q-83 -18 -156 -18q-159 0 -218.5 69.5t-59.5 249.5v504h-195v215h688v-215z" />
    <glyph glyph-name="upsilon" unicode="&#x3c5;" horiz-adv-x="1161" 
d="M1042 600q0 -160 -37 -281.5t-103 -194t-151 -108.5t-188 -36q-121 0 -206 31.5t-133.5 94t-69.5 143.5t-21 191v578h262v-537q0 -155 41 -221.5t144 -66.5q98 0 149 86.5t51 289.5q0 218 -41 449h269q34 -181 34 -418z" />
    <glyph glyph-name="phi" unicode="&#x3c6;" horiz-adv-x="1488" 
d="M1419 524q0 -140 -61.5 -254t-186.5 -190.5t-299 -95.5v-478h-256v474q-270 10 -408 142.5t-138 373.5q0 104 35.5 195.5t103.5 163.5t172 119.5t235 61.5v346h256v-344q269 -10 408 -142.5t139 -371.5zM616 203v614q-126 -12 -204 -93t-78 -210q0 -132 70.5 -215
t211.5 -96zM1155 504q0 131 -71 215t-212 98v-614q126 12 204.5 92t78.5 209z" />
    <glyph glyph-name="chi" unicode="&#x3c7;" horiz-adv-x="1030" 
d="M1020 -496q-55 -10 -109 -10q-63 0 -106 11.5t-84.5 44t-76 92t-71.5 155.5l-96 252l-229 -561l-264 63l370 758l-147 353q-39 97 -70.5 129t-75.5 32q-20 0 -36 -2l-13 203q58 10 109 10q82 0 137 -21.5t104 -83t91 -173.5l82 -224l200 486h291l-367 -750l160 -374
q47 -116 78.5 -152.5t75.5 -36.5q21 0 35 2z" />
    <glyph glyph-name="psi" unicode="&#x3c8;" horiz-adv-x="1605" 
d="M1487 604q0 -288 -138.5 -439t-412.5 -181v-478h-262v476q-133 6 -230.5 37t-156.5 78t-94 117.5t-47.5 144.5t-12.5 171v488h260v-449q0 -88 12.5 -150t43 -112t87 -77.5t140.5 -34.5v1187h258v-1187q157 15 224 105.5t67 279.5q0 204 -29 438h264q27 -208 27 -414z" />
    <glyph glyph-name="omega" unicode="&#x3c9;" horiz-adv-x="1622" 
d="M1546 551q0 -267 -127 -420.5t-321 -153.5q-119 0 -196 57.5t-97 145.5q-31 -91 -108 -147t-197 -56q-187 0 -305.5 141.5t-118.5 381.5q0 322 203 559l237 -82q-172 -187 -172 -436q0 -146 56 -231t143 -85q64 0 103.5 53t39.5 164v346h250v-344q0 -219 147 -219
q81 0 137 80t56 227q0 132 -39 233.5t-131 209.5l246 84q92 -107 143 -228.5t51 -279.5z" />
    <glyph glyph-name="iotadieresis" unicode="&#x3ca;" horiz-adv-x="565" 
d="M522 -8q-65 -10 -104 -10q-151 0 -208.5 64t-57.5 235v737h262v-680q0 -89 20.5 -114t87.5 -25v-207zM641 1327q0 -59 -40.5 -100t-100.5 -41q-59 0 -100.5 41.5t-41.5 99.5q0 60 41.5 100.5t100.5 40.5q60 0 100.5 -40.5t40.5 -100.5zM244 1327q0 -58 -41.5 -99.5
t-100.5 -41.5q-58 0 -99.5 41t-41.5 100q0 60 41 100.5t100 40.5t100.5 -40.5t41.5 -100.5z" />
    <glyph glyph-name="upsilondieresis" unicode="&#x3cb;" horiz-adv-x="1161" 
d="M1042 600q0 -160 -37 -281.5t-103 -194t-151 -108.5t-188 -36q-121 0 -206 31.5t-133.5 94t-69.5 143.5t-21 191v578h262v-537q0 -155 41 -221.5t144 -66.5q98 0 149 86.5t51 289.5q0 218 -41 449h269q34 -181 34 -418zM915 1327q0 -59 -41.5 -100t-99.5 -41t-99.5 41
t-41.5 100q0 60 41 100.5t100 40.5t100 -40.5t41 -100.5zM502 1327q0 -58 -41.5 -99.5t-100.5 -41.5q-58 0 -99.5 41t-41.5 100q0 60 41 100.5t100 40.5t100.5 -40.5t41.5 -100.5z" />
    <glyph glyph-name="omicrontonos" unicode="&#x3cc;" horiz-adv-x="1132" 
d="M1065 528q0 -239 -146.5 -393.5t-373.5 -154.5q-226 0 -351.5 125t-125.5 387q0 239 144.5 392.5t375.5 153.5q225 0 351 -127t126 -383zM795 514q0 303 -226 303q-96 0 -163.5 -76t-67.5 -223q0 -315 227 -315q101 0 165.5 80.5t64.5 230.5zM741 1507l-86 -379l-184 19
l43 381z" />
    <glyph glyph-name="upsilontonos" unicode="&#x3cd;" horiz-adv-x="1165" 
d="M1042 600q0 -160 -37 -281.5t-103 -194t-151 -108.5t-188 -36q-121 0 -206 31.5t-133.5 94t-69.5 143.5t-21 191v578h262v-537q0 -155 41 -221.5t144 -66.5q98 0 149 86.5t51 289.5q0 218 -41 449h269q34 -181 34 -418zM750 1507l-86 -379l-185 19l43 381z" />
    <glyph glyph-name="omegatonos" unicode="&#x3ce;" horiz-adv-x="1622" 
d="M1546 551q0 -267 -127 -420.5t-321 -153.5q-119 0 -196 57.5t-97 145.5q-31 -91 -108 -147t-197 -56q-187 0 -305.5 141.5t-118.5 381.5q0 322 203 559l237 -82q-172 -187 -172 -436q0 -146 56 -231t143 -85q64 0 103.5 53t39.5 164v346h250v-344q0 -219 147 -219
q81 0 137 80t56 227q0 132 -39 233.5t-131 209.5l246 84q92 -107 143 -228.5t51 -279.5zM979 1507l-86 -379l-184 19l43 381z" />
    <glyph glyph-name="uni0400" unicode="&#x400;" horiz-adv-x="1009" 
d="M895 0h-752v1382h752v-223h-485v-340h460v-217h-460v-373h485v-229zM686 1610l-43 -144l-440 109l59 188z" />
    <glyph glyph-name="uni0401" unicode="&#x401;" horiz-adv-x="1009" 
d="M895 0h-752v1382h752v-223h-485v-340h460v-217h-460v-373h485v-229zM872 1608q0 -57 -40 -96t-97 -39t-96 39t-39 96t39 96t96 39t97 -39t40 -96zM432 1608q0 -57 -40 -96t-97 -39t-97 39t-40 96t40 96t97 39t97 -39t40 -96z" />
    <glyph glyph-name="uni0402" unicode="&#x402;" horiz-adv-x="1425" 
d="M1341 455q0 -171 -79 -289.5t-215 -177t-324 -66.5v215q168 9 254 79t86 210q0 120 -66.5 192t-195.5 72q-103 0 -203 -39v-651h-266v1155h-301v227h925v-227h-358v-293q112 39 256 39q229 0 358 -119t129 -327z" />
    <glyph glyph-name="uni0403" unicode="&#x403;" horiz-adv-x="878" 
d="M858 1155h-448v-1155h-267v1382h715v-227zM805 1575l-443 -109l-43 144l426 153z" />
    <glyph glyph-name="uni0404" unicode="&#x404;" horiz-adv-x="1177" 
d="M1077 47q-160 -61 -352 -61q-140 0 -251 35t-184.5 96t-121.5 148t-69 186t-21 215q0 159 43 291.5t126.5 231t216 153.5t302.5 55q166 0 299 -43l-39 -242q-133 47 -272 47q-162 0 -255.5 -92t-117.5 -252h567v-221h-567q14 -178 111 -273.5t282 -95.5q64 0 136.5 16.5
t125.5 43.5z" />
    <glyph glyph-name="uni0405" unicode="&#x405;" horiz-adv-x="1030" 
d="M956 424q0 -194 -148.5 -320.5t-385.5 -126.5q-184 0 -320 37l29 256q140 -59 301 -59q102 0 167 44.5t65 135.5q0 53 -32 91.5t-83.5 63.5t-113.5 47.5t-124 53t-113.5 71t-83.5 110t-32 161.5q0 188 138 302t384 114q118 0 250 -27l-25 -233q-119 39 -237 39
q-113 0 -170 -44.5t-57 -121.5q0 -39 20 -70.5t54.5 -53.5t79 -41.5t93 -39.5t97.5 -42t93.5 -53.5t79 -70t54.5 -96t20 -127.5z" />
    <glyph glyph-name="uni0406" unicode="&#x406;" horiz-adv-x="552" 
d="M410 0h-267v1382h267v-1382z" />
    <glyph glyph-name="uni0407" unicode="&#x407;" horiz-adv-x="552" 
d="M408 0h-267v1382h267v-1382zM633 1608q0 -57 -40 -96t-97 -39t-96.5 39t-39.5 96t39.5 96t96.5 39t97 -39t40 -96zM193 1608q0 -57 -40.5 -96t-97.5 -39t-97 39t-40 96t40 96t97 39t97.5 -39t40.5 -96z" />
    <glyph glyph-name="uni0408" unicode="&#x408;" horiz-adv-x="686" 
d="M545 387q0 -89 -19.5 -159.5t-61.5 -127.5t-116 -87.5t-176 -30.5q-78 0 -172 16v229q55 -20 127 -20q77 0 114.5 41.5t37.5 148.5v985h266v-995z" />
    <glyph glyph-name="uni0409" unicode="&#x409;" horiz-adv-x="1964" 
d="M209 1382h940v-532q118 8 201 8q236 0 365.5 -109t129.5 -292q0 -228 -153 -351.5t-416 -123.5q-236 0 -393 32v1141h-408v-207q0 -189 -11 -331.5t-35.5 -247.5t-58.5 -176t-86 -116.5t-112 -68t-141 -31.5l-39 218q46 10 75 23.5t55.5 44t41 76.5t26 124t15.5 183.5
t4 258.5v477zM1567 420q0 215 -262 215q-70 0 -156 -12v-398q71 -22 170 -22q116 0 182 59t66 158z" />
    <glyph glyph-name="uni040A" unicode="&#x40a;" horiz-adv-x="2031" 
d="M997 14v586h-587v-600h-267v1382h267v-553h587v553h267v-532q118 8 198 8q238 0 368 -109t130 -292q0 -228 -154 -351.5t-417 -123.5q-235 0 -392 32zM1679 420q0 215 -262 215q-67 0 -153 -12v-398q68 -22 168 -22q116 0 181.5 59t65.5 158z" />
    <glyph glyph-name="uni040B" unicode="&#x40b;" horiz-adv-x="1447" 
d="M1319 0h-266v430q0 127 -51 192.5t-187 65.5q-122 0 -217 -43v-645h-266v1155h-301v227h925v-227h-358v-297q118 43 270 43q102 0 180.5 -22t129 -60t82.5 -94.5t45.5 -119.5t13.5 -140v-465z" />
    <glyph glyph-name="uni040C" unicode="&#x40c;" horiz-adv-x="1222" 
d="M1204 0h-350l-444 664v-664h-267v1382h267v-626l446 626h328l-508 -667zM979 1575l-442 -109l-43 144l426 153z" />
    <glyph glyph-name="uni040D" unicode="&#x40d;" horiz-adv-x="1382" 
d="M1241 0h-266v717q0 163 16 291h-2q-41 -99 -84 -179l-465 -829h-297v1382h267v-725q0 -142 -17 -272h4q46 112 80 172l461 825h303v-1382zM799 1610l-43 -144l-441 109l60 188z" />
    <glyph glyph-name="uni040E" unicode="&#x40e;" horiz-adv-x="1150" 
d="M1147 1382l-406 -1024q-83 -212 -189 -296.5t-249 -84.5q-76 0 -168 29l39 227q64 -24 125 -24q66 0 106 30t78 119l-454 1024h295l202 -483q52 -119 82 -225l6 -12q12 34 43 126t45 132l166 462h279zM926 1757q0 -133 -98 -210t-285 -77q-185 0 -280 74.5t-95 212.5h233
q0 -139 150 -139q139 0 139 139h236z" />
    <glyph glyph-name="uni040F" unicode="&#x40f;" horiz-adv-x="1351" 
d="M1208 0h-415v-301h-234v301h-416v1382h267v-1155h532v1155h266v-1382z" />
    <glyph glyph-name="uni0410" unicode="&#x410;" horiz-adv-x="1282" 
d="M1280 0h-295l-94 283h-524l-97 -283h-268l477 1382h314zM823 494l-141 411q-35 103 -55 191h-2q-18 -68 -54 -191l-141 -411h393z" />
    <glyph glyph-name="uni0411" unicode="&#x411;" horiz-adv-x="1173" 
d="M1096 438q0 -94 -34.5 -174t-102.5 -142t-179.5 -97t-255.5 -35q-209 0 -381 14v1378h852v-227h-585v-321h176q243 0 376.5 -100.5t133.5 -295.5zM811 426q0 94 -64.5 147.5t-201.5 53.5h-135v-406q74 -8 145 -8q120 0 188 57t68 156z" />
    <glyph glyph-name="uni0412" unicode="&#x412;" horiz-adv-x="1187" 
d="M1104 426q0 -84 -31 -158t-94.5 -136.5t-174.5 -99t-257 -36.5q-36 0 -171.5 2t-232.5 2v1380q214 11 459 11q223 0 343 -88.5t120 -253.5q0 -104 -55 -187.5t-154 -122.5v-4q111 -23 179.5 -108.5t68.5 -200.5zM782 1006q0 172 -223 172q-63 0 -149 -4v-363
q33 -2 108 -2q133 0 198.5 51t65.5 146zM819 418q0 96 -76.5 144t-216.5 48q-87 0 -116 -2v-391q99 -6 147 -6q127 0 194.5 56.5t67.5 150.5z" />
    <glyph glyph-name="uni0413" unicode="&#x413;" horiz-adv-x="878" 
d="M858 1155h-448v-1155h-267v1382h715v-227z" />
    <glyph glyph-name="uni0414" unicode="&#x414;" horiz-adv-x="1413" 
d="M1370 227v-528h-233v301h-895v-301h-232v528h115q71 106 100 252t29 426v477h969v-1155h147zM956 227v930h-436v-209q0 -298 -31.5 -462t-95.5 -259h563z" />
    <glyph glyph-name="uni0415" unicode="&#x415;" horiz-adv-x="1009" 
d="M895 0h-752v1382h752v-223h-485v-340h460v-217h-460v-373h485v-229z" />
    <glyph glyph-name="uni0416" unicode="&#x416;" horiz-adv-x="1751" 
d="M741 756v626h267v-626l399 626h315l-454 -667l477 -715h-340l-397 664v-664h-267v664l-397 -664h-338l475 711l-452 671h317z" />
    <glyph glyph-name="uni0417" unicode="&#x417;" horiz-adv-x="1050" 
d="M965 436q0 -89 -36.5 -169t-106 -144t-184 -101.5t-259.5 -37.5q-185 0 -307 34l26 228q124 -43 295 -43q151 0 220 58.5t69 152.5q0 99 -83 142.5t-245 43.5h-133v213h86q97 0 171 18.5t122.5 63.5t48.5 113q0 82 -54 129t-187 47q-147 0 -281 -51l-23 217
q176 51 359 51q231 0 346 -92t115 -250q0 -111 -61 -193.5t-165 -115.5l-2 -5q125 -20 197 -108t72 -201z" />
    <glyph glyph-name="uni0418" unicode="&#x418;" horiz-adv-x="1382" 
d="M1241 0h-266v717q0 163 16 291h-2q-41 -99 -84 -179l-465 -829h-297v1382h267v-725q0 -142 -17 -272h4q46 112 80 172l461 825h303v-1382z" />
    <glyph glyph-name="uni0419" unicode="&#x419;" horiz-adv-x="1382" 
d="M1241 0h-266v717q0 163 16 291h-2q-41 -99 -84 -179l-465 -829h-297v1382h267v-725q0 -142 -17 -272h4q46 112 80 172l461 825h303v-1382zM1096 1757q0 -133 -98 -210t-285 -77q-185 0 -280 74.5t-95 212.5h233q0 -139 150 -139q139 0 139 139h236z" />
    <glyph glyph-name="uni041A" unicode="&#x41a;" horiz-adv-x="1222" 
d="M1204 0h-350l-444 664v-664h-267v1382h267v-626l446 626h328l-508 -667z" />
    <glyph glyph-name="uni041B" unicode="&#x41b;" horiz-adv-x="1292" 
d="M1149 0h-266v1155h-408v-207q0 -189 -11 -331.5t-35.5 -247.5t-58.5 -176t-86 -116.5t-112 -68t-141 -31.5l-39 218q46 10 75 23.5t55.5 44t41 76.5t26 124t15.5 183.5t4 258.5v477h940v-1382z" />
    <glyph glyph-name="uni041C" unicode="&#x41c;" horiz-adv-x="1804" 
d="M1802 0h-280l-101 643q-34 247 -43 406h-4q-30 -175 -100 -400l-215 -649h-260l-217 649q-71 236 -101 400h-4q-8 -153 -43 -412l-98 -637h-270l237 1382h324l237 -708q50 -153 76 -295h4q24 135 74 289l237 714h314z" />
    <glyph glyph-name="uni041D" unicode="&#x41d;" horiz-adv-x="1404" 
d="M1264 0h-269v600h-585v-600h-267v1382h267v-553h585v553h269v-1382z" />
    <glyph glyph-name="uni041E" unicode="&#x41e;" horiz-adv-x="1439" 
d="M1372 713q0 -168 -53.5 -308t-145.5 -233t-215 -144t-262 -51q-310 0 -469 183.5t-159 509.5q0 168 53.5 308t145 232.5t214.5 143.5t262 51q310 0 469.5 -183t159.5 -509zM1087 682q0 226 -92.5 354.5t-273.5 128.5q-162 0 -265.5 -123t-103.5 -340q0 -227 92.5 -355
t274.5 -128q162 0 265 122.5t103 340.5z" />
    <glyph glyph-name="uni041F" unicode="&#x41f;" horiz-adv-x="1353" 
d="M1210 0h-266v1155h-534v-1155h-267v1382h1067v-1382z" />
    <glyph glyph-name="uni0420" unicode="&#x420;" horiz-adv-x="1087" 
d="M1057 958q0 -217 -151.5 -351t-407.5 -134q-48 0 -88 6v-479h-267v1382q169 9 387 9q262 0 394.5 -116t132.5 -317zM780 932q0 242 -266 242q-65 0 -104 -5v-469q44 -6 102 -6q127 0 197.5 64.5t70.5 173.5z" />
    <glyph glyph-name="uni0421" unicode="&#x421;" horiz-adv-x="1146" 
d="M1077 47q-165 -63 -360 -63q-141 0 -251.5 36.5t-182.5 97.5t-119 147.5t-66.5 180t-19.5 201.5q0 166 43.5 302t128 236t217.5 155t303 55q158 0 295 -41l-37 -246q-125 49 -270 49q-189 0 -288 -127.5t-99 -337.5q0 -467 403 -467q63 0 135.5 16t126.5 42z" />
    <glyph glyph-name="uni0422" unicode="&#x422;" horiz-adv-x="1044" 
d="M1014 1155h-359v-1155h-266v1155h-358v227h983v-227z" />
    <glyph glyph-name="uni0423" unicode="&#x423;" horiz-adv-x="1150" 
d="M1147 1382l-406 -1024q-83 -212 -189 -296.5t-249 -84.5q-76 0 -168 29l39 227q64 -24 125 -24q66 0 106 30t78 119l-454 1024h295l202 -483q52 -119 82 -225l6 -12q12 34 43 126t45 132l166 462h279z" />
    <glyph glyph-name="uni0424" unicode="&#x424;" horiz-adv-x="1705" 
d="M1642 705q0 -187 -84 -333t-232.5 -231t-344.5 -104v-152h-256v148q-331 15 -495 184t-164 463q0 280 182 459t477 207v147h256v-143q316 -14 488.5 -177.5t172.5 -467.5zM1366 692q0 392 -385 430v-858q176 18 280.5 129t104.5 299zM725 260v862q-177 -15 -281 -127
t-104 -295q0 -400 385 -440z" />
    <glyph glyph-name="uni0425" unicode="&#x425;" horiz-adv-x="1286" 
d="M1266 0h-336l-297 508l-297 -508h-316l441 707l-414 675h309l281 -479l278 479h304l-408 -673z" />
    <glyph glyph-name="uni0426" unicode="&#x426;" horiz-adv-x="1413" 
d="M1370 227v-528h-233v301h-994v1382h267v-1155h538v1155h266v-1155h156z" />
    <glyph glyph-name="uni0427" unicode="&#x427;" horiz-adv-x="1273" 
d="M866 549q-130 -53 -288 -53q-117 0 -205 23.5t-142.5 63t-88 99.5t-46 125t-12.5 147v428h268v-387q0 -145 58.5 -211.5t210.5 -66.5q133 0 245 53v612h264v-1382h-264v549z" />
    <glyph glyph-name="uni0428" unicode="&#x428;" horiz-adv-x="1906" 
d="M1763 0h-1620v1382h265v-1155h415v1155h262v-1155h414v1155h264v-1382z" />
    <glyph glyph-name="uni0429" unicode="&#x429;" horiz-adv-x="1961" 
d="M1919 227v-528h-233v301h-1543v1382h265v-1155h415v1155h262v-1155h414v1155h264v-1155h156z" />
    <glyph glyph-name="uni042A" unicode="&#x42a;" horiz-adv-x="1325" 
d="M549 1382v-534q85 10 201 10q237 0 366 -110t129 -297q0 -223 -153.5 -346t-413.5 -123q-253 0 -395 32v1151h-252v217h518zM965 414q0 221 -263 221q-85 0 -153 -14v-396q68 -22 172 -22q113 0 178.5 58t65.5 153z" />
    <glyph glyph-name="uni042B" unicode="&#x42b;" horiz-adv-x="1748" 
d="M1102 457q0 -228 -153.5 -351.5t-416.5 -123.5q-236 0 -393 32v1368h267v-532q122 8 200 8q237 0 366.5 -109t129.5 -292zM823 420q0 215 -262 215q-65 0 -155 -12v-398q71 -22 169 -22q116 0 182 59t66 158zM1589 0h-266v1382h266v-1382z" />
    <glyph glyph-name="uni042C" unicode="&#x42c;" horiz-adv-x="1187" 
d="M1106 457q0 -228 -153 -351.5t-416 -123.5q-237 0 -394 32v1368h267v-532q122 8 200 8q237 0 366.5 -109t129.5 -292zM827 420q0 215 -262 215q-65 0 -155 -12v-398q72 -22 170 -22q116 0 181.5 59t65.5 158z" />
    <glyph glyph-name="uni042D" unicode="&#x42d;" horiz-adv-x="1130" 
d="M1063 713q0 -334 -183 -532.5t-507 -198.5q-170 0 -310 51l46 246q122 -56 278 -56q165 0 267 103.5t110 267.5h-569v221h567q-25 170 -124.5 258t-266.5 88q-130 0 -252 -49l-41 231q160 56 344 56q161 0 285 -51t201 -144t116 -216.5t39 -274.5z" />
    <glyph glyph-name="uni042E" unicode="&#x42e;" horiz-adv-x="1943" 
d="M1876 711q0 -167 -53 -306.5t-144 -232.5t-214 -144t-263 -51q-292 0 -444 166t-170 459h-178v-602h-267v1382h267v-563h186q25 185 117 319t229 200.5t305 66.5q140 0 254 -42.5t198.5 -126.5t130.5 -217.5t46 -307.5zM1591 690q0 230 -95 352.5t-273 122.5
q-72 0 -137 -29.5t-117 -85t-82.5 -145.5t-30.5 -203q0 -227 91 -355t272 -128q71 0 135.5 27.5t118.5 82.5t86 148t32 213z" />
    <glyph glyph-name="uni042F" unicode="&#x42f;" horiz-adv-x="1202" 
d="M1059 0h-266v557h-123l-316 -557h-307l356 608q-124 27 -197 118t-73 228q0 203 147.5 321t426.5 118q177 0 352 -21v-1372zM793 772v399q-61 7 -127 7q-130 0 -193 -55.5t-63 -147.5q0 -203 262 -203h121z" />
    <glyph glyph-name="uni0430" unicode="&#x430;" horiz-adv-x="1075" 
d="M936 0h-250q0 106 10 172h-2q-37 -86 -125 -139t-200 -53q-135 0 -213 81t-78 209q0 174 146.5 260t416.5 86h25v41q0 97 -41.5 140t-141.5 43q-67 0 -151 -20t-156 -50l-43 201q172 69 385 69q116 0 196.5 -23.5t127 -71t66.5 -111t20 -152.5v-420q0 -150 8 -262z
M666 426v20h-43q-163 0 -228 -38t-65 -109q0 -51 33.5 -85t89.5 -34q92 0 152.5 75t60.5 171z" />
    <glyph glyph-name="uni0431" unicode="&#x431;" horiz-adv-x="1148" 
d="M1079 549q0 -255 -143 -412t-375 -157q-467 0 -467 612v16q0 258 47.5 442t137.5 275q61 61 142 96t160 46t153.5 15.5t141.5 12.5t103 27v-226q-45 -23 -125 -32t-149.5 -10t-144 -20.5t-116.5 -62.5q-42 -42 -69 -114.5t-41 -212.5h2q38 80 123 132t207 52
q90 0 164.5 -29t130.5 -87t87 -150.5t31 -212.5zM809 516q0 297 -211 297q-100 0 -164.5 -83t-64.5 -206q0 -159 55.5 -240t163.5 -81q100 0 160.5 81t60.5 232z" />
    <glyph glyph-name="uni0432" unicode="&#x432;" horiz-adv-x="1093" 
d="M1016 322q0 -150 -130 -246t-372 -96q-218 0 -371 34v1000q226 24 389 24q437 0 437 -264q0 -165 -166 -221v-2q96 -14 154.5 -75t58.5 -154zM715 727q0 127 -203 127q-55 0 -121 -8v-242h127q95 0 146 32t51 91zM741 307q0 68 -57.5 102.5t-161.5 34.5h-131v-262
q57 -16 146 -16q100 0 152 39.5t52 101.5z" />
    <glyph glyph-name="uni0433" unicode="&#x433;" horiz-adv-x="729" 
d="M690 803h-287v-803h-260v1018h547v-215z" />
    <glyph glyph-name="uni0434" unicode="&#x434;" horiz-adv-x="1200" 
d="M1155 205v-488h-227v283h-672v-283h-227v488h96q106 160 106 469v344h797v-813h127zM768 205v608h-293v-119q0 -340 -88 -489h381z" />
    <glyph glyph-name="uni0435" unicode="&#x435;" horiz-adv-x="1052" 
d="M975 584q0 -65 -8 -125h-631q0 -275 280 -275q152 0 295 64l29 -201q-165 -67 -369 -67q-501 0 -501 520q0 240 127 390t350 150q108 0 191.5 -35t134.5 -98t76.5 -144.5t25.5 -178.5zM715 635q3 101 -45 157t-133 56q-82 0 -135.5 -57t-63.5 -156h377z" />
    <glyph glyph-name="uni0436" unicode="&#x436;" horiz-adv-x="1554" 
d="M647 582v436h260v-436l283 436h317l-342 -475l361 -543h-326l-293 489v-489h-260v489l-295 -489h-323l360 539l-342 479h322z" />
    <glyph glyph-name="uni0437" unicode="&#x437;" horiz-adv-x="913" 
d="M848 322q0 -149 -128.5 -247t-357.5 -98q-165 0 -299 39l39 205q132 -57 279 -57q93 0 142.5 39t49.5 102q0 129 -225 129h-176v176h174q201 0 201 123q0 56 -45.5 89.5t-143.5 33.5q-123 0 -243 -47l-31 180q155 51 317 51q109 0 190 -22t125.5 -60t65.5 -83.5t21 -98.5
q0 -172 -168 -223v-2q97 -16 155 -74.5t58 -154.5z" />
    <glyph glyph-name="uni0438" unicode="&#x438;" horiz-adv-x="1198" 
d="M1055 0h-262v461q0 103 12 225q-25 -80 -84 -176l-301 -510h-277v1018h260v-459q0 -127 -12 -221q24 68 88 176l297 504h279v-1018z" />
    <glyph glyph-name="uni0439" unicode="&#x439;" horiz-adv-x="1198" 
d="M1055 0h-262v461q0 103 12 225q-25 -80 -84 -176l-301 -510h-277v1018h260v-459q0 -127 -12 -221q24 68 88 176l297 504h279v-1018zM979 1466q0 -140 -98 -221.5t-285 -81.5q-185 0 -280 78.5t-95 224.5h232q0 -153 151 -153q69 0 105 39t36 114h234z" />
    <glyph glyph-name="uni043A" unicode="&#x43a;" horiz-adv-x="1071" 
d="M1047 0h-328l-316 492v-492h-262v1018h262v-436l304 436h317l-362 -473z" />
    <glyph glyph-name="uni043B" unicode="&#x43b;" horiz-adv-x="1103" 
d="M961 0h-263v799h-262v-105q0 -367 -100 -538t-311 -179l-27 211q68 5 105.5 48t57 152.5t19.5 307.5v322h781v-1018z" />
    <glyph glyph-name="uni043C" unicode="&#x43c;" horiz-adv-x="1556" 
d="M1497 0h-270l-76 526q-23 171 -27 228h-2q-18 -106 -47 -209l-166 -545h-274l-158 508q-50 191 -61 246h-2q-8 -120 -29 -244l-72 -510h-254l172 1018h340l168 -539q31 -107 45 -190h2q19 99 50 196l168 533h323z" />
    <glyph glyph-name="uni043D" unicode="&#x43d;" horiz-adv-x="1175" 
d="M1032 0h-260v410h-369v-410h-260v1018h260v-387h369v387h260v-1018z" />
    <glyph glyph-name="uni043E" unicode="&#x43e;" horiz-adv-x="1134" 
d="M1063 528q0 -240 -146 -394t-374 -154q-226 0 -350.5 125t-124.5 387q0 239 144.5 392.5t375.5 153.5q224 0 349.5 -127.5t125.5 -382.5zM793 514q0 303 -224 303q-96 0 -163.5 -76t-67.5 -223q0 -315 227 -315q101 0 164.5 80.5t63.5 230.5z" />
    <glyph glyph-name="uni043F" unicode="&#x43f;" horiz-adv-x="1167" 
d="M1024 0h-262v799h-359v-799h-260v1018h881v-1018z" />
    <glyph glyph-name="uni0440" unicode="&#x440;" horiz-adv-x="1144" 
d="M1071 563q0 -270 -138 -423.5t-398 -153.5q-75 0 -132 8v-488h-262v1512h244q0 -104 -10 -170h4q44 91 125 140.5t194 49.5q180 0 276.5 -124t96.5 -351zM797 535q0 288 -174 288q-99 0 -159.5 -98.5t-60.5 -235.5v-282q65 -19 138 -19q118 0 187 83.5t69 263.5z" />
    <glyph glyph-name="uni0441" unicode="&#x441;" horiz-adv-x="878" 
d="M825 41q-59 -29 -140.5 -45t-158.5 -16q-218 0 -337 121.5t-119 373.5q0 121 30.5 222t91 178t157 120t220.5 43q145 0 254 -45l-67 -231q-93 55 -195 55q-104 0 -161.5 -84.5t-57.5 -222.5q0 -303 238 -303q103 0 188 45z" />
    <glyph glyph-name="uni0442" unicode="&#x442;" horiz-adv-x="831" 
d="M811 813h-264v-813h-262v813h-262v205h788v-205z" />
    <glyph glyph-name="uni0443" unicode="&#x443;" horiz-adv-x="1032" 
d="M1024 1018l-403 -1075q-50 -132 -102.5 -219.5t-115.5 -139t-132.5 -73t-161.5 -21.5q-76 0 -144 14l31 226q68 -21 129 -21q162 0 231 201l33 90l-377 1018h293l137 -389q40 -123 80 -281h2q36 146 99 324l120 346h281z" />
    <glyph glyph-name="uni0444" unicode="&#x444;" horiz-adv-x="1488" 
d="M1421 524q0 -140 -61.5 -254t-186.5 -190.5t-299 -95.5v-478h-260v474q-269 10 -407.5 142.5t-138.5 373.5q0 104 35.5 195.5t103.5 163.5t172 119.5t235 61.5v346h260v-344q269 -10 408 -142.5t139 -371.5zM1157 504q0 131 -71 215t-212 98v-614q126 12 204.5 92
t78.5 209zM614 203v614q-126 -12 -204 -93t-78 -210q0 -132 70.5 -215t211.5 -96z" />
    <glyph glyph-name="uni0445" unicode="&#x445;" horiz-adv-x="1081" 
d="M1059 0h-330l-197 342l-196 -342h-313l350 514l-330 504h313l197 -336l199 336h290l-319 -502z" />
    <glyph glyph-name="uni0446" unicode="&#x446;" horiz-adv-x="1193" 
d="M1149 205v-488h-227v283h-779v1018h260v-813h359v813h260v-813h127z" />
    <glyph glyph-name="uni0447" unicode="&#x447;" horiz-adv-x="1093" 
d="M950 0h-262v375q-103 -47 -246 -47q-102 0 -175.5 25.5t-114 71.5t-58.5 101.5t-18 124.5v367h262v-316q0 -93 36.5 -135.5t117.5 -42.5q107 0 196 47v447h262v-1018z" />
    <glyph glyph-name="uni0448" unicode="&#x448;" horiz-adv-x="1699" 
d="M1556 0h-1413v1018h260v-801h320v801h258v-801h315v801h260v-1018z" />
    <glyph glyph-name="uni0449" unicode="&#x449;" horiz-adv-x="1728" 
d="M1681 205v-488h-225v283h-1313v1018h260v-813h320v813h258v-813h315v813h260v-813h125z" />
    <glyph glyph-name="uni044A" unicode="&#x44a;" horiz-adv-x="1183" 
d="M1149 369q0 -170 -129.5 -278.5t-376.5 -108.5q-212 0 -356 32v799h-264v205h524v-322q77 9 172 9q204 0 317 -88t113 -248zM877 344q0 70 -50 113t-157 43q-57 0 -123 -8v-289q63 -17 139 -17q91 0 141 43.5t50 114.5z" />
    <glyph glyph-name="uni044B" unicode="&#x44b;" horiz-adv-x="1579" 
d="M1436 0h-260v1018h260v-1018zM1006 369q0 -170 -129 -278.5t-375 -108.5q-212 0 -359 32v1004h260v-322q76 9 172 9q204 0 317.5 -88t113.5 -248zM735 344q0 70 -50 113t-157 43q-59 0 -125 -8v-289q63 -17 140 -17q91 0 141.5 43.5t50.5 114.5z" />
    <glyph glyph-name="uni044C" unicode="&#x44c;" horiz-adv-x="1042" 
d="M1006 369q0 -170 -129 -278.5t-375 -108.5q-212 0 -359 32v1004h260v-322q76 9 172 9q204 0 317.5 -88t113.5 -248zM735 344q0 70 -50 113t-157 43q-59 0 -125 -8v-289q63 -17 140 -17q91 0 141.5 43.5t50.5 114.5z" />
    <glyph glyph-name="uni044D" unicode="&#x44d;" horiz-adv-x="890" 
d="M823 510q0 -236 -138 -382t-386 -146q-133 0 -231 34l41 203q97 -41 194 -41q116 0 181 66.5t73 179.5h-383v182h381q-17 114 -85 173t-175 59q-94 0 -176 -31l-41 190q109 41 252 41q239 0 366 -137t127 -391z" />
    <glyph glyph-name="uni044E" unicode="&#x44e;" horiz-adv-x="1601" 
d="M1532 528q0 -239 -146.5 -393.5t-373.5 -154.5q-210 0 -330 107.5t-133 332.5h-146v-420h-260v1018h260v-400h154q32 188 165 304t335 116q224 0 349.5 -127.5t125.5 -382.5zM1262 514q0 303 -226 303q-96 0 -162.5 -76t-66.5 -223q0 -315 225 -315q101 0 165.5 80.5
t64.5 230.5z" />
    <glyph glyph-name="uni044F" unicode="&#x44f;" horiz-adv-x="1064" 
d="M922 0h-263v389h-104l-238 -389h-297l213 336q48 78 76 108q-101 23 -163 87.5t-62 164.5q0 157 123.5 248.5t355.5 91.5q181 0 359 -24v-1012zM659 575v273q-70 8 -118 8q-94 0 -139.5 -38t-45.5 -103q0 -63 45 -101.5t142 -38.5h116z" />
    <glyph glyph-name="uni0450" unicode="&#x450;" horiz-adv-x="1052" 
d="M975 584q0 -65 -8 -125h-631q0 -275 280 -275q152 0 295 64l29 -201q-165 -67 -369 -67q-501 0 -501 520q0 240 127 390t350 150q108 0 191.5 -35t134.5 -98t76.5 -144.5t25.5 -178.5zM715 635q3 101 -45 157t-133 56q-82 0 -135.5 -57t-63.5 -156h377zM702 1288
l-98 -141l-371 221l121 176z" />
    <glyph glyph-name="uni0451" unicode="&#x451;" horiz-adv-x="1052" 
d="M975 584q0 -65 -8 -125h-631q0 -275 280 -275q152 0 295 64l29 -201q-165 -67 -369 -67q-501 0 -501 520q0 240 127 390t350 150q108 0 191.5 -35t134.5 -98t76.5 -144.5t25.5 -178.5zM715 635q3 101 -45 157t-133 56q-82 0 -135.5 -57t-63.5 -156h377zM891 1327
q0 -59 -41.5 -100t-99.5 -41q-59 0 -100.5 41.5t-41.5 99.5q0 60 41.5 100.5t100.5 40.5t100 -40.5t41 -100.5zM477 1327q0 -59 -41.5 -100t-99.5 -41t-99.5 41t-41.5 100q0 60 41 100.5t100 40.5t100 -40.5t41 -100.5z" />
    <glyph glyph-name="uni0452" unicode="&#x452;" horiz-adv-x="1169" 
d="M1049 377q0 -226 -16 -361.5t-46.5 -206t-85.5 -124.5q-87 -87 -268 -134l-62 205q92 27 136 68q32 32 48 73t24.5 138.5t8.5 279.5v37q0 194 -17 295.5t-48 133.5t-88 32q-87 0 -153 -90t-66 -213v-510h-262v1151h-154v203h154v141h262v-141h241v-203h-241v-111
q0 -88 -19 -192h2q39 81 126 132.5t190 51.5q125 0 196 -57t104.5 -190.5t33.5 -368.5v-39z" />
    <glyph glyph-name="uni0453" unicode="&#x453;" horiz-adv-x="729" 
d="M690 803h-287v-803h-260v1018h547v-215zM694 1368l-370 -221l-97 141l346 256z" />
    <glyph glyph-name="uni0454" unicode="&#x454;" horiz-adv-x="878" 
d="M825 29q-118 -47 -266 -47q-489 0 -489 516q0 111 31 206.5t92 170.5t162 118t231 43q139 0 229 -35l-41 -204q-91 43 -196 43t-166.5 -63.5t-75.5 -172.5h395v-178h-395q27 -248 268 -248q94 0 180 39z" />
    <glyph glyph-name="uni0455" unicode="&#x455;" horiz-adv-x="854" 
d="M774 317q0 -152 -123 -244.5t-325 -92.5q-133 0 -228 26l19 219q93 -41 217 -41q74 0 119 30t45 81q0 36 -23 61.5t-59.5 40.5t-80.5 29.5t-88 35t-80.5 50t-59.5 81.5t-23 122q0 143 110 234t322 91q89 0 184 -20l-12 -205q-93 27 -184 27q-74 0 -112 -28t-38 -77
q0 -35 23 -59.5t60 -41t82 -31.5t90 -37t82 -51.5t60 -80.5t23 -119z" />
    <glyph glyph-name="uni0456" unicode="&#x456;" horiz-adv-x="546" 
d="M403 0h-260v1018h260v-1018zM438 1327q0 -65 -48.5 -111.5t-115.5 -46.5q-68 0 -115.5 46t-47.5 112t48 113t115 47q68 0 116 -46.5t48 -113.5z" />
    <glyph glyph-name="uni0457" unicode="&#x457;" horiz-adv-x="546" 
d="M414 0h-260v1018h260v-1018zM633 1327q0 -59 -40.5 -100t-100.5 -41q-59 0 -100.5 41.5t-41.5 99.5q0 60 41.5 100.5t100.5 40.5q60 0 100.5 -40.5t40.5 -100.5zM236 1327q0 -58 -41.5 -99.5t-100.5 -41.5q-58 0 -99.5 41t-41.5 100q0 60 41 100.5t100 40.5t100.5 -40.5
t41.5 -100.5z" />
    <glyph glyph-name="uni0458" unicode="&#x458;" horiz-adv-x="557" 
d="M446 1327q0 -65 -48 -111.5t-115 -46.5q-68 0 -116 46t-48 112t48 113t116 47t115.5 -46.5t47.5 -113.5zM414 -76q0 -216 -91 -324t-305 -108q-70 0 -145 21l18 223q66 -25 121 -25q81 0 111.5 41.5t30.5 145.5v1120h260v-1094z" />
    <glyph glyph-name="uni0459" unicode="&#x459;" horiz-adv-x="1593" 
d="M436 799v-105q0 -367 -100 -538t-311 -179l-27 211q68 5 105.5 48t57 152.5t19.5 307.5v322h781v-322q73 9 172 9q203 0 316.5 -88.5t113.5 -247.5q0 -170 -130 -278.5t-376 -108.5q-212 0 -359 32v785h-262zM1290 344q0 70 -50 113t-157 43q-60 0 -122 -8v-289
q63 -17 137 -17q91 0 141.5 43.5t50.5 114.5z" />
    <glyph glyph-name="uni045A" unicode="&#x45a;" horiz-adv-x="1667" 
d="M1032 696q76 9 172 9q204 0 317 -88t113 -248q0 -170 -129.5 -278.5t-376.5 -108.5q-212 0 -356 32v396h-369v-410h-260v1018h260v-387h369v387h260v-322zM1362 344q0 70 -49.5 113t-155.5 43q-59 0 -125 -8v-289q63 -17 139 -17q91 0 141 43.5t50 114.5z" />
    <glyph glyph-name="uni045B" unicode="&#x45b;" horiz-adv-x="1181" 
d="M1038 0h-260v645q0 84 -29 126t-98 42q-99 0 -167 -97t-68 -233v-483h-262v1151h-154v203h154v141h262v-141h243v-203h-243v-119q0 -93 -19 -186l2 -2q46 87 132.5 137.5t203.5 50.5q83 0 143.5 -25t94.5 -70.5t49.5 -101.5t15.5 -126v-709z" />
    <glyph glyph-name="uni045C" unicode="&#x45c;" horiz-adv-x="1071" 
d="M1047 0h-328l-316 492v-492h-262v1018h262v-436l304 436h317l-362 -473zM903 1368l-371 -221l-96 141l346 256z" />
    <glyph glyph-name="uni045D" unicode="&#x45d;" horiz-adv-x="1198" 
d="M1055 0h-262v461q0 103 12 225q-25 -80 -84 -176l-301 -510h-277v1018h260v-459q0 -127 -12 -221q24 68 88 176l297 504h279v-1018zM758 1288l-99 -141l-370 221l121 176z" />
    <glyph glyph-name="uni045E" unicode="&#x45e;" horiz-adv-x="1028" 
d="M1022 1018l-404 -1075q-50 -132 -102.5 -219.5t-115.5 -139t-132.5 -73t-161.5 -21.5q-75 0 -143 14l31 226q68 -21 129 -21q162 0 231 201l33 90l-377 1018h293l137 -389q40 -123 80 -281h2q36 146 99 324l120 346h281zM893 1466q0 -140 -98 -221.5t-285 -81.5
q-185 0 -280 78.5t-95 224.5h232q0 -153 151 -153q69 0 105 39t36 114h234z" />
    <glyph glyph-name="uni045F" unicode="&#x45f;" horiz-adv-x="1167" 
d="M1024 0h-328v-283h-225v283h-328v1018h260v-801h359v801h262v-1018z" />
    <glyph glyph-name="uni0472" unicode="&#x472;" horiz-adv-x="1439" 
d="M1372 711q0 -167 -53 -306.5t-144.5 -232.5t-214.5 -144t-264 -51q-310 0 -469 184t-159 513q0 167 53.5 305.5t145 231t214.5 143.5t262 51q140 0 254 -42.5t198.5 -126.5t130.5 -217.5t46 -307.5zM1085 811q-22 175 -115.5 267.5t-250.5 92.5q-135 0 -237 -94
t-126 -266h729zM1085 604h-733q15 -184 107 -287.5t256 -103.5q65 0 125.5 24t112 70.5t87 123t45.5 173.5z" />
    <glyph glyph-name="uni0473" unicode="&#x473;" horiz-adv-x="1132" 
d="M1063 528q0 -240 -146 -394t-374 -154q-226 0 -350.5 125t-124.5 387q0 239 144.5 392.5t375.5 153.5q224 0 349.5 -127.5t125.5 -382.5zM799 602q-9 117 -69 179.5t-163 62.5q-94 0 -157.5 -62.5t-75.5 -179.5h465zM332 430q9 -124 70 -189t165 -65q93 0 156.5 65.5
t75.5 188.5h-467z" />
    <glyph glyph-name="uni0490" unicode="&#x490;" horiz-adv-x="878" 
d="M858 1155h-448v-1155h-267v1382h482v248h233v-475z" />
    <glyph glyph-name="uni0491" unicode="&#x491;" horiz-adv-x="741" 
d="M702 803h-299v-803h-260v1018h332v237h227v-452z" />
    <glyph glyph-name="uni0492" unicode="&#x492;" horiz-adv-x="942" 
d="M170 803v579h723v-227h-457v-352h336v-221h-336v-582h-266v582h-150v221h150z" />
    <glyph glyph-name="uni0493" unicode="&#x493;" horiz-adv-x="768" 
d="M162 598v420h555v-215h-293v-205h209v-209h-209v-389h-262v389h-131v209h131z" />
    <glyph glyph-name="uni0496" unicode="&#x496;" horiz-adv-x="1777" 
d="M741 756v626h267v-626l399 626h315l-454 -667l346 -488h155v-528h-233v301h-131l-397 664v-664h-267v664l-397 -664h-338l475 711l-452 671h317z" />
    <glyph glyph-name="uni0497" unicode="&#x497;" horiz-adv-x="1601" 
d="M1554 205v-488h-227v283h-127l-293 489v-489h-260v489l-295 -489h-323l360 539l-342 479h322l278 -436v436h260v-436l283 436h317l-342 -475l236 -338h153z" />
    <glyph glyph-name="uni0498" unicode="&#x498;" horiz-adv-x="1050" 
d="M965 436q0 -71 -21.5 -136t-65.5 -123.5t-118.5 -103t-173.5 -65.5v-309h-234v285q-174 6 -280 34l26 228q124 -43 295 -43q151 0 220 58.5t69 152.5q0 99 -83 142.5t-245 43.5h-133v213h86q97 0 171 18.5t122.5 63.5t48.5 113q0 82 -54 129t-187 47q-147 0 -281 -51
l-23 217q176 51 359 51q231 0 346 -92t115 -250q0 -111 -61 -193.5t-165 -115.5l-2 -5q125 -20 197 -108t72 -201z" />
    <glyph glyph-name="uni0499" unicode="&#x499;" horiz-adv-x="911" 
d="M848 322q0 -118 -80.5 -206.5t-232.5 -119.5v-279h-228v263q-123 5 -244 36l39 205q132 -57 279 -57q93 0 142.5 39t49.5 102q0 129 -225 129h-176v176h174q201 0 201 123q0 56 -45.5 89.5t-143.5 33.5q-123 0 -243 -47l-31 180q155 51 317 51q109 0 190 -22t125.5 -60
t65.5 -83.5t21 -98.5q0 -172 -168 -223v-2q97 -16 155 -74.5t58 -154.5z" />
    <glyph glyph-name="uni049A" unicode="&#x49a;" horiz-adv-x="1253" 
d="M1219 227v-528h-234v301h-131l-444 664v-664h-267v1382h267v-626l446 626h328l-508 -667l383 -488h160z" />
    <glyph glyph-name="uni049B" unicode="&#x49b;" horiz-adv-x="1071" 
d="M1061 205v-488h-227v283h-115l-316 492v-492h-262v1018h262v-436l304 436h317l-362 -473l251 -340h148z" />
    <glyph glyph-name="uni049C" unicode="&#x49c;" horiz-adv-x="1490" 
d="M1010 725l475 -725h-340l-361 608h-45v-252h-209v252h-116v-608h-267v1382h267v-557h116v244h209v-244h45l365 557h313z" />
    <glyph glyph-name="uni049D" unicode="&#x49d;" horiz-adv-x="1382" 
d="M1030 0l-262 422h-72v-215h-204v215h-89v-422h-262v1018h262v-385h89v207h204v-207h72l244 385h319l-340 -477l365 -541h-326z" />
    <glyph glyph-name="uni04A0" unicode="&#x4a0;" horiz-adv-x="1357" 
d="M1343 0h-352l-442 664v-664h-266v1155h-252v227h518v-626l446 626h326l-506 -667z" />
    <glyph glyph-name="uni04A1" unicode="&#x4a1;" horiz-adv-x="1150" 
d="M1104 1018l-363 -473l385 -545h-327l-316 492v-492h-262v815h-209v203h471v-436l303 436h318z" />
    <glyph glyph-name="uni04A2" unicode="&#x4a2;" horiz-adv-x="1452" 
d="M1264 227h157v-528h-233v301h-191v600h-587v-600h-267v1382h267v-553h587v553h267v-1155z" />
    <glyph glyph-name="uni04A3" unicode="&#x4a3;" horiz-adv-x="1196" 
d="M1032 205h117v-488h-225v283h-152v410h-369v-410h-260v1018h260v-387h369v387h260v-813z" />
    <glyph glyph-name="uni04AA" unicode="&#x4aa;" horiz-adv-x="1146" 
d="M793 -12v-289h-234v301q-104 18 -186.5 61.5t-137 104t-90.5 139t-51.5 163t-15.5 179.5q0 166 43.5 302t128 236t217.5 155t303 55q158 0 295 -41l-37 -246q-125 49 -270 49q-189 0 -288 -127.5t-99 -337.5q0 -467 403 -467q63 0 135.5 16t126.5 42l41 -236
q-130 -50 -284 -59z" />
    <glyph glyph-name="uni04AB" unicode="&#x4ab;" horiz-adv-x="872" 
d="M621 -14v-269h-228v281q-323 72 -323 477q0 121 31 222t91.5 178t156.5 120t220 43q144 0 256 -45l-69 -231q-93 55 -195 55q-103 0 -160 -84t-57 -223q0 -303 236 -303q106 0 188 45l57 -211q-84 -43 -204 -55z" />
    <glyph glyph-name="uni04AE" unicode="&#x4ae;" horiz-adv-x="1148" 
d="M1145 1382l-440 -893v-489h-267v487l-432 895h291l182 -397q48 -107 94 -229h5q33 90 110 256l174 370h283z" />
    <glyph glyph-name="uni04AF" unicode="&#x4af;" horiz-adv-x="1038" 
d="M1026 1018l-385 -1018v-494h-260v494l-371 1018h291l145 -422q43 -127 72 -258h4q20 94 74 264l147 416h283z" />
    <glyph glyph-name="uni04B0" unicode="&#x4b0;" horiz-adv-x="1161" 
d="M1141 1382l-432 -870h325v-217h-325v-295h-267v295h-323v217h323l-424 870h291l174 -381q53 -110 97 -229h2q46 118 110 256l168 354h281z" />
    <glyph glyph-name="uni04B1" unicode="&#x4b1;" horiz-adv-x="1046" 
d="M682 203h270v-203h-307v-494h-260v494h-307v203h272l-340 815h297l144 -371q47 -128 75 -244h4q25 115 80 250l146 365h280z" />
    <glyph glyph-name="uni04B2" unicode="&#x4b2;" horiz-adv-x="1320" 
d="M1120 227h158v-528h-234v301h-114l-297 508l-297 -508h-316l441 707l-414 675h309l281 -479l278 479h304l-408 -673z" />
    <glyph glyph-name="uni04B3" unicode="&#x4b3;" horiz-adv-x="1128" 
d="M854 0h-125l-197 342l-196 -342h-313l350 514l-330 504h313l197 -336l199 336h290l-319 -502l213 -311h145v-488h-227v283z" />
    <glyph glyph-name="uni04B8" unicode="&#x4b8;" horiz-adv-x="1320" 
d="M739 725q98 6 174 45v612h265v-1382h-265v551q-60 -30 -174 -45v-232h-209v226q-104 5 -182.5 31t-128 66.5t-80.5 98t-43 119.5t-12 139v428h268v-393q0 -112 39 -175.5t139 -76.5v250h209v-262z" />
    <glyph glyph-name="uni04B9" unicode="&#x4b9;" horiz-adv-x="1226" 
d="M682 535q69 8 139 40v443h262v-1018h-262v377q-75 -29 -139 -35v-197h-197v183q-409 11 -409 346v344h262v-307q0 -83 35 -127.5t112 -51.5v220h197v-217z" />
    <glyph glyph-name="uni04BA" unicode="&#x4ba;" horiz-adv-x="1306" 
d="M1180 0h-269v428q0 124 -55 189t-190 65q-146 0 -256 -55v-627h-267v1382h267v-528q128 49 307 49q102 0 182 -22t132.5 -61t86 -95t48 -119.5t14.5 -140.5v-465z" />
    <glyph glyph-name="uni04BB" unicode="&#x4bb;" horiz-adv-x="1171" 
d="M1028 0h-260v651q0 83 -28.5 125.5t-98.5 42.5q-98 0 -166.5 -97t-68.5 -233v-489h-263v1495h263v-438q0 -124 -19 -207h4q46 87 132 137.5t202 50.5q83 0 143.5 -25t94.5 -70.5t49.5 -101.5t15.5 -126v-715z" />
    <glyph glyph-name="uni04D8" unicode="&#x4d8;" horiz-adv-x="1239" 
d="M55 580q0 109 19 229h803q-17 174 -107 265t-244 91q-199 0 -366 -75l-51 223q205 90 444 90q138 0 249.5 -41.5t194.5 -125.5t128.5 -219.5t45.5 -314.5q0 -340 -160.5 -532.5t-439.5 -192.5q-258 0 -387 161t-129 442zM344 588v-27q0 -342 250 -342q131 0 205.5 101
t79.5 268h-535z" />
    <glyph glyph-name="uni04D9" unicode="&#x4d9;" horiz-adv-x="1052" 
d="M70 459q0 63 10 145h627q-8 114 -78.5 175t-200.5 61q-150 0 -281 -58l-43 191q165 67 365 67q246 0 376 -129t130 -393q0 -243 -126 -390.5t-353 -147.5q-214 0 -320 129.5t-106 349.5zM328 430v-27q0 -115 47.5 -171t132.5 -56q93 0 146 70.5t55 183.5h-381z" />
    <glyph glyph-name="uni04E8" unicode="&#x4e8;" horiz-adv-x="1439" 
d="M1372 711q0 -167 -53 -306.5t-144.5 -232.5t-214.5 -144t-264 -51q-310 0 -469 184t-159 513q0 167 53.5 305.5t145 231t214.5 143.5t262 51q140 0 254 -42.5t198.5 -126.5t130.5 -217.5t46 -307.5zM1085 811q-22 175 -115.5 267.5t-250.5 92.5q-135 0 -237 -94
t-126 -266h729zM1085 604h-733q15 -184 107 -287.5t256 -103.5q65 0 125.5 24t112 70.5t87 123t45.5 173.5z" />
    <glyph glyph-name="uni04E9" unicode="&#x4e9;" horiz-adv-x="1132" 
d="M1063 528q0 -240 -146 -394t-374 -154q-226 0 -350.5 125t-124.5 387q0 239 144.5 392.5t375.5 153.5q224 0 349.5 -127.5t125.5 -382.5zM799 602q-9 117 -69 179.5t-163 62.5q-94 0 -157.5 -62.5t-75.5 -179.5h465zM332 430q9 -124 70 -189t165 -65q93 0 156.5 65.5
t75.5 188.5h-467z" />
    <glyph glyph-name="Wgrave" unicode="&#x1e80;" horiz-adv-x="1947" 
d="M1898 1382l-352 -1382h-327l-201 762q-27 104 -53 285h-2q-15 -142 -52 -279l-200 -768h-310l-352 1382h285l188 -764q31 -123 51 -280h2q24 157 54 272l211 772h282l213 -768q43 -163 56 -268h2q20 137 51 264l188 772h266zM1155 1610l-43 -144l-440 109l59 188z" />
    <glyph glyph-name="wgrave" unicode="&#x1e81;" horiz-adv-x="1630" 
d="M1610 1018l-320 -1018h-284l-148 451q-37 132 -57 229h-2q-24 -113 -70 -256l-129 -424h-270l-312 1018h287l109 -385q57 -209 80 -307h2q22 126 73 295l123 397h252l125 -385q62 -208 82 -307h4q24 124 70 295l116 397h269zM983 1288l-98 -141l-371 221l121 176z" />
    <glyph glyph-name="Wacute" unicode="&#x1e82;" horiz-adv-x="1947" 
d="M1898 1382l-352 -1382h-327l-201 762q-27 104 -53 285h-2q-15 -142 -52 -279l-200 -768h-310l-352 1382h285l188 -764q31 -123 51 -280h2q24 157 54 272l211 772h282l213 -768q43 -163 56 -268h2q20 137 51 264l188 772h266zM1290 1575l-442 -109l-43 144l426 153z" />
    <glyph glyph-name="wacute" unicode="&#x1e83;" horiz-adv-x="1630" 
d="M1610 1018l-320 -1018h-284l-148 451q-37 132 -57 229h-2q-24 -113 -70 -256l-129 -424h-270l-312 1018h287l109 -385q57 -209 80 -307h2q22 126 73 295l123 397h252l125 -385q62 -208 82 -307h4q24 124 70 295l116 397h269zM1085 1368l-370 -221l-97 141l347 256z" />
    <glyph glyph-name="Wdieresis" unicode="&#x1e84;" horiz-adv-x="1947" 
d="M1898 1382l-352 -1382h-327l-201 762q-27 104 -53 285h-2q-15 -142 -52 -279l-200 -768h-310l-352 1382h285l188 -764q31 -123 51 -280h2q24 157 54 272l211 772h282l213 -768q43 -163 56 -268h2q20 137 51 264l188 772h266zM1339 1608q0 -57 -40 -96t-97 -39t-96 39
t-39 96t39 96t96 39t97 -39t40 -96zM899 1608q0 -57 -40 -96t-97 -39t-97 39t-40 96t40 96t97 39t97 -39t40 -96z" />
    <glyph glyph-name="wdieresis" unicode="&#x1e85;" horiz-adv-x="1630" 
d="M1610 1018l-320 -1018h-284l-148 451q-37 132 -57 229h-2q-24 -113 -70 -256l-129 -424h-270l-312 1018h287l109 -385q57 -209 80 -307h2q22 126 73 295l123 397h252l125 -385q62 -208 82 -307h4q24 124 70 295l116 397h269zM1167 1327q0 -59 -41.5 -100t-99.5 -41
t-99.5 41t-41.5 100q0 60 41 100.5t100 40.5t100 -40.5t41 -100.5zM754 1327q0 -58 -41.5 -99.5t-100.5 -41.5q-58 0 -99.5 41t-41.5 100q0 60 41 100.5t100 40.5t100.5 -40.5t41.5 -100.5z" />
    <glyph glyph-name="Ygrave" unicode="&#x1ef2;" horiz-adv-x="1148" 
d="M1145 1382l-440 -893v-489h-267v487l-432 895h291l182 -397q48 -107 94 -229h5q33 90 110 256l174 370h283zM612 1610l-43 -144l-440 109l59 188z" />
    <glyph glyph-name="ygrave" unicode="&#x1ef3;" horiz-adv-x="1028" 
d="M1022 1018l-404 -1075q-50 -132 -102.5 -219.5t-115.5 -139t-132.5 -73t-161.5 -21.5q-75 0 -143 14l31 226q68 -21 129 -21q162 0 231 201l33 90l-377 1018h293l137 -389q40 -123 80 -281h2q36 146 99 324l120 346h281zM606 1288l-98 -141l-371 221l121 176z" />
    <glyph glyph-name="endash" unicode="&#x2013;" 
d="M1126 496h-1126v227h1126v-227z" />
    <glyph glyph-name="emdash" unicode="&#x2014;" horiz-adv-x="2048" 
d="M1821 496h-1594v227h1594v-227z" />
    <glyph glyph-name="emdash" unicode="&#x2015;" horiz-adv-x="2048" 
d="M1821 496h-1594v227h1594v-227z" />
    <glyph glyph-name="quoteleft" unicode="&#x2018;" horiz-adv-x="546" 
d="M471 1452q-68 -73 -97 -131.5t-24.5 -101t37.5 -82.5q29 -33 34 -76.5t-11 -81.5t-54.5 -64t-89.5 -26q-87 0 -134 76q-57 93 -16 233q53 179 249 350z" />
    <glyph glyph-name="quoteright" unicode="&#x2019;" horiz-adv-x="546" 
d="M279 1530q87 0 134 -76q58 -94 16 -235q-53 -178 -249 -349l-108 97q69 74 98.5 132t24.5 100.5t-39 82.5q-28 33 -32.5 76.5t11.5 81.5t54.5 64t89.5 26z" />
    <glyph glyph-name="quotesinglbase" unicode="&#x201a;" horiz-adv-x="546" 
d="M279 305q87 0 134 -76q57 -93 16 -233q-53 -179 -249 -350l-108 96q69 74 98.5 131.5t24.5 100t-39 83.5q-28 33 -32.5 76.5t11.5 81.5t54.5 64t89.5 26z" />
    <glyph glyph-name="quotedblleft" unicode="&#x201c;" horiz-adv-x="993" 
d="M920 1452q-68 -73 -97 -131.5t-24.5 -101t37.5 -82.5q28 -33 32.5 -76.5t-11 -81.5t-53.5 -64t-89 -26q-89 0 -136 77q-57 94 -15 235q53 177 247 347zM471 1452q-68 -73 -97 -131.5t-24.5 -101t37.5 -82.5q29 -33 34 -76.5t-11 -81.5t-54.5 -64t-89.5 -26q-87 0 -134 76
q-57 93 -16 233q53 179 249 350z" />
    <glyph glyph-name="quotedblright" unicode="&#x201d;" horiz-adv-x="993" 
d="M725 1530q89 0 136 -77q57 -94 15 -235q-53 -178 -247 -348l-109 97q68 73 97 131.5t24.5 101t-37.5 82.5q-28 33 -32.5 76.5t11 81.5t53.5 64t89 26zM279 1530q87 0 134 -76q58 -94 16 -235q-53 -178 -249 -349l-108 97q69 74 98.5 132t24.5 100.5t-39 82.5
q-28 33 -32.5 76.5t11.5 81.5t54.5 64t89.5 26z" />
    <glyph glyph-name="quotedblbase" unicode="&#x201e;" horiz-adv-x="993" 
d="M725 305q89 0 136 -77q57 -94 15 -235q-53 -177 -247 -347l-109 96q68 74 97 131.5t24.5 100t-37.5 83.5q-28 33 -32.5 76.5t11 81.5t53.5 64t89 26zM279 305q87 0 134 -76q57 -93 16 -233q-53 -179 -249 -350l-108 96q69 74 98.5 131.5t24.5 100t-39 83.5
q-28 33 -32.5 76.5t11.5 81.5t54.5 64t89.5 26z" />
    <glyph glyph-name="dagger" unicode="&#x2020;" horiz-adv-x="935" 
d="M852 1092h-277l43 -181l-47 -522h-204l-50 522l43 181h-274v202h274l-43 279h301l-43 -279h277v-202z" />
    <glyph glyph-name="daggerdbl" unicode="&#x2021;" horiz-adv-x="935" 
d="M852 588h-274l43 -250h-306l43 250h-272v200h272l-41 166l41 168h-272v201h272l-41 250h301l-40 -250h274v-201h-274l40 -168l-40 -166h274v-200z" />
    <glyph glyph-name="bullet" unicode="&#x2022;" horiz-adv-x="866" 
d="M737 608q0 -125 -89.5 -214t-215.5 -89t-214.5 89t-88.5 214t88.5 214t214.5 89t215.5 -89t89.5 -214z" />
    <glyph glyph-name="perthousand" unicode="&#x2030;" horiz-adv-x="2154" 
d="M674 1098q0 -153 -88.5 -244.5t-216.5 -91.5q-133 0 -210 80t-77 231q0 150 88.5 241t216.5 91q129 0 208 -76t79 -231zM485 1085q0 84 -25 120t-79 36q-47 0 -78 -42.5t-31 -115.5q0 -157 105 -157q48 0 78 42t30 117zM1341 1300l-1062 -1341l-156 121l1063 1341z
M1386 313q0 -153 -89 -244.5t-216 -91.5q-133 0 -209.5 80.5t-76.5 231.5q0 150 88.5 241t214.5 91q131 0 209.5 -76.5t78.5 -231.5zM1196 301q0 84 -25 120t-77 36q-48 0 -78.5 -42.5t-30.5 -115.5q0 -85 26.5 -121.5t78.5 -36.5q47 0 76.5 42.5t29.5 117.5zM2058 313
q0 -153 -89 -244.5t-216 -91.5q-133 0 -210 80.5t-77 231.5q0 150 88.5 241t214.5 91q130 0 209.5 -76.5t79.5 -231.5zM1868 301q0 84 -25 120t-78 36q-48 0 -78 -42t-30 -116q0 -85 26 -121.5t78 -36.5q47 0 77 42.5t30 117.5z" />
    <glyph glyph-name="guilsinglleft" unicode="&#x2039;" horiz-adv-x="638" 
d="M522 303l-207 -98l-231 393l235 399l199 -96l-182 -301z" />
    <glyph glyph-name="guilsinglright" unicode="&#x203a;" horiz-adv-x="638" 
d="M557 604l-238 -399l-198 96l184 301l-186 297l207 98z" />
    <glyph glyph-name="fraction" unicode="&#x2044;" horiz-adv-x="890" 
d="M1061 1300l-1008 -1370l-188 136l1007 1370z" />
    <glyph glyph-name="Euro" unicode="&#x20ac;" horiz-adv-x="1212" 
d="M1157 82q-169 -105 -387 -105q-255 0 -403 119.5t-183 354.5h-159v157h147v39q0 43 4 117h-151v158h170q50 238 209 360.5t397 122.5q94 0 185.5 -21t152.5 -53l-62 -211q-119 68 -278 68q-123 0 -204 -65.5t-110 -200.5h398v-158h-422q0 -11 -1 -35t-1 -37q0 -57 2 -84
h422v-157h-402q49 -256 326 -256q64 0 141 23.5t139 62.5z" />
    <glyph glyph-name="uni2116" unicode="&#x2116;" horiz-adv-x="2121" 
d="M2023 1049q0 -168 -103.5 -270.5t-262.5 -102.5q-151 0 -240.5 86.5t-89.5 273.5q0 167 102.5 268t258.5 101q73 0 132 -19.5t105.5 -60t72 -111t25.5 -165.5zM1995 397h-639v193h639v-193zM1178 0h-310l-329 670q-103 217 -154 362q12 -242 12 -526v-506h-254v1382h349
l327 -675q62 -123 117 -271q-10 238 -10 572v374h252v-1382zM1812 1044q0 185 -137 185q-59 0 -100 -46t-41 -143q0 -83 32.5 -136.5t104.5 -53.5q63 0 102 47t39 147z" />
    <glyph glyph-name="trademark" unicode="&#x2122;" horiz-adv-x="1411" 
d="M1339 807h-194l-37 248l-10 96l-19 -88l-67 -256h-174l-68 262l-16 82l-4 -74l-39 -270h-176l92 575h223l70 -252l16 -83l14 79l70 256h225zM518 1225h-133v-418h-186v418h-140v157h459v-157z" />
    <glyph glyph-name="ohm" unicode="&#x2126;" horiz-adv-x="1460" 
d="M1384 0h-538v211q122 93 180.5 210.5t58.5 293.5q0 210 -90 331t-268 121q-156 0 -255 -120.5t-99 -325.5q0 -181 53.5 -295t187.5 -215v-211h-538v215h252q-112 78 -176 205.5t-64 302.5q0 305 186 493.5t478 188.5q132 0 242 -39t194.5 -116.5t132 -204.5t47.5 -293
q0 -178 -67 -315.5t-179 -221.5h262v-215z" />
    <glyph glyph-name="partialdiff" unicode="&#x2202;" horiz-adv-x="1298" 
d="M1171 817q0 -427 -210 -657q-73 -81 -179 -127.5t-223 -46.5q-208 0 -320 116.5t-112 315.5q0 220 140.5 362t367.5 142q89 0 158 -35t108 -96q-9 93 -14 135q-23 176 -136 271t-280 93l37 219q302 -3 482.5 -189t180.5 -503zM846 487q0 96 -56 154.5t-165 58.5
q-105 0 -172.5 -73.5t-67.5 -186.5q0 -111 56.5 -170t154.5 -59q106 0 178 78.5t72 197.5z" />
    <glyph glyph-name="increment" unicode="&#x2206;" horiz-adv-x="1286" 
d="M1280 0h-1278l479 1382h307zM909 240l-231 663q-43 140 -51 187h-2q-11 -48 -56 -201l-223 -649h563z" />
    <glyph glyph-name="product" unicode="&#x220f;" horiz-adv-x="1605" 
d="M1522 1274h-199v-1768h-244v1768h-549v-1768h-247v1768h-199v221h1438v-221z" />
    <glyph glyph-name="summation" unicode="&#x2211;" horiz-adv-x="1243" 
d="M1143 -494h-1069v203l596 811l-559 770v205h1001v-221h-680l541 -746l-590 -792h760v-230z" />
    <glyph glyph-name="minus" unicode="&#x2212;" 
d="M1047 496h-967v227h967v-227z" />
    <glyph glyph-name="uni2215" unicode="&#x2215;" horiz-adv-x="890" 
d="M1061 1300l-1008 -1370l-188 136l1007 1370z" />
    <glyph glyph-name="radical" unicode="&#x221a;" horiz-adv-x="1261" 
d="M1239 1552l-475 -1552h-303l-277 821h-178v197h393l164 -529q41 -128 55 -198h3q24 121 43 188l288 1073h287z" />
    <glyph glyph-name="infinity" unicode="&#x221e;" horiz-adv-x="2015" 
d="M1925 623q0 -165 -112.5 -276t-309.5 -111q-208 0 -504 219q-136 -101 -260.5 -160t-253.5 -59q-190 0 -292.5 103.5t-102.5 262.5q0 169 114.5 278t297.5 109q118 0 242 -56.5t270 -166.5q134 100 260 161.5t250 61.5q187 0 294 -102.5t107 -263.5zM1675 614
q0 65 -43 106.5t-116 41.5q-61 0 -135 -37.5t-171 -108.5q105 -78 176.5 -115.5t129.5 -37.5q75 0 117 43t42 108zM803 606q-106 80 -176 118t-127 38q-75 0 -116.5 -43.5t-41.5 -106.5q0 -66 43 -107.5t117 -41.5q106 0 301 143z" />
    <glyph glyph-name="integral" unicode="&#x222b;" horiz-adv-x="706" 
d="M662 1272q-44 14 -95 14q-45 0 -69.5 -19.5t-38 -77t-13.5 -165.5q0 -153 13.5 -466.5t13.5 -524.5q0 -289 -83 -418t-259 -129q-63 0 -115 12v228q54 -15 88 -15q47 0 73 20.5t40 79.5t14 169q0 147 -13 457.5t-13 527.5q0 289 88.5 417.5t261.5 128.5q49 0 107 -14
v-225z" />
    <glyph glyph-name="approxequal" unicode="&#x2248;" horiz-adv-x="1128" 
d="M1049 768q-131 -131 -287 -131q-58 0 -113 18.5t-91.5 41t-88.5 41t-104 18.5q-101 0 -205 -86l-82 174q62 57 139.5 94t155.5 37q61 0 120 -19t97.5 -41.5t86 -41.5t89.5 -19q98 0 195 90zM1051 356q-59 -54 -137.5 -88.5t-151.5 -34.5q-63 0 -121 18.5t-94.5 41
t-85.5 41t-96 18.5q-94 0 -201 -88l-86 176q142 131 280 131q63 0 120.5 -18.5t94.5 -41.5t90 -41.5t107 -18.5q107 0 197 79z" />
    <glyph glyph-name="notequal" unicode="&#x2260;" horiz-adv-x="1155" 
d="M1047 307h-472l-98 -248h-233l98 248h-233v211h315l72 180h-387v211h469l98 248h235l-98 -248h234v-211h-318l-72 -180h390v-211z" />
    <glyph glyph-name="lessequal" unicode="&#x2264;" 
d="M958 481l-163 -184l-682 526l680 527l165 -176l-495 -349zM981 0h-836v219h836v-219z" />
    <glyph glyph-name="greaterequal" unicode="&#x2265;" 
d="M1014 825l-680 -528l-166 178l496 348l-496 344l164 183zM981 0h-836v219h836v-219z" />
    <glyph glyph-name="lozenge" unicode="&#x25ca;" horiz-adv-x="1282" 
d="M1237 688l-510 -706h-164l-518 712l514 707h160zM950 678l-319 438l-297 -416l315 -436z" />
    <glyph glyph-name="zero.mono" unicode="&#xe023;" 
d="M1061 621q0 -150 -41.5 -274t-112.5 -204.5t-163 -124t-195 -43.5q-107 0 -193 34.5t-153 108t-103.5 199.5t-36.5 297q0 148 42 270.5t113 202t164 123t196 43.5q80 0 149 -19.5t131.5 -66t106.5 -117.5t70 -180.5t26 -248.5zM795 608q0 432 -234 432
q-101 0 -166 -103.5t-65 -315.5q0 -120 16.5 -205t48.5 -134t73 -70.5t95 -21.5q103 0 167.5 101t64.5 317z" />
    <glyph glyph-name="one.mono" unicode="&#xe024;" 
d="M1032 0h-864v223h332v740l-301 -207l-84 205l430 268h213v-1006h274v-223z" />
    <glyph glyph-name="two.mono" unicode="&#xe025;" 
d="M979 0h-846v203l191 188q202 182 267.5 270t65.5 179q0 86 -50.5 135t-147.5 49q-68 0 -136 -26t-116 -64l-64 217q164 102 369 102q207 0 315.5 -105t108.5 -265q0 -132 -72 -248t-225 -254l-156 -150l-4 -4q163 9 500 9v-236z" />
    <glyph glyph-name="three.mono" unicode="&#xe026;" 
d="M967 279q0 -207 -166 -340.5t-424 -133.5q-124 0 -234 35l37 221q100 -38 221 -38q133 0 211 64t78 163q0 96 -69 152.5t-201 56.5q-17 0 -164 -6v196h47q178 0 270.5 57t92.5 162q0 84 -56 129t-151 45q-132 0 -250 -69l-43 207q163 73 344 73q202 0 311 -92.5
t109 -249.5q0 -112 -60 -193t-157 -116l-2 -6q112 -17 184 -107t72 -210z" />
    <glyph glyph-name="four.mono" unicode="&#xe027;" 
d="M1061 166h-187v-336h-245v336h-549l-23 207l473 856h344v-840h187v-223zM633 389v588h-2l-326 -590q80 2 328 2z" />
    <glyph glyph-name="five.mono" unicode="&#xe028;" 
d="M979 315q0 -220 -166.5 -365t-429.5 -145q-105 0 -213 27l25 223q89 -30 208 -30q140 0 219.5 72.5t79.5 185.5q0 108 -79 167.5t-222 59.5q-113 0 -192 -14v733h709v-238l-474 2v-282q20 2 60 2q222 0 348.5 -112.5t126.5 -285.5z" />
    <glyph glyph-name="six.mono" unicode="&#xe029;" 
d="M1024 477q0 -226 -130 -363t-335 -137q-215 0 -334 154t-119 449q0 203 50 361.5t139 257t207 149.5t258 51q94 0 141 -8l-4 -220q-73 15 -145 15q-146 0 -241.5 -88.5t-133.5 -259.5q-3 -9 -6 -24.5t-7 -34.5t-6 -29h2q43 61 113 96t150 35q189 0 295 -113.5t106 -290.5
zM768 438q0 109 -52 171.5t-147 62.5q-90 0 -145 -68.5t-55 -152.5q0 -113 52.5 -187t149.5 -74q92 0 144.5 69t52.5 179z" />
    <glyph glyph-name="seven.mono" unicode="&#xe02a;" 
d="M997 1014q-299 -607 -422 -1184h-278q69 299 179 602.5t235 558.5q-114 -6 -574 -6v244h860v-215z" />
    <glyph glyph-name="eight.mono" unicode="&#xe02b;" 
d="M1020 373q0 -127 -66.5 -220t-173 -138.5t-237.5 -45.5q-201 0 -316.5 99.5t-115.5 263.5q0 102 56.5 189.5t178.5 168.5q-203 127 -203 334q0 172 121 280.5t314 108.5q185 0 295 -93t110 -241q0 -103 -51 -185.5t-164 -162.5q252 -136 252 -358zM729 1061q0 68 -42 113
t-126 45q-81 0 -126.5 -48.5t-45.5 -119.5q0 -61 43.5 -113t136.5 -102q85 58 122.5 111t37.5 114zM762 344q0 77 -54 133t-167 113q-172 -113 -172 -240q0 -80 52.5 -130t143.5 -50q85 0 141 49t56 125z" />
    <glyph glyph-name="nine.mono" unicode="&#xe02c;" 
d="M1020 659q0 -210 -51.5 -373.5t-144 -266.5t-217 -156t-275.5 -53q-86 0 -189 18l25 225q85 -26 182 -26q148 0 250 93.5t133 258.5q6 32 17 86h-2q-43 -59 -112.5 -92t-154.5 -33q-181 0 -285 116t-104 304q0 217 132.5 355t336.5 138q213 0 336 -150t123 -444zM741 780
q0 116 -52.5 187t-145.5 71q-91 0 -145 -68.5t-54 -176.5t52 -172t143 -64q90 0 146 68.5t56 154.5z" />
    <glyph glyph-name="zero.expert" unicode="&#xe02d;" 
d="M1053 700q0 -181 -40.5 -322.5t-111 -227.5t-159.5 -129.5t-191 -43.5q-92 0 -165 22.5t-132.5 75t-99 134.5t-61 204.5t-21.5 282.5q0 344 136 525.5t365 181.5q116 0 203 -39t150 -121.5t95 -218.5t32 -324zM770 692q0 188 -23.5 296.5t-68 151t-117.5 42.5
q-207 0 -207 -477q0 -190 21 -298.5t65.5 -156t122.5 -47.5q102 0 154.5 116.5t52.5 372.5z" />
    <glyph glyph-name="one.expert" unicode="&#xe02e;" 
d="M1038 0h-919v236h346v876l-297 -117l-41 248l414 139h194v-1146h303v-236z" />
    <glyph glyph-name="two.expert" unicode="&#xe02f;" 
d="M1010 0h-906v213l197 205q228 229 299.5 334t71.5 211q0 88 -58 144t-163 56q-156 0 -289 -94l-45 236q167 98 393 98q113 0 201.5 -32t142.5 -87t81.5 -125t27.5 -151q0 -147 -71 -273.5t-263 -320.5l-162 -164l-4 -4q203 8 547 8v-254z" />
    <glyph glyph-name="three.expert" unicode="&#xe030;" 
d="M991 440q0 -211 -168.5 -335.5t-449.5 -124.5q-130 0 -240 30l25 232q105 -39 243 -39q148 0 228 61.5t80 155.5q0 87 -72.5 137.5t-218.5 50.5q-101 0 -209 -12v209h59q194 0 305 53t111 158q0 77 -57 121.5t-164 44.5q-155 0 -285 -70l-24 225q164 66 362 66
q218 0 330 -90.5t112 -249.5q0 -114 -60.5 -193.5t-170.5 -115.5l-2 -4q116 -15 191 -103.5t75 -206.5z" />
    <glyph glyph-name="four.expert" unicode="&#xe031;" 
d="M1083 317h-184v-317h-258v317h-580l-24 220l506 845h356v-829h184v-236zM645 553v567h-2l-344 -571q90 4 346 4z" />
    <glyph glyph-name="five.expert" unicode="&#xe032;" 
d="M997 471q0 -216 -167.5 -353.5t-444.5 -137.5q-119 0 -223 24v238q118 -37 244 -37q145 0 224 67t79 170q0 102 -82 157.5t-234 55.5q-113 0 -215 -16v743h770v-249l-520 2v-273q13 0 39.5 1t34.5 1q234 0 364.5 -110t130.5 -283z" />
    <glyph glyph-name="six.expert" unicode="&#xe033;" 
d="M1051 479q0 -229 -135 -365.5t-353 -136.5q-230 0 -359.5 154.5t-129.5 450.5q0 202 52.5 359.5t146.5 257t220.5 151t278.5 51.5q97 0 154 -8v-234q-90 17 -166 17q-157 0 -259 -85.5t-143 -252.5q-12 -29 -18 -82h2q46 61 118.5 95t157.5 34q205 0 319 -115t114 -291z
M784 442q0 105 -57 165.5t-162 60.5q-95 0 -154 -66.5t-59 -146.5q0 -110 59 -182t167 -72q95 0 150.5 67.5t55.5 173.5z" />
    <glyph glyph-name="seven.expert" unicode="&#xe034;" 
d="M1022 1157q-136 -260 -256.5 -564t-206.5 -593h-295q89 299 211 601t244 529q-152 -4 -617 -4v256h920v-225z" />
    <glyph glyph-name="eight.expert" unicode="&#xe035;" 
d="M1044 381q0 -128 -68 -221.5t-180.5 -139t-254.5 -45.5q-218 0 -337.5 99t-119.5 266q0 97 56 182.5t184 167.5q-110 69 -159.5 146.5t-49.5 179.5q0 178 129 286.5t336 108.5q198 0 314 -94.5t116 -243.5q0 -101 -54.5 -181t-173.5 -159q136 -72 199 -158.5t63 -193.5z
M743 1053q0 66 -47.5 105.5t-134.5 39.5t-136.5 -44t-49.5 -110q0 -59 46 -106.5t150 -101.5q91 58 131.5 109.5t40.5 107.5zM774 352q0 72 -56.5 124.5t-180.5 109.5q-93 -55 -137 -108.5t-44 -115.5q0 -77 54.5 -123t154.5 -46q93 0 151 43t58 116z" />
    <glyph glyph-name="nine.expert" unicode="&#xe036;" 
d="M1042 811q0 -406 -181.5 -618.5t-534.5 -212.5q-98 0 -181 14v235q93 -24 205 -24q158 0 258 82t131 235q2 17 7 42t6 34h-2q-89 -113 -281 -113q-189 0 -295 115t-106 311q0 224 134.5 359t354.5 135q107 0 194.5 -35t153 -106t101.5 -186t36 -267zM752 932
q0 115 -55.5 182.5t-153.5 67.5q-96 0 -154.5 -67.5t-58.5 -168.5q0 -107 54.5 -169t150.5 -62q98 0 157.5 65t59.5 152z" />
    <glyph glyph-name="Euro.captab" unicode="&#xe037;" 
d="M805 451h-344q27 -129 97 -191.5t194 -62.5q116 0 235 45l45 -205q-152 -60 -332 -60q-454 0 -524 474h-147v157h135q-2 12 -2 39q0 43 4 117h-137v158h161q51 240 195 361.5t373 121.5q141 0 260 -33l-43 -221q-113 37 -225 37q-231 0 -287 -266h342v-158h-367
q-2 -25 -2 -76q0 -53 2 -80h367v-157z" />
    <glyph glyph-name="cent.captab" unicode="&#xe038;" 
d="M995 244q-115 -49 -223 -58v-198h-178v188q-223 11 -347 140t-124 376q0 223 129.5 372.5t341.5 172.5v156h178v-156q122 -7 213 -47l-41 -207q-80 37 -172 43v-629q102 10 184 49zM594 1022q-92 -20 -154.5 -102.5t-62.5 -206.5q0 -136 57.5 -214.5t159.5 -99.5v623z
" />
    <glyph glyph-name="dollar.captab" unicode="&#xe039;" 
d="M1042 422q0 -168 -112 -280.5t-307 -141.5l-9 -264h-174l11 256q-185 3 -330 57l39 242q139 -68 301 -80l8 383q-187 46 -282 133t-95 250q0 157 107.5 263.5t298.5 129.5l6 207h174l-8 -203q144 -7 248 -41l-37 -207q-97 39 -219 45l-9 -368q89 -24 155 -53.5t121.5 -74
t84 -108t28.5 -145.5zM492 1165q-73 -9 -114.5 -52.5t-41.5 -111.5q0 -59 36 -95t111 -62zM788 385q0 61 -36.5 101t-112.5 69l-8 -340q76 14 116.5 57t40.5 113z" />
    <glyph glyph-name="florin.captab" unicode="&#xe03a;" 
d="M1030 1464l-31 -207q-75 21 -145 21q-161 0 -178 -221l-14 -197h319v-192h-330l-43 -576q-10 -143 -40.5 -240.5t-84.5 -155t-125.5 -82t-171.5 -24.5q-64 0 -153 19l30 209q49 -21 123 -21q75 0 117.5 60t52.5 188l45 623h-282v192h297l10 176q15 233 120 340t304 107
q96 0 180 -19z" />
    <glyph glyph-name="sterling.captab" unicode="&#xe03b;" 
d="M997 0h-850v190q118 70 176 144t58 178q0 52 -12 137h-222v193h199q0 5 -10 91.5t-10 125.5q0 196 109.5 293.5t307.5 97.5q102 0 207 -20l-22 -205q-82 18 -168 18q-85 0 -133.5 -46t-48.5 -132q0 -25 3 -59.5t8.5 -85t8.5 -78.5h313v-193h-295q7 -75 7 -117
q0 -104 -37.5 -177.5t-122.5 -141.5q82 4 135 4h399v-217z" />
    <glyph glyph-name="yen.captab" unicode="&#xe03c;" 
d="M1096 1382l-353 -731h248v-162h-303v-143h303v-164h-303v-182h-252v182h-301v164h301v143h-301v162h248l-346 731h274l183 -413q21 -46 73 -195h4q59 162 76 199l180 409h269z" />
    <glyph glyph-name="designer" unicode="&#xe07b;" horiz-adv-x="2695" 
d="M1939 -70q-14 -18 -53 -23t-51 -13q-28 -3 -46 -6.5t-37.5 -16.5t-27.5 -35q-6 -17 -25.5 -50t-28.5 -61t-3 -57q6 -24 53 -12q3 0 12 8.5t17 3.5q5 -6 4 -8.5t-7 -8.5t-7 -9q-43 -26 -78 -11q-37 37 -27 74q8 41 72 152q-21 11 -64.5 1.5t-64.5 -1.5q10 13 55 28
q11 2 36 2.5t41.5 5.5t25.5 21q8 13 9.5 30t0 31.5t0.5 32.5q-4 1 -6.5 3.5t-3 5.5t-1 5.5t0 6t0.5 4.5q-6 11 -14 20t-15.5 15t-20.5 10t-19.5 6.5t-23 4t-21.5 2t-23.5 1t-20.5 0.5q-44 -3 -84.5 -34t-58.5 -72q-24 -58 6 -133q-4 -26 12 -62t26.5 -60t-3.5 -67
q-18 -15 -54 -2q-17 8 -24.5 24t-12.5 42.5t-8 35.5q12 9 15 36t10 36q4 10 0.5 27t-15.5 22q-12 -2 -47 -2.5t-58.5 -5.5t-41.5 -20q1 -5 3 -24.5t2.5 -27.5t1.5 -25t-1.5 -27t-6 -23t-11.5 -23t-19 -18q-22 -5 -49 8q-10 9 -14.5 21.5t-4.5 22t1.5 26t1.5 24.5
q2 4 14 30.5t17.5 36t19.5 24t31 20.5q20 -12 67 2l101 2q7 7 8.5 27.5t3.5 25.5q20 62 67 107t109 49q81 7 131 -17q2 -15 23 -27t24 -26q5 -8 8.5 -17t4 -20.5t1 -19.5t-1.5 -22t-2.5 -19.5t-4 -21.5t-3.5 -19q46 0 178 24zM1108 -111q-11 -8 -33 4.5t-35 4.5
q-20 -14 -29.5 -50.5t-19.5 -48.5q-1 -14 -8.5 -50t-7.5 -56q-21 -11 -29 -8q-7 9 -7 22.5t3 28.5t2 22q11 13 12 45.5t7 44.5q-5 8 -6.5 28t-2.5 24q-5 2 -15 -4t-15 2q5 19 28 36q11 0 19.5 -7t10.5 -11.5t9 -17.5q6 2 14.5 11.5t15 16t17 9t19.5 -8.5zM836 -18
q-1 -44 2.5 -121.5t3.5 -128.5t-7.5 -114t-33 -116t-70.5 -96q-64 -39 -144 -49.5t-153 10.5q-24 14 -24 29q3 15 5 21.5t7 18.5t13 18.5t20 10.5q-2 -5 -12.5 -28.5t-12.5 -38.5q57 -31 128.5 -26.5t129.5 36.5q27 9 46.5 29.5t27.5 39.5t18.5 48.5t18.5 44.5
q21 123 12 299q6 13 1.5 49t-1.5 49q-4 13 -25 2q-9 -9 -22 -34t-23 -33q3 -21 -21 -41t-24 -37q-63 -70 -147 -193q-2 -3 -6 -10t-6 -10t-6 -7.5t-8.5 -6t-10.5 -0.5q-12 16 -12 37t3.5 46t0.5 41q3 10 11 43.5t17 57t25 43.5q46 120 135 176q7 4 18 2t16.5 -2.5t15.5 -5.5
t15 -8t14.5 -9.5t14.5 -9.5q18 21 25 49q25 -9 25 -41q-9 -4 -3.5 -16.5t3.5 -17.5zM1497 428q-28 -4 -127 -33t-156 -24q-9 -8 -11.5 -32.5t7 -43t31.5 -10.5q2 2 9 20.5t16 22.5q15 -32 -17 -68q-6 -3 -16 -4.5t-22.5 3t-23 14.5t-15.5 32.5t-1 54.5q-15 20 -10 29
q11 8 17 20t7.5 21.5t3.5 27t3 25.5q-2 1 -4 4.5t-4 4.5q-27 -18 -56.5 -64.5t-42.5 -60.5q0 -18 -24.5 -48t-20.5 -53q-5 -5 -8 -32t-24 -29q-22 5 -27.5 20t-2.5 39.5t1 34.5q-4 26 2 71t2 68q-14 -8 -25.5 -32t-17.5 -31q-5 -6 -22.5 -36t-34.5 -41.5t-43 -6.5
q-11 16 -13 35t4.5 39.5t14.5 36t20 36.5q5 5 15.5 18t16.5 20t18.5 17t21.5 9.5t25 -2.5q10 -5 20 0q34 78 41 184l20 16q12 -3 15 -10t-0.5 -14.5t-6.5 -17t-1 -15.5q-4 -29 -18 -106t-17 -119q-1 -13 -5 -40t-4 -39t5 -40q8 11 54 82.5t81 105.5q28 40 65 62q9 -7 30 -28
t32 -29q0 -8 -1.5 -25.5t-1.5 -31.5t3 -25l67.5 13.5t76.5 15.5t65 16q16 -10 14 -27zM2179 1190q-5 66 -35.5 123.5t-87.5 83.5q9 13 19.5 16.5t22.5 -5.5t18 -15t19 -23l13 -18q41 -50 54.5 -116.5t4 -130t-35.5 -126.5q-31 -72 -86.5 -131.5t-126.5 -89.5q69 50 98 98
q87 87 98 164q37 59 25 170zM1995 983q-17 -43 -49 -51q-19 6 -41 35l4 28q7 -2 10 -15.5t12 -16.5q14 -4 33 22q17 101 -31 178l-12 -6q-7 -7 -23.5 -21t-24 -21.5t-18 -21.5t-16.5 -28l-16 -8q-18 -18 -47.5 -58.5t-46.5 -56.5q-15 -2 -21 6t-8.5 24t-5.5 21q8 21 -6 35
q-9 1 -14 -9t-7 -11q-31 -31 -65 -33q-27 7 -31 24.5t4.5 47t7.5 43.5q5 19 16.5 38.5t21 30.5t30.5 33q5 1 20.5 6t24.5 7t21 -1.5t20 -15.5l8 -12q-7 -20 -11 -43t-7.5 -59.5t-4.5 -45.5q5 -20 17 -20q14 0 21.5 8.5t13.5 21.5t12 19q60 52 160 160q20 -7 23.5 -43.5
t8.5 -43.5q11 -5 7 -16q22 -44 10 -131zM1716 1384q-7 -12 -21 -20.5t-28 -7.5q-12 23 -25 12q-75 -58 -122 -108.5t-68 -112.5q-8 -48 -10 -87.5t2 -85t23 -83.5t53 -64q12 -9 26.5 -11.5t36.5 -1t31 0.5q8 5 21.5 17.5t21.5 17.5q2 -11 -5 -18.5t-20 -15.5t-18 -13
q-31 -12 -66.5 -5t-60.5 29q-47 43 -55 95q-14 5 -9 21.5t-4 23.5q5 8 -2.5 28t0.5 33q-2 59 16 113t55 101t74 82.5t89 76.5q3 0 17 3t22 3.5t16.5 -5t9.5 -18.5zM1341 1020q-14 -36 -46 -61t-70 -25q-95 0 -131 65q-22 34 -11 103q2 12 15 30t14 31q59 49 131 25
q3 -2 8 -5t8 -4.5t5.5 -5.5t1.5 -10q-5 -4 -9 -2.5t-11 6t-13 4.5q-56 15 -103 -32q-40 -65 -20 -113q46 -61 111 -70q2 1 33.5 7t43.5 22q6 4 12.5 16t13.5 18t17 1zM1026 963q-4 -10 -11.5 -31.5t-15 -37.5t-18.5 -30q-13 -6 -24.5 1t-18.5 20q-32 76 -20 153q-3 2 0.5 50
t-5.5 63q-14 -32 -14 -81t-6 -92t-35 -73q-3 -3 -10.5 -5.5t-18 -1t-21 8.5t-20 26.5t-14.5 49.5q4 25 8.5 73.5t8.5 73.5q1 7 -2 19t-3 22t9 17q15 7 26 -8q1 -30 -4.5 -83t-5.5 -92.5t14 -62.5q17 -12 25 -1t11 32.5t7 25.5q4 22 6 82t11 90q4 4 9.5 15t9 17t12 10
t18.5 -5q19 -54 14.5 -155.5t12.5 -155.5q2 -6 9 -7.5t13 5.5l4 11q4 11 9 23.5t13 23t17 10.5zM707 901l-3 -3q-4 -4 -7 -5.5l-10 -5t-18.5 -5.5t-29 -5t-44 -6t-60.5 -5q-148 -13 -261 -51q-2 -5 -5 -8t-6.5 -5t-6 -3t-7 0t-6.5 1t-7 2t-6.5 3t-6.5 3.5t-6 2.5
q-2 14 14.5 27.5t18.5 21.5q25 51 39 98q-3 12 18 54q118 273 152 426q-7 30 6 43q7 3 11.5 0t9 -10t6.5 -9q-20 -114 -103 -311t-106 -287l4 -4q29 4 93 16.5t112.5 19t97.5 7.5q62 -11 110 6zM1446 -315q21 45 -21 110q-12 -15 -16 -55q3 -17 5 -25t10.5 -18t21.5 -12z
M1200 -150l-29 -38q-12 -65 -2 -95q9 -6 23.5 -4.5t23.5 16.5t1 35q19 80 -17 86zM762 -12q-6 21 -31 26t-43 -4q-59 -51 -82 -82q-8 -26 -31.5 -77t-35 -92.5t-7.5 -82.5q4 -1 6 0t4 4.5t3 4.5q22 29 75.5 89.5t88.5 110.5t53 103zM1227 426q19 45 -4 49l-11 -59q6 1 9 2.5
t4 4t2 3.5zM948 430l-4 41q-25 6 -47 -29q-63 -80 -43 -129q13 -5 23 15q49 53 71 102zM1696 1178q-7 6 -14.5 -1.5t-10.5 -5.5q-80 -41 -76 -163q9 -2 25 8t25 8q4 11 17 29.5t21 31t11.5 32.5t-11.5 34q13 0 13 27z" />
    <glyph glyph-name="FoFa" unicode="&#xe07d;" horiz-adv-x="1966" 
d="M1802 1169q0 -8 -4 -8q-21 1 -28.5 1t-28.5 -2t-29 -3q-137 -6 -184 -14q-11 -10 -14.5 -35.5t-6.5 -32.5q0 -7 4 -17.5t5 -13.5q7 -10 28 -14q35 4 47 27q0 13 -14 24q-5 4 -20.5 5.5t-20.5 9.5q4 6 10.5 7.5t18.5 0t16 -1.5q21 -6 31 -33q-3 -31 -37 -55
q-7 -2 -21.5 -5t-21.5 -5q-72 17 -92 49q-4 21 -3.5 31t4.5 29.5t5 29.5q-3 5 -8 7t-11 1t-12 0l-67 -2q0 2 -2.5 4t-2.5 4q5 4 16.5 5t12.5 1q11 -2 24.5 -2t29.5 1t24 1q10 8 10 35q3 6 7 30t12 32q9 2 12 1t8.5 -7.5t7.5 -8.5q7 -11 7 -35.5t4 -38.5q4 -7 13 -8.5
t16.5 0.5t15.5 0q4 0 86.5 3t144.5 10q6 -3 8 -7zM1333 1032l-6 -4q-71 0 -104 -10q-2 1 -7 2.5t-8 2.5t-6.5 4t-5.5 7q12 77 2 115q-2 2 -4.5 2.5t-6 -1t-6.5 -3t-6.5 -3.5t-5.5 -3q-80 -49 -84 -99q-19 -19 -38 -10q-8 10 -6.5 31t-0.5 33l-2 63q-4 4 -16 3.5t-21 0.5
q-2 1 -8 1.5t-10 2.5t-4 7q14 -1 52.5 2.5t53.5 -0.5q7 -6 6 -30t13 -26q17 7 51.5 29t54.5 29q5 -3 26 -3t24 -16q4 -17 4 -48.5v-39.5q1 -3 2 -12t6 -12q19 -4 26 0q5 0 16.5 -2.5t18.5 -2.5q5 -5 0 -10zM915 1145q6 -41 -14 -64q-10 -6 -26 -20t-30 -22.5t-30 -10.5
q-8 3 -14 -6t-13 -4q-2 6 -24.5 4t-26.5 -2q-29 0 -43 6q-33 30 -38 47q-3 14 1 27q13 42 50 61q4 2 17.5 9t18 9t19 7t20.5 3.5t21 -1.5q91 -4 112 -43zM926 1360q-10 -12 -27.5 -17t-32.5 0q-26 35 -28 50q-12 19 -33 32.5t-37 18.5t-47.5 12t-42.5 10l-64 4
q-3 -3 -12 -2.5t-14 -1.5q-63 -19 -113 -43q-2 -3 -27.5 -23t-27.5 -38q-19 -49 -23 -143q5 -4 13 -5t17.5 0t14.5 0q48 5 176 5q8 -4 3 -15q-10 -10 -32 -1t-32 5q-13 1 -42 -1t-42 -1q-7 -1 -24 -2.5t-29 -4t-21 -7.5l-6 -8q-4 -50 2 -129q1 -4 0.5 -29t7.5 -29
q39 -2 77.5 2t64.5 5q3 2 6.5 2t6.5 -0.5t7 -2t6 -2.5q1 -1 1 -4t1 -4l-8 -4q-25 7 -80 0t-94 -4q-75 -5 -94 -4q-91 -4 -131 6l-4 6q7 7 18 11q7 -4 17.5 -6.5t18.5 -3.5t22.5 -2.5t21.5 -2.5q5 1 17.5 1t21 1.5t14.5 5.5q-1 39 10 101.5t13 89.5q-2 4 -6 8q-12 1 -37.5 0
t-43 1t-34.5 9q-1 4 1 7.5t5 3.5q41 -11 115 -7l4 7q12 92 31 135v6q95 112 243 127q62 8 144 -27q5 -2 19.5 -3.5t21.5 -4.5q86 -18 127 -72q4 -4 0 -18zM1579 -119l-8 -8q-27 2 -98 -5t-101 -3q-64 3 -213 -7t-231 -1q-19 -3 -39 -4t-42 0t-36.5 2t-41.5 4t-38 4
q-36 3 -75.5 3.5t-94.5 -0.5t-78 -1q-135 0 -204 -17q-24 -5 -31 9q0 9 -1.5 40.5t0 52.5t7.5 40q2 20 2 77t4 87q-5 30 -1 91t-1 91q0 51 6.5 146t7.5 122q3 52 1.5 146.5t0.5 146.5q6 14 24 13.5t30 0.5q5 -8 37.5 -5t37.5 3q25 24 27 2q1 -2 0.5 -12t5.5 -12
q-3 -72 -2 -112t8 -151.5t9 -148.5q45 14 121 57.5t116 57.5q6 2 19.5 11.5t23.5 12.5q1 0 5 4t7 4.5t9 -1.5q5 -2 7 -6.5t1.5 -8.5t-1.5 -10.5t-1 -9.5q-19 -60 -10 -125q3 -5 7.5 -5.5t11.5 1.5t9 2q13 10 37 24.5t33 20.5q57 34 84 43q5 4 19 13.5t20.5 14t17.5 11.5
t21 12t20 8l41 33q3 8 12 14q7 0 23 -12q0 -19 6 -58t6 -59q1 -4 6 -4.5t6 -3.5q4 -5 4 -11t-1 -10t-3.5 -11t-3.5 -9l4 -4q47 10 125 65t123 66q6 6 22 13t23 14q10 1 25 13.5t24 16.5t29 -6q11 0 14 -8q-1 -5 0 -8.5t4.5 -8.5t4.5 -7q-3 -9 -0.5 -29.5t-3.5 -26.5
q1 -10 0 -32.5t1 -37.5t9 -28q-2 -8 5 -25t-1 -22q1 -11 0 -19.5t1 -18.5t7 -17q5 -29 -2 -37q2 -10 5 -43.5t9 -51.5q-3 -4 -3 -9.5t1.5 -12.5t1.5 -10q0 -53 12 -152t13 -149l3 -9q2 -9 -1 -10zM870 1104q-13 63 -53 70q-2 -6 -7 -7.5t-12 0t-10 0.5q-14 6 -29 2.5
t-24 -14.5q-5 -7 -8 -13.5t-3 -14t-0.5 -12.5t2.5 -13.5t4 -12.5t7 -13t7.5 -11.5t8 -13t7.5 -11.5q2 -4 6 -5.5t8.5 -0.5t9.5 0q13 -1 18 0t17.5 7.5t16.5 7.5q2 2 16.5 13t18.5 20t-1 22zM1513 -20q-21 48 -36 65q-5 9 -17 26.5t-19 31.5t-9 30q-2 3 -5.5 9t-5 8.5t-3 8.5
t0.5 9q10 12 35 28t33 25l-19 35q-15 -1 -38 -10t-25 -10t-8 -6t-10 -7.5t-10 -2.5t-11 5q4 108 2 160l-4 6q-10 0 -55 15q-9 -72 -6 -99q-4 -11 -2 -40t-3 -40q2 -38 -2.5 -106.5t0.5 -104.5l-2 -14h49q3 1 13.5 -2t11.5 2q0 37 -2 57q1 6 -3 21t-2 24t15 13
q8 -3 12.5 -15.5t6.5 -15.5q-1 -10 9 -25.5t11 -21.5q14 -8 31 -34t29 -34q3 1 11 -2.5t15 -1.5q4 0 8 4t4 9zM1245 367q-8 23 -24 30q-5 5 -11.5 5.5t-9.5 -5.5q-10 -13 -13 -30.5t5 -30.5q3 -10 16 -11.5t23 3.5q18 12 14 39zM1249 31q0 27 -2 79t-2 76q0 6 1 17.5t1 20.5
t-2 16q-12 6 -18.5 5.5t-19 -3.5t-19.5 -2q-8 -14 -9.5 -33t0 -35t-0.5 -35q-2 -3 -7 -53q1 -6 1.5 -40t11.5 -50q31 0 61 10q4 8 4 27zM1147 252q-1 0 -7.5 -0.5t-9 -1t-8 -1.5t-8.5 -2t-8 -3t-8 -4.5t-6.5 -6t-6.5 -8.5q-3 -3 -6 -14t-8 -17.5t-16 -3.5q-4 13 -4 60
q-5 3 -15.5 0t-15.5 0q-15 -8 -23 -27q0 -139 9 -227l6 -8q7 -6 24.5 -2.5t22.5 0.5q-4 15 -1.5 43t-2.5 41q12 63 32 90q7 6 26.5 12.5t27.5 13.5q1 8 4 22.5t3.5 21.5t-1.5 22zM938 61q6 11 9 24.5t4.5 22.5t-0.5 26.5t-3 24t-5 27.5t-5 25q2 7 -9 15t-25 14.5t-17 9.5
q-3 4 -9.5 4t-7.5 -6q-23 3 -39 -8q-8 -4 -16 -16t-12 -15q-10 -7 -19 6q10 49 -6 152l-4 14h-16q-11 -4 -14.5 -12.5t-3 -21t-1.5 -17.5q-4 -23 -4 -70t-4 -70q2 -23 0 -67t0 -64q0 -10 -2.5 -34t-1.5 -39q18 -10 64 10q16 3 21.5 0t14 -14.5t13.5 -14.5q16 0 26 2
q25 14 49 41.5t23 50.5zM682 70q-8 25 -5.5 90t-14.5 84q-17 11 -48 24l-16 11q-13 -2 -23.5 -1t-23 -1t-21.5 -9q-6 -4 -9.5 -10.5t-4.5 -11.5t-1.5 -16t-0.5 -15q16 -6 32 -2t33.5 1.5t26.5 -17.5q-1 -4 3 -12.5t-1 -12.5q-6 -11 2 -16q3 -4 1.5 -11t-7.5 -8
q-10 -3 -29 -3.5t-28 -2.5q-38 -15 -51 -76q-4 -7 -1.5 -22.5t-2.5 -20.5q0 -22 30 -35q11 11 17 5q10 -3 19.5 2t21.5 15.5t18 14.5q13 3 14.5 -5t-1 -18.5t4.5 -17.5q4 -5 16.5 -0.5t16.5 4.5q3 1 10 3t12 4t9 6zM508 371q-26 5 -107 0q-36 -4 -55 -17q-1 -25 -7 -72.5
t-7 -60.5q3 -39 2.5 -112t1.5 -113q3 0 15.5 2.5t13.5 -0.5q7 2 23.5 -1.5t23.5 1.5q1 22 2 65t2 64q5 11 33 25q4 2 15.5 0.5t14.5 5.5l-2 57q-4 4 -9.5 6t-9.5 2.5t-12.5 0t-11.5 -0.5q-8 -8 -14 -8q-9 2 -12 9.5t-4 19t-3 16.5q-4 8 9 21q29 9 79 16l13 8q-2 14 2 35.5
t4 30.5zM881 158q13 -30 7.5 -60.5t-26.5 -52.5q-2 -3 -5 -5.5t-6 -3.5t-7 -2.5t-6 -2.5q-12 1 -19.5 9t-9.5 15.5t-4.5 22.5t-3.5 20q1 5 5 30t11 36q7 4 18.5 20.5t24.5 16.5l6 -6q-3 -10 5.5 -21t9.5 -16zM604 86q0 -22 -29 -47l-13 -7q-13 -6 -21 -1q-8 2 -9.5 7.5t2 17
t3.5 12.5q0 13 18 20q12 0 20 8q2 0 9 -0.5t12 -2.5t8 -7z" />
    <glyph glyph-name="dieresis.narrow" unicode="&#xe08c;" horiz-adv-x="702" 
d="M700 1327q0 -59 -40.5 -100t-100.5 -41q-59 0 -100 41t-41 100q0 60 41 100.5t100 40.5q60 0 100.5 -40.5t40.5 -100.5zM303 1327q0 -59 -41.5 -100t-99.5 -41q-59 0 -100.5 41.5t-41.5 99.5q0 60 41.5 100.5t100.5 40.5t100 -40.5t41 -100.5z" />
    <glyph glyph-name="caroncomma" unicode="&#xe08e;" horiz-adv-x="745" 
d="M514 1544l-143 -411l-168 36l102 420z" />
    <glyph glyph-name="circumflex.cap" unicode="&#xe08f;" horiz-adv-x="872" 
d="M770 1604l-63 -140l-285 115l-272 -113l-58 131l338 175z" />
    <glyph glyph-name="tilde.cap" unicode="&#xe090;" horiz-adv-x="956" 
d="M877 1659q-94 -168 -256 -168q-48 0 -89.5 15t-65.5 33t-53 33t-55 15q-67 0 -118 -88l-129 90q94 168 256 168q48 0 89 -15t64.5 -33t52.5 -33t56 -15q66 0 119 86z" />
    <glyph glyph-name="ring.cap" unicode="&#xe091;" horiz-adv-x="747" 
d="M614 1597q0 -96 -71 -163.5t-170 -67.5q-100 0 -169 64.5t-69 162.5q0 97 70.5 163.5t169.5 66.5q101 0 170 -64.5t69 -161.5zM471 1595q0 40 -28.5 69.5t-67.5 29.5q-40 0 -69.5 -29.5t-29.5 -69.5t29.5 -69t69.5 -29t68 29t28 69z" />
    <glyph glyph-name="dotaccent.cap" unicode="&#xe092;" horiz-adv-x="587" 
d="M479 1610q0 -59 -42.5 -100.5t-102.5 -41.5t-103 42t-43 100q0 57 43 99t103 42t102.5 -41.5t42.5 -99.5z" />
    <glyph glyph-name="breve.cap" unicode="&#xe093;" horiz-adv-x="763" 
d="M672 1759q0 -120 -77.5 -199t-215.5 -79q-137 0 -213 79.5t-76 198.5h156q0 -50 38 -83.5t97 -33.5q61 0 97 33t36 84h158z" />
    <glyph glyph-name="f_ij" unicode="&#xf003;" horiz-adv-x="1892" 
d="M866 307v508h-411v-815h-260v815h-179v203h179v84q0 206 97.5 307.5t299.5 101.5q89 0 162 -16l-19 -215q-53 18 -123 18q-80 0 -118.5 -47t-38.5 -147v-86h411h262v-647q0 -84 28 -127t97 -43q99 0 168.5 97t69.5 232v488h260v-1034q0 -126 -39 -221.5t-111 -154.5
t-169.5 -88.5t-219.5 -29.5q-159 0 -307 37l25 242q139 -56 307 -56q135 0 196.5 61t61.5 187v51q0 101 18 174h-2q-48 -93 -134.5 -146.5t-207.5 -53.5q-161 0 -232 87.5t-71 233.5zM1184 1327q0 -65 -48.5 -111.5t-115.5 -46.5q-68 0 -116 46t-48 112t48 113t116 47
t116 -46.5t48 -113.5zM1769 1327q0 -65 -48 -111.5t-115 -46.5q-68 0 -116 46t-48 112t48 113t116 47t115.5 -46.5t47.5 -113.5z" />
    <glyph glyph-name="acute.cap" unicode="&#xf6c9;" horiz-adv-x="804" 
d="M651 1575l-442 -109l-43 144l426 153z" />
    <glyph glyph-name="caron.cap" unicode="&#xf6ca;" horiz-adv-x="872" 
d="M768 1640l-338 -176l-340 168l64 140l282 -115l275 112z" />
    <glyph glyph-name="dieresis.cap" unicode="&#xf6cb;" horiz-adv-x="1118" 
d="M893 1608q0 -57 -40 -96t-97 -39t-96 39t-39 96t39 96t96 39t97 -39t40 -96zM453 1608q0 -57 -40.5 -96t-97.5 -39t-97 39t-40 96t40 96t97 39t97.5 -39t40.5 -96z" />
    <glyph glyph-name="grave.cap" unicode="&#xf6ce;" horiz-adv-x="765" 
d="M612 1610l-43 -144l-440 109l59 188z" />
    <glyph glyph-name="hungarumlaut.cap" unicode="&#xf6cf;" horiz-adv-x="1032" 
d="M1040 1632l-358 -170l-76 123l340 205zM582 1657l-338 -197l-80 117l313 231z" />
    <glyph glyph-name="macron.cap" unicode="&#xf6d0;" horiz-adv-x="843" 
d="M723 1518h-600v165h600v-165z" />
    <glyph glyph-name="breve.cyr.cap" unicode="&#xf6d1;" 
d="M942 1757q0 -133 -98 -210t-285 -77q-185 0 -280 74.5t-95 212.5h234q0 -139 149 -139q69 0 104.5 35.5t35.5 103.5h235z" />
    <glyph glyph-name="caroncomma.cap" unicode="&#xf6d2;" horiz-adv-x="692" 
d="M547 1563l-250 -359l-152 82l213 375z" />
    </font>
</defs>
</svg>
