<?xml version="1.0" standalone="no"?>
<!DOCTYPE svg PUBLIC "-//W3C//DTD SVG 1.1//EN" "http://www.w3.org/Graphics/SVG/1.1/DTD/svg11.dtd" >
<svg xmlns="http://www.w3.org/2000/svg" xmlns:xlink="http://www.w3.org/1999/xlink" version="1.1">
<metadata>
Created by FontForge 20170731 at Mon Oct 12 16:26:47 2020
 By Aleksey,,,
Copyright (c) 2007 Luc(as) de Groot, published by LucasFonts, www.lucasfonts.com   All rights reserved
</metadata>
<defs>
<font id="TheSansAmstel-CondensedPlain" horiz-adv-x="901" >
  <font-face 
    font-family="TheSansAmstel Condensed"
    font-weight="500"
    font-stretch="condensed"
    units-per-em="2048"
    panose-1="2 11 5 2 5 3 2 2 2 3"
    ascent="1516"
    descent="-532"
    x-height="1018"
    cap-height="1382"
    bbox="-156 -483 3600 2005"
    underline-thickness="139"
    underline-position="-552"
    unicode-range="U+000D-FB04"
  />
<missing-glyph horiz-adv-x="1126" 
d="M614 307h-307v512h103v-409h204v-103zM1024 102h-922v922h922v-922zM717 717h-205v102h307v-512h-102v205h-205v102h205v103zM205 205h717v717h-717v-717z" />
    <glyph glyph-name="ellipsis" unicode="&#x2e;&#x2e;&#x2e;" horiz-adv-x="1103" 
d="M195 217q49 0 82.5 -33.5t33.5 -81.5q0 -50 -33.5 -83t-82.5 -33q-48 0 -81.5 33.5t-33.5 82.5q0 47 34 81t81 34zM551 217q49 0 83 -33.5t34 -81.5q0 -49 -33.5 -82.5t-83.5 -33.5q-48 0 -82.5 33.5t-34.5 82.5q0 47 35 81t82 34zM907 217q49 0 83 -33.5t34 -81.5
q0 -49 -33.5 -82.5t-83.5 -33.5q-48 0 -82 33.5t-34 82.5q0 47 34.5 81t81.5 34z" />
    <glyph glyph-name="f_b" unicode="fb" horiz-adv-x="1447" 
d="M543 1487q121 0 288 -29v-405q0 -130 -22 -240h4q33 105 104 164t168 59q146 0 222.5 -121.5t76.5 -361.5q0 -275 -112 -421t-324 -146q-131 0 -286 37v1304q-57 16 -132 16q-104 0 -152 -55t-48 -180v-90h182v-137h-182v-881h-172v881h-156v137h156v98q0 178 95 274.5
t290 96.5zM1206 539q0 350 -162 350q-94 0 -153.5 -115.5t-59.5 -298.5v-325q82 -23 134 -23q119 0 180 97.5t61 314.5z" />
    <glyph glyph-name="f_h" unicode="fh" horiz-adv-x="1466" 
d="M543 1487q121 0 288 -29v-416q0 -119 -22 -229h4q34 101 107 162t174 61q252 0 252 -321v-715h-172v670q0 113 -28.5 166t-96.5 53q-92 0 -155 -110.5t-63 -276.5v-502h-169v1327q-57 16 -132 16q-104 0 -152 -55t-48 -180v-90h182v-137h-182v-881h-172v881h-156v137h156
v98q0 178 95 274.5t290 96.5z" />
    <glyph glyph-name="f_j" unicode="fj" horiz-adv-x="958" 
d="M834 1018v-1114q0 -198 -72.5 -291.5t-224.5 -93.5q-55 0 -113 20l25 146q48 -21 96 -21q66 0 91.5 50t25.5 177v990h-332v-881h-172v881h-156v137h156v57q0 196 101.5 304t295.5 108q124 0 246 -39l-37 -143q-109 38 -209 38q-225 0 -225 -253v-72h504z" />
    <glyph glyph-name="f_k" unicode="fk" horiz-adv-x="1331" 
d="M1321 0h-207l-283 528v-528h-169v1327q-57 16 -132 16q-104 0 -152 -55t-48 -180v-90h182v-137h-182v-881h-172v881h-156v137h156v98q0 178 95 274.5t290 96.5q121 0 288 -29v-891l269 451h194l-293 -459z" />
    <glyph glyph-name="ff" unicode="ff" horiz-adv-x="1054" 
d="M1108 1464l-37 -135q-53 17 -96 17q-79 0 -113.5 -57t-34.5 -169v-102h209v-137h-209v-881h-170v881h-327v-881h-172v881h-156v137h156v43q0 190 96.5 299.5t284.5 109.5q119 0 235 -43q69 60 189 60q68 0 145 -23zM690 1296q-70 33 -160 33q-101 0 -150.5 -67.5
t-49.5 -186.5v-57h327v92q0 121 33 186z" />
    <glyph glyph-name="fi" unicode="fi" horiz-adv-x="958" 
d="M834 0h-172v881h-332v-881h-172v881h-156v137h156v57q0 196 101.5 304t295.5 108q124 0 246 -39l-37 -143q-109 38 -209 38q-225 0 -225 -253v-72h504v-1018z" />
    <glyph glyph-name="fl" unicode="fl" horiz-adv-x="958" 
d="M831 0h-169v1327q-57 16 -132 16q-104 0 -152 -55t-48 -180v-90h182v-137h-182v-881h-172v881h-156v137h156v98q0 178 95 274.5t290 96.5q121 0 288 -29v-1458z" />
    <glyph glyph-name="ffi" unicode="ffi" horiz-adv-x="1458" 
d="M1331 0h-172v881h-332v-881h-170v881h-327v-881h-172v881h-156v137h156v43q0 189 96.5 299t284.5 110q143 0 266 -55q99 72 248 72q129 0 245 -37l-34 -145q-108 41 -211 41q-116 0 -171 -68.5t-55 -192.5v-67h504v-1018zM702 1290q-77 39 -170 39q-102 0 -152 -66.5
t-50 -187.5v-57h327v55q0 138 45 217z" />
    <glyph glyph-name="ffl" unicode="ffl" horiz-adv-x="1458" 
d="M1331 0h-172v1329q-73 17 -129 17q-101 0 -152 -68t-51 -188v-72h183v-137h-183v-881h-170v881h-327v-881h-172v881h-156v137h156v43q0 189 96.5 299t284.5 110q139 0 262 -53q97 70 241 70q112 0 289 -27v-1460zM702 1290q-77 39 -170 39q-102 0 -152 -66.5t-50 -187.5
v-57h327v55q0 138 45 217z" />
    <glyph glyph-name=".notdef" horiz-adv-x="1126" 
d="M614 307h-307v512h103v-409h204v-103zM1024 102h-922v922h922v-922zM717 717h-205v102h307v-512h-102v205h-205v102h205v103zM205 205h717v717h-717v-717z" />
    <glyph glyph-name=".null" horiz-adv-x="1024" 
 />
    <glyph glyph-name=".null" horiz-adv-x="1024" 
 />
    <glyph glyph-name="nonmarkingreturn" horiz-adv-x="682" 
 />
    <glyph glyph-name="CR" unicode="&#xd;" 
 />
    <glyph glyph-name="space" unicode=" " horiz-adv-x="358" 
 />
    <glyph glyph-name="exclam" unicode="!" horiz-adv-x="499" 
d="M373 1444l-29 -1102h-147l-29 1102h205zM270 213q48 0 81.5 -33t33.5 -82q0 -47 -34 -80.5t-81 -33.5t-80.5 33.5t-33.5 80.5q0 49 33 82t81 33z" />
    <glyph glyph-name="quotedbl" unicode="&#x22;" horiz-adv-x="624" 
d="M258 1493l-27 -465h-127l-24 465h178zM543 1493l-23 -465h-127l-24 465h174z" />
    <glyph glyph-name="numbersign" unicode="#" horiz-adv-x="1034" 
d="M457 1382l-29 -348h234l26 348h154l-29 -348h174v-133h-186l-31 -391h178v-133h-188l-31 -377h-151l30 377h-233l-31 -377h-151l30 377h-176v133h186l31 391h-178v133h190l29 348h152zM418 901l-33 -391h233l31 391h-231z" />
    <glyph glyph-name="dollar" unicode="$" horiz-adv-x="851" 
d="M754 371q0 -135 -80.5 -232t-218.5 -125l-6 -256h-134l7 246q-124 0 -242 41l39 168q113 -55 225 -55q109 0 167 55t58 145q0 59 -27 107.5t-70 84t-95 69t-104.5 72t-95.5 83t-70 111t-27 147.5q0 125 72 216t202 118l6 227h134l-7 -213q120 -4 207 -32l-39 -156
q-98 37 -188 37q-98 0 -151.5 -50t-53.5 -135q0 -57 27 -104t70.5 -82t96 -69t105 -73t96 -84t70.5 -112t27 -149z" />
    <glyph glyph-name="percent" unicode="%" horiz-adv-x="1298" 
d="M1116 1368l-817 -1417l-117 63l817 1418zM322 1282q-109 0 -109 -215t109 -215q108 0 108 215t-108 215zM332 1401q119 0 182.5 -82t63.5 -242q0 -161 -71.5 -252.5t-195.5 -91.5q-119 0 -182 82t-63 242q0 162 71 253t195 91zM977 530q-52 0 -80.5 -54.5t-28.5 -160.5
q0 -215 109 -215q108 0 108 215t-108 215zM987 649q120 0 184 -81.5t64 -241.5q0 -162 -72 -253t-196 -91q-120 0 -183 81.5t-63 241.5q0 161 71.5 252.5t194.5 91.5z" />
    <glyph glyph-name="ampersand" unicode="&#x26;" horiz-adv-x="1306" 
d="M1235 98l-113 -133q-59 52 -219 199q-171 -182 -414 -182q-193 0 -294 103.5t-101 274.5q0 125 56 222t169 204q-86 120 -122.5 212.5t-36.5 179.5q0 132 83 220.5t228 88.5q133 0 210 -76.5t77 -206.5q0 -112 -51.5 -206.5t-169.5 -204.5q113 -145 354 -383
q114 217 100 503h170q6 -352 -149 -610q146 -138 223 -205zM791 268q-245 238 -375 406q-72 -75 -107 -145t-35 -150q0 -114 62 -182t170 -68q163 0 285 139zM444 901q142 142 142 289q0 72 -32.5 115t-94.5 43q-58 0 -93.5 -43.5t-35.5 -116.5q0 -124 114 -287z" />
    <glyph glyph-name="quotesingle" unicode="'" horiz-adv-x="337" 
d="M258 1493l-27 -465h-127l-24 465h178z" />
    <glyph glyph-name="parenleft" unicode="(" horiz-adv-x="526" 
d="M483 -367l-141 -51q-233 485 -233 1000q0 520 235 1007l135 -51q-205 -443 -205 -946q0 -502 209 -959z" />
    <glyph glyph-name="parenright" unicode=")" horiz-adv-x="526" 
d="M41 1538l143 51q234 -493 234 -997q0 -521 -236 -1010l-135 51q203 439 203 947t-209 958z" />
    <glyph glyph-name="asterisk" unicode="*" horiz-adv-x="679" 
d="M627 1094l-66 -113l-182 133l22 -231h-125l23 231l-180 -133l-64 111l205 96l-205 94l66 115l178 -133l-23 229h125l-20 -229l182 133l64 -113l-207 -94z" />
    <glyph glyph-name="plus" unicode="+" 
d="M858 555h-330v-360h-155v360h-330v145h330v361h155v-361h330v-145z" />
    <glyph glyph-name="comma" unicode="," horiz-adv-x="393" 
d="M113 -309l-76 65q153 191 72 293q-42 53 -14.5 113.5t98.5 60.5q53 0 85.5 -41.5t32.5 -111.5q0 -80 -47.5 -177.5t-150.5 -201.5z" />
    <glyph glyph-name="hyphen" unicode="-" horiz-adv-x="415" 
d="M397 557h-352v143h352v-143z" />
    <glyph glyph-name="period" unicode="." horiz-adv-x="393" 
d="M197 221q49 0 83.5 -34.5t34.5 -84.5t-34.5 -84t-83.5 -34t-83 34t-34 84t34 84.5t83 34.5z" />
    <glyph glyph-name="slash" unicode="/" horiz-adv-x="751" 
d="M666 1550l-447 -1880h-168l447 1880h168z" />
    <glyph glyph-name="zero" unicode="0" horiz-adv-x="997" 
d="M907 705q0 -188 -31.5 -329t-88 -226t-130.5 -126.5t-165 -41.5q-95 0 -166 35t-125 113.5t-81.5 215.5t-27.5 332q0 188 31 329t88 226t130.5 126.5t164.5 41.5q76 0 136.5 -21.5t111 -71.5t83.5 -129t51.5 -198t18.5 -276zM725 688q0 567 -225 567q-226 0 -226 -561
q0 -567 226 -567q225 0 225 561z" />
    <glyph glyph-name="one" unicode="1" horiz-adv-x="585" 
d="M442 0h-174v1206l-200 -96l-27 154l268 118h133v-1382z" />
    <glyph glyph-name="two" unicode="2" horiz-adv-x="788" 
d="M717 0h-649v141l206 318q126 192 175 313.5t49 241.5q0 104 -45.5 169.5t-135.5 65.5q-95 0 -208 -69l-37 141q144 80 282 80q161 0 244.5 -100.5t83.5 -258.5q0 -148 -59.5 -294t-196.5 -353l-160 -239v-2q150 6 451 6v-160z" />
    <glyph glyph-name="three" unicode="3" horiz-adv-x="778" 
d="M694 410q0 -197 -120 -311.5t-314 -114.5q-87 0 -197 22l27 154q89 -29 174 -29q117 0 181.5 69t64.5 191q0 124 -72 191t-209 67q-49 0 -92 -6v143q336 -11 336 263q0 99 -47.5 152.5t-134.5 53.5q-85 0 -182 -53l-29 139q123 60 250 60q161 0 242 -89.5t81 -230.5
q0 -120 -50.5 -205t-147.5 -126v-2q109 -28 174 -118t65 -220z" />
    <glyph glyph-name="four" unicode="4" horiz-adv-x="899" 
d="M860 330h-168v-330h-174v330h-475l-10 129l397 923h262v-901h168v-151zM520 481v465q0 97 4 293h-2q-63 -166 -96 -242l-227 -520q88 4 321 4z" />
    <glyph glyph-name="five" unicode="5" horiz-adv-x="788" 
d="M721 436q0 -208 -121 -330t-317 -122q-80 0 -185 24l23 154q91 -31 170 -31q117 0 181.5 76.5t64.5 210.5q0 132 -72.5 200t-233.5 68q-63 0 -94 -4v700h520v-161l-362 2v-389q213 -3 319.5 -106t106.5 -292z" />
    <glyph glyph-name="six" unicode="6" horiz-adv-x="944" 
d="M864 446q0 -210 -109.5 -337t-283.5 -127q-92 0 -161.5 37.5t-110 94.5t-65.5 138t-33.5 155.5t-8.5 159.5q0 190 31 339t96 261.5t174 172t258 59.5q61 0 119 -10l-16 -148q-44 12 -113 12q-72 0 -128.5 -24t-94 -63t-65.5 -98.5t-44 -121.5t-28 -141q-8 -50 -25 -107
l4 -2q35 69 105.5 112.5t158.5 43.5q157 0 248.5 -111.5t91.5 -294.5zM684 428q0 132 -51 206.5t-150 74.5q-94 0 -150.5 -73.5t-56.5 -189.5q0 -83 19 -153t66.5 -119t117.5 -49q99 0 152 81.5t53 221.5z" />
    <glyph glyph-name="seven" unicode="7" horiz-adv-x="747" 
d="M707 1382v-143q-99 -278 -184 -611t-130 -628h-194q56 310 148 653t173 570q-160 -4 -477 -4v163h664z" />
    <glyph glyph-name="eight" unicode="8" horiz-adv-x="913" 
d="M834 344q0 -164 -110 -263t-271 -99q-177 0 -275 94t-98 241q0 121 62 212.5t177 175.5q-109 74 -163 157t-54 195q0 150 100.5 246t264.5 96q156 0 250 -85t94 -224q0 -113 -56.5 -198.5t-160.5 -164.5q124 -80 182 -170t58 -213zM635 1071q0 89 -48 141t-130 52
q-83 0 -130.5 -52.5t-47.5 -140.5q0 -81 44.5 -142.5t139.5 -121.5q92 70 132 130t40 134zM655 326q0 68 -28 123.5t-69.5 94t-108.5 81.5q-45 -34 -75 -62t-58.5 -64t-43 -77t-14.5 -88q0 -98 55.5 -157.5t149.5 -59.5q79 0 135.5 57t56.5 152z" />
    <glyph glyph-name="nine" unicode="9" horiz-adv-x="944" 
d="M78 936q0 210 110.5 337.5t282.5 127.5q93 0 163 -37.5t110.5 -95t65.5 -139t33.5 -156.5t8.5 -160q0 -829 -539 -829q-81 0 -182 16l23 156q93 -27 168 -27q67 0 119.5 21.5t88 58.5t61.5 94.5t41.5 121t26.5 146.5q7 43 27 113h-4q-35 -69 -104.5 -111.5t-157.5 -42.5
q-157 0 -249.5 111.5t-92.5 294.5zM260 954q0 -132 50.5 -206t148.5 -74q95 0 152 73t57 189q0 83 -19 153t-66.5 119t-117.5 49q-99 0 -152 -81.5t-53 -221.5z" />
    <glyph glyph-name="colon" unicode=":" horiz-adv-x="464" 
d="M270 221q48 0 82.5 -35t34.5 -84t-34.5 -83.5t-82.5 -34.5q-51 0 -84.5 34t-33.5 84t33.5 84.5t84.5 34.5zM270 848q48 0 82.5 -35t34.5 -84t-34.5 -84t-82.5 -35q-51 0 -84.5 34.5t-33.5 84.5t33.5 84.5t84.5 34.5z" />
    <glyph glyph-name="semicolon" unicode=";" horiz-adv-x="464" 
d="M270 848q48 0 82.5 -35t34.5 -84t-34.5 -84t-82.5 -35q-51 0 -84.5 34.5t-33.5 84.5t33.5 84.5t84.5 34.5zM182 -309l-76 65q153 191 72 293q-42 53 -13.5 113.5t99.5 60.5q52 0 85.5 -41.5t33.5 -109.5q0 -79 -49 -178.5t-152 -202.5z" />
    <glyph glyph-name="less" unicode="&#x3c;" 
d="M772 158l-115 -115l-577 582l577 581l113 -110l-475 -469z" />
    <glyph glyph-name="equal" unicode="=" 
d="M811 731h-721v143h721v-143zM811 385h-721v143h721v-143z" />
    <glyph glyph-name="greater" unicode="&#x3e;" 
d="M129 1092l115 114l577 -581l-577 -582l-113 111l475 469z" />
    <glyph glyph-name="question" unicode="?" horiz-adv-x="702" 
d="M633 1059q0 -62 -19 -116.5t-48.5 -92.5t-63.5 -79.5t-64.5 -78.5t-52 -89.5t-24.5 -112.5t16 -148h-168q-23 90 -22.5 154.5t19.5 121.5t48 98t62 82.5t61.5 75.5t47.5 78t19 90q0 103 -91 173.5t-249 80.5l23 158q123 -7 220.5 -41.5t159 -88t94 -121t32.5 -144.5z
M297 213q49 0 82 -32.5t33 -82.5q0 -48 -33 -81t-82 -33q-47 0 -81 33.5t-34 80.5q0 49 33.5 82t81.5 33z" />
    <glyph glyph-name="at" unicode="@" horiz-adv-x="1478" 
d="M1397 793q0 -264 -106.5 -401.5t-278.5 -137.5q-94 0 -138 63t-34 154h-2q-26 -83 -94 -150t-150 -67q-168 0 -168 268q0 151 41 268.5t129.5 189t214.5 71.5q103 0 215 -23l-59 -403q-17 -120 3 -173t77 -53q86 0 139 98t53 279q0 111 -23.5 205.5t-73 172t-135 121.5
t-200.5 44q-123 0 -229 -61.5t-177.5 -164t-112 -238t-40.5 -282.5q0 -285 124.5 -449.5t358.5 -164.5q149 0 283 49l28 -133q-61 -25 -153 -40t-180 -15q-194 0 -335 92.5t-212.5 258t-71.5 386.5q0 182 56 347.5t152 286t232 192t289 71.5q114 0 209 -34.5t162.5 -95
t114.5 -144t69.5 -181t22.5 -206.5zM854 913q-33 13 -84 13q-47 0 -84.5 -37.5t-58.5 -95.5t-32 -120t-11 -120q0 -154 55 -154q64 0 118.5 113.5t82.5 302.5z" />
    <glyph glyph-name="A" unicode="A" horiz-adv-x="1013" 
d="M999 0h-188l-86 326h-449l-88 -326h-174l371 1382h242zM692 471l-129 483q-45 186 -61 283h-4q-18 -110 -60 -283l-129 -483h383z" />
    <glyph glyph-name="B" unicode="B" horiz-adv-x="937" 
d="M864 410q0 -82 -25 -154.5t-75.5 -132t-138.5 -94.5t-203 -35q-51 0 -293 8v1380q301 7 315 7q195 0 290 -92t95 -257q0 -103 -48 -185.5t-142 -123.5v-2q116 -29 170.5 -114t54.5 -205zM647 1022q0 223 -221 223q-29 0 -123 -4v-457q35 -2 105 -2q115 0 177 62t62 178z
M680 401q0 242 -281 242q-69 0 -96 -2v-494q77 -10 131 -10q121 0 183.5 72.5t62.5 191.5z" />
    <glyph glyph-name="C" unicode="C" horiz-adv-x="882" 
d="M842 51q-131 -69 -291 -69q-242 0 -359.5 176.5t-117.5 505.5q0 161 30 292.5t90 231t158.5 154.5t227.5 55q137 0 251 -51l-43 -154q-101 49 -206 49q-84 0 -147 -42t-100 -119t-55 -175.5t-18 -220.5q0 -545 320 -545q113 0 217 58z" />
    <glyph glyph-name="D" unicode="D" horiz-adv-x="1067" 
d="M995 709q0 -715 -575 -715q-67 0 -171.5 4t-119.5 4v1380q38 0 155.5 3.5t186.5 3.5q265 0 394.5 -163t129.5 -517zM811 698q0 279 -83 411t-263 132q-84 0 -162 -4v-1083q102 -11 139 -11q184 0 276.5 132.5t92.5 422.5z" />
    <glyph glyph-name="E" unicode="E" horiz-adv-x="804" 
d="M709 0h-580v1382h578v-147h-404v-453h381v-143h-381v-489h406v-150z" />
    <glyph glyph-name="F" unicode="F" horiz-adv-x="759" 
d="M700 1235h-397v-459h375v-143h-375v-633h-174v1382h571v-147z" />
    <glyph glyph-name="G" unicode="G" horiz-adv-x="1073" 
d="M952 1333l-53 -157q-156 71 -291 71q-97 0 -166.5 -40t-109.5 -116.5t-58 -175t-18 -227.5q0 -553 342 -553q94 0 176 31v532h174v-639q-168 -77 -373 -77q-252 0 -376.5 176t-124.5 512q0 163 30.5 293t93.5 229t169.5 153t250.5 54q171 0 334 -66z" />
    <glyph glyph-name="H" unicode="H" horiz-adv-x="1116" 
d="M987 0h-174v635h-510v-635h-174v1382h174v-596h510v596h174v-1382z" />
    <glyph glyph-name="I" unicode="I" horiz-adv-x="434" 
d="M303 0h-174v1382h174v-1382z" />
    <glyph glyph-name="J" unicode="J" horiz-adv-x="522" 
d="M393 1382v-1009q0 -193 -62 -287t-216 -94q-61 0 -113 8v145q41 -8 94 -8q68 0 95.5 44.5t27.5 172.5v1028h174z" />
    <glyph glyph-name="K" unicode="K" horiz-adv-x="931" 
d="M907 0h-202l-400 692h-2v-692h-174v1382h174v-651h2l389 651h197l-408 -657z" />
    <glyph glyph-name="L" unicode="L" horiz-adv-x="696" 
d="M682 0h-553v1382h174v-1230h379v-152z" />
    <glyph glyph-name="M" unicode="M" horiz-adv-x="1472" 
d="M831 0h-198l-225 950q-39 177 -54 281h-4q-3 -176 -22 -365l-76 -866h-170l137 1382h258l215 -905q25 -109 47 -268h2q29 181 47 268l213 905h252l138 -1382h-179l-79 866q-17 178 -21 365h-4q-34 -194 -55 -281z" />
    <glyph glyph-name="N" unicode="N" horiz-adv-x="1107" 
d="M979 0h-209l-344 791q-114 260 -152 397h-4q19 -253 19 -742v-446h-160v1382h229l324 -735q102 -231 152 -397h4q-19 253 -19 743v389h160v-1382z" />
    <glyph glyph-name="O" unicode="O" horiz-adv-x="1153" 
d="M1079 705q0 -157 -31 -287t-93.5 -228.5t-163 -153t-232.5 -54.5q-103 0 -184 33t-137 93t-93 147.5t-54 192.5t-17 232q0 124 19.5 231.5t60.5 197.5t102 154.5t147 100t191 35.5q128 0 222.5 -50t151 -143.5t84 -218t27.5 -282.5zM897 692q0 275 -81.5 416t-237.5 141
q-157 0 -239.5 -145.5t-82.5 -409.5q0 -277 82.5 -419t239.5 -142q156 0 237.5 146t81.5 413z" />
    <glyph glyph-name="P" unicode="P" horiz-adv-x="870" 
d="M821 981q0 -206 -117.5 -329.5t-316.5 -123.5q-57 0 -84 4v-532h-174v1382q143 7 287 7q202 0 303.5 -106.5t101.5 -301.5zM641 967q0 276 -238 276q-65 0 -100 -2v-559q36 -8 90 -8q121 0 184.5 77t63.5 216z" />
    <glyph glyph-name="Q" unicode="Q" horiz-adv-x="1153" 
d="M829 88q27 1 84 -14t106 -25t126 0v-153q-85 -17 -165 -5.5t-129.5 31.5t-118.5 40t-132 20h-41q-103 0 -184 33t-137 93t-93 147.5t-54 192.5t-17 232q0 124 19.5 231.5t60.5 197.5t102 154.5t147 100t191 35.5q128 0 222.5 -50t151 -143.5t84 -218t27.5 -282.5
q0 -222 -62.5 -384t-187.5 -233zM897 692q0 275 -81.5 416t-237.5 141q-157 0 -239.5 -145.5t-82.5 -409.5q0 -277 82.5 -419t239.5 -142q156 0 237.5 146t81.5 413z" />
    <glyph glyph-name="R" unicode="R" horiz-adv-x="888" 
d="M866 0h-200l-320 623h-43v-623h-174v1382q140 7 277 7q196 0 298.5 -92t102.5 -279q0 -154 -79.5 -248.5t-209.5 -122.5q42 -68 84 -147zM625 1006q0 123 -57.5 180t-170.5 57q-63 0 -94 -2v-477q36 -4 88 -4q234 0 234 246z" />
    <glyph glyph-name="S" unicode="S" horiz-adv-x="823" 
d="M748 369q0 -164 -109.5 -275.5t-304.5 -111.5q-141 0 -260 45l39 168q113 -58 223 -58q112 0 169.5 59t57.5 156q0 63 -27 113.5t-70 86.5t-95 69.5t-104.5 71t-95.5 82t-70 112t-27 151.5q0 156 103 258.5t286 102.5q123 0 225 -31l-39 -156q-95 39 -186 39
q-100 0 -153.5 -55t-53.5 -147q0 -59 27 -107.5t70.5 -83.5t96 -68.5t105 -72t96 -83.5t70.5 -113t27 -152z" />
    <glyph glyph-name="T" unicode="T" horiz-adv-x="835" 
d="M807 1233h-301v-1233h-174v1233h-303v149h778v-149z" />
    <glyph glyph-name="U" unicode="U" horiz-adv-x="1122" 
d="M995 489q0 -245 -108 -376t-332 -131q-232 0 -330 121.5t-98 359.5v919h174v-897q0 -183 61.5 -270.5t198.5 -87.5q136 0 198 83t62 259v913h174v-893z" />
    <glyph glyph-name="V" unicode="V" horiz-adv-x="1005" 
d="M987 1382l-362 -1382h-240l-367 1382h189l233 -909q50 -204 70 -319h2q19 109 72 327l225 901h178z" />
    <glyph glyph-name="W" unicode="W" horiz-adv-x="1587" 
d="M1540 1382l-268 -1382h-252l-186 942q-26 157 -41 289h-2q-9 -91 -41 -293l-183 -938h-243l-275 1382h182l179 -923q30 -171 43 -301h4q11 117 28 235l193 989h242l192 -962q25 -139 35 -262h4q12 110 43 317l170 907h176z" />
    <glyph glyph-name="X" unicode="X" horiz-adv-x="978" 
d="M952 0h-204l-154 330q-50 106 -111 264q-76 -192 -108 -266l-150 -328h-196l348 715l-326 667h201l135 -290q67 -149 107 -263h2q21 56 104 258l131 295h197l-326 -667z" />
    <glyph glyph-name="Y" unicode="Y" horiz-adv-x="884" 
d="M874 1382l-344 -890v-492h-174v492l-348 890h193l174 -479q36 -100 74 -225h2q22 82 75 235l164 469h184z" />
    <glyph glyph-name="Z" unicode="Z" horiz-adv-x="837" 
d="M768 0h-698v133l489 1096q-85 -6 -225 -6h-248v159h678v-129l-490 -1097q86 6 254 6h240v-162z" />
    <glyph glyph-name="bracketleft" unicode="[" horiz-adv-x="530" 
d="M471 -406h-338v1985h338v-141h-178v-1700h178v-144z" />
    <glyph glyph-name="backslash" unicode="\" horiz-adv-x="751" 
d="M700 -330h-168l-446 1880h168z" />
    <glyph glyph-name="bracketright" unicode="]" horiz-adv-x="530" 
d="M397 -406h-338v144h181v1700h-181v141h338v-1985z" />
    <glyph glyph-name="asciicircum" unicode="^" 
d="M831 766l-131 -57l-251 528l-250 -528l-121 55l307 618h133z" />
    <glyph glyph-name="underscore" unicode="_" 
d="M901 -483h-901v139h901v-139z" />
    <glyph glyph-name="grave" unicode="`" horiz-adv-x="522" 
d="M434 1245l-76 -82l-264 221l103 109z" />
    <glyph glyph-name="a" unicode="a" horiz-adv-x="841" 
d="M721 0h-158q0 141 8 182l-2 2q-27 -89 -99 -144.5t-171 -55.5q-109 0 -174.5 69.5t-65.5 198.5q0 166 128 259t360 89v86q0 111 -39.5 163t-130.5 52q-108 0 -234 -76l-45 125q156 86 305 86q162 0 238 -81.5t76 -243.5v-414q0 -209 4 -297zM547 424v51
q-74 2 -130.5 -7.5t-91.5 -27.5t-57 -45t-30.5 -57t-8.5 -68q0 -72 29.5 -111.5t83.5 -39.5q88 0 146.5 92t58.5 213z" />
    <glyph glyph-name="b" unicode="b" horiz-adv-x="915" 
d="M852 553q0 -275 -113 -421t-325 -146q-132 0 -287 37v1447h172v-417q0 -115 -25 -240h5q32 105 104 164t170 59q146 0 222.5 -121.5t76.5 -361.5zM672 539q0 350 -160 350q-95 0 -154 -115t-59 -299v-325q79 -23 133 -23q118 0 179 98t61 314z" />
    <glyph glyph-name="c" unicode="c" horiz-adv-x="700" 
d="M659 47q-112 -61 -233 -61q-80 0 -143.5 25.5t-114 81t-78 153.5t-27.5 233q0 268 101.5 410.5t298.5 142.5q105 0 190 -37l-41 -151q-72 43 -153 43q-108 0 -162.5 -97.5t-54.5 -283.5q0 -373 213 -373q86 0 168 49z" />
    <glyph glyph-name="d" unicode="d" horiz-adv-x="915" 
d="M788 0h-163q0 105 22 215h-4q-34 -110 -107 -171.5t-171 -61.5q-147 0 -224.5 121.5t-77.5 361.5q0 274 111.5 418.5t319.5 144.5q66 0 122 -10v452h172v-1470zM616 543v323q-71 21 -131 21q-120 0 -181.5 -96t-61.5 -312q0 -350 161 -350q94 0 153.5 115.5t59.5 298.5z
" />
    <glyph glyph-name="e" unicode="e" horiz-adv-x="839" 
d="M770 608q0 -67 -4 -108h-526v-17q0 -190 60.5 -276t180.5 -86q121 0 230 61l43 -127q-139 -71 -299 -71q-197 0 -294.5 124.5t-97.5 393.5q0 154 39 271.5t126 190t214 72.5q85 0 148.5 -32t102.5 -90t58 -135t19 -171zM596 625q0 278 -164 278q-83 0 -130 -73t-56 -205
h350z" />
    <glyph glyph-name="f" unicode="f" horiz-adv-x="552" 
d="M606 1468l-28 -141q-41 16 -103 16q-77 0 -111 -55t-34 -162v-108h209v-137h-209v-881h-172v881h-156v137h156v98q0 179 78 275t231 96q74 0 139 -19z" />
    <glyph glyph-name="g" unicode="g" horiz-adv-x="876" 
d="M840 -109q0 -163 -123.5 -267.5t-313.5 -104.5q-166 0 -258 75t-92 220q0 83 41.5 155.5t104.5 116.5q-43 21 -65.5 61t-22.5 89q0 52 25.5 97t70.5 73q-125 81 -125 270q0 158 92.5 259t257.5 101q62 0 123 -18h272v-137h-129q62 -65 62 -176q0 -164 -90.5 -258.5
t-259.5 -94.5q-41 0 -78 13q-24 -13 -36.5 -36t-12.5 -46q0 -43 31 -61t104 -23l135 -11q140 -11 213.5 -86t73.5 -211zM596 690q0 106 -44.5 161.5t-127.5 55.5q-82 0 -128 -58t-46 -159q0 -104 43.5 -158.5t128.5 -54.5q81 0 127.5 55t46.5 158zM668 -129q0 157 -164 166
l-129 8q-6 1 -24.5 3t-24.5 3q-45 -39 -74 -93.5t-29 -111.5q0 -92 57 -142t150 -50q111 0 174.5 60.5t63.5 156.5z" />
    <glyph glyph-name="h" unicode="h" horiz-adv-x="933" 
d="M811 0h-172v670q0 113 -28.5 166t-96.5 53q-90 0 -152.5 -110.5t-62.5 -276.5v-502h-172v1470h172v-428q0 -104 -25 -229h5q33 100 106.5 161.5t173.5 61.5q252 0 252 -321v-715z" />
    <glyph glyph-name="i" unicode="i" horiz-adv-x="425" 
d="M299 0h-172v1018h172v-1018zM213 1401q46 0 78.5 -32.5t32.5 -78.5t-33 -79t-80 -33q-45 0 -77 33t-32 79t32.5 78.5t78.5 32.5z" />
    <glyph glyph-name="j" unicode="j" horiz-adv-x="423" 
d="M299 1018v-1114q0 -198 -72.5 -291.5t-224.5 -93.5q-55 0 -113 20l27 146q42 -21 94 -21q66 0 91.5 50t25.5 177v1127h172zM213 1401q46 0 78.5 -32.5t32.5 -78.5t-33 -79t-80 -33q-45 0 -77 33t-32 79t32.5 78.5t78.5 32.5z" />
    <glyph glyph-name="k" unicode="k" horiz-adv-x="798" 
d="M784 0h-198l-285 526h-2v-526h-172v1470h172v-911h2l264 459h195l-287 -461z" />
    <glyph glyph-name="l" unicode="l" horiz-adv-x="425" 
d="M299 0h-172v1470h172v-1470z" />
    <glyph glyph-name="m" unicode="m" horiz-adv-x="1433" 
d="M1313 0h-172v670q0 113 -28 166t-95 53q-89 0 -151 -111t-62 -276v-502h-172v670q0 113 -28 166t-95 53q-87 0 -149 -111t-62 -276v-502h-172v1018h162q0 -83 -21 -215h4q35 106 109.5 169.5t175.5 63.5q111 0 166 -62t53 -171h4q33 106 108 169.5t175 63.5
q250 0 250 -321v-715z" />
    <glyph glyph-name="n" unicode="n" horiz-adv-x="933" 
d="M811 0h-172v674q0 110 -28.5 162.5t-96.5 52.5q-90 0 -152.5 -110.5t-62.5 -276.5v-502h-172v1018h162q0 -87 -21 -215h4q35 106 109.5 169.5t175.5 63.5q254 0 254 -321v-715z" />
    <glyph glyph-name="o" unicode="o" horiz-adv-x="899" 
d="M836 520q0 -254 -104.5 -396t-297.5 -142q-189 0 -280 126t-91 390q0 253 104 395.5t296 142.5q189 0 281 -126.5t92 -389.5zM657 502q0 200 -50 296.5t-158 96.5q-99 0 -154 -95.5t-55 -283.5q0 -199 51 -296t158 -97q100 0 154 95t54 284z" />
    <glyph glyph-name="p" unicode="p" horiz-adv-x="915" 
d="M852 553q0 -275 -112.5 -419t-319.5 -144q-71 0 -121 14v-469h-172v1483h164q0 -70 -23 -215h4q32 110 106 171.5t175 61.5q146 0 222.5 -121.5t76.5 -361.5zM672 539q0 350 -160 350q-95 0 -154 -115t-59 -299v-319q54 -25 131 -25q120 0 181 96t61 312z" />
    <glyph glyph-name="q" unicode="q" horiz-adv-x="915" 
d="M788 -465h-172v434q0 109 23 236h-4q-32 -105 -103 -164t-167 -59q-147 0 -224.5 121.5t-77.5 361.5q0 276 112 421.5t325 145.5q129 0 288 -37v-1460zM616 543v325q-79 23 -133 23q-118 0 -179.5 -98t-61.5 -314q0 -350 161 -350q94 0 153.5 115.5t59.5 298.5z" />
    <glyph glyph-name="r" unicode="r" horiz-adv-x="587" 
d="M563 1034l-10 -174q-121 29 -187.5 -90t-66.5 -360v-410h-172v1018h162q0 -80 -21 -240h2q16 58 39.5 104.5t58 86t85 57t110.5 8.5z" />
    <glyph glyph-name="s" unicode="s" horiz-adv-x="690" 
d="M621 287q0 -131 -94.5 -218t-254.5 -87q-104 0 -196 30l33 150q86 -39 165 -39q83 0 124.5 40.5t41.5 108.5q0 43 -20 77t-52.5 58t-71.5 46.5t-78 48.5t-71.5 58t-52.5 81.5t-20 112.5q0 126 84.5 204t238.5 78q79 0 172 -22l-26 -144q-74 29 -142 29
q-76 0 -112.5 -35.5t-36.5 -97.5q0 -40 20.5 -72.5t53 -55.5t71.5 -45t78.5 -49t72 -59.5t53 -83t20.5 -114.5z" />
    <glyph glyph-name="t" unicode="t" horiz-adv-x="602" 
d="M559 12q-80 -26 -166 -26q-131 0 -183 71t-52 236v588h-156v137h156v295l172 45v-340h217v-137h-217v-549q0 -115 22.5 -157t81.5 -42q55 0 107 19z" />
    <glyph glyph-name="u" unicode="u" horiz-adv-x="933" 
d="M123 1018h172v-674q0 -110 28 -162.5t95 -52.5q91 0 154 110.5t63 276.5v502h172v-1018h-162q0 87 21 215h-4q-35 -106 -110 -169.5t-177 -63.5q-136 0 -194 84.5t-58 236.5v715z" />
    <glyph glyph-name="v" unicode="v" horiz-adv-x="806" 
d="M797 1018l-281 -1018h-227l-279 1018h189l153 -588q45 -222 56 -293h4q27 154 57 293l149 588h179z" />
    <glyph glyph-name="w" unicode="w" horiz-adv-x="1300" 
d="M649 856h-4q-11 -112 -39 -248l-133 -608h-217l-227 1018h178l131 -627q32 -166 37 -244h2q18 123 43 242l137 629h199l139 -627q31 -143 43 -244h2q15 132 39 244l123 627h170l-225 -1018h-222l-137 608q-28 136 -39 248z" />
    <glyph glyph-name="x" unicode="x" horiz-adv-x="792" 
d="M768 0h-199l-98 217q-48 104 -80 203h-2q-17 -53 -78 -201l-98 -219h-188l254 522l-240 496h197l90 -193q28 -63 77 -198q44 115 80 198l86 193h185l-240 -496z" />
    <glyph glyph-name="y" unicode="y" horiz-adv-x="806" 
d="M797 1018l-271 -1008q-75 -288 -193.5 -397.5t-314.5 -87.5l17 143q67 -6 108 1t77 39t62.5 90.5t57.5 160.5l12 41h-53l-289 1018h189l159 -588q53 -258 58 -293h4q16 103 57 293l141 588h179z" />
    <glyph glyph-name="z" unicode="z" horiz-adv-x="702" 
d="M635 0h-569v123l366 747q-153 -6 -199 -6h-159v154h553v-121l-363 -745q106 4 207 4h164v-156z" />
    <glyph glyph-name="braceleft" unicode="{" horiz-adv-x="620" 
d="M532 -406h-40q-142 0 -207.5 94.5t-65.5 278.5v387q0 119 -39.5 171t-134.5 55v133q97 5 135.5 53.5t38.5 171.5v266q0 179 63.5 277t209.5 98h40v-141h-32q-66 0 -94.5 -51t-28.5 -173v-268q0 -262 -150 -297v-2q72 -15 111 -92.5t39 -208.5v-375q0 -131 27.5 -183
t95.5 -52h32v-142z" />
    <glyph glyph-name="bar" unicode="|" horiz-adv-x="460" 
d="M309 -410h-159v1966h159v-1966z" />
    <glyph glyph-name="braceright" unicode="}" horiz-adv-x="620" 
d="M88 1579h41q142 0 207 -93.5t65 -277.5v-270q0 -118 40 -169t134 -56v-133q-96 -3 -135 -52t-39 -174v-383q0 -180 -62.5 -278.5t-209.5 -98.5h-41v142h35q66 0 93.5 50t27.5 173v387q0 262 149 297v2q-72 15 -110.5 92t-38.5 209v256q0 131 -27.5 183.5t-95.5 52.5h-33
v141z" />
    <glyph glyph-name="asciitilde" unicode="~" 
d="M819 1180q0 -115 -61 -185.5t-164 -70.5q-47 0 -85 17t-62.5 41t-45.5 47.5t-45.5 40.5t-52.5 17q-44 0 -64 -33.5t-20 -103.5h-137v15q0 117 60 187.5t165 70.5q47 0 85 -17t62 -41t45 -48t45.5 -41t51.5 -17q83 0 86 135h137v-14z" />
    <glyph glyph-name="uni00A0" unicode="&#xa0;" horiz-adv-x="358" 
 />
    <glyph glyph-name="exclamdown" unicode="&#xa1;" horiz-adv-x="499" 
d="M127 -305l29 1102h145l29 -1102h-203zM229 924q-49 0 -82.5 33t-33.5 81q0 49 33 82t83 33q48 0 81.5 -33t33.5 -82q0 -47 -34 -80.5t-81 -33.5z" />
    <glyph glyph-name="cent" unicode="&#xa2;" horiz-adv-x="741" 
d="M651 391l31 -135q-79 -49 -178 -61v-248h-137v248q-299 51 -299 489q0 240 78.5 374.5t220.5 166.5v211h137v-199q93 -4 172 -41l-35 -152q-87 48 -174 48q-221 0 -221 -381q0 -82 10 -145.5t34 -117t68 -82t107 -28.5q100 0 186 53z" />
    <glyph glyph-name="sterling" unicode="&#xa3;" horiz-adv-x="776" 
d="M627 643h-232q13 -80 13 -141q0 -120 -33.5 -202.5t-95.5 -154.5q79 7 147 7h299v-152h-649v121q87 85 122 163t35 201q0 48 -12 158h-168v137h150q-25 171 -25 248q0 189 82.5 281t235.5 92q100 0 192 -37l-35 -150q-81 43 -155 43q-146 0 -146 -213q0 -90 27 -264h248
v-137z" />
    <glyph glyph-name="currency" unicode="&#xa4;" horiz-adv-x="903" 
d="M848 111l-129 -84l-125 213q-64 -43 -150 -43q-83 0 -139 39l-121 -209l-129 84l127 219q-73 112 -73 305q0 201 77 313l-131 230l129 82l121 -209q67 43 156 43q77 0 141 -39l117 205l129 -84l-125 -220q72 -110 72 -294q0 -198 -80 -320zM639 649q0 138 -49.5 222.5
t-140.5 84.5q-84 0 -134.5 -81t-50.5 -226q0 -144 49.5 -229.5t139.5 -85.5q82 0 134 80t52 235z" />
    <glyph glyph-name="yen" unicode="&#xa5;" horiz-adv-x="972" 
d="M952 1382l-379 -764v-30h265v-121h-265v-158h265v-123h-265v-186h-174v186h-264v123h264v158h-264v121h264v30l-379 764h195l193 -403q39 -80 84 -201h2q68 166 96 228l174 376h188z" />
    <glyph glyph-name="brokenbar" unicode="&#xa6;" horiz-adv-x="460" 
d="M309 344v-754h-159v754h159zM150 852v704h159v-704h-159z" />
    <glyph glyph-name="section" unicode="&#xa7;" horiz-adv-x="821" 
d="M715 444q0 -81 -36.5 -161t-90.5 -129q55 -90 55 -191q0 -141 -82 -229t-239 -88q-80 0 -144 18l27 150q58 -21 117 -21q65 0 100 44.5t35 123.5q0 59 -37 131t-89.5 142.5t-104.5 145.5t-89 165t-37 176q0 85 35.5 161.5t91.5 129.5q-51 77 -51 182q0 138 81.5 223.5
t229.5 85.5q70 0 142 -16l-31 -148q-63 17 -106 17q-66 0 -99 -40.5t-33 -111.5q0 -51 26.5 -111t65.5 -114t85.5 -120t85.5 -127.5t65.5 -138t26.5 -149.5zM553 428q0 42 -12 84.5t-38.5 90.5t-50.5 85.5t-68 102t-71 106.5q-22 -28 -36.5 -71t-14.5 -87q0 -58 31.5 -131.5
t66.5 -128t125 -184.5q6 -8 9.5 -13.5t7.5 -11.5q22 25 36.5 68t14.5 90z" />
    <glyph glyph-name="dieresis" unicode="&#xa8;" horiz-adv-x="770" 
d="M221 1393q43 0 72 -30t29 -73t-30 -72.5t-73 -29.5t-71.5 29.5t-28.5 72.5t29.5 73t72.5 30zM543 1393q41 0 70.5 -30t29.5 -73t-29.5 -72.5t-72.5 -29.5t-73 29.5t-30 72.5t31 73t74 30z" />
    <glyph glyph-name="copyright" unicode="&#xa9;" horiz-adv-x="1245" 
d="M627 1376q244 0 399.5 -188.5t155.5 -491.5q0 -149 -44.5 -278.5t-120 -219.5t-179.5 -141t-220 -51q-244 0 -399.5 188.5t-155.5 491.5q0 149 44.5 278.5t120 219.5t179.5 141t220 51zM623 1260q-189 0 -308.5 -158.5t-119.5 -411.5t119 -410t309 -157q189 0 308.5 158
t119.5 411t-119.5 410.5t-308.5 157.5zM805 365q-76 -39 -174 -39q-142 0 -209.5 94t-67.5 256q0 174 74.5 279.5t220.5 105.5q76 0 150 -29l-33 -119q-64 25 -107 25q-149 0 -149 -250q0 -237 143 -237q56 0 119 26z" />
    <glyph glyph-name="ordfeminine" unicode="&#xaa;" horiz-adv-x="700" 
d="M578 709h-144q3 57 12 110l-2 2q-20 -56 -71.5 -90.5t-116.5 -34.5q-81 0 -129.5 49t-48.5 138q0 112 91.5 174.5t254.5 60.5v45q0 121 -119 121q-82 0 -153 -47l-46 106q103 54 220 54q128 0 187.5 -55.5t59.5 -163.5v-291q0 -29 2 -91t3 -87zM424 993v21
q-108 1 -152.5 -29.5t-44.5 -87.5q0 -84 70 -84q53 0 90 54.5t37 125.5zM102 461v125h478v-125h-478z" />
    <glyph glyph-name="guillemotleft" unicode="&#xab;" horiz-adv-x="919" 
d="M444 227l-135 -67l-213 413l213 414l133 -65l-178 -349zM778 905l-184 -332l186 -329l-131 -68l-223 397l223 398z" />
    <glyph glyph-name="logicalnot" unicode="&#xac;" 
d="M780 238h-149v315h-582v152h731v-467z" />
    <glyph glyph-name="uni00AD" unicode="&#xad;" horiz-adv-x="415" 
d="M397 557h-352v143h352v-143z" />
    <glyph glyph-name="registered" unicode="&#xae;" horiz-adv-x="921" 
d="M457 1425q-118 0 -193.5 -96t-75.5 -256q0 -164 76.5 -261t194.5 -97t194 96t76 256q0 164 -76.5 261t-195.5 97zM459 1520q161 0 268 -123.5t107 -325.5q0 -195 -109.5 -321.5t-267.5 -126.5q-160 0 -267.5 123.5t-107.5 324.5q0 193 110.5 321t266.5 128zM629 836h-119
l-76 186h-22v-186h-103v475h152q76 0 118 -36.5t42 -98.5q0 -55 -28 -89.5t-67 -44.5q13 -21 37 -67zM508 1167q0 31 -15 47.5t-53 16.5h-28v-131h26q70 0 70 67z" />
    <glyph glyph-name="macron" unicode="&#xaf;" horiz-adv-x="661" 
d="M571 1206h-481v131h481v-131z" />
    <glyph glyph-name="macron" unicode="&#x2c9;" horiz-adv-x="661" 
d="M571 1206h-481v131h481v-131z" />
    <glyph glyph-name="degree" unicode="&#xb0;" horiz-adv-x="645" 
d="M547 1251q0 -117 -70.5 -188.5t-165.5 -71.5q-101 0 -160 69.5t-59 186.5q0 118 69.5 189t162.5 71q111 0 167 -72t56 -184zM418 1249q0 57 -24 100.5t-72 43.5q-43 0 -71 -40t-28 -104q0 -66 26 -104.5t68 -38.5q45 0 73 40.5t28 102.5z" />
    <glyph glyph-name="plusminus" unicode="&#xb1;" 
d="M840 0h-779v143h779v-143zM842 641h-314v-346h-155v346h-314v143h314v344h155v-344h314v-143z" />
    <glyph glyph-name="twosuperior" unicode="&#xb2;" horiz-adv-x="567" 
d="M506 758h-445v110l125 172q80 111 111 182t31 134q0 56 -25.5 89.5t-77.5 33.5q-63 0 -131 -41l-28 114q102 47 192 47q113 0 170 -61t57 -158q0 -86 -38 -174.5t-119 -201.5l-90 -125q118 4 268 4v-125z" />
    <glyph glyph-name="threesuperior" unicode="&#xb3;" horiz-adv-x="555" 
d="M485 1010q0 -120 -83 -192.5t-214 -72.5q-44 0 -131 17l19 117q52 -19 108 -19q67 0 106.5 37.5t39.5 99.5q0 64 -42 100t-124 36q-38 0 -62 -3v107q203 -6 203 139q0 109 -106 109q-49 0 -113 -27l-20 107q94 34 172 34q109 0 166 -54t57 -140q0 -144 -123 -195v-2
q68 -17 107.5 -70t39.5 -128z" />
    <glyph glyph-name="acute" unicode="&#xb4;" horiz-adv-x="532" 
d="M102 1243l238 250l102 -107l-264 -223z" />
    <glyph glyph-name="mu" unicode="&#xb5;" horiz-adv-x="962" 
d="M926 129v-133q-42 -10 -92 -10q-99 0 -139.5 51t-28.5 168h-2q-31 -98 -96.5 -159.5t-157.5 -61.5q-90 0 -127 69l20 -518h-176v1483h172v-674q0 -110 28 -162.5t95 -52.5q91 0 154 112t63 275v502h172v-735q0 -107 22 -134.5t93 -19.5z" />
    <glyph glyph-name="mu" unicode="&#x3bc;" horiz-adv-x="962" 
d="M926 129v-133q-42 -10 -92 -10q-99 0 -139.5 51t-28.5 168h-2q-31 -98 -96.5 -159.5t-157.5 -61.5q-90 0 -127 69l20 -518h-176v1483h172v-674q0 -110 28 -162.5t95 -52.5q91 0 154 112t63 275v502h172v-735q0 -107 22 -134.5t93 -19.5z" />
    <glyph glyph-name="paragraph" unicode="&#xb6;" horiz-adv-x="954" 
d="M602 -35v1417h275v-141h-125v-1419h-281v143h131zM475 1382v-870q-94 0 -167 34.5t-117.5 95t-67.5 138.5t-23 170q0 187 105 309.5t270 122.5z" />
    <glyph glyph-name="periodcentered" unicode="&#xb7;" horiz-adv-x="405" 
d="M201 745q51 0 84.5 -33.5t33.5 -84.5q0 -50 -33.5 -83.5t-84.5 -33.5q-49 0 -83 34t-34 83q0 51 33.5 84.5t83.5 33.5z" />
    <glyph glyph-name="periodcentered" unicode="&#x2219;" horiz-adv-x="405" 
d="M201 745q51 0 84.5 -33.5t33.5 -84.5q0 -50 -33.5 -83.5t-84.5 -33.5q-49 0 -83 34t-34 83q0 51 33.5 84.5t83.5 33.5z" />
    <glyph glyph-name="cedilla" unicode="&#xb8;" horiz-adv-x="526" 
d="M319 -82q116 -168 -40 -354h-138q46 62 64.5 110t11.5 96.5t-45 98.5z" />
    <glyph glyph-name="onesuperior" unicode="&#xb9;" horiz-adv-x="430" 
d="M330 758h-150v692l-131 -57l-22 120l188 74h115v-829z" />
    <glyph glyph-name="ordmasculine" unicode="&#xba;" horiz-adv-x="706" 
d="M104 461v125h498v-125h-498zM635 1059q0 -171 -74 -266t-217 -95q-272 0 -272 340q0 172 73.5 266.5t216.5 94.5q273 0 273 -340zM481 1047q0 231 -129 231q-125 0 -125 -225q0 -119 30.5 -175.5t96.5 -56.5q127 0 127 226z" />
    <glyph glyph-name="guillemotright" unicode="&#xbb;" horiz-adv-x="919" 
d="M473 920l135 67l215 -414l-215 -413l-131 65l176 348zM141 242l183 331l-187 330l133 68l222 -398l-224 -397z" />
    <glyph glyph-name="onequarter" unicode="&#xbc;" horiz-adv-x="1101" 
d="M330 780h-148v531l-121 -66l-32 111l172 88h129v-664zM1044 78h-77v-139h-138v139h-272l-4 108l197 416h217v-418h77v-106zM834 184v334l-164 -336q43 2 164 2zM1018 1425l-875 -1529l-114 61l876 1532z" />
    <glyph glyph-name="onehalf" unicode="&#xbd;" horiz-adv-x="1169" 
d="M330 780h-148v531l-121 -66l-32 111l172 88h129v-664zM1100 -61h-430v102l116 133q75 83 104.5 135t29.5 97q0 44 -25.5 69t-69.5 25q-59 0 -112 -49l-58 92q90 71 209 71q100 0 153.5 -53t53.5 -135q0 -67 -34 -130t-107 -142l-94 -101q41 2 151 2h113v-116zM1018 1425
l-875 -1529l-114 61l876 1532z" />
    <glyph glyph-name="threequarters" unicode="&#xbe;" horiz-adv-x="1183" 
d="M502 987q0 -97 -77.5 -158t-205.5 -61q-89 0 -156 23l31 102q58 -25 123 -25q61 0 96 27.5t35 79.5q0 49 -37 76.5t-102 27.5q-15 0 -43 -1t-39 -1v97h41q160 0 160 102q0 37 -26 59.5t-79 22.5q-57 0 -114 -31l-33 90q76 39 178 39q109 0 166 -46t57 -116
q0 -111 -106 -151q56 -11 93.5 -54.5t37.5 -101.5zM1126 78h-77v-139h-138v139h-272l-6 108l198 416h218v-418h77v-106zM915 184v334l-163 -336q43 2 163 2zM1098 1425l-875 -1529l-114 61l876 1532z" />
    <glyph glyph-name="questiondown" unicode="&#xbf;" horiz-adv-x="702" 
d="M70 78q0 55 15 104.5t38.5 84.5t53 72t57.5 68t53 71.5t39.5 83.5t16 103.5t-16.5 131.5h166q23 -90 23 -155t-19.5 -121.5t-48 -97.5t-62 -82.5t-62.5 -76t-48 -78.5t-19 -90q0 -104 90.5 -174t249.5 -82l-23 -155q-122 7 -219 41t-158.5 87.5t-93.5 121t-32 143.5z
M406 924q-49 0 -83 33.5t-34 80.5q0 49 33.5 82t83.5 33q48 0 81 -33t33 -82q0 -47 -33.5 -80.5t-80.5 -33.5z" />
    <glyph glyph-name="Agrave" unicode="&#xc0;" horiz-adv-x="1013" 
d="M999 0h-188l-86 326h-449l-88 -326h-174l371 1382h242zM692 471l-129 483q-45 186 -61 283h-4q-18 -110 -60 -283l-129 -483h383zM635 1579l-41 -92l-332 106l55 125z" />
    <glyph glyph-name="Aacute" unicode="&#xc1;" horiz-adv-x="1013" 
d="M999 0h-188l-86 326h-449l-88 -326h-174l371 1382h242zM692 471l-129 483q-45 186 -61 283h-4q-18 -110 -60 -283l-129 -483h383zM373 1579l315 139l53 -125l-331 -106z" />
    <glyph glyph-name="Acircumflex" unicode="&#xc2;" horiz-adv-x="1013" 
d="M999 0h-188l-86 326h-449l-88 -326h-174l371 1382h242zM692 471l-129 483q-45 186 -61 283h-4q-18 -110 -60 -283l-129 -483h383zM506 1718l258 -139l-47 -92l-213 98l-213 -98l-43 90z" />
    <glyph glyph-name="Atilde" unicode="&#xc3;" horiz-adv-x="1013" 
d="M999 0h-188l-86 326h-449l-88 -326h-174l371 1382h242zM692 471l-129 483q-45 186 -61 283h-4q-18 -110 -60 -283l-129 -483h383zM727 1700l92 -60q-33 -71 -86 -110t-121 -39q-42 0 -76 14t-52 31t-42.5 31t-50.5 14q-61 0 -104 -84l-94 57q68 152 206 152
q42 0 76.5 -14t53 -31t43 -31t49.5 -14q61 0 106 84z" />
    <glyph glyph-name="Adieresis" unicode="&#xc4;" horiz-adv-x="1013" 
d="M999 0h-188l-86 326h-449l-88 -326h-174l371 1382h242zM692 471l-129 483q-45 186 -61 283h-4q-18 -110 -60 -283l-129 -483h383zM340 1696q41 0 70.5 -31.5t29.5 -71.5t-29.5 -71t-70.5 -31t-70.5 30.5t-29.5 71.5q0 42 29.5 72.5t70.5 30.5zM670 1696q41 0 70.5 -30.5
t29.5 -72.5q0 -41 -29.5 -71.5t-70.5 -30.5t-71 30.5t-30 71.5t30 72t71 31z" />
    <glyph glyph-name="Aring" unicode="&#xc5;" horiz-adv-x="1013" 
d="M999 0h-188l-86 326h-449l-88 -326h-174l371 1382h242zM692 471l-129 483q-45 186 -61 283h-4q-18 -110 -60 -283l-129 -483h383zM705 1647q0 -87 -54.5 -139t-152.5 -52q-191 0 -191 182q0 86 54.5 137.5t152.5 51.5q191 0 191 -180zM592 1640q0 105 -88 105
q-39 0 -61.5 -25.5t-22.5 -74.5q0 -105 88 -105q39 0 61.5 25t22.5 75z" />
    <glyph glyph-name="AE" unicode="&#xc6;" horiz-adv-x="1275" 
d="M1184 0h-584v338h-352l-133 -338h-181l551 1382h689v-147h-400v-453h381v-143h-381v-489h410v-150zM600 479v754h-14q-43 -135 -74 -211l-217 -543h305z" />
    <glyph glyph-name="Ccedilla" unicode="&#xc7;" horiz-adv-x="882" 
d="M842 51q-131 -69 -291 -69q-242 0 -359.5 176.5t-117.5 505.5q0 161 30 292.5t90 231t158.5 154.5t227.5 55q137 0 251 -51l-43 -154q-101 49 -206 49q-84 0 -147 -42t-100 -119t-55 -175.5t-18 -220.5q0 -545 320 -545q113 0 217 58zM578 -82q116 -168 -41 -354h-138
q46 62 64.5 110t11.5 96.5t-45 98.5z" />
    <glyph glyph-name="Egrave" unicode="&#xc8;" horiz-adv-x="804" 
d="M709 0h-580v1382h578v-147h-404v-453h381v-143h-381v-489h406v-150zM545 1579l-41 -92l-332 106l55 125z" />
    <glyph glyph-name="Eacute" unicode="&#xc9;" horiz-adv-x="804" 
d="M709 0h-580v1382h578v-147h-404v-453h381v-143h-381v-489h406v-150zM264 1579l316 139l53 -125l-332 -106z" />
    <glyph glyph-name="Ecircumflex" unicode="&#xca;" horiz-adv-x="804" 
d="M709 0h-580v1382h578v-147h-404v-453h381v-143h-381v-489h406v-150zM420 1718l258 -139l-47 -92l-213 98l-213 -98l-43 90z" />
    <glyph glyph-name="Edieresis" unicode="&#xcb;" horiz-adv-x="804" 
d="M709 0h-580v1382h578v-147h-404v-453h381v-143h-381v-489h406v-150zM250 1696q41 0 70.5 -31.5t29.5 -71.5t-29.5 -71t-70.5 -31t-70.5 30.5t-29.5 71.5q0 42 29.5 72.5t70.5 30.5zM580 1696q41 0 70.5 -30.5t29.5 -72.5q0 -41 -29.5 -71.5t-70.5 -30.5t-71 30.5
t-30 71.5t30 72t71 31z" />
    <glyph glyph-name="Igrave" unicode="&#xcc;" horiz-adv-x="434" 
d="M303 0h-174v1382h174v-1382zM338 1579l-41 -92l-332 106l55 125z" />
    <glyph glyph-name="Iacute" unicode="&#xcd;" horiz-adv-x="434" 
d="M303 0h-174v1382h174v-1382zM90 1579l316 139l53 -125l-332 -106z" />
    <glyph glyph-name="Icircumflex" unicode="&#xce;" horiz-adv-x="434" 
d="M303 0h-174v1382h174v-1382zM221 1718l258 -139l-47 -92l-213 98l-213 -98l-43 90z" />
    <glyph glyph-name="Idieresis" unicode="&#xcf;" horiz-adv-x="434" 
d="M66 1692q40 0 69 -30t29 -71q0 -40 -29 -70t-69 -30q-41 0 -70 30t-29 70q0 43 29 72t70 29zM365 1692q41 0 70.5 -30t29.5 -71t-29.5 -70.5t-70.5 -29.5q-40 0 -69.5 30t-29.5 70q0 42 29.5 71.5t69.5 29.5zM301 0h-174v1382h174v-1382z" />
    <glyph glyph-name="Eth" unicode="&#xd0;" horiz-adv-x="1087" 
d="M150 780v602q38 0 155.5 3.5t186.5 3.5q265 0 394.5 -163t129.5 -517q0 -365 -148.5 -540t-427.5 -175q-60 0 -155 3t-135 3v641h-132v139h132zM324 780h215v-139h-215v-487q102 -11 139 -11q184 0 276 132.5t92 422.5q0 279 -83 411t-263 132q-83 0 -161 -4v-457z" />
    <glyph glyph-name="Ntilde" unicode="&#xd1;" horiz-adv-x="1107" 
d="M979 0h-209l-344 791q-114 260 -152 397h-4q19 -253 19 -742v-446h-160v1382h229l324 -735q102 -231 152 -397h4q-19 253 -19 743v389h160v-1382zM774 1700l92 -60q-33 -71 -86 -110t-121 -39q-42 0 -76 14t-52 31t-42.5 31t-50.5 14q-61 0 -104 -84l-94 57
q68 152 206 152q42 0 76.5 -14t53 -31t43 -31t49.5 -14q61 0 106 84z" />
    <glyph glyph-name="Ograve" unicode="&#xd2;" horiz-adv-x="1153" 
d="M1079 705q0 -157 -31 -287t-93.5 -228.5t-163 -153t-232.5 -54.5q-103 0 -184 33t-137 93t-93 147.5t-54 192.5t-17 232q0 124 19.5 231.5t60.5 197.5t102 154.5t147 100t191 35.5q128 0 222.5 -50t151 -143.5t84 -218t27.5 -282.5zM897 692q0 275 -81.5 416t-237.5 141
q-157 0 -239.5 -145.5t-82.5 -409.5q0 -277 82.5 -419t239.5 -142q156 0 237.5 146t81.5 413zM694 1579l-41 -92l-331 106l55 125z" />
    <glyph glyph-name="Oacute" unicode="&#xd3;" horiz-adv-x="1153" 
d="M1079 705q0 -157 -31 -287t-93.5 -228.5t-163 -153t-232.5 -54.5q-103 0 -184 33t-137 93t-93 147.5t-54 192.5t-17 232q0 124 19.5 231.5t60.5 197.5t102 154.5t147 100t191 35.5q128 0 222.5 -50t151 -143.5t84 -218t27.5 -282.5zM897 692q0 275 -81.5 416t-237.5 141
q-157 0 -239.5 -145.5t-82.5 -409.5q0 -277 82.5 -419t239.5 -142q156 0 237.5 146t81.5 413zM477 1579l316 139l53 -125l-332 -106z" />
    <glyph glyph-name="Ocircumflex" unicode="&#xd4;" horiz-adv-x="1153" 
d="M1079 705q0 -157 -31 -287t-93.5 -228.5t-163 -153t-232.5 -54.5q-103 0 -184 33t-137 93t-93 147.5t-54 192.5t-17 232q0 124 19.5 231.5t60.5 197.5t102 154.5t147 100t191 35.5q128 0 222.5 -50t151 -143.5t84 -218t27.5 -282.5zM897 692q0 275 -81.5 416t-237.5 141
q-157 0 -239.5 -145.5t-82.5 -409.5q0 -277 82.5 -419t239.5 -142q156 0 237.5 146t81.5 413zM590 1718l258 -139l-47 -92l-213 98l-213 -98l-43 90z" />
    <glyph glyph-name="Otilde" unicode="&#xd5;" horiz-adv-x="1153" 
d="M1079 705q0 -157 -31 -287t-93.5 -228.5t-163 -153t-232.5 -54.5q-103 0 -184 33t-137 93t-93 147.5t-54 192.5t-17 232q0 124 19.5 231.5t60.5 197.5t102 154.5t147 100t191 35.5q128 0 222.5 -50t151 -143.5t84 -218t27.5 -282.5zM897 692q0 275 -81.5 416t-237.5 141
q-157 0 -239.5 -145.5t-82.5 -409.5q0 -277 82.5 -419t239.5 -142q156 0 237.5 146t81.5 413zM797 1700l92 -60q-33 -71 -86 -110t-121 -39q-42 0 -76 14t-52 31t-42.5 31t-50.5 14q-62 0 -105 -84l-94 57q33 73 86 112.5t121 39.5q42 0 76.5 -14t52.5 -31t42.5 -31
t49.5 -14q62 0 107 84z" />
    <glyph glyph-name="Odieresis" unicode="&#xd6;" horiz-adv-x="1153" 
d="M1079 705q0 -157 -31 -287t-93.5 -228.5t-163 -153t-232.5 -54.5q-103 0 -184 33t-137 93t-93 147.5t-54 192.5t-17 232q0 124 19.5 231.5t60.5 197.5t102 154.5t147 100t191 35.5q128 0 222.5 -50t151 -143.5t84 -218t27.5 -282.5zM897 692q0 275 -81.5 416t-237.5 141
q-157 0 -239.5 -145.5t-82.5 -409.5q0 -277 82.5 -419t239.5 -142q156 0 237.5 146t81.5 413zM414 1696q41 0 70.5 -31.5t29.5 -71.5t-29.5 -71t-70.5 -31t-71 30.5t-30 71.5t30 72t71 31zM743 1696q41 0 71 -31t30 -72t-30 -71.5t-71 -30.5t-70.5 30.5t-29.5 71.5
q0 42 29.5 72.5t70.5 30.5z" />
    <glyph glyph-name="multiply" unicode="&#xd7;" 
d="M541 627l276 -344l-110 -90l-256 323l-256 -323l-111 90l276 344l-276 346l111 90l256 -324l256 324l110 -90z" />
    <glyph glyph-name="Oslash" unicode="&#xd8;" horiz-adv-x="1153" 
d="M981 1493l-82 -203q180 -177 180 -585q0 -157 -31 -287t-93.5 -228.5t-163 -153t-232.5 -54.5q-108 0 -184 36l-74 -180l-129 51l84 203q-182 168 -182 588q0 124 19.5 231.5t60.5 197.5t102 154.5t147 100t191 35.5q109 0 184 -37l74 180zM332 274l385 940
q-60 39 -139 39q-160 0 -243 -146t-83 -413q0 -268 76 -420h4zM575 127q162 0 244 147.5t82 417.5q0 259 -76 414h-4l-385 -938q53 -41 139 -41z" />
    <glyph glyph-name="Ugrave" unicode="&#xd9;" horiz-adv-x="1122" 
d="M995 489q0 -245 -108 -376t-332 -131q-232 0 -330 121.5t-98 359.5v919h174v-897q0 -183 61.5 -270.5t198.5 -87.5q136 0 198 83t62 259v913h174v-893zM659 1579l-41 -92l-331 106l55 125z" />
    <glyph glyph-name="Uacute" unicode="&#xda;" horiz-adv-x="1122" 
d="M995 489q0 -245 -108 -376t-332 -131q-232 0 -330 121.5t-98 359.5v919h174v-897q0 -183 61.5 -270.5t198.5 -87.5q136 0 198 83t62 259v913h174v-893zM459 1579l315 139l53 -125l-331 -106z" />
    <glyph glyph-name="Ucircumflex" unicode="&#xdb;" horiz-adv-x="1122" 
d="M995 489q0 -245 -108 -376t-332 -131q-232 0 -330 121.5t-98 359.5v919h174v-897q0 -183 61.5 -270.5t198.5 -87.5q136 0 198 83t62 259v913h174v-893zM567 1718l258 -139l-47 -92l-213 98l-213 -98l-43 90z" />
    <glyph glyph-name="Udieresis" unicode="&#xdc;" horiz-adv-x="1122" 
d="M995 489q0 -245 -108 -376t-332 -131q-232 0 -330 121.5t-98 359.5v919h174v-897q0 -183 61.5 -270.5t198.5 -87.5q136 0 198 83t62 259v913h174v-893zM393 1696q41 0 71 -31.5t30 -71.5t-30 -71t-71 -31t-70.5 30.5t-29.5 71.5q0 42 29.5 72.5t70.5 30.5zM723 1696
q41 0 70.5 -30.5t29.5 -72.5q0 -41 -29.5 -71.5t-70.5 -30.5t-70.5 30.5t-29.5 71.5q0 42 29.5 72.5t70.5 30.5z" />
    <glyph glyph-name="Yacute" unicode="&#xdd;" horiz-adv-x="884" 
d="M874 1382l-344 -890v-492h-174v492l-348 890h193l174 -479q36 -100 74 -225h2q22 82 75 235l164 469h184zM371 1579l315 139l53 -125l-331 -106z" />
    <glyph glyph-name="Thorn" unicode="&#xde;" horiz-adv-x="886" 
d="M838 748q0 -218 -123.5 -343.5t-325.5 -125.5q-32 0 -86 4v-283h-174v1382h174v-211q55 3 117 3q205 0 311.5 -113t106.5 -313zM657 733q0 295 -249 295q-68 0 -105 -2v-594q41 -6 94 -6q125 0 192.5 79t67.5 228z" />
    <glyph glyph-name="germandbls" unicode="&#xdf;" horiz-adv-x="980" 
d="M920 295q0 -137 -93.5 -225t-253.5 -88q-79 0 -153 18l18 150q67 -29 144 -29q80 0 120.5 43.5t40.5 111.5q0 52 -23 94.5t-57 69.5t-74.5 59.5t-74.5 65t-57 86.5t-23 123q0 62 21.5 110t52 79t60.5 61t51.5 72.5t21.5 95.5q0 80 -39.5 119t-112.5 39q-188 0 -188 -293
v-1057h-172v1032q0 233 100 344t273 111q150 0 232.5 -79.5t82.5 -199.5q0 -67 -21.5 -119t-52.5 -84.5t-61.5 -61t-52 -65.5t-21.5 -83q0 -39 17 -72.5t44.5 -59t61 -51t67 -55t61 -64.5t44.5 -85.5t17 -112.5z" />
    <glyph glyph-name="agrave" unicode="&#xe0;" horiz-adv-x="841" 
d="M721 0h-158q0 141 8 182l-2 2q-27 -89 -99 -144.5t-171 -55.5q-109 0 -174.5 69.5t-65.5 198.5q0 166 128 259t360 89v86q0 111 -39.5 163t-130.5 52q-108 0 -234 -76l-45 125q156 86 305 86q162 0 238 -81.5t76 -243.5v-414q0 -209 4 -297zM547 424v51
q-74 2 -130.5 -7.5t-91.5 -27.5t-57 -45t-30.5 -57t-8.5 -68q0 -72 29.5 -111.5t83.5 -39.5q88 0 146.5 92t58.5 213zM530 1245l-75 -82l-265 221l103 109z" />
    <glyph glyph-name="aacute" unicode="&#xe1;" horiz-adv-x="841" 
d="M721 0h-158q0 141 8 182l-2 2q-27 -89 -99 -144.5t-171 -55.5q-109 0 -174.5 69.5t-65.5 198.5q0 166 128 259t360 89v86q0 111 -39.5 163t-130.5 52q-108 0 -234 -76l-45 125q156 86 305 86q162 0 238 -81.5t76 -243.5v-414q0 -209 4 -297zM547 424v51
q-74 2 -130.5 -7.5t-91.5 -27.5t-57 -45t-30.5 -57t-8.5 -68q0 -72 29.5 -111.5t83.5 -39.5q88 0 146.5 92t58.5 213zM317 1243l238 250l102 -107l-264 -223z" />
    <glyph glyph-name="acircumflex" unicode="&#xe2;" horiz-adv-x="841" 
d="M721 0h-158q0 141 8 182l-2 2q-27 -89 -99 -144.5t-171 -55.5q-109 0 -174.5 69.5t-65.5 198.5q0 166 128 259t360 89v86q0 111 -39.5 163t-130.5 52q-108 0 -234 -76l-45 125q156 86 305 86q162 0 238 -81.5t76 -243.5v-414q0 -209 4 -297zM547 424v51
q-74 2 -130.5 -7.5t-91.5 -27.5t-57 -45t-30.5 -57t-8.5 -68q0 -72 29.5 -111.5t83.5 -39.5q88 0 146.5 92t58.5 213zM651 1241l-73 -82l-179 162l-166 -162l-73 80l243 248z" />
    <glyph glyph-name="atilde" unicode="&#xe3;" horiz-adv-x="841" 
d="M721 0h-158q0 141 8 182l-2 2q-27 -89 -99 -144.5t-171 -55.5q-109 0 -174.5 69.5t-65.5 198.5q0 166 128 259t360 89v86q0 111 -39.5 163t-130.5 52q-108 0 -234 -76l-45 125q156 86 305 86q162 0 238 -81.5t76 -243.5v-414q0 -209 4 -297zM547 424v51
q-74 2 -130.5 -7.5t-91.5 -27.5t-57 -45t-30.5 -57t-8.5 -68q0 -72 29.5 -111.5t83.5 -39.5q88 0 146.5 92t58.5 213zM612 1389l93 -60q-67 -153 -193 -153q-40 0 -73 14.5t-51 31.5t-41 31.5t-46 14.5q-50 0 -92 -86l-94 61q68 152 194 152q40 0 73 -14t51 -31t41 -31
t46 -14q47 0 92 84z" />
    <glyph glyph-name="adieresis" unicode="&#xe4;" horiz-adv-x="841" 
d="M721 0h-158q0 141 8 182l-2 2q-27 -89 -99 -144.5t-171 -55.5q-109 0 -174.5 69.5t-65.5 198.5q0 166 128 259t360 89v86q0 111 -39.5 163t-130.5 52q-108 0 -234 -76l-45 125q156 86 305 86q162 0 238 -81.5t76 -243.5v-414q0 -209 4 -297zM547 424v51
q-74 2 -130.5 -7.5t-91.5 -27.5t-57 -45t-30.5 -57t-8.5 -68q0 -72 29.5 -111.5t83.5 -39.5q88 0 146.5 92t58.5 213zM252 1393q42 0 71 -30t29 -73t-29.5 -72.5t-72.5 -29.5t-71.5 29.5t-28.5 72.5t29.5 73t72.5 30zM573 1393q41 0 71 -30t30 -73t-30 -72.5t-73 -29.5
t-72.5 29.5t-29.5 72.5t30.5 73t73.5 30z" />
    <glyph glyph-name="aring" unicode="&#xe5;" horiz-adv-x="841" 
d="M721 0h-158q0 141 8 182l-2 2q-27 -89 -99 -144.5t-171 -55.5q-109 0 -174.5 69.5t-65.5 198.5q0 166 128 259t360 89v86q0 111 -39.5 163t-130.5 52q-108 0 -234 -76l-45 125q156 86 305 86q162 0 238 -81.5t76 -243.5v-414q0 -209 4 -297zM547 424v51
q-74 2 -130.5 -7.5t-91.5 -27.5t-57 -45t-30.5 -57t-8.5 -68q0 -72 29.5 -111.5t83.5 -39.5q88 0 146.5 92t58.5 213zM614 1350q0 -93 -54 -148t-152 -55q-189 0 -189 192q0 91 54.5 147t152.5 56q188 0 188 -192zM498 1339q0 113 -82 113q-37 0 -59.5 -26.5t-22.5 -77.5
q0 -111 82 -111q38 0 60 26t22 76z" />
    <glyph glyph-name="ae" unicode="&#xe6;" horiz-adv-x="1314" 
d="M659 895q35 67 103.5 104t155.5 37q112 0 187 -57t107.5 -150.5t32.5 -220.5q0 -26 -4 -108h-526v-17q0 -190 60.5 -276t180.5 -86q122 0 230 63l43 -129q-139 -71 -299 -71q-126 0 -206 51t-120 166q-41 -101 -123 -159t-182 -58q-109 0 -174.5 69.5t-65.5 198.5
q0 166 128 259t360 89v86q0 112 -39.5 163.5t-130.5 51.5q-108 0 -234 -76l-45 125q155 86 305 86q193 0 256 -141zM547 424v51q-74 2 -130.5 -7.5t-91.5 -27.5t-57 -45t-30.5 -57t-8.5 -68q0 -72 29.5 -111.5t83.5 -39.5q88 0 146.5 92t58.5 213zM1071 625q0 278 -166 278
q-163 0 -186 -278h352z" />
    <glyph glyph-name="ccedilla" unicode="&#xe7;" horiz-adv-x="700" 
d="M659 47q-112 -61 -233 -61q-80 0 -143.5 25.5t-114 81t-78 153.5t-27.5 233q0 268 101.5 410.5t298.5 142.5q105 0 190 -37l-41 -151q-72 43 -153 43q-108 0 -162.5 -97.5t-54.5 -283.5q0 -373 213 -373q86 0 168 49zM446 -82q116 -168 -40 -354h-138q46 62 64.5 110
t11.5 96.5t-45 98.5z" />
    <glyph glyph-name="egrave" unicode="&#xe8;" horiz-adv-x="839" 
d="M770 608q0 -67 -4 -108h-526v-17q0 -190 60.5 -276t180.5 -86q121 0 230 61l43 -127q-139 -71 -299 -71q-197 0 -294.5 124.5t-97.5 393.5q0 154 39 271.5t126 190t214 72.5q85 0 148.5 -32t102.5 -90t58 -135t19 -171zM596 625q0 278 -164 278q-83 0 -130 -73t-56 -205
h350zM557 1245l-76 -82l-264 221l102 109z" />
    <glyph glyph-name="eacute" unicode="&#xe9;" horiz-adv-x="839" 
d="M770 608q0 -67 -4 -108h-526v-17q0 -190 60.5 -276t180.5 -86q121 0 230 61l43 -127q-139 -71 -299 -71q-197 0 -294.5 124.5t-97.5 393.5q0 154 39 271.5t126 190t214 72.5q85 0 148.5 -32t102.5 -90t58 -135t19 -171zM596 625q0 278 -164 278q-83 0 -130 -73t-56 -205
h350zM328 1243l237 250l103 -107l-265 -223z" />
    <glyph glyph-name="ecircumflex" unicode="&#xea;" horiz-adv-x="839" 
d="M770 608q0 -67 -4 -108h-526v-17q0 -190 60.5 -276t180.5 -86q121 0 230 61l43 -127q-139 -71 -299 -71q-197 0 -294.5 124.5t-97.5 393.5q0 154 39 271.5t126 190t214 72.5q85 0 148.5 -32t102.5 -90t58 -135t19 -171zM596 625q0 278 -164 278q-83 0 -130 -73t-56 -205
h350zM674 1241l-74 -82l-178 162l-166 -162l-74 80l244 248z" />
    <glyph glyph-name="edieresis" unicode="&#xeb;" horiz-adv-x="839" 
d="M770 608q0 -67 -4 -108h-526v-17q0 -190 60.5 -276t180.5 -86q121 0 230 61l43 -127q-139 -71 -299 -71q-197 0 -294.5 124.5t-97.5 393.5q0 154 39 271.5t126 190t214 72.5q85 0 148.5 -32t102.5 -90t58 -135t19 -171zM596 625q0 278 -164 278q-83 0 -130 -73t-56 -205
h350zM266 1393q43 0 72 -30t29 -73t-30 -72.5t-73 -29.5t-71.5 29.5t-28.5 72.5t29.5 73t72.5 30zM588 1393q41 0 70.5 -30t29.5 -73t-29.5 -72.5t-72.5 -29.5t-73 29.5t-30 72.5t31 73t74 30z" />
    <glyph glyph-name="igrave" unicode="&#xec;" horiz-adv-x="425" 
d="M299 0h-172v1018h172v-1018zM334 1245l-76 -82l-264 221l102 109z" />
    <glyph glyph-name="iacute" unicode="&#xed;" horiz-adv-x="425" 
d="M299 0h-172v1018h172v-1018zM92 1243l238 250l102 -107l-264 -223z" />
    <glyph glyph-name="icircumflex" unicode="&#xee;" horiz-adv-x="425" 
d="M430 1237l-74 -82l-145 158l-145 -158l-72 80l219 260zM299 0h-172v1018h172v-1018z" />
    <glyph glyph-name="idieresis" unicode="&#xef;" horiz-adv-x="425" 
d="M299 0h-172v1018h172v-1018zM457 1290q0 -44 -29.5 -73t-71.5 -29t-71 29t-29 73t29 73.5t71 29.5t71.5 -29.5t29.5 -73.5zM166 1290q0 -44 -29 -73t-71 -29t-71.5 29t-29.5 73t29.5 73.5t71.5 29.5t71 -29.5t29 -73.5z" />
    <glyph glyph-name="eth" unicode="&#xf0;" horiz-adv-x="927" 
d="M657 567q0 143 -56.5 235.5t-160.5 92.5q-97 0 -148.5 -96t-51.5 -277q0 -199 54 -299t157 -100q206 0 206 444zM836 600q0 -159 -30.5 -279.5t-85.5 -193.5t-127 -109t-161 -36q-369 0 -369 518q0 247 103.5 389.5t275.5 142.5q119 0 174 -96h2q-7 19 -24.5 55.5
t-22.5 48.5q-48 95 -102 156l-197 -96l-84 104q21 10 86 41.5t101 48.5q-76 73 -152 119l170 80q75 -54 144 -123l178 86l84 -102l-172 -84q209 -273 209 -670z" />
    <glyph glyph-name="ntilde" unicode="&#xf1;" horiz-adv-x="933" 
d="M811 0h-172v674q0 110 -28.5 162.5t-96.5 52.5q-90 0 -152.5 -110.5t-62.5 -276.5v-502h-172v1018h162q0 -87 -21 -215h4q35 106 109.5 169.5t175.5 63.5q254 0 254 -321v-715zM668 1389l92 -60q-67 -153 -193 -153q-40 0 -73 14.5t-51 31.5t-41 31.5t-46 14.5
q-50 0 -92 -86l-94 61q33 73 83 112.5t112 39.5q40 0 73 -14t50.5 -31t40.5 -31t46 -14q48 0 93 84z" />
    <glyph glyph-name="ograve" unicode="&#xf2;" horiz-adv-x="899" 
d="M836 520q0 -254 -104.5 -396t-297.5 -142q-189 0 -280 126t-91 390q0 253 104 395.5t296 142.5q189 0 281 -126.5t92 -389.5zM657 502q0 200 -50 296.5t-158 96.5q-99 0 -154 -95.5t-55 -283.5q0 -199 51 -296t158 -97q100 0 154 95t54 284zM561 1245l-76 -82l-264 221
l103 109z" />
    <glyph glyph-name="oacute" unicode="&#xf3;" horiz-adv-x="899" 
d="M836 520q0 -254 -104.5 -396t-297.5 -142q-189 0 -280 126t-91 390q0 253 104 395.5t296 142.5q189 0 281 -126.5t92 -389.5zM657 502q0 200 -50 296.5t-158 96.5q-99 0 -154 -95.5t-55 -283.5q0 -199 51 -296t158 -97q100 0 154 95t54 284zM352 1243l238 250l102 -107
l-264 -223z" />
    <glyph glyph-name="ocircumflex" unicode="&#xf4;" horiz-adv-x="899" 
d="M836 520q0 -254 -104.5 -396t-297.5 -142q-189 0 -280 126t-91 390q0 253 104 395.5t296 142.5q189 0 281 -126.5t92 -389.5zM657 502q0 200 -50 296.5t-158 96.5q-99 0 -154 -95.5t-55 -283.5q0 -199 51 -296t158 -97q100 0 154 95t54 284zM694 1241l-73 -82l-179 162
l-166 -162l-73 80l243 248z" />
    <glyph glyph-name="otilde" unicode="&#xf5;" horiz-adv-x="899" 
d="M836 520q0 -254 -104.5 -396t-297.5 -142q-189 0 -280 126t-91 390q0 253 104 395.5t296 142.5q189 0 281 -126.5t92 -389.5zM657 502q0 200 -50 296.5t-158 96.5q-99 0 -154 -95.5t-55 -283.5q0 -199 51 -296t158 -97q100 0 154 95t54 284zM651 1389l92 -60
q-67 -153 -192 -153q-40 0 -73 14.5t-51 31.5t-41 31.5t-46 14.5q-50 0 -92 -86l-94 61q68 152 194 152q40 0 73 -14t51 -31t41 -31t46 -14q47 0 92 84z" />
    <glyph glyph-name="odieresis" unicode="&#xf6;" horiz-adv-x="899" 
d="M836 520q0 -254 -104.5 -396t-297.5 -142q-189 0 -280 126t-91 390q0 253 104 395.5t296 142.5q189 0 281 -126.5t92 -389.5zM657 502q0 200 -50 296.5t-158 96.5q-99 0 -154 -95.5t-55 -283.5q0 -199 51 -296t158 -97q100 0 154 95t54 284zM285 1393q42 0 71 -30t29 -73
t-29.5 -72.5t-72.5 -29.5t-72 29.5t-29 72.5t30 73t73 30zM606 1393q41 0 71 -30t30 -73t-30 -72.5t-73 -29.5t-72.5 29.5t-29.5 72.5t30.5 73t73.5 30z" />
    <glyph glyph-name="divide" unicode="&#xf7;" 
d="M451 352q49 0 82.5 -34t33.5 -82q0 -50 -33.5 -83.5t-82.5 -33.5t-83 33.5t-34 83.5q0 48 34 82t83 34zM451 1137q49 0 82.5 -33.5t33.5 -83.5t-33.5 -83.5t-82.5 -33.5t-83 33.5t-34 83.5t34 83.5t83 33.5zM823 555h-745v147h745v-147z" />
    <glyph glyph-name="oslash" unicode="&#xf8;" horiz-adv-x="899" 
d="M446 901q-102 0 -159.5 -96t-57.5 -283q0 -178 41 -268l271 620q-46 27 -95 27zM625 764l-271 -621q40 -24 97 -24q102 0 160.5 95.5t58.5 281.5q0 183 -43 268h-2zM776 1110l-67 -158q127 -124 127 -432q0 -254 -104.5 -396t-297.5 -142q-78 0 -139 22l-62 -145l-114 49
l69 160q-125 119 -125 430q0 253 104 395.5t296 142.5q76 0 137 -22l64 145z" />
    <glyph glyph-name="ugrave" unicode="&#xf9;" horiz-adv-x="933" 
d="M123 1018h172v-674q0 -110 28 -162.5t95 -52.5q91 0 154 110.5t63 276.5v502h172v-1018h-162q0 87 21 215h-4q-35 -106 -110 -169.5t-177 -63.5q-136 0 -194 84.5t-58 236.5v715zM561 1245l-76 -82l-264 221l103 109z" />
    <glyph glyph-name="uacute" unicode="&#xfa;" horiz-adv-x="933" 
d="M123 1018h172v-674q0 -110 28 -162.5t95 -52.5q91 0 154 110.5t63 276.5v502h172v-1018h-162q0 87 21 215h-4q-35 -106 -110 -169.5t-177 -63.5q-136 0 -194 84.5t-58 236.5v715zM379 1243l237 250l103 -107l-264 -223z" />
    <glyph glyph-name="ucircumflex" unicode="&#xfb;" horiz-adv-x="933" 
d="M123 1018h172v-674q0 -110 28 -162.5t95 -52.5q91 0 154 110.5t63 276.5v502h172v-1018h-162q0 87 21 215h-4q-35 -106 -110 -169.5t-177 -63.5q-136 0 -194 84.5t-58 236.5v715zM713 1241l-74 -82l-178 162l-166 -162l-74 80l244 248z" />
    <glyph glyph-name="udieresis" unicode="&#xfc;" horiz-adv-x="933" 
d="M123 1018h172v-674q0 -110 28 -162.5t95 -52.5q91 0 154 110.5t63 276.5v502h172v-1018h-162q0 87 21 215h-4q-35 -106 -110 -169.5t-177 -63.5q-136 0 -194 84.5t-58 236.5v715zM299 1393q42 0 71 -30t29 -73t-29.5 -72.5t-72.5 -29.5t-71.5 29.5t-28.5 72.5t29.5 73
t72.5 30zM621 1393q41 0 70.5 -30t29.5 -73t-30 -72.5t-73 -29.5t-72.5 29.5t-29.5 72.5t31 73t74 30z" />
    <glyph glyph-name="yacute" unicode="&#xfd;" horiz-adv-x="806" 
d="M797 1018l-271 -1008q-75 -288 -193.5 -397.5t-314.5 -87.5l17 143q67 -6 108 1t77 39t62.5 90.5t57.5 160.5l12 41h-53l-289 1018h189l159 -588q53 -258 58 -293h4q16 103 57 293l141 588h179zM324 1243l237 250l103 -107l-265 -223z" />
    <glyph glyph-name="thorn" unicode="&#xfe;" horiz-adv-x="915" 
d="M299 1063q0 -114 -25 -250h5q32 105 104 164t170 59q146 0 222.5 -121.5t76.5 -361.5q0 -275 -112.5 -419t-319.5 -144q-71 0 -121 14v-469h-172v1935h172v-407zM672 539q0 350 -160 350q-95 0 -154 -116t-59 -298v-319q54 -25 131 -25q120 0 181 96t61 312z" />
    <glyph glyph-name="ydieresis" unicode="&#xff;" horiz-adv-x="806" 
d="M797 1018l-271 -1008q-75 -288 -193.5 -397.5t-314.5 -87.5l17 143q67 -6 108 1t77 39t62.5 90.5t57.5 160.5l12 41h-53l-289 1018h189l159 -588q53 -258 58 -293h4q16 103 57 293l141 588h179zM246 1393q42 0 71 -30t29 -73t-29.5 -72.5t-72.5 -29.5t-72 29.5t-29 72.5
t30 73t73 30zM567 1393q41 0 71 -30t30 -73t-30 -72.5t-73 -29.5t-72.5 29.5t-29.5 72.5t30.5 73t73.5 30z" />
    <glyph glyph-name="Amacron" unicode="&#x100;" horiz-adv-x="1013" 
d="M999 0h-188l-86 326h-449l-88 -326h-174l371 1382h242zM692 471l-129 483q-45 186 -61 283h-4q-18 -110 -60 -283l-129 -483h383zM756 1532h-500v127h500v-127z" />
    <glyph glyph-name="amacron" unicode="&#x101;" horiz-adv-x="841" 
d="M721 0h-158q0 141 8 182l-2 2q-27 -89 -99 -144.5t-171 -55.5q-109 0 -174.5 69.5t-65.5 198.5q0 166 128 259t360 89v86q0 111 -39.5 163t-130.5 52q-108 0 -234 -76l-45 125q156 86 305 86q162 0 238 -81.5t76 -243.5v-414q0 -209 4 -297zM547 424v51
q-74 2 -130.5 -7.5t-91.5 -27.5t-57 -45t-30.5 -57t-8.5 -68q0 -72 29.5 -111.5t83.5 -39.5q88 0 146.5 92t58.5 213zM645 1206h-481v131h481v-131z" />
    <glyph glyph-name="Abreve" unicode="&#x102;" horiz-adv-x="1013" 
d="M999 0h-188l-86 326h-449l-88 -326h-174l371 1382h242zM692 471l-129 483q-45 186 -61 283h-4q-18 -110 -60 -283l-129 -483h383zM748 1712q0 -107 -64.5 -172t-185.5 -65q-122 0 -182 67t-60 170h125q0 -48 33 -82.5t84 -34.5q56 0 90.5 31t34.5 86h125z" />
    <glyph glyph-name="abreve" unicode="&#x103;" horiz-adv-x="841" 
d="M721 0h-158q0 141 8 182l-2 2q-27 -89 -99 -144.5t-171 -55.5q-109 0 -174.5 69.5t-65.5 198.5q0 166 128 259t360 89v86q0 111 -39.5 163t-130.5 52q-108 0 -234 -76l-45 125q156 86 305 86q162 0 238 -81.5t76 -243.5v-414q0 -209 4 -297zM547 424v51
q-74 2 -130.5 -7.5t-91.5 -27.5t-57 -45t-30.5 -57t-8.5 -68q0 -72 29.5 -111.5t83.5 -39.5q88 0 146.5 92t58.5 213zM643 1427q0 -120 -60.5 -194t-174.5 -74q-115 0 -172.5 76t-57.5 192h131q0 -57 27.5 -95t73.5 -38q47 0 74.5 35t27.5 98h131z" />
    <glyph glyph-name="Aogonek" unicode="&#x104;" horiz-adv-x="1013" 
d="M725 326h-449l-88 -326h-174l371 1382h242l372 -1382q-168 -138 -168 -262q0 -38 18 -59t52 -21q39 0 86 29l37 -115q-76 -43 -166 -43t-143 44t-53 128q0 147 149 299zM692 471l-129 483q-45 186 -61 283h-4q-18 -110 -60 -283l-129 -483h383z" />
    <glyph glyph-name="aogonek" unicode="&#x105;" horiz-adv-x="841" 
d="M717 360q0 -220 28 -360q-147 -142 -147 -262q0 -80 72 -80q39 0 86 29l35 -115q-73 -43 -164 -43q-92 0 -145.5 44t-53.5 128q0 75 36 148t122 159q-15 91 -15 176h-2q-27 -89 -99 -144.5t-171 -55.5q-109 0 -174.5 69.5t-65.5 198.5q0 166 128 259t360 89v86
q0 111 -39.5 163t-130.5 52q-108 0 -234 -76l-45 125q156 86 305 86q162 0 238 -81.5t76 -243.5v-351zM547 424v51q-74 2 -130.5 -7.5t-91.5 -27.5t-57 -45t-30.5 -57t-8.5 -68q0 -72 29.5 -111.5t83.5 -39.5q88 0 146.5 92t58.5 213z" />
    <glyph glyph-name="Cacute" unicode="&#x106;" horiz-adv-x="882" 
d="M842 51q-131 -69 -291 -69q-242 0 -359.5 176.5t-117.5 505.5q0 161 30 292.5t90 231t158.5 154.5t227.5 55q137 0 251 -51l-43 -154q-101 49 -206 49q-84 0 -147 -42t-100 -119t-55 -175.5t-18 -220.5q0 -545 320 -545q113 0 217 58zM451 1579l315 139l53 -125
l-332 -106z" />
    <glyph glyph-name="cacute" unicode="&#x107;" horiz-adv-x="700" 
d="M659 47q-112 -61 -233 -61q-80 0 -143.5 25.5t-114 81t-78 153.5t-27.5 233q0 268 101.5 410.5t298.5 142.5q105 0 190 -37l-41 -151q-72 43 -153 43q-108 0 -162.5 -97.5t-54.5 -283.5q0 -373 213 -373q86 0 168 49zM326 1243l237 250l103 -107l-265 -223z" />
    <glyph glyph-name="Ccircumflex" unicode="&#x108;" horiz-adv-x="882" 
d="M842 51q-131 -69 -291 -69q-242 0 -359.5 176.5t-117.5 505.5q0 161 30 292.5t90 231t158.5 154.5t227.5 55q137 0 251 -51l-43 -154q-101 49 -206 49q-84 0 -147 -42t-100 -119t-55 -175.5t-18 -220.5q0 -545 320 -545q113 0 217 58zM557 1718l258 -139l-47 -92l-213 98
l-213 -98l-43 90z" />
    <glyph glyph-name="ccircumflex" unicode="&#x109;" horiz-adv-x="700" 
d="M659 47q-112 -61 -233 -61q-80 0 -143.5 25.5t-114 81t-78 153.5t-27.5 233q0 268 101.5 410.5t298.5 142.5q105 0 190 -37l-41 -151q-72 43 -153 43q-108 0 -162.5 -97.5t-54.5 -283.5q0 -373 213 -373q86 0 168 49zM664 1241l-74 -82l-178 162l-166 -162l-74 80
l244 248z" />
    <glyph glyph-name="Cdotaccent" unicode="&#x10a;" horiz-adv-x="882" 
d="M842 51q-131 -69 -291 -69q-242 0 -359.5 176.5t-117.5 505.5q0 161 30 292.5t90 231t158.5 154.5t227.5 55q137 0 251 -51l-43 -154q-101 49 -206 49q-84 0 -147 -42t-100 -119t-55 -175.5t-18 -220.5q0 -545 320 -545q113 0 217 58zM555 1702q46 0 77.5 -32.5
t31.5 -78.5t-31.5 -78t-77.5 -32q-47 0 -78 32t-31 78t31.5 78.5t77.5 32.5z" />
    <glyph glyph-name="cdotaccent" unicode="&#x10b;" horiz-adv-x="700" 
d="M659 47q-112 -61 -233 -61q-80 0 -143.5 25.5t-114 81t-78 153.5t-27.5 233q0 268 101.5 410.5t298.5 142.5q105 0 190 -37l-41 -151q-72 43 -153 43q-108 0 -162.5 -97.5t-54.5 -283.5q0 -373 213 -373q86 0 168 49zM406 1405q46 0 78 -32.5t32 -78.5t-33 -79t-80 -33
q-45 0 -76.5 33t-31.5 79t32.5 78.5t78.5 32.5z" />
    <glyph glyph-name="Ccaron" unicode="&#x10c;" horiz-adv-x="882" 
d="M842 51q-131 -69 -291 -69q-242 0 -359.5 176.5t-117.5 505.5q0 161 30 292.5t90 231t158.5 154.5t227.5 55q137 0 251 -51l-43 -154q-101 49 -206 49q-84 0 -147 -42t-100 -119t-55 -175.5t-18 -220.5q0 -545 320 -545q113 0 217 58zM535 1487l-259 141l48 90l213 -96
l213 96l45 -90z" />
    <glyph glyph-name="ccaron" unicode="&#x10d;" horiz-adv-x="700" 
d="M659 47q-112 -61 -233 -61q-80 0 -143.5 25.5t-114 81t-78 153.5t-27.5 233q0 268 101.5 410.5t298.5 142.5q105 0 190 -37l-41 -151q-72 43 -153 43q-108 0 -162.5 -97.5t-54.5 -283.5q0 -373 213 -373q86 0 168 49zM168 1403l76 82l176 -162l168 162l71 -80l-241 -248z
" />
    <glyph glyph-name="Dcaron" unicode="&#x10e;" horiz-adv-x="1067" 
d="M995 709q0 -715 -575 -715q-67 0 -171.5 4t-119.5 4v1380q38 0 155.5 3.5t186.5 3.5q265 0 394.5 -163t129.5 -517zM811 698q0 279 -83 411t-263 132q-84 0 -162 -4v-1083q102 -11 139 -11q184 0 276.5 132.5t92.5 422.5zM475 1487l-258 141l47 90l213 -96l213 96l45 -90
z" />
    <glyph glyph-name="dcaron" unicode="&#x10f;" horiz-adv-x="1024" 
d="M788 0h-163q0 105 22 215h-4q-34 -110 -107 -171.5t-171 -61.5q-147 0 -224.5 121.5t-77.5 361.5q0 274 111.5 418.5t319.5 144.5q66 0 122 -10v452h172v-1470zM616 543v323q-71 21 -131 21q-120 0 -181.5 -96t-61.5 -312q0 -350 161 -350q94 0 153.5 115.5t59.5 298.5z
M1106 1464l-137 -356l-107 22l101 369z" />
    <glyph glyph-name="Dcroat" unicode="&#x110;" horiz-adv-x="1087" 
d="M150 780v602q38 0 155.5 3.5t186.5 3.5q265 0 394.5 -163t129.5 -517q0 -365 -148.5 -540t-427.5 -175q-60 0 -155 3t-135 3v641h-132v139h132zM324 780h215v-139h-215v-487q102 -11 139 -11q184 0 276 132.5t92 422.5q0 279 -83 411t-263 132q-83 0 -161 -4v-457z" />
    <glyph glyph-name="dcroat" unicode="&#x111;" horiz-adv-x="915" 
d="M788 0h-163q0 105 22 215h-4q-34 -110 -107 -171.5t-171 -61.5q-147 0 -224.5 121.5t-77.5 361.5q0 274 111.5 418.5t319.5 144.5q66 0 122 -10v158h-221v139h221v155h172v-155h117v-139h-117v-1176zM616 543v323q-71 21 -131 21q-120 0 -181.5 -96t-61.5 -312
q0 -350 161 -350q94 0 153.5 115.5t59.5 298.5z" />
    <glyph glyph-name="Emacron" unicode="&#x112;" horiz-adv-x="804" 
d="M709 0h-580v1382h578v-147h-404v-453h381v-143h-381v-489h406v-150zM672 1532h-500v127h500v-127z" />
    <glyph glyph-name="emacron" unicode="&#x113;" horiz-adv-x="839" 
d="M770 608q0 -67 -4 -108h-526v-17q0 -190 60.5 -276t180.5 -86q121 0 230 61l43 -127q-139 -71 -299 -71q-197 0 -294.5 124.5t-97.5 393.5q0 154 39 271.5t126 190t214 72.5q85 0 148.5 -32t102.5 -90t58 -135t19 -171zM596 625q0 278 -164 278q-83 0 -130 -73t-56 -205
h350zM674 1206h-481v131h481v-131z" />
    <glyph glyph-name="Ebreve" unicode="&#x114;" horiz-adv-x="804" 
d="M709 0h-580v1382h578v-147h-404v-453h381v-143h-381v-489h406v-150zM664 1712q0 -107 -64.5 -172t-185.5 -65q-122 0 -182 67t-60 170h125q0 -48 33 -82.5t84 -34.5q56 0 90.5 31t34.5 86h125z" />
    <glyph glyph-name="ebreve" unicode="&#x115;" horiz-adv-x="839" 
d="M770 608q0 -67 -4 -108h-526v-17q0 -190 60.5 -276t180.5 -86q121 0 230 61l43 -127q-139 -71 -299 -71q-197 0 -294.5 124.5t-97.5 393.5q0 154 39 271.5t126 190t214 72.5q85 0 148.5 -32t102.5 -90t58 -135t19 -171zM596 625q0 278 -164 278q-83 0 -130 -73t-56 -205
h350zM662 1427q0 -120 -60.5 -194t-175.5 -74t-172 76t-57 192h131q0 -57 27 -95t73 -38q47 0 74.5 35t27.5 98h132z" />
    <glyph glyph-name="Edotaccent" unicode="&#x116;" horiz-adv-x="804" 
d="M709 0h-580v1382h578v-147h-404v-453h381v-143h-381v-489h406v-150zM422 1702q45 0 76.5 -32.5t31.5 -78.5t-31 -78t-77 -32q-47 0 -78 32t-31 78t31.5 78.5t77.5 32.5z" />
    <glyph glyph-name="edotaccent" unicode="&#x117;" horiz-adv-x="839" 
d="M770 608q0 -67 -4 -108h-526v-17q0 -190 60.5 -276t180.5 -86q121 0 230 61l43 -127q-139 -71 -299 -71q-197 0 -294.5 124.5t-97.5 393.5q0 154 39 271.5t126 190t214 72.5q85 0 148.5 -32t102.5 -90t58 -135t19 -171zM596 625q0 278 -164 278q-83 0 -130 -73t-56 -205
h350zM430 1407q46 0 78.5 -32.5t32.5 -78.5t-33 -79t-80 -33q-45 0 -77 33t-32 79t32.5 78.5t78.5 32.5z" />
    <glyph glyph-name="Eogonek" unicode="&#x118;" horiz-adv-x="804" 
d="M522 0h-393v1382h578v-147h-404v-453h381v-143h-381v-489h406v-150q-168 -140 -168 -262q0 -80 69 -80q38 0 88 29l35 -115q-73 -43 -166 -43q-90 0 -143 44t-53 128q0 148 151 299z" />
    <glyph glyph-name="eogonek" unicode="&#x119;" horiz-adv-x="839" 
d="M770 608q0 -67 -4 -108h-526v-17q0 -190 60.5 -276t180.5 -86q121 0 230 61l43 -125q-64 -45 -109.5 -93.5t-67 -91t-30 -74.5t-8.5 -60q0 -80 71 -80q39 0 86 29l35 -115q-73 -43 -164 -43q-92 0 -145 44t-53 128q0 158 135 287q-28 -4 -58 -4q-190 0 -286.5 125
t-96.5 393q0 154 39 271.5t126 190t214 72.5q85 0 148.5 -32t102.5 -90t58 -135t19 -171zM596 625q0 278 -164 278q-83 0 -130 -73t-56 -205h350z" />
    <glyph glyph-name="Ecaron" unicode="&#x11a;" horiz-adv-x="804" 
d="M709 0h-580v1382h578v-147h-404v-453h381v-143h-381v-489h406v-150zM424 1487l-258 141l47 90l213 -96l213 96l45 -90z" />
    <glyph glyph-name="ecaron" unicode="&#x11b;" horiz-adv-x="839" 
d="M770 608q0 -67 -4 -108h-526v-17q0 -190 60.5 -276t180.5 -86q121 0 230 61l43 -127q-139 -71 -299 -71q-197 0 -294.5 124.5t-97.5 393.5q0 154 39 271.5t126 190t214 72.5q85 0 148.5 -32t102.5 -90t58 -135t19 -171zM596 625q0 278 -164 278q-83 0 -130 -73t-56 -205
h350zM180 1403l76 82l176 -162l168 162l72 -80l-242 -248z" />
    <glyph glyph-name="Gcircumflex" unicode="&#x11c;" horiz-adv-x="1073" 
d="M952 1333l-53 -157q-156 71 -291 71q-97 0 -166.5 -40t-109.5 -116.5t-58 -175t-18 -227.5q0 -553 342 -553q94 0 176 31v532h174v-639q-168 -77 -373 -77q-252 0 -376.5 176t-124.5 512q0 163 30.5 293t93.5 229t169.5 153t250.5 54q171 0 334 -66zM610 1718l258 -139
l-47 -92l-213 98l-213 -98l-43 90z" />
    <glyph glyph-name="gcircumflex" unicode="&#x11d;" horiz-adv-x="876" 
d="M840 -109q0 -163 -123.5 -267.5t-313.5 -104.5q-166 0 -258 75t-92 220q0 83 41.5 155.5t104.5 116.5q-43 21 -65.5 61t-22.5 89q0 52 25.5 97t70.5 73q-125 81 -125 270q0 158 92.5 259t257.5 101q62 0 123 -18h272v-137h-129q62 -65 62 -176q0 -164 -90.5 -258.5
t-259.5 -94.5q-41 0 -78 13q-24 -13 -36.5 -36t-12.5 -46q0 -43 31 -61t104 -23l135 -11q140 -11 213.5 -86t73.5 -211zM596 690q0 106 -44.5 161.5t-127.5 55.5q-82 0 -128 -58t-46 -159q0 -104 43.5 -158.5t128.5 -54.5q81 0 127.5 55t46.5 158zM668 -129q0 157 -164 166
l-129 8q-6 1 -24.5 3t-24.5 3q-45 -39 -74 -93.5t-29 -111.5q0 -92 57 -142t150 -50q111 0 174.5 60.5t63.5 156.5zM676 1241l-74 -82l-178 162l-166 -162l-74 80l244 248z" />
    <glyph glyph-name="Gbreve" unicode="&#x11e;" horiz-adv-x="1073" 
d="M952 1333l-53 -157q-156 71 -291 71q-97 0 -166.5 -40t-109.5 -116.5t-58 -175t-18 -227.5q0 -553 342 -553q94 0 176 31v532h174v-639q-168 -77 -373 -77q-252 0 -376.5 176t-124.5 512q0 163 30.5 293t93.5 229t169.5 153t250.5 54q171 0 334 -66zM825 1712
q0 -107 -64.5 -172t-185.5 -65q-122 0 -181.5 67t-59.5 170h125q0 -49 32.5 -83t83.5 -34q56 0 90.5 31t34.5 86h125z" />
    <glyph glyph-name="gbreve" unicode="&#x11f;" horiz-adv-x="876" 
d="M840 -109q0 -163 -123.5 -267.5t-313.5 -104.5q-166 0 -258 75t-92 220q0 83 41.5 155.5t104.5 116.5q-43 21 -65.5 61t-22.5 89q0 52 25.5 97t70.5 73q-125 81 -125 270q0 158 92.5 259t257.5 101q62 0 123 -18h272v-137h-129q62 -65 62 -176q0 -164 -90.5 -258.5
t-259.5 -94.5q-41 0 -78 13q-24 -13 -36.5 -36t-12.5 -46q0 -43 31 -61t104 -23l135 -11q140 -11 213.5 -86t73.5 -211zM596 690q0 106 -44.5 161.5t-127.5 55.5q-82 0 -128 -58t-46 -159q0 -104 43.5 -158.5t128.5 -54.5q81 0 127.5 55t46.5 158zM668 -129q0 157 -164 166
l-129 8q-6 1 -24.5 3t-24.5 3q-45 -39 -74 -93.5t-29 -111.5q0 -92 57 -142t150 -50q111 0 174.5 60.5t63.5 156.5zM657 1427q0 -120 -60.5 -194t-174.5 -74q-115 0 -172 76t-57 192h131q0 -57 27 -95t73 -38q47 0 74.5 35t27.5 98h131z" />
    <glyph glyph-name="Gdotaccent" unicode="&#x120;" horiz-adv-x="1073" 
d="M952 1333l-53 -157q-156 71 -291 71q-97 0 -166.5 -40t-109.5 -116.5t-58 -175t-18 -227.5q0 -553 342 -553q94 0 176 31v532h174v-639q-168 -77 -373 -77q-252 0 -376.5 176t-124.5 512q0 163 30.5 293t93.5 229t169.5 153t250.5 54q171 0 334 -66zM561 1702
q46 0 77.5 -32.5t31.5 -78.5t-31.5 -78t-77.5 -32q-47 0 -77.5 32t-30.5 78t31.5 78.5t76.5 32.5z" />
    <glyph glyph-name="gdotaccent" unicode="&#x121;" horiz-adv-x="876" 
d="M840 -109q0 -163 -123.5 -267.5t-313.5 -104.5q-166 0 -258 75t-92 220q0 83 41.5 155.5t104.5 116.5q-43 21 -65.5 61t-22.5 89q0 52 25.5 97t70.5 73q-125 81 -125 270q0 158 92.5 259t257.5 101q62 0 123 -18h272v-137h-129q62 -65 62 -176q0 -164 -90.5 -258.5
t-259.5 -94.5q-41 0 -78 13q-24 -13 -36.5 -36t-12.5 -46q0 -43 31 -61t104 -23l135 -11q140 -11 213.5 -86t73.5 -211zM596 690q0 106 -44.5 161.5t-127.5 55.5q-82 0 -128 -58t-46 -159q0 -104 43.5 -158.5t128.5 -54.5q81 0 127.5 55t46.5 158zM668 -129q0 157 -164 166
l-129 8q-6 1 -24.5 3t-24.5 3q-45 -39 -74 -93.5t-29 -111.5q0 -92 57 -142t150 -50q111 0 174.5 60.5t63.5 156.5zM432 1407q46 0 78.5 -32.5t32.5 -78.5t-33 -79t-80 -33q-45 0 -76.5 33t-31.5 79t32 78.5t78 32.5z" />
    <glyph glyph-name="Gcommaaccent" unicode="&#x122;" horiz-adv-x="1073" 
d="M952 1333l-53 -157q-156 71 -291 71q-97 0 -166.5 -40t-109.5 -116.5t-58 -175t-18 -227.5q0 -553 342 -553q94 0 176 31v532h174v-639q-168 -77 -373 -77q-252 0 -376.5 176t-124.5 512q0 163 30.5 293t93.5 229t169.5 153t250.5 54q171 0 334 -66zM295 -442v96
q104 0 147.5 30.5t61.5 102.5q25 72 100 72q40 0 66 -27t26 -72q0 -36 -18.5 -70.5t-55 -66t-101.5 -50.5t-148 -19q-47 0 -78 4z" />
    <glyph glyph-name="gcommaaccent" unicode="&#x123;" horiz-adv-x="876" 
d="M840 -109q0 -163 -123.5 -267.5t-313.5 -104.5q-166 0 -258 75t-92 220q0 83 41.5 155.5t104.5 116.5q-43 21 -65.5 61t-22.5 89q0 52 25.5 97t70.5 73q-125 81 -125 270q0 158 92.5 259t257.5 101q62 0 123 -18h272v-137h-129q62 -65 62 -176q0 -164 -90.5 -258.5
t-259.5 -94.5q-41 0 -78 13q-24 -13 -36.5 -36t-12.5 -46q0 -43 31 -61t104 -23l135 -11q140 -11 213.5 -86t73.5 -211zM596 690q0 106 -44.5 161.5t-127.5 55.5q-82 0 -128 -58t-46 -159q0 -104 43.5 -158.5t128.5 -54.5q81 0 127.5 55t46.5 158zM668 -129q0 157 -164 166
l-129 8q-6 1 -24.5 3t-24.5 3q-45 -39 -74 -93.5t-29 -111.5q0 -92 57 -142t150 -50q111 0 174.5 60.5t63.5 156.5zM739 1477v-97q-104 0 -147.5 -30.5t-61.5 -100.5q-24 -73 -100 -73q-41 0 -66.5 26.5t-25.5 71.5q0 36 18.5 71t55.5 67t102 51.5t148 19.5q30 0 77 -6z" />
    <glyph glyph-name="Hcircumflex" unicode="&#x124;" horiz-adv-x="1116" 
d="M987 0h-174v635h-510v-635h-174v1382h174v-596h510v596h174v-1382zM559 1718l258 -139l-47 -92l-213 98l-213 -98l-43 90z" />
    <glyph glyph-name="hcircumflex" unicode="&#x125;" horiz-adv-x="933" 
d="M811 0h-172v670q0 113 -28.5 166t-96.5 53q-90 0 -152.5 -110.5t-62.5 -276.5v-502h-172v1470h172v-428q0 -104 -25 -229h5q33 100 106.5 161.5t173.5 61.5q252 0 252 -321v-715zM221 1800l258 -139l-47 -92l-213 98l-213 -98l-43 90z" />
    <glyph glyph-name="Hbar" unicode="&#x126;" horiz-adv-x="1148" 
d="M20 1014v143h125v225h174v-225h510v225h175v-225h124v-143h-124v-1014h-175v627h-510v-627h-174v1014h-125zM319 770h510v244h-510v-244z" />
    <glyph glyph-name="hbar" unicode="&#x127;" horiz-adv-x="935" 
d="M813 0h-170v670q0 113 -28.5 166t-98.5 53q-90 0 -152.5 -110.5t-62.5 -276.5v-502h-172v1178h-127v137h127v155h172v-155h213v-137h-213v-156q0 -81 -22 -209h4q34 101 106.5 162t173.5 61q250 0 250 -321v-715z" />
    <glyph glyph-name="Itilde" unicode="&#x128;" horiz-adv-x="434" 
d="M303 0h-174v1382h174v-1382zM436 1700l92 -60q-68 -149 -206 -149q-42 0 -76 14t-52.5 31t-43 31t-50.5 14q-61 0 -104 -84l-94 57q33 73 86 112.5t121 39.5q42 0 76.5 -14t52.5 -31t42.5 -31t49.5 -14q61 0 106 84z" />
    <glyph glyph-name="itilde" unicode="&#x129;" horiz-adv-x="425" 
d="M299 0h-172v1018h172v-1018zM356 1346l99 -21q-25 -174 -152 -174q-35 0 -65 14t-47 31t-36.5 31t-35.5 14q-19 0 -30.5 -15.5t-20.5 -54.5l-99 21q28 174 152 174q35 0 65 -14t48 -31t37.5 -31t35.5 -14q36 0 49 70z" />
    <glyph glyph-name="Imacron" unicode="&#x12a;" horiz-adv-x="434" 
d="M303 0h-174v1382h174v-1382zM465 1532h-500v127h500v-127z" />
    <glyph glyph-name="imacron" unicode="&#x12b;" horiz-adv-x="425" 
d="M299 0h-172v1018h172v-1018zM430 1206h-434v131h434v-131z" />
    <glyph glyph-name="Ibreve" unicode="&#x12c;" horiz-adv-x="434" 
d="M303 0h-174v1382h174v-1382zM463 1712q0 -107 -64.5 -172t-185.5 -65q-122 0 -182 67t-60 170h125q0 -48 33 -82.5t84 -34.5q56 0 90.5 31t34.5 86h125z" />
    <glyph glyph-name="ibreve" unicode="&#x12d;" horiz-adv-x="425" 
d="M299 0h-172v1018h172v-1018zM426 1399q0 -117 -53.5 -194t-163.5 -77q-107 0 -158 76.5t-51 194.5h115q0 -64 26.5 -101.5t69.5 -37.5q47 0 72.5 37t25.5 102h117z" />
    <glyph glyph-name="Iogonek" unicode="&#x12e;" horiz-adv-x="434" 
d="M303 1382v-1382q-156 -143 -156 -262q0 -80 72 -80q39 0 86 29l35 -115q-73 -43 -164 -43q-92 0 -145.5 44t-53.5 128q0 142 152 307v1374h174z" />
    <glyph glyph-name="iogonek" unicode="&#x12f;" horiz-adv-x="425" 
d="M299 1018v-1018q-154 -141 -154 -262q0 -38 18 -59t52 -21q39 0 86 29l37 -115q-76 -43 -166 -43q-91 0 -144 44t-53 128q0 142 152 307v1010h172zM213 1401q46 0 78.5 -32.5t32.5 -78.5t-33 -79t-80 -33q-45 0 -77 33t-32 79t32.5 78.5t78.5 32.5z" />
    <glyph glyph-name="Idotaccent" unicode="&#x130;" horiz-adv-x="434" 
d="M303 0h-174v1382h174v-1382zM217 1702q46 0 77.5 -32.5t31.5 -78.5t-31.5 -78t-77.5 -32q-47 0 -77.5 32t-30.5 78t31.5 78.5t76.5 32.5z" />
    <glyph glyph-name="dotlessi" unicode="&#x131;" horiz-adv-x="425" 
d="M299 0h-172v1018h172v-1018z" />
    <glyph glyph-name="IJ" unicode="&#x132;" horiz-adv-x="962" 
d="M303 0h-174v1382h174v-1382zM831 1382v-1009q0 -193 -62 -287t-216 -94q-61 0 -113 8v145q41 -8 95 -8q68 0 95 44.5t27 172.5v1028h174z" />
    <glyph glyph-name="ij" unicode="&#x133;" horiz-adv-x="849" 
d="M299 0h-172v1018h172v-1018zM213 1401q46 0 78.5 -32.5t32.5 -78.5t-33 -79t-80 -33q-45 0 -77 33t-32 79t32.5 78.5t78.5 32.5zM725 1018v-1114q0 -198 -72.5 -291.5t-224.5 -93.5q-55 0 -113 20l27 146q42 -21 94 -21q66 0 91.5 50t25.5 177v1127h172zM639 1401
q46 0 78.5 -32.5t32.5 -78.5t-33 -79t-80 -33q-45 0 -77 33t-32 79t32.5 78.5t78.5 32.5z" />
    <glyph glyph-name="Jcircumflex" unicode="&#x134;" horiz-adv-x="522" 
d="M393 1382v-1009q0 -193 -62 -287t-216 -94q-61 0 -113 8v145q41 -8 94 -8q68 0 95.5 44.5t27.5 172.5v1028h174zM309 1718l258 -139l-47 -92l-213 98l-213 -98l-43 90z" />
    <glyph glyph-name="jcircumflex" unicode="&#x135;" horiz-adv-x="423" 
d="M430 1237l-74 -82l-145 158l-145 -158l-72 80l219 260zM299 1018v-1114q0 -198 -72.5 -291.5t-224.5 -93.5q-55 0 -113 20l27 146q42 -21 94 -21q66 0 91.5 50t25.5 177v1127h172z" />
    <glyph glyph-name="Kcommaaccent" unicode="&#x136;" horiz-adv-x="931" 
d="M907 0h-202l-400 692h-2v-692h-174v1382h174v-651h2l389 651h197l-408 -657zM172 -442v96q104 0 147.5 30.5t61.5 102.5q25 72 100 72q40 0 66 -27t26 -72q0 -36 -18.5 -70.5t-55 -66t-101.5 -50.5t-148 -19q-47 0 -78 4z" />
    <glyph glyph-name="kcommaaccent" unicode="&#x137;" horiz-adv-x="798" 
d="M784 0h-198l-285 526h-2v-526h-172v1470h172v-911h2l264 459h195l-287 -461zM127 -442v96q104 0 147.5 30.5t61.5 102.5q25 72 100 72q40 0 66 -27t26 -72q0 -36 -18.5 -70.5t-55 -66t-101.5 -50.5t-148 -19q-47 0 -78 4z" />
    <glyph glyph-name="kgreenlandic" unicode="&#x138;" horiz-adv-x="802" 
d="M784 0h-198l-285 510h-2v-510h-172v1018h172v-473h2l268 473h195l-291 -477z" />
    <glyph glyph-name="Lacute" unicode="&#x139;" horiz-adv-x="696" 
d="M682 0h-553v1382h174v-1230h379v-152zM188 1579l316 139l53 -125l-332 -106z" />
    <glyph glyph-name="lacute" unicode="&#x13a;" horiz-adv-x="425" 
d="M299 0h-172v1470h172v-1470zM100 1669l316 139l53 -125l-332 -106z" />
    <glyph glyph-name="Lcommaaccent" unicode="&#x13b;" horiz-adv-x="696" 
d="M682 0h-553v1382h174v-1230h379v-152zM121 -442v96q104 0 147.5 30.5t61.5 102.5q25 72 100 72q40 0 66 -27t26 -72q0 -36 -18.5 -70.5t-55 -66t-101.5 -50.5t-148 -19q-47 0 -78 4z" />
    <glyph glyph-name="lcommaaccent" unicode="&#x13c;" horiz-adv-x="425" 
d="M299 0h-172v1470h172v-1470zM-82 -442v96q104 0 147.5 30.5t61.5 102.5q25 72 100 72q40 0 66 -27t26 -72q0 -36 -18.5 -70.5t-55 -66t-101.5 -50.5t-148 -19q-47 0 -78 4z" />
    <glyph glyph-name="Lcaron" unicode="&#x13d;" horiz-adv-x="724" 
d="M682 0h-553v1382h174v-1230h379v-152zM672 1526l-137 -357l-107 23l100 369z" />
    <glyph glyph-name="lcaron" unicode="&#x13e;" horiz-adv-x="534" 
d="M299 0h-172v1470h172v-1470zM616 1464l-137 -356l-106 22l100 369z" />
    <glyph glyph-name="Ldot" unicode="&#x13f;" horiz-adv-x="886" 
d="M682 0h-553v1382h174v-1230h379v-152zM698 827q51 0 85 -33.5t34 -84.5q0 -50 -34 -83.5t-85 -33.5q-49 0 -82.5 33.5t-33.5 83.5q0 51 33 84.5t83 33.5z" />
    <glyph glyph-name="ldot" unicode="&#x140;" horiz-adv-x="641" 
d="M299 0h-172v1470h172v-1470zM532 745q51 0 85 -33.5t34 -84.5q0 -50 -34 -83.5t-85 -33.5q-49 0 -82.5 33.5t-33.5 83.5q0 51 33 84.5t83 33.5z" />
    <glyph glyph-name="Lslash" unicode="&#x141;" horiz-adv-x="716" 
d="M324 782v-630h378v-152h-552v702l-117 -57l-39 137l156 74v526h174v-446l192 92l37 -137z" />
    <glyph glyph-name="lslash" unicode="&#x142;" horiz-adv-x="466" 
d="M319 741v-741h-172v657l-110 -55l-37 131l147 72v665h172v-579l115 57l35 -131z" />
    <glyph glyph-name="Nacute" unicode="&#x143;" horiz-adv-x="1107" 
d="M979 0h-209l-344 791q-114 260 -152 397h-4q19 -253 19 -742v-446h-160v1382h229l324 -735q102 -231 152 -397h4q-19 253 -19 743v389h160v-1382zM496 1579l315 139l53 -125l-332 -106z" />
    <glyph glyph-name="nacute" unicode="&#x144;" horiz-adv-x="933" 
d="M811 0h-172v674q0 110 -28.5 162.5t-96.5 52.5q-90 0 -152.5 -110.5t-62.5 -276.5v-502h-172v1018h162q0 -87 -21 -215h4q35 106 109.5 169.5t175.5 63.5q254 0 254 -321v-715zM383 1243l238 250l102 -107l-264 -223z" />
    <glyph glyph-name="Ncommaaccent" unicode="&#x145;" horiz-adv-x="1107" 
d="M979 0h-209l-344 791q-114 260 -152 397h-4q19 -253 19 -742v-446h-160v1382h229l324 -735q102 -231 152 -397h4q-19 253 -19 743v389h160v-1382zM229 -442v96q104 0 147.5 30.5t61.5 102.5q25 72 101 72q40 0 66 -27t26 -72q0 -36 -18.5 -70.5t-55.5 -66t-102 -50.5
t-148 -19q-47 0 -78 4z" />
    <glyph glyph-name="ncommaaccent" unicode="&#x146;" horiz-adv-x="933" 
d="M811 0h-172v674q0 110 -28.5 162.5t-96.5 52.5q-90 0 -152.5 -110.5t-62.5 -276.5v-502h-172v1018h162q0 -87 -21 -215h4q35 106 109.5 169.5t175.5 63.5q254 0 254 -321v-715zM156 -442v96q104 0 147.5 30.5t61.5 102.5q25 72 100 72q40 0 66 -27t26 -72
q0 -36 -18.5 -70.5t-55.5 -66t-102 -50.5t-148 -19q-46 0 -77 4z" />
    <glyph glyph-name="Ncaron" unicode="&#x147;" horiz-adv-x="1107" 
d="M979 0h-209l-344 791q-114 260 -152 397h-4q19 -253 19 -742v-446h-160v1382h229l324 -735q102 -231 152 -397h4q-19 253 -19 743v389h160v-1382zM590 1487l-258 141l47 90l213 -96l213 96l45 -90z" />
    <glyph glyph-name="ncaron" unicode="&#x148;" horiz-adv-x="933" 
d="M811 0h-172v674q0 110 -28.5 162.5t-96.5 52.5q-90 0 -152.5 -110.5t-62.5 -276.5v-502h-172v1018h162q0 -87 -21 -215h4q35 106 109.5 169.5t175.5 63.5q254 0 254 -321v-715zM225 1403l76 82l176 -162l168 162l72 -80l-242 -248z" />
    <glyph glyph-name="napostrophe" unicode="&#x149;" horiz-adv-x="976" 
d="M854 0h-172v674q0 110 -28.5 162.5t-96.5 52.5q-90 0 -152.5 -110.5t-62.5 -276.5v-502h-172v1018h162q0 -87 -21 -215h4q35 106 109.5 169.5t175.5 63.5q254 0 254 -321v-715zM63 1087l-61 54q123 151 57 235q-33 41 -10 90.5t80 49.5q42 0 68 -34t26 -89
q0 -143 -160 -306z" />
    <glyph glyph-name="Eng" unicode="&#x14a;" horiz-adv-x="1105" 
d="M975 1382v-1378q0 -145 -26 -238t-77 -149t-141 -100l-72 125q58 28 87.5 60.5t44 94.5t14.5 170v25l-414 876q-62 135 -108 267h-2q14 -280 14 -752v-383h-166v1382h213l397 -835q48 -111 84 -217h2q-14 255 -14 717v335h164z" />
    <glyph glyph-name="eng" unicode="&#x14b;" horiz-adv-x="933" 
d="M819 438v-45q0 -161 -5 -270t-21 -194.5t-36.5 -136t-60.5 -91t-83.5 -63t-114.5 -48.5l-47 136q48 18 73.5 31.5t51.5 42.5t36.5 64.5t20 104.5t12 155.5t2.5 223.5v49q0 197 -14.5 304t-44.5 147.5t-84 40.5q-83 0 -144 -111.5t-61 -275.5v-502h-172v1018h162
q0 -87 -21 -215h4q35 105 107.5 169t165.5 64q105 0 164 -58.5t84.5 -186.5t25.5 -353z" />
    <glyph glyph-name="Omacron" unicode="&#x14c;" horiz-adv-x="1153" 
d="M1079 705q0 -157 -31 -287t-93.5 -228.5t-163 -153t-232.5 -54.5q-103 0 -184 33t-137 93t-93 147.5t-54 192.5t-17 232q0 124 19.5 231.5t60.5 197.5t102 154.5t147 100t191 35.5q128 0 222.5 -50t151 -143.5t84 -218t27.5 -282.5zM897 692q0 275 -81.5 416t-237.5 141
q-157 0 -239.5 -145.5t-82.5 -409.5q0 -277 82.5 -419t239.5 -142q156 0 237.5 146t81.5 413zM829 1532h-499v127h499v-127z" />
    <glyph glyph-name="omacron" unicode="&#x14d;" horiz-adv-x="899" 
d="M836 520q0 -254 -104.5 -396t-297.5 -142q-189 0 -280 126t-91 390q0 253 104 395.5t296 142.5q189 0 281 -126.5t92 -389.5zM657 502q0 200 -50 296.5t-158 96.5q-99 0 -154 -95.5t-55 -283.5q0 -199 51 -296t158 -97q100 0 154 95t54 284zM690 1206h-481v131h481v-131z
" />
    <glyph glyph-name="Obreve" unicode="&#x14e;" horiz-adv-x="1153" 
d="M1079 705q0 -157 -31 -287t-93.5 -228.5t-163 -153t-232.5 -54.5q-103 0 -184 33t-137 93t-93 147.5t-54 192.5t-17 232q0 124 19.5 231.5t60.5 197.5t102 154.5t147 100t191 35.5q128 0 222.5 -50t151 -143.5t84 -218t27.5 -282.5zM897 692q0 275 -81.5 416t-237.5 141
q-157 0 -239.5 -145.5t-82.5 -409.5q0 -277 82.5 -419t239.5 -142q156 0 237.5 146t81.5 413zM825 1712q0 -107 -64.5 -172t-185.5 -65q-122 0 -181.5 67t-59.5 170h125q0 -49 32.5 -83t83.5 -34q56 0 90.5 31t34.5 86h125z" />
    <glyph glyph-name="obreve" unicode="&#x14f;" horiz-adv-x="899" 
d="M836 520q0 -254 -104.5 -396t-297.5 -142q-189 0 -280 126t-91 390q0 253 104 395.5t296 142.5q189 0 281 -126.5t92 -389.5zM657 502q0 200 -50 296.5t-158 96.5q-99 0 -154 -95.5t-55 -283.5q0 -199 51 -296t158 -97q100 0 154 95t54 284zM682 1427q0 -120 -60.5 -194
t-175.5 -74t-172 76t-57 192h131q0 -57 27.5 -95t73.5 -38q47 0 74.5 35t27.5 98h131z" />
    <glyph glyph-name="Ohungarumlaut" unicode="&#x150;" horiz-adv-x="1153" 
d="M1079 705q0 -157 -31 -287t-93.5 -228.5t-163 -153t-232.5 -54.5q-103 0 -184 33t-137 93t-93 147.5t-54 192.5t-17 232q0 124 19.5 231.5t60.5 197.5t102 154.5t147 100t191 35.5q128 0 222.5 -50t151 -143.5t84 -218t27.5 -282.5zM897 692q0 275 -81.5 416t-237.5 141
q-157 0 -239.5 -145.5t-82.5 -409.5q0 -277 82.5 -419t239.5 -142q156 0 237.5 146t81.5 413zM688 1630l-285 -172l-73 62l256 200zM1051 1620l-293 -162l-76 72l264 188z" />
    <glyph glyph-name="ohungarumlaut" unicode="&#x151;" horiz-adv-x="899" 
d="M836 520q0 -254 -104.5 -396t-297.5 -142q-189 0 -280 126t-91 390q0 253 104 395.5t296 142.5q189 0 281 -126.5t92 -389.5zM657 502q0 200 -50 296.5t-158 96.5q-99 0 -154 -95.5t-55 -283.5q0 -199 51 -296t158 -97q100 0 154 95t54 284zM530 1425l-237 -256l-88 64
l205 278zM856 1411l-252 -242l-88 68l223 268z" />
    <glyph glyph-name="OE" unicode="&#x152;" horiz-adv-x="1378" 
d="M719 0q-88 -18 -160 -18q-103 0 -184.5 33t-137.5 93t-93 147.5t-53.5 192.5t-16.5 232q0 124 19.5 231.5t60.5 197.5t102 154.5t147 100t191 35.5q74 0 158 -17h528v-147h-403v-453h380v-143h-380v-489h405v-150h-563zM702 158v1067q-67 24 -124 24
q-157 0 -239.5 -145.5t-82.5 -409.5q0 -277 82.5 -419t239.5 -142q62 0 124 25z" />
    <glyph glyph-name="oe" unicode="&#x153;" horiz-adv-x="1427" 
d="M735 172q-88 -190 -301 -190q-189 0 -280 126t-91 390q0 253 104 395.5t296 142.5q212 0 287 -186q84 186 280 186q85 0 148.5 -32t102.5 -90t58 -135t19 -171q0 -67 -4 -108h-525v-17q0 -191 60 -276.5t182 -85.5q116 0 229 61l41 -127q-136 -71 -299 -71
q-233 0 -307 188zM657 502q0 200 -50 296.5t-158 96.5q-99 0 -154 -95.5t-55 -283.5q0 -199 51 -296t158 -97q100 0 154 95t54 284zM1186 625q0 278 -166 278q-83 0 -130 -73t-56 -205h352z" />
    <glyph glyph-name="Racute" unicode="&#x154;" horiz-adv-x="888" 
d="M866 0h-200l-320 623h-43v-623h-174v1382q140 7 277 7q196 0 298.5 -92t102.5 -279q0 -154 -79.5 -248.5t-209.5 -122.5q42 -68 84 -147zM625 1006q0 123 -57.5 180t-170.5 57q-63 0 -94 -2v-477q36 -4 88 -4q234 0 234 246zM334 1579l315 139l53 -125l-331 -106z" />
    <glyph glyph-name="racute" unicode="&#x155;" horiz-adv-x="587" 
d="M563 1034l-10 -174q-121 29 -187.5 -90t-66.5 -360v-410h-172v1018h162q0 -80 -21 -240h2q16 58 39.5 104.5t58 86t85 57t110.5 8.5zM274 1243l238 250l102 -107l-264 -223z" />
    <glyph glyph-name="Rcommaaccent" unicode="&#x156;" horiz-adv-x="888" 
d="M866 0h-200l-320 623h-43v-623h-174v1382q140 7 277 7q196 0 298.5 -92t102.5 -279q0 -154 -79.5 -248.5t-209.5 -122.5q42 -68 84 -147zM625 1006q0 123 -57.5 180t-170.5 57q-63 0 -94 -2v-477q36 -4 88 -4q234 0 234 246zM168 -442v96q104 0 147.5 30.5t61.5 102.5
q25 72 100 72q40 0 66 -27t26 -72q0 -36 -18.5 -70.5t-55 -66t-101.5 -50.5t-148 -19q-47 0 -78 4z" />
    <glyph glyph-name="rcommaaccent" unicode="&#x157;" horiz-adv-x="587" 
d="M563 1034l-10 -174q-121 29 -187.5 -90t-66.5 -360v-410h-172v1018h162q0 -80 -21 -240h2q16 58 39.5 104.5t58 86t85 57t110.5 8.5zM-14 -442v96q104 0 147.5 30.5t61.5 102.5q25 72 100 72q40 0 66 -27t26 -72q0 -36 -18.5 -70.5t-55.5 -66t-102 -50.5t-148 -19
q-46 0 -77 4z" />
    <glyph glyph-name="Rcaron" unicode="&#x158;" horiz-adv-x="888" 
d="M866 0h-200l-320 623h-43v-623h-174v1382q140 7 277 7q196 0 298.5 -92t102.5 -279q0 -154 -79.5 -248.5t-209.5 -122.5q42 -68 84 -147zM625 1006q0 123 -57.5 180t-170.5 57q-63 0 -94 -2v-477q36 -4 88 -4q234 0 234 246zM426 1487l-258 141l47 90l213 -96l213 96
l45 -90z" />
    <glyph glyph-name="rcaron" unicode="&#x159;" horiz-adv-x="587" 
d="M563 1034l-10 -174q-121 29 -187.5 -90t-66.5 -360v-410h-172v1018h162q0 -80 -21 -240h2q16 58 39.5 104.5t58 86t85 57t110.5 8.5zM92 1403l76 82l176 -162l168 162l72 -80l-242 -248z" />
    <glyph glyph-name="Sacute" unicode="&#x15a;" horiz-adv-x="823" 
d="M748 369q0 -164 -109.5 -275.5t-304.5 -111.5q-141 0 -260 45l39 168q113 -58 223 -58q112 0 169.5 59t57.5 156q0 63 -27 113.5t-70 86.5t-95 69.5t-104.5 71t-95.5 82t-70 112t-27 151.5q0 156 103 258.5t286 102.5q123 0 225 -31l-39 -156q-95 39 -186 39
q-100 0 -153.5 -55t-53.5 -147q0 -59 27 -107.5t70.5 -83.5t96 -68.5t105 -72t96 -83.5t70.5 -113t27 -152zM301 1579l315 139l54 -125l-332 -106z" />
    <glyph glyph-name="sacute" unicode="&#x15b;" horiz-adv-x="690" 
d="M621 287q0 -131 -94.5 -218t-254.5 -87q-104 0 -196 30l33 150q86 -39 165 -39q83 0 124.5 40.5t41.5 108.5q0 43 -20 77t-52.5 58t-71.5 46.5t-78 48.5t-71.5 58t-52.5 81.5t-20 112.5q0 126 84.5 204t238.5 78q79 0 172 -22l-26 -144q-74 29 -142 29
q-76 0 -112.5 -35.5t-36.5 -97.5q0 -40 20.5 -72.5t53 -55.5t71.5 -45t78.5 -49t72 -59.5t53 -83t20.5 -114.5zM262 1243l238 250l102 -107l-264 -223z" />
    <glyph glyph-name="Scircumflex" unicode="&#x15c;" horiz-adv-x="823" 
d="M748 369q0 -164 -109.5 -275.5t-304.5 -111.5q-141 0 -260 45l39 168q113 -58 223 -58q112 0 169.5 59t57.5 156q0 63 -27 113.5t-70 86.5t-95 69.5t-104.5 71t-95.5 82t-70 112t-27 151.5q0 156 103 258.5t286 102.5q123 0 225 -31l-39 -156q-95 39 -186 39
q-100 0 -153.5 -55t-53.5 -147q0 -59 27 -107.5t70.5 -83.5t96 -68.5t105 -72t96 -83.5t70.5 -113t27 -152zM428 1718l258 -139l-47 -92l-213 98l-213 -98l-43 90z" />
    <glyph glyph-name="scircumflex" unicode="&#x15d;" horiz-adv-x="690" 
d="M621 287q0 -131 -94.5 -218t-254.5 -87q-104 0 -196 30l33 150q86 -39 165 -39q83 0 124.5 40.5t41.5 108.5q0 43 -20 77t-52.5 58t-71.5 46.5t-78 48.5t-71.5 58t-52.5 81.5t-20 112.5q0 126 84.5 204t238.5 78q79 0 172 -22l-26 -144q-74 29 -142 29
q-76 0 -112.5 -35.5t-36.5 -97.5q0 -40 20.5 -72.5t53 -55.5t71.5 -45t78.5 -49t72 -59.5t53 -83t20.5 -114.5zM561 1241l-74 -82l-178 162l-166 -162l-73 80l243 248z" />
    <glyph glyph-name="Scedilla" unicode="&#x15e;" horiz-adv-x="823" 
d="M748 369q0 -164 -109.5 -275.5t-304.5 -111.5q-141 0 -260 45l39 168q113 -58 223 -58q112 0 169.5 59t57.5 156q0 63 -27 113.5t-70 86.5t-95 69.5t-104.5 71t-95.5 82t-70 112t-27 151.5q0 156 103 258.5t286 102.5q123 0 225 -31l-39 -156q-95 39 -186 39
q-100 0 -153.5 -55t-53.5 -147q0 -59 27 -107.5t70.5 -83.5t96 -68.5t105 -72t96 -83.5t70.5 -113t27 -152zM449 -82q116 -168 -41 -354h-138q46 62 64.5 110t11.5 96.5t-45 98.5z" />
    <glyph glyph-name="scedilla" unicode="&#x15f;" horiz-adv-x="690" 
d="M621 287q0 -131 -94.5 -218t-254.5 -87q-104 0 -196 30l33 150q86 -39 165 -39q83 0 124.5 40.5t41.5 108.5q0 43 -20 77t-52.5 58t-71.5 46.5t-78 48.5t-71.5 58t-52.5 81.5t-20 112.5q0 126 84.5 204t238.5 78q79 0 172 -22l-26 -144q-74 29 -142 29
q-76 0 -112.5 -35.5t-36.5 -97.5q0 -40 20.5 -72.5t53 -55.5t71.5 -45t78.5 -49t72 -59.5t53 -83t20.5 -114.5zM391 -82q116 -168 -41 -354h-137q46 62 64.5 110t11.5 96.5t-45 98.5z" />
    <glyph glyph-name="Scaron" unicode="&#x160;" horiz-adv-x="823" 
d="M748 369q0 -164 -109.5 -275.5t-304.5 -111.5q-141 0 -260 45l39 168q113 -58 223 -58q112 0 169.5 59t57.5 156q0 63 -27 113.5t-70 86.5t-95 69.5t-104.5 71t-95.5 82t-70 112t-27 151.5q0 156 103 258.5t286 102.5q123 0 225 -31l-39 -156q-95 39 -186 39
q-100 0 -153.5 -55t-53.5 -147q0 -59 27 -107.5t70.5 -83.5t96 -68.5t105 -72t96 -83.5t70.5 -113t27 -152zM438 1487l-258 141l47 90l213 -96l213 96l45 -90z" />
    <glyph glyph-name="scaron" unicode="&#x161;" horiz-adv-x="690" 
d="M621 287q0 -131 -94.5 -218t-254.5 -87q-104 0 -196 30l33 150q86 -39 165 -39q83 0 124.5 40.5t41.5 108.5q0 43 -20 77t-52.5 58t-71.5 46.5t-78 48.5t-71.5 58t-52.5 81.5t-20 112.5q0 126 84.5 204t238.5 78q79 0 172 -22l-26 -144q-74 29 -142 29
q-76 0 -112.5 -35.5t-36.5 -97.5q0 -40 20.5 -72.5t53 -55.5t71.5 -45t78.5 -49t72 -59.5t53 -83t20.5 -114.5zM92 1403l76 82l176 -162l168 162l72 -80l-242 -248z" />
    <glyph glyph-name="uni0162" unicode="&#x162;" horiz-adv-x="835" 
d="M807 1233h-301v-1233h-174v1233h-303v149h778v-149zM477 -82q116 -168 -41 -354h-137q46 62 64.5 110t11.5 96.5t-45 98.5z" />
    <glyph glyph-name="uni0163" unicode="&#x163;" horiz-adv-x="602" 
d="M559 12q-80 -26 -166 -26q-131 0 -183 71t-52 236v588h-156v137h156v295l172 45v-340h217v-137h-217v-549q0 -115 22.5 -157t81.5 -42q55 0 107 19zM422 -82q116 -168 -41 -354h-137q46 62 64.5 110t11 96t-45.5 99z" />
    <glyph glyph-name="Tcaron" unicode="&#x164;" horiz-adv-x="835" 
d="M807 1233h-301v-1233h-174v1233h-303v149h778v-149zM420 1487l-258 141l47 90l213 -96l213 96l45 -90z" />
    <glyph glyph-name="tcaron" unicode="&#x165;" horiz-adv-x="647" 
d="M559 12q-80 -26 -166 -26q-131 0 -183 71t-52 236v588h-156v137h156v295l172 45v-340h217v-137h-217v-549q0 -115 22.5 -157t81.5 -42q55 0 107 19zM715 1509l-137 -356l-107 23l100 368z" />
    <glyph glyph-name="Tbar" unicode="&#x166;" horiz-adv-x="835" 
d="M807 1233h-301v-451h182v-143h-182v-639h-174v639h-185v143h185v451h-303v149h778v-149z" />
    <glyph glyph-name="tbar" unicode="&#x167;" horiz-adv-x="602" 
d="M559 12q-80 -26 -166 -26q-131 0 -183 71t-52 236v176h-127v131h127v281h-156v137h156v295l172 45v-340h217v-137h-217v-281h170v-131h-170v-141q0 -115 22.5 -157t81.5 -42q57 0 107 18z" />
    <glyph glyph-name="Utilde" unicode="&#x168;" horiz-adv-x="1122" 
d="M995 489q0 -245 -108 -376t-332 -131q-232 0 -330 121.5t-98 359.5v919h174v-897q0 -183 61.5 -270.5t198.5 -87.5q136 0 198 83t62 259v913h174v-893zM782 1700l92 -60q-68 -149 -206 -149q-42 0 -76 14t-52.5 31t-43 31t-50.5 14q-61 0 -104 -84l-94 57q33 73 86 112.5
t121 39.5q42 0 76.5 -14t52.5 -31t42.5 -31t49.5 -14q61 0 106 84z" />
    <glyph glyph-name="utilde" unicode="&#x169;" horiz-adv-x="933" 
d="M123 1018h172v-674q0 -110 28 -162.5t95 -52.5q91 0 154 110.5t63 276.5v502h172v-1018h-162q0 87 21 215h-4q-35 -106 -110 -169.5t-177 -63.5q-136 0 -194 84.5t-58 236.5v715zM668 1389l92 -60q-67 -153 -193 -153q-40 0 -73 14.5t-51 31.5t-41 31.5t-46 14.5
q-50 0 -92 -86l-94 61q33 73 83 112.5t112 39.5q40 0 73 -14t50.5 -31t40.5 -31t46 -14q48 0 93 84z" />
    <glyph glyph-name="Umacron" unicode="&#x16a;" horiz-adv-x="1122" 
d="M995 489q0 -245 -108 -376t-332 -131q-232 0 -330 121.5t-98 359.5v919h174v-897q0 -183 61.5 -270.5t198.5 -87.5q136 0 198 83t62 259v913h174v-893zM811 1532h-500v127h500v-127z" />
    <glyph glyph-name="umacron" unicode="&#x16b;" horiz-adv-x="933" 
d="M123 1018h172v-674q0 -110 28 -162.5t95 -52.5q91 0 154 110.5t63 276.5v502h172v-1018h-162q0 87 21 215h-4q-35 -106 -110 -169.5t-177 -63.5q-136 0 -194 84.5t-58 236.5v715zM705 1206h-482v131h482v-131z" />
    <glyph glyph-name="Ubreve" unicode="&#x16c;" horiz-adv-x="1122" 
d="M995 489q0 -245 -108 -376t-332 -131q-232 0 -330 121.5t-98 359.5v919h174v-897q0 -183 61.5 -270.5t198.5 -87.5q136 0 198 83t62 259v913h174v-893zM807 1712q0 -107 -64.5 -172t-185.5 -65q-122 0 -182 67t-60 170h125q0 -48 33 -82.5t84 -34.5q56 0 90.5 31t34.5 86
h125z" />
    <glyph glyph-name="ubreve" unicode="&#x16d;" horiz-adv-x="933" 
d="M123 1018h172v-674q0 -110 28 -162.5t95 -52.5q91 0 154 110.5t63 276.5v502h172v-1018h-162q0 87 21 215h-4q-35 -106 -110 -169.5t-177 -63.5q-136 0 -194 84.5t-58 236.5v715zM698 1427q0 -120 -60.5 -194t-174.5 -74q-115 0 -172.5 76t-57.5 192h132q0 -57 27 -95
t73 -38q47 0 74.5 35t27.5 98h131z" />
    <glyph glyph-name="Uring" unicode="&#x16e;" horiz-adv-x="1122" 
d="M995 489q0 -245 -108 -376t-332 -131q-232 0 -330 121.5t-98 359.5v919h174v-897q0 -183 61.5 -270.5t198.5 -87.5q136 0 198 83t62 259v913h174v-893zM762 1647q0 -87 -54.5 -139t-152.5 -52q-190 0 -190 182q0 86 54 137.5t152 51.5q191 0 191 -180zM649 1640
q0 105 -88 105q-39 0 -61.5 -25.5t-22.5 -74.5q0 -105 88 -105q39 0 61.5 25t22.5 75z" />
    <glyph glyph-name="uring" unicode="&#x16f;" horiz-adv-x="933" 
d="M123 1018h172v-674q0 -110 28 -162.5t95 -52.5q91 0 154 110.5t63 276.5v502h172v-1018h-162q0 87 21 215h-4q-35 -106 -110 -169.5t-177 -63.5q-136 0 -194 84.5t-58 236.5v715zM664 1350q0 -92 -54.5 -147.5t-152.5 -55.5q-189 0 -189 192q0 91 54.5 147t152.5 56
q189 0 189 -192zM547 1339q0 113 -82 113q-37 0 -59.5 -26.5t-22.5 -77.5q0 -111 82 -111q38 0 60 26t22 76z" />
    <glyph glyph-name="Uhungarumlaut" unicode="&#x170;" horiz-adv-x="1122" 
d="M995 489q0 -245 -108 -376t-332 -131q-232 0 -330 121.5t-98 359.5v919h174v-897q0 -183 61.5 -270.5t198.5 -87.5q136 0 198 83t62 259v913h174v-893zM662 1630l-285 -172l-74 62l256 200zM1024 1620l-293 -162l-76 72l265 188z" />
    <glyph glyph-name="uhungarumlaut" unicode="&#x171;" horiz-adv-x="933" 
d="M123 1018h172v-674q0 -110 28 -162.5t95 -52.5q91 0 154 110.5t63 276.5v502h172v-1018h-162q0 87 21 215h-4q-35 -106 -110 -169.5t-177 -63.5q-136 0 -194 84.5t-58 236.5v715zM549 1425l-238 -256l-88 64l205 278zM874 1411l-251 -242l-88 68l223 268z" />
    <glyph glyph-name="Uogonek" unicode="&#x172;" horiz-adv-x="1122" 
d="M995 1382v-893q0 -267 -123 -393q-21 -20 -70 -60.5t-73 -66.5q-121 -118 -121 -231q0 -80 70 -80q39 0 86 29l37 -115q-76 -43 -166 -43q-91 0 -144 44t-53 128q0 76 41 153.5t117 137.5q-21 -6 -59 -6q-211 0 -310.5 116t-99.5 361v919h174v-897q0 -183 61.5 -270.5
t198.5 -87.5q136 0 198 83t62 259v913h174z" />
    <glyph glyph-name="uogonek" unicode="&#x173;" horiz-adv-x="933" 
d="M674 8q-19 133 -8 207h-4q-35 -106 -110 -169.5t-177 -63.5q-137 0 -194.5 85.5t-57.5 239.5v711h172v-674q0 -110 27.5 -162.5t93.5 -52.5q93 0 156 110.5t63 276.5v502h172v-658q0 -206 29 -360q-148 -143 -148 -262q0 -38 18 -59t52 -21q38 0 88 29l35 -115
q-73 -43 -166 -43q-91 0 -144 44t-53 128q0 75 35.5 148t120.5 159z" />
    <glyph glyph-name="Wcircumflex" unicode="&#x174;" horiz-adv-x="1587" 
d="M1540 1382l-268 -1382h-252l-186 942q-26 157 -41 289h-2q-9 -91 -41 -293l-183 -938h-243l-275 1382h182l179 -923q30 -171 43 -301h4q11 117 28 235l193 989h242l192 -962q25 -139 35 -262h4q12 110 43 317l170 907h176zM797 1718l258 -139l-47 -92l-213 98l-213 -98
l-43 90z" />
    <glyph glyph-name="wcircumflex" unicode="&#x175;" horiz-adv-x="1300" 
d="M649 856h-4q-11 -112 -39 -248l-133 -608h-217l-227 1018h178l131 -627q32 -166 37 -244h2q18 123 43 242l137 629h199l139 -627q31 -143 43 -244h2q15 132 39 244l123 627h170l-225 -1018h-222l-137 608q-28 136 -39 248zM897 1241l-74 -82l-178 162l-166 -162l-73 80
l243 248z" />
    <glyph glyph-name="Ycircumflex" unicode="&#x176;" horiz-adv-x="884" 
d="M874 1382l-344 -890v-492h-174v492l-348 890h193l174 -479q36 -100 74 -225h2q22 82 75 235l164 469h184zM451 1718l258 -139l-47 -92l-213 98l-213 -98l-43 90z" />
    <glyph glyph-name="ycircumflex" unicode="&#x177;" horiz-adv-x="806" 
d="M797 1018l-271 -1008q-75 -288 -193.5 -397.5t-314.5 -87.5l17 143q67 -6 108 1t77 39t62.5 90.5t57.5 160.5l12 41h-53l-289 1018h189l159 -588q53 -258 58 -293h4q16 103 57 293l141 588h179zM649 1241l-74 -82l-178 162l-166 -162l-73 80l243 248z" />
    <glyph glyph-name="Ydieresis" unicode="&#x178;" horiz-adv-x="884" 
d="M874 1382l-344 -890v-492h-174v492l-348 890h193l174 -479q36 -100 74 -225h2q22 82 75 235l164 469h184zM272 1696q41 0 71 -31.5t30 -71.5t-30 -71t-71 -31t-70.5 30.5t-29.5 71.5q0 42 29.5 72.5t70.5 30.5zM602 1696q41 0 70.5 -30.5t29.5 -72.5q0 -41 -29.5 -71.5
t-70.5 -30.5t-70.5 30.5t-29.5 71.5q0 42 29.5 72.5t70.5 30.5z" />
    <glyph glyph-name="Zacute" unicode="&#x179;" horiz-adv-x="837" 
d="M768 0h-698v133l489 1096q-85 -6 -225 -6h-248v159h678v-129l-490 -1097q86 6 254 6h240v-162zM334 1579l315 139l53 -125l-331 -106z" />
    <glyph glyph-name="zacute" unicode="&#x17a;" horiz-adv-x="702" 
d="M635 0h-569v123l366 747q-153 -6 -199 -6h-159v154h553v-121l-363 -745q106 4 207 4h164v-156zM250 1243l237 250l103 -107l-264 -223z" />
    <glyph glyph-name="Zdotaccent" unicode="&#x17b;" horiz-adv-x="837" 
d="M768 0h-698v133l489 1096q-85 -6 -225 -6h-248v159h678v-129l-490 -1097q86 6 254 6h240v-162zM422 1702q45 0 76.5 -32.5t31.5 -78.5t-31 -78t-77 -32q-47 0 -78 32t-31 78t31.5 78.5t77.5 32.5z" />
    <glyph glyph-name="zdotaccent" unicode="&#x17c;" horiz-adv-x="702" 
d="M635 0h-569v123l366 747q-153 -6 -199 -6h-159v154h553v-121l-363 -745q106 4 207 4h164v-156zM352 1401q46 0 78.5 -32.5t32.5 -78.5t-33 -79t-80 -33q-45 0 -76.5 33t-31.5 79t32 78.5t78 32.5z" />
    <glyph glyph-name="Zcaron" unicode="&#x17d;" horiz-adv-x="837" 
d="M768 0h-698v133l489 1096q-85 -6 -225 -6h-248v159h678v-129l-490 -1097q86 6 254 6h240v-162zM422 1487l-258 141l47 90l213 -96l213 96l45 -90z" />
    <glyph glyph-name="zcaron" unicode="&#x17e;" horiz-adv-x="702" 
d="M635 0h-569v123l366 747q-153 -6 -199 -6h-159v154h553v-121l-363 -745q106 4 207 4h164v-156zM104 1403l76 82l176 -162l168 162l72 -80l-242 -248z" />
    <glyph glyph-name="longs" unicode="&#x17f;" horiz-adv-x="434" 
d="M520 1477l-14 -144q-29 10 -72 10q-73 0 -104 -65.5t-31 -206.5v-1071h-172v1065q0 422 297 422q54 0 96 -10z" />
    <glyph glyph-name="florin.captab" unicode="&#x191;" 
d="M494 639l-43 -471q-19 -195 -99.5 -288t-234.5 -93q-77 0 -144 18l15 144q74 -19 123 -19q79 0 116.5 53.5t48.5 176.5l43 479h-237v137h248l26 285q19 195 99 288t233 93q72 0 143 -19l-12 -143q-70 18 -125 18q-78 0 -115.5 -53.5t-48.5 -175.5l-26 -293h276v-137h-286
z" />
    <glyph glyph-name="florin" unicode="&#x192;" horiz-adv-x="782" 
d="M430 674l-31 -502q-12 -197 -91 -291t-232 -94q-72 0 -139 18l20 144q70 -19 115 -19q74 0 109.5 52.5t43.5 169.5l31 522h-197v137h203l17 248q12 196 91 289.5t230 93.5q70 0 141 -19l-20 -143q-67 18 -115 18q-75 0 -111 -52.5t-42 -168.5l-17 -266h215v-137h-221z
" />
    <glyph glyph-name="Gcaron" unicode="&#x1e6;" horiz-adv-x="1073" 
d="M952 1333l-53 -157q-156 71 -291 71q-97 0 -166.5 -40t-109.5 -116.5t-58 -175t-18 -227.5q0 -553 342 -553q94 0 176 31v532h174v-639q-168 -77 -373 -77q-252 0 -376.5 176t-124.5 512q0 163 30.5 293t93.5 229t169.5 153t250.5 54q171 0 334 -66zM602 1487l-258 141
l47 90l213 -96l213 96l45 -90z" />
    <glyph glyph-name="gcaron" unicode="&#x1e7;" horiz-adv-x="876" 
d="M840 -109q0 -163 -123.5 -267.5t-313.5 -104.5q-166 0 -258 75t-92 220q0 83 41.5 155.5t104.5 116.5q-43 21 -65.5 61t-22.5 89q0 52 25.5 97t70.5 73q-125 81 -125 270q0 158 92.5 259t257.5 101q62 0 123 -18h272v-137h-129q62 -65 62 -176q0 -164 -90.5 -258.5
t-259.5 -94.5q-41 0 -78 13q-24 -13 -36.5 -36t-12.5 -46q0 -43 31 -61t104 -23l135 -11q140 -11 213.5 -86t73.5 -211zM596 690q0 106 -44.5 161.5t-127.5 55.5q-82 0 -128 -58t-46 -159q0 -104 43.5 -158.5t128.5 -54.5q81 0 127.5 55t46.5 158zM668 -129q0 157 -164 166
l-129 8q-6 1 -24.5 3t-24.5 3q-45 -39 -74 -93.5t-29 -111.5q0 -92 57 -142t150 -50q111 0 174.5 60.5t63.5 156.5zM186 1403l76 82l176 -162l168 162l72 -80l-242 -248z" />
    <glyph glyph-name="Aringacute" unicode="&#x1fa;" horiz-adv-x="1013" 
d="M999 0h-188l-86 326h-449l-88 -326h-174l371 1382h242zM692 471l-129 483q-45 186 -61 283h-4q-18 -110 -60 -283l-129 -483h383zM711 1896l-316 -94l-28 76l301 127zM680 1606q0 -78 -49 -125t-137 -47q-89 0 -132 40t-43 125q0 78 50 125.5t139 47.5q88 0 130 -40.5
t42 -125.5zM578 1602q0 96 -80 96q-34 0 -55 -24.5t-21 -67.5q0 -47 21 -73t59 -26q34 0 55 25t21 70z" />
    <glyph glyph-name="aringacute" unicode="&#x1fb;" horiz-adv-x="841" 
d="M721 0h-158q0 141 8 182l-2 2q-27 -89 -99 -144.5t-171 -55.5q-109 0 -174.5 69.5t-65.5 198.5q0 166 128 259t360 89v86q0 111 -39.5 163t-130.5 52q-108 0 -234 -76l-45 125q156 86 305 86q162 0 238 -81.5t76 -243.5v-414q0 -209 4 -297zM547 424v51
q-74 2 -130.5 -7.5t-91.5 -27.5t-57 -45t-30.5 -57t-8.5 -68q0 -72 29.5 -111.5t83.5 -39.5q88 0 146.5 92t58.5 213zM659 1708l-323 -109l-35 89l307 137zM606 1327q0 -88 -52.5 -142.5t-147.5 -54.5q-183 0 -183 189q0 89 53 143t148 54q182 0 182 -189zM496 1319
q0 54 -21 82.5t-59 28.5t-60 -26.5t-22 -76.5q0 -108 82 -108q37 0 58.5 25.5t21.5 74.5z" />
    <glyph glyph-name="AEacute" unicode="&#x1fc;" horiz-adv-x="1275" 
d="M1184 0h-584v338h-352l-133 -338h-181l551 1382h689v-147h-400v-453h381v-143h-381v-489h410v-150zM600 479v754h-14q-43 -135 -74 -211l-217 -543h305zM745 1579l316 139l53 -125l-332 -106z" />
    <glyph glyph-name="aeacute" unicode="&#x1fd;" horiz-adv-x="1314" 
d="M659 895q35 67 103.5 104t155.5 37q112 0 187 -57t107.5 -150.5t32.5 -220.5q0 -26 -4 -108h-526v-17q0 -190 60.5 -276t180.5 -86q122 0 230 63l43 -129q-139 -71 -299 -71q-126 0 -206 51t-120 166q-41 -101 -123 -159t-182 -58q-109 0 -174.5 69.5t-65.5 198.5
q0 166 128 259t360 89v86q0 112 -39.5 163.5t-130.5 51.5q-108 0 -234 -76l-45 125q155 86 305 86q193 0 256 -141zM547 424v51q-74 2 -130.5 -7.5t-91.5 -27.5t-57 -45t-30.5 -57t-8.5 -68q0 -72 29.5 -111.5t83.5 -39.5q88 0 146.5 92t58.5 213zM1071 625q0 278 -166 278
q-163 0 -186 -278h352zM584 1243l237 250l103 -107l-265 -223z" />
    <glyph glyph-name="Oslashacute" unicode="&#x1fe;" horiz-adv-x="1153" 
d="M981 1493l-82 -203q180 -177 180 -585q0 -157 -31 -287t-93.5 -228.5t-163 -153t-232.5 -54.5q-108 0 -184 36l-74 -180l-129 51l84 203q-182 168 -182 588q0 124 19.5 231.5t60.5 197.5t102 154.5t147 100t191 35.5q109 0 184 -37l74 180zM332 274l385 940
q-60 39 -139 39q-160 0 -243 -146t-83 -413q0 -268 76 -420h4zM575 127q162 0 244 147.5t82 417.5q0 259 -76 414h-4l-385 -938q53 -41 139 -41zM465 1632l315 140l54 -125l-332 -107z" />
    <glyph glyph-name="oslashacute" unicode="&#x1ff;" horiz-adv-x="899" 
d="M446 901q-102 0 -159.5 -96t-57.5 -283q0 -178 41 -268l271 620q-46 27 -95 27zM625 764l-271 -621q40 -24 97 -24q102 0 160.5 95.5t58.5 281.5q0 183 -43 268h-2zM776 1110l-67 -158q127 -124 127 -432q0 -254 -104.5 -396t-297.5 -142q-78 0 -139 22l-62 -145l-114 49
l69 160q-125 119 -125 430q0 253 104 395.5t296 142.5q76 0 137 -22l64 145zM346 1243l238 250l102 -107l-264 -223z" />
    <glyph glyph-name="Scommaaccent" unicode="&#x218;" horiz-adv-x="823" 
d="M748 369q0 -164 -109.5 -275.5t-304.5 -111.5q-141 0 -260 45l39 168q113 -58 223 -58q112 0 169.5 59t57.5 156q0 63 -27 113.5t-70 86.5t-95 69.5t-104.5 71t-95.5 82t-70 112t-27 151.5q0 156 103 258.5t286 102.5q123 0 225 -31l-39 -156q-95 39 -186 39
q-100 0 -153.5 -55t-53.5 -147q0 -59 27 -107.5t70.5 -83.5t96 -68.5t105 -72t96 -83.5t70.5 -113t27 -152zM133 -442v96q104 0 147.5 30.5t61.5 102.5q25 72 100 72q41 0 67 -27t26 -72q0 -36 -18.5 -70.5t-55.5 -66t-102 -50.5t-148 -19q-47 0 -78 4z" />
    <glyph glyph-name="scommaaccent" unicode="&#x219;" horiz-adv-x="690" 
d="M621 287q0 -131 -94.5 -218t-254.5 -87q-104 0 -196 30l33 150q86 -39 165 -39q83 0 124.5 40.5t41.5 108.5q0 43 -20 77t-52.5 58t-71.5 46.5t-78 48.5t-71.5 58t-52.5 81.5t-20 112.5q0 126 84.5 204t238.5 78q79 0 172 -22l-26 -144q-74 29 -142 29
q-76 0 -112.5 -35.5t-36.5 -97.5q0 -40 20.5 -72.5t53 -55.5t71.5 -45t78.5 -49t72 -59.5t53 -83t20.5 -114.5zM61 -442v96q104 0 147.5 30.5t61.5 102.5q25 72 101 72q40 0 66 -27t26 -72q0 -36 -18.5 -70.5t-55.5 -66t-102 -50.5t-148 -19q-47 0 -78 4z" />
    <glyph glyph-name="Tcommaaccent" unicode="&#x21a;" horiz-adv-x="835" 
d="M807 1233h-301v-1233h-174v1233h-303v149h778v-149zM104 -442v96q104 0 147.5 30.5t61.5 102.5q25 72 101 72q40 0 66 -27t26 -72q0 -36 -18.5 -70.5t-55.5 -66t-102 -50.5t-148 -19q-47 0 -78 4z" />
    <glyph glyph-name="tcommaaccent" unicode="&#x21b;" horiz-adv-x="602" 
d="M559 12q-80 -26 -166 -26q-131 0 -183 71t-52 236v588h-156v137h156v295l172 45v-340h217v-137h-217v-549q0 -115 22.5 -157t81.5 -42q55 0 107 19zM88 -442v96q104 0 147.5 30.5t61.5 102.5q25 72 100 72q40 0 66 -27t26 -72q0 -36 -18.5 -70.5t-55 -66t-101.5 -50.5
t-148 -19q-47 0 -78 4z" />
    <glyph glyph-name="dotlessj" unicode="&#x237;" horiz-adv-x="423" 
d="M299 1018v-1114q0 -198 -72.5 -291.5t-224.5 -93.5q-55 0 -113 20l27 146q42 -21 94 -21q66 0 91.5 50t25.5 177v1127h172z" />
    <glyph glyph-name="uni02BF" unicode="&#x2bf;" horiz-adv-x="296" 
d="M264 905v-117q-111 0 -170 68.5t-59 185.5q0 118 69 190.5t160 72.5v-115q-43 0 -70.5 -40t-27.5 -103q0 -66 26.5 -104t71.5 -38z" />
    <glyph glyph-name="circumflex" unicode="&#x2c6;" horiz-adv-x="632" 
d="M561 1241l-74 -82l-178 162l-166 -162l-73 80l243 248z" />
    <glyph glyph-name="caron" unicode="&#x2c7;" horiz-adv-x="632" 
d="M70 1403l75 82l177 -162l167 162l72 -80l-242 -248z" />
    <glyph glyph-name="breve" unicode="&#x2d8;" horiz-adv-x="624" 
d="M543 1427q0 -120 -60.5 -194t-175.5 -74t-172 76t-57 192h131q0 -57 27 -95t73 -38q47 0 75 35t28 98h131z" />
    <glyph glyph-name="dotaccent" unicode="&#x2d9;" horiz-adv-x="425" 
d="M213 1401q46 0 78.5 -32.5t32.5 -78.5t-33 -79t-80 -33q-45 0 -77 33t-32 79t32.5 78.5t78.5 32.5z" />
    <glyph glyph-name="ring" unicode="&#x2da;" horiz-adv-x="575" 
d="M485 1350q0 -93 -54 -148t-152 -55q-189 0 -189 192q0 91 54.5 147t152.5 56q188 0 188 -192zM369 1339q0 113 -82 113q-37 0 -59.5 -26.5t-22.5 -77.5q0 -111 82 -111q38 0 60 26t22 76z" />
    <glyph glyph-name="ogonek" unicode="&#x2db;" horiz-adv-x="514" 
d="M236 0h186q-168 -140 -168 -262q0 -80 72 -80q39 0 86 29l34 -115q-73 -43 -163 -43q-92 0 -145.5 44t-53.5 128q0 147 152 299z" />
    <glyph glyph-name="tilde" unicode="&#x2dc;" horiz-adv-x="759" 
d="M582 1389l92 -60q-67 -153 -193 -153q-40 0 -73 14.5t-51 31.5t-41 31.5t-46 14.5q-50 0 -92 -86l-94 61q33 73 83 112.5t112 39.5q40 0 73 -14t50.5 -31t40.5 -31t46 -14q48 0 93 84z" />
    <glyph glyph-name="hungarumlaut" unicode="&#x2dd;" horiz-adv-x="798" 
d="M395 1425l-237 -256l-88 64l204 278zM721 1411l-252 -242l-88 68l223 268z" />
    <glyph glyph-name="uni0312" unicode="&#x312;" horiz-adv-x="757" 
d="M758 1477v-97q-104 0 -147.5 -30.5t-61.5 -100.5q-24 -73 -100 -73q-41 0 -67 26.5t-26 71.5q0 36 18.5 71t55.5 67t102 51.5t148 19.5q32 0 78 -6z" />
    <glyph glyph-name="uni0326" unicode="&#x326;" horiz-adv-x="614" 
d="M74 -442v96q104 0 147.5 30.5t61.5 102.5q25 72 100 72q40 0 66 -27t26 -72q0 -36 -18.5 -70.5t-55 -66t-101.5 -50.5t-148 -19q-47 0 -78 4z" />
    <glyph glyph-name="uni037E" unicode="&#x37e;" horiz-adv-x="464" 
d="M270 848q48 0 82.5 -35t34.5 -84t-34.5 -84t-82.5 -35q-51 0 -84.5 34.5t-33.5 84.5t33.5 84.5t84.5 34.5zM182 -309l-76 65q153 191 72 293q-42 53 -13.5 113.5t99.5 60.5q52 0 85.5 -41.5t33.5 -109.5q0 -79 -49 -178.5t-152 -202.5z" />
    <glyph glyph-name="tonos" unicode="&#x384;" horiz-adv-x="628" 
d="M399 1503l-61 -346l-125 14l35 347z" />
    <glyph glyph-name="dieresistonos" unicode="&#x385;" horiz-adv-x="862" 
d="M737 1339q0 -42 -26 -70t-66 -28q-38 0 -63 27.5t-25 68.5t26 70t64 29q39 0 64.5 -27.5t25.5 -69.5zM522 1497l-63 -340l-111 12l35 342zM305 1339q0 -41 -26 -69.5t-64 -28.5t-64 27.5t-26 68.5q0 42 26.5 70.5t65.5 28.5q38 0 63 -28t25 -69z" />
    <glyph glyph-name="Alphatonos" unicode="&#x386;" horiz-adv-x="1044" 
d="M1030 0h-188l-86 326h-449l-88 -326h-174l371 1382h241zM723 471l-129 483q-48 198 -62 283h-4q-20 -122 -59 -283l-129 -483h383zM225 1503l-61 -346l-125 14l35 347z" />
    <glyph glyph-name="anoteleia" unicode="&#x387;" horiz-adv-x="405" 
d="M201 1130q51 0 84.5 -33.5t33.5 -84.5q0 -50 -33.5 -83.5t-84.5 -33.5q-49 0 -83 33.5t-34 83.5q0 51 33.5 84.5t83.5 33.5z" />
    <glyph glyph-name="Epsilontonos" unicode="&#x388;" horiz-adv-x="917" 
d="M823 0h-579v1382h577v-147h-403v-453h381v-143h-381v-489h405v-150zM186 1503l-61 -346l-125 14l35 347z" />
    <glyph glyph-name="Etatonos" unicode="&#x389;" horiz-adv-x="1216" 
d="M1102 0h-174v635h-510v-635h-174v1382h174v-596h510v596h174v-1382zM186 1503l-61 -346l-125 14l35 347z" />
    <glyph glyph-name="Iotatonos" unicode="&#x38a;" horiz-adv-x="546" 
d="M418 0h-174v1382h174v-1382zM186 1503l-61 -346l-125 14l35 347z" />
    <glyph glyph-name="Omicrontonos" unicode="&#x38c;" horiz-adv-x="1208" 
d="M1135 705q0 -157 -31.5 -287t-93.5 -228.5t-163 -153t-233 -54.5q-103 0 -184 33t-137 93t-93 147.5t-54 192.5t-17 232q0 124 19.5 231.5t60.5 197.5t102 154.5t147 100t191 35.5q128 0 222.5 -50t151.5 -143.5t84.5 -218t27.5 -282.5zM952 692q0 275 -81.5 416
t-237.5 141q-157 0 -239.5 -145.5t-82.5 -409.5q0 -277 82.5 -419t239.5 -142q156 0 237.5 146t81.5 413zM186 1503l-61 -346l-125 14l35 347z" />
    <glyph glyph-name="Upsilontonos" unicode="&#x38e;" horiz-adv-x="1083" 
d="M1073 1382l-344 -890v-492h-174v492l-348 890h192l174 -479q36 -100 74 -225h2q19 70 76 235l164 469h184zM186 1503l-61 -346l-125 14l35 347z" />
    <glyph glyph-name="Omegatonos" unicode="&#x38f;" horiz-adv-x="1157" 
d="M135 1503l-61 -346l-125 14l35 347zM1071 0h-395v147q111 109 166 240t55 330q0 258 -82.5 395t-236.5 137q-156 0 -239 -142.5t-83 -391.5q0 -192 51 -321t172 -247v-147h-397v150h211q-102 94 -159.5 235t-57.5 324q0 145 31 268t93 218.5t163 149.5t231 54
q127 0 221.5 -49.5t151 -140t83.5 -207.5t27 -263q0 -377 -223 -589h217v-150z" />
    <glyph glyph-name="iotadieresistonos" unicode="&#x390;" horiz-adv-x="450" 
d="M414 -4q-42 -10 -92 -10q-108 0 -151.5 60t-43.5 210v762h172v-735q0 -107 22 -134.5t93 -19.5v-133zM539 1339q0 -41 -26.5 -69.5t-66.5 -28.5q-38 0 -63 27.5t-25 68.5t26.5 70t64.5 29q39 0 64.5 -27.5t25.5 -69.5zM324 1497l-64 -340l-110 12l34 342zM106 1339
q0 -41 -26 -69.5t-64 -28.5t-64 27.5t-26 68.5q0 42 26.5 70.5t65.5 28.5q38 0 63 -28t25 -69z" />
    <glyph glyph-name="Alpha" unicode="&#x391;" horiz-adv-x="1013" 
d="M999 0h-188l-86 326h-449l-88 -326h-174l371 1382h242zM692 471l-129 483q-45 186 -61 283h-4q-18 -110 -60 -283l-129 -483h383z" />
    <glyph glyph-name="Beta" unicode="&#x392;" horiz-adv-x="937" 
d="M864 410q0 -82 -25 -154.5t-75.5 -132t-138.5 -94.5t-203 -35q-51 0 -293 8v1380q301 7 315 7q195 0 290 -92t95 -257q0 -103 -48 -185.5t-142 -123.5v-2q116 -29 170.5 -114t54.5 -205zM647 1022q0 223 -221 223q-29 0 -123 -4v-457q35 -2 105 -2q115 0 177 62t62 178z
M680 401q0 242 -281 242q-69 0 -96 -2v-494q77 -10 131 -10q121 0 183.5 72.5t62.5 191.5z" />
    <glyph glyph-name="Gamma" unicode="&#x393;" horiz-adv-x="698" 
d="M682 1233h-379v-1233h-174v1382h553v-149z" />
    <glyph glyph-name="Delta" unicode="&#x394;" horiz-adv-x="1005" 
d="M961 0h-916v131l336 1251h242l338 -1251v-131zM766 160l-197 743q-43 178 -73 334h-2q-17 -103 -74 -340l-195 -737h541z" />
    <glyph glyph-name="Epsilon" unicode="&#x395;" horiz-adv-x="804" 
d="M709 0h-580v1382h578v-147h-404v-453h381v-143h-381v-489h406v-150z" />
    <glyph glyph-name="Zeta" unicode="&#x396;" horiz-adv-x="837" 
d="M768 0h-698v133l489 1096q-85 -6 -225 -6h-248v159h678v-129l-490 -1097q86 6 254 6h240v-162z" />
    <glyph glyph-name="Eta" unicode="&#x397;" horiz-adv-x="1116" 
d="M987 0h-174v635h-510v-635h-174v1382h174v-596h510v596h174v-1382z" />
    <glyph glyph-name="Theta" unicode="&#x398;" horiz-adv-x="1157" 
d="M766 641h-375v139h375v-139zM1083 705q0 -158 -31 -287.5t-93.5 -228t-164 -153t-233.5 -54.5q-128 0 -223 50t-152 144t-84.5 219.5t-27.5 284.5q0 124 19.5 231.5t61 197.5t102.5 154.5t148 100t193 35.5q128 0 223 -50t151.5 -143.5t83.5 -217.5t27 -283zM903 692
q0 275 -82.5 416t-240.5 141t-241 -145.5t-83 -409.5q0 -278 83 -419.5t241 -141.5q157 0 240 146.5t83 412.5z" />
    <glyph glyph-name="Iota" unicode="&#x399;" horiz-adv-x="434" 
d="M303 0h-174v1382h174v-1382z" />
    <glyph glyph-name="Kappa" unicode="&#x39a;" horiz-adv-x="931" 
d="M907 0h-202l-400 692h-2v-692h-174v1382h174v-651h2l389 651h197l-408 -657z" />
    <glyph glyph-name="Lambda" unicode="&#x39b;" horiz-adv-x="1005" 
d="M18 0l363 1382h240l366 -1382h-188l-232 909q-48 180 -69 320h-4q-13 -85 -72 -328l-225 -901h-179z" />
    <glyph glyph-name="Mu" unicode="&#x39c;" horiz-adv-x="1472" 
d="M831 0h-198l-225 950q-39 177 -54 281h-4q-3 -176 -22 -365l-76 -866h-170l137 1382h258l215 -905q25 -109 47 -268h2q29 181 47 268l213 905h252l138 -1382h-179l-79 866q-17 178 -21 365h-4q-34 -194 -55 -281z" />
    <glyph glyph-name="Nu" unicode="&#x39d;" horiz-adv-x="1107" 
d="M979 0h-209l-344 791q-114 260 -152 397h-4q19 -253 19 -742v-446h-160v1382h229l324 -735q102 -231 152 -397h4q-19 253 -19 743v389h160v-1382z" />
    <glyph glyph-name="Xi" unicode="&#x39e;" horiz-adv-x="841" 
d="M754 1223h-666v159h666v-159zM666 637h-496v151h496v-151zM766 0h-690v164h690v-164z" />
    <glyph glyph-name="Omicron" unicode="&#x39f;" horiz-adv-x="1153" 
d="M1079 705q0 -157 -31 -287t-93.5 -228.5t-163 -153t-232.5 -54.5q-103 0 -184 33t-137 93t-93 147.5t-54 192.5t-17 232q0 124 19.5 231.5t60.5 197.5t102 154.5t147 100t191 35.5q128 0 222.5 -50t151 -143.5t84 -218t27.5 -282.5zM897 692q0 275 -81.5 416t-237.5 141
q-157 0 -239.5 -145.5t-82.5 -409.5q0 -277 82.5 -419t239.5 -142q156 0 237.5 146t81.5 413z" />
    <glyph glyph-name="Pi" unicode="&#x3a0;" horiz-adv-x="1083" 
d="M952 0h-174v1233h-475v-1233h-174v1382h823v-1382z" />
    <glyph glyph-name="Rho" unicode="&#x3a1;" horiz-adv-x="870" 
d="M821 981q0 -206 -117.5 -329.5t-316.5 -123.5q-57 0 -84 4v-532h-174v1382q143 7 287 7q202 0 303.5 -106.5t101.5 -301.5zM641 967q0 276 -238 276q-65 0 -100 -2v-559q36 -8 90 -8q121 0 184.5 77t63.5 216z" />
    <glyph glyph-name="Sigma" unicode="&#x3a3;" horiz-adv-x="835" 
d="M791 0h-719v131l372 559l-354 543v149h686v-155h-473l342 -522l-362 -545h508v-160z" />
    <glyph glyph-name="Tau" unicode="&#x3a4;" horiz-adv-x="835" 
d="M807 1233h-301v-1233h-174v1233h-303v149h778v-149z" />
    <glyph glyph-name="Upsilon" unicode="&#x3a5;" horiz-adv-x="884" 
d="M874 1382l-344 -890v-492h-174v492l-348 890h193l174 -479q36 -100 74 -225h2q22 82 75 235l164 469h184z" />
    <glyph glyph-name="Phi" unicode="&#x3a6;" horiz-adv-x="1337" 
d="M1274 705q0 -286 -145.5 -464t-374.5 -196v-154h-170v152q-250 6 -385.5 177.5t-135.5 459.5q0 284 145.5 461.5t375.5 195.5v146h170v-144q240 -6 380 -175.5t140 -458.5zM1094 694q0 222 -89.5 355t-250.5 143v-999q153 12 246.5 145t93.5 356zM584 190v1000
q-155 -12 -248.5 -144.5t-93.5 -351.5q0 -225 89 -358.5t253 -145.5z" />
    <glyph glyph-name="Chi" unicode="&#x3a7;" horiz-adv-x="978" 
d="M952 0h-204l-154 330q-50 106 -111 264q-76 -192 -108 -266l-150 -328h-196l348 715l-326 667h201l135 -290q67 -149 107 -263h2q21 56 104 258l131 295h197l-326 -667z" />
    <glyph glyph-name="Psi" unicode="&#x3a8;" horiz-adv-x="1304" 
d="M1196 864q0 -264 -119.5 -400.5t-337.5 -154.5v-309h-174v309q-107 6 -188.5 36t-131.5 75t-81.5 109t-43 130t-11.5 146v577h174v-563q0 -75 12.5 -133t43 -109t87.5 -81t139 -37v923h174v-923q150 12 216.5 103t66.5 294v526h174v-518z" />
    <glyph glyph-name="Omega" unicode="&#x3a9;" horiz-adv-x="1153" 
d="M1071 0h-395v147q111 109 166 240t55 330q0 258 -82.5 395t-236.5 137q-156 0 -239 -142.5t-83 -391.5q0 -192 51 -321t172 -247v-147h-397v150h211q-102 94 -159.5 235t-57.5 324q0 145 31 268t93 218.5t163 149.5t231 54q127 0 221.5 -49.5t151 -140t83.5 -207.5
t27 -263q0 -377 -223 -589h217v-150z" />
    <glyph glyph-name="Iotadieresis" unicode="&#x3aa;" horiz-adv-x="434" 
d="M66 1692q40 0 69 -30t29 -71q0 -40 -29 -70t-69 -30q-41 0 -70 30t-29 70q0 43 29 72t70 29zM365 1692q41 0 70.5 -30t29.5 -71t-29.5 -70.5t-70.5 -29.5q-40 0 -69.5 30t-29.5 70q0 42 29.5 71.5t69.5 29.5zM301 0h-174v1382h174v-1382z" />
    <glyph glyph-name="Upsilondieresis" unicode="&#x3ab;" horiz-adv-x="884" 
d="M874 1382l-344 -890v-492h-174v492l-348 890h193l174 -479q36 -100 74 -225h2q22 82 75 235l164 469h184zM272 1696q41 0 71 -31.5t30 -71.5t-30 -71t-71 -31t-70.5 30.5t-29.5 71.5q0 42 29.5 72.5t70.5 30.5zM602 1696q41 0 70.5 -30.5t29.5 -72.5q0 -41 -29.5 -71.5
t-70.5 -30.5t-70.5 30.5t-29.5 71.5q0 42 29.5 72.5t70.5 30.5z" />
    <glyph glyph-name="alphatonos" unicode="&#x3ac;" horiz-adv-x="964" 
d="M909 129v-137q-44 -8 -80 -8q-89 0 -127 51.5t-32 167.5h-2q-29 -104 -104.5 -162.5t-172.5 -58.5q-156 0 -242 126.5t-86 380.5q0 253 97 400t268 147q96 0 161.5 -56t90.5 -157q6 99 25 195h159q-28 -120 -45.5 -290t-17.5 -314q0 -136 8.5 -194t29 -75.5t70.5 -15.5z
M629 508v10q0 174 -50.5 274.5t-140.5 100.5q-91 0 -144.5 -100.5t-53.5 -288.5q0 -379 190 -379q89 0 144 105.5t55 277.5zM612 1503l-61 -346l-125 14l35 347z" />
    <glyph glyph-name="epsilontonos" unicode="&#x3ad;" horiz-adv-x="737" 
d="M690 37q-138 -53 -272 -53q-179 0 -262.5 76t-83.5 202q0 93 43 162t112 98v2q-57 25 -89 79t-32 132q0 129 86.5 215t258.5 86q110 0 217 -35l-27 -139q-107 39 -197 39q-88 0 -126.5 -45t-38.5 -115q0 -151 167 -151h166v-125h-186q-83 0 -128.5 -51.5t-45.5 -124.5
q0 -77 50.5 -123.5t148.5 -46.5q110 0 215 47zM555 1503l-61 -346l-125 14l34 347z" />
    <glyph glyph-name="etatonos" unicode="&#x3ae;" horiz-adv-x="950" 
d="M98 1018h168q13 -152 13 -223q36 109 108 175t176 66q140 0 200 -91t60 -255v-737q0 -238 29 -418h-168q-31 170 -31 393v727q0 118 -31 176t-100 58q-60 0 -109 -57t-75.5 -147.5t-26.5 -192.5v-492h-172v500q0 229 -41 518zM625 1503l-62 -346l-125 14l35 347z" />
    <glyph glyph-name="iotatonos" unicode="&#x3af;" horiz-adv-x="450" 
d="M414 -4q-42 -10 -92 -10q-108 0 -151.5 60t-43.5 210v762h172v-735q0 -107 22 -134.5t93 -19.5v-133zM338 1503l-62 -346l-124 14l34 347z" />
    <glyph glyph-name="upsilondieresistonos" unicode="&#x3b0;" horiz-adv-x="935" 
d="M825 588q0 -303 -100.5 -454.5t-269.5 -151.5q-183 0 -258.5 111t-75.5 343v582h172v-553q0 -181 38.5 -260.5t133.5 -79.5q60 0 100.5 42.5t63 142t22.5 257.5q0 223 -30 451h180q24 -175 24 -430zM778 1339q0 -42 -26 -70t-66 -28q-38 0 -63 27.5t-25 68.5t26 70t64 29
q39 0 64.5 -27.5t25.5 -69.5zM563 1497l-63 -340l-111 12l35 342zM346 1339q0 -41 -26 -69.5t-64 -28.5t-64 27.5t-26 68.5q0 42 26.5 70.5t65.5 28.5q38 0 63 -28t25 -69z" />
    <glyph glyph-name="alpha" unicode="&#x3b1;" horiz-adv-x="962" 
d="M909 129v-137q-44 -8 -80 -8q-89 0 -127 51.5t-32 167.5h-2q-29 -104 -104.5 -162.5t-172.5 -58.5q-156 0 -242 126.5t-86 380.5q0 253 97 400t268 147q96 0 161.5 -56t90.5 -157q6 99 25 195h159q-28 -120 -45.5 -290t-17.5 -314q0 -136 8.5 -194t29 -75.5t70.5 -15.5z
M629 508v10q0 174 -50.5 274.5t-140.5 100.5q-91 0 -144.5 -100.5t-53.5 -288.5q0 -379 190 -379q89 0 144 105.5t55 277.5z" />
    <glyph glyph-name="beta" unicode="&#x3b2;" horiz-adv-x="923" 
d="M301 178q74 -51 154 -51q99 0 151.5 77t52.5 214q0 284 -219 284h-45v138q105 4 162 82t57 211q0 100 -36.5 156.5t-110.5 56.5q-79 0 -122.5 -68.5t-43.5 -198.5v-901zM301 -55q0 -225 27 -410h-168q-31 177 -31 385v1149q0 209 96.5 313.5t253.5 104.5q152 0 232 -92.5
t80 -237.5q0 -131 -52 -228t-137 -128v-2q117 -14 177.5 -115.5t60.5 -249.5q0 -202 -105 -327t-291 -125q-74 0 -143 26v-63z" />
    <glyph glyph-name="gamma" unicode="&#x3b3;" horiz-adv-x="802" 
d="M453 -12v-453h-172v264q0 140 -15.5 246.5t-69.5 316t-186 656.5h189q88 -316 133 -500t54 -239.5t9 -98.5h4q99 233 138 434t16 404h184q15 -255 -55 -500.5t-229 -529.5z" />
    <glyph glyph-name="delta" unicode="&#x3b4;" horiz-adv-x="878" 
d="M467 1487q70 0 142.5 -21t127.5 -57l-67 -129q-103 72 -207 72q-94 0 -94 -78q0 -30 10 -52t51.5 -66t128.5 -120q143 -122 197.5 -246t54.5 -301q0 -140 -41.5 -252.5t-131 -183.5t-214.5 -71q-361 0 -361 516q0 198 72 335.5t195 174.5q-76 68 -110 125t-34 124
q0 41 14 79t44.5 73t88 56.5t134.5 21.5zM635 475q0 147 -41 238.5t-141 183.5q-97 -6 -155 -101t-58 -284q0 -190 50 -289.5t148 -99.5q87 0 142 90t55 262z" />
    <glyph glyph-name="epsilon" unicode="&#x3b5;" horiz-adv-x="737" 
d="M690 37q-138 -53 -272 -53q-179 0 -262.5 76t-83.5 202q0 93 43 162t112 98v2q-57 25 -89 79t-32 132q0 129 86.5 215t258.5 86q110 0 217 -35l-27 -139q-107 39 -197 39q-88 0 -126.5 -45t-38.5 -115q0 -151 167 -151h166v-125h-186q-83 0 -128.5 -51.5t-45.5 -124.5
q0 -77 50.5 -123.5t148.5 -46.5q110 0 215 47z" />
    <glyph glyph-name="zeta" unicode="&#x3b6;" horiz-adv-x="651" 
d="M608 90q58 -61 58 -160q0 -174 -154 -368l-123 65q54 86 78.5 148.5t24.5 122.5q0 43 -23 67.5t-62 34.5t-81.5 18t-91.5 27.5t-82 52.5q-48 48 -70.5 117t-22.5 182q0 165 57.5 361t141.5 349t166 222h-342v141h547v-127q-110 -90 -203 -259t-141.5 -341.5t-48.5 -304.5
q0 -162 55 -217q28 -27 89 -42t126 -34t102 -55z" />
    <glyph glyph-name="eta" unicode="&#x3b7;" horiz-adv-x="950" 
d="M98 1018h168q13 -152 13 -223q36 109 108 175t176 66q140 0 200 -91t60 -255v-737q0 -238 29 -418h-168q-31 170 -31 393v727q0 118 -31 176t-100 58q-60 0 -109 -57t-75.5 -147.5t-26.5 -192.5v-492h-172v500q0 229 -41 518z" />
    <glyph glyph-name="theta" unicode="&#x3b8;" horiz-adv-x="927" 
d="M844 758q0 -389 -102 -582.5t-287 -193.5q-177 0 -274 178t-97 542q0 396 102 590.5t287 194.5q178 0 274.5 -180t96.5 -549zM670 817q-12 529 -207 529q-193 0 -203 -529h410zM670 680h-410q6 -555 205 -555q196 0 205 555z" />
    <glyph glyph-name="iota" unicode="&#x3b9;" horiz-adv-x="450" 
d="M414 -4q-42 -10 -92 -10q-108 0 -151.5 60t-43.5 210v762h172v-735q0 -107 22 -134.5t93 -19.5v-133z" />
    <glyph glyph-name="kappa" unicode="&#x3ba;" horiz-adv-x="798" 
d="M784 0h-198l-285 510h-2v-510h-172v1018h172v-473h2l268 473h195l-291 -477z" />
    <glyph glyph-name="lambda" unicode="&#x3bb;" horiz-adv-x="796" 
d="M322 1022l-37 147q-27 100 -62.5 137t-83.5 37q-15 0 -63 -6l-6 138q48 10 100 10q102 0 167.5 -54t104.5 -196l340 -1235h-188l-133 524q-39 168 -58 301h-4q-38 -204 -69 -319l-142 -506h-182z" />
    <glyph glyph-name="nu" unicode="&#x3bd;" horiz-adv-x="806" 
d="M780 1018q-70 -540 -295 -1018h-194l-281 1018h189l151 -576q41 -190 53 -295h5q26 112 32 132q121 357 154 739h186z" />
    <glyph glyph-name="xi" unicode="&#x3be;" horiz-adv-x="669" 
d="M668 -70q0 -168 -150 -362l-123 65q55 87 78 145.5t23 119.5q0 46 -22 70.5t-61.5 34.5t-83.5 17.5t-97.5 30t-94.5 62.5q-88 88 -88 268q0 139 63 238.5t160 134.5q-166 52 -166 260q0 103 44.5 192.5t125.5 126.5q-50 -4 -86 -4h-118v141h540v-141h-49
q-76 0 -133.5 -26.5t-89 -70.5t-46.5 -93t-15 -101q0 -92 47.5 -147t150.5 -55h101v-142h-80q-72 0 -126.5 -24.5t-85 -65.5t-45 -88t-14.5 -98q0 -134 58 -189q25 -25 70 -41t88 -23.5t91.5 -26.5t77.5 -48q56 -56 56 -160z" />
    <glyph glyph-name="omicron" unicode="&#x3bf;" horiz-adv-x="899" 
d="M836 520q0 -254 -104.5 -396t-297.5 -142q-189 0 -280 126t-91 390q0 253 104 395.5t296 142.5q189 0 281 -126.5t92 -389.5zM657 502q0 200 -50 296.5t-158 96.5q-99 0 -154 -95.5t-55 -283.5q0 -199 51 -296t158 -97q100 0 154 95t54 284z" />
    <glyph glyph-name="pi" unicode="&#x3c0;" horiz-adv-x="1042" 
d="M985 872h-188q0 -300 15.5 -466.5t40 -219.5t65.5 -53q32 0 61 10l20 -137q-58 -20 -116 -20q-52 0 -87 12.5t-66 48.5t-49.5 96.5t-31.5 161t-18.5 237.5t-5.5 330h-250q6 -464 -101 -895l-180 41q117 435 111 854h-182v146h962v-146z" />
    <glyph glyph-name="rho" unicode="&#x3c1;" horiz-adv-x="899" 
d="M836 528q0 -153 -45.5 -274t-140.5 -194.5t-226 -73.5q-99 0 -150 28q5 -123 5 -164v-315h-173v1014q0 221 96 354t275 133q168 0 263.5 -125t95.5 -383zM659 516q0 186 -52 282.5t-144 96.5q-90 0 -137 -91t-47 -249v-379q69 -49 155 -49q102 0 163.5 98t61.5 291z" />
    <glyph glyph-name="sigma1" unicode="&#x3c2;" horiz-adv-x="690" 
d="M670 -70q0 -168 -150 -362l-123 65q54 86 76.5 144.5t22.5 120.5q0 43 -20.5 66.5t-56 33.5t-75 17.5t-87.5 28.5t-83 56q-111 111 -111 379q0 267 101.5 410t296.5 143q109 0 192 -39l-41 -149q-72 43 -153 43q-108 0 -162.5 -97.5t-54.5 -283.5q0 -209 75 -287
q30 -29 86.5 -44.5t115.5 -33t93 -51.5q58 -58 58 -160z" />
    <glyph glyph-name="sigma" unicode="&#x3c3;" horiz-adv-x="946" 
d="M903 872q-70 0 -158 9q89 -127 89 -369q0 -249 -103.5 -389.5t-296.5 -140.5q-189 0 -280 126t-91 390q0 263 109 400.5t324 137.5q46 0 182.5 -9t224.5 -9v-146zM657 502q0 247 -94 387q-54 4 -84 4q-121 0 -180 -90.5t-59 -286.5q0 -199 51 -296t158 -97q100 0 154 95
t54 284z" />
    <glyph glyph-name="tau" unicode="&#x3c4;" horiz-adv-x="595" 
d="M563 872h-215v-548q0 -112 20 -152.5t74 -40.5q43 0 64 8l12 -141q-51 -14 -117 -14q-127 0 -176 71t-49 234v583h-172v146h559v-146z" />
    <glyph glyph-name="upsilon" unicode="&#x3c5;" horiz-adv-x="935" 
d="M825 588q0 -303 -100.5 -454.5t-269.5 -151.5q-183 0 -258.5 111t-75.5 343v582h172v-553q0 -181 38.5 -260.5t133.5 -79.5q60 0 100.5 42.5t63 142t22.5 257.5q0 223 -30 451h180q24 -175 24 -430z" />
    <glyph glyph-name="phi" unicode="&#x3c6;" horiz-adv-x="1132" 
d="M1073 516q0 -227 -107.5 -368t-314.5 -164v-449h-170v449q-214 12 -318 135.5t-104 384.5q0 227 107.5 368t314.5 164v346h170v-346q214 -12 318 -135.5t104 -384.5zM899 504q0 189 -61 281t-187 106v-762q115 10 181.5 100t66.5 275zM481 129v762q-248 -24 -248 -377
q0 -188 61 -280.5t187 -104.5z" />
    <glyph glyph-name="chi" unicode="&#x3c7;" horiz-adv-x="794" 
d="M799 -473q-34 -6 -78 -6q-35 0 -58.5 5t-50.5 21.5t-48 48.5t-45.5 86t-49.5 133t-55 191q-23 83 -35 170q-26 -107 -51 -180l-156 -479l-178 49l297 751q-42 142 -70.5 234t-52 158.5t-37.5 100.5t-29 53t-24.5 22.5t-26.5 3.5q-9 0 -33 -4l-6 139q60 6 72 6
q45 0 74 -7.5t59.5 -31t54.5 -70t50 -122t55 -189.5q25 -103 35 -170q15 62 51 181l129 397h190l-282 -719q48 -160 79.5 -262t58 -177t41 -112t30 -58t25 -24.5t26.5 -3.5q8 0 28 4z" />
    <glyph glyph-name="psi" unicode="&#x3c8;" horiz-adv-x="1277" 
d="M1163 586q0 -288 -108.5 -434t-329.5 -166v-451h-172v449q-107 5 -186 36t-125 76.5t-73.5 114.5t-36.5 137.5t-9 157.5v512h172v-471q0 -99 10 -167.5t37 -126t79.5 -88.5t131.5 -38v1255h172v-1255q143 12 205.5 114t62.5 324q0 215 -24 453h174q20 -190 20 -432z" />
    <glyph glyph-name="omega" unicode="&#x3c9;" horiz-adv-x="1286" 
d="M1219 520q0 -256 -97 -397t-252 -141q-93 0 -155 51.5t-76 138.5q-25 -92 -87.5 -141t-156.5 -49q-148 0 -236.5 130t-88.5 367q0 333 161 578l154 -64q-139 -212 -139 -485q0 -171 48 -272t130 -101q60 0 97.5 66.5t37.5 195.5v365h170v-359q0 -134 36 -201t101 -67
q74 0 124 96.5t50 270.5q0 279 -141 487l160 68q160 -237 160 -537z" />
    <glyph glyph-name="iotadieresis" unicode="&#x3ca;" horiz-adv-x="450" 
d="M414 -4q-42 -10 -92 -10q-108 0 -151.5 60t-43.5 210v762h172v-735q0 -107 22 -134.5t93 -19.5v-133zM461 1290q0 -44 -29.5 -73t-71.5 -29t-71 29t-29 73t29 73.5t71 29.5t71.5 -29.5t29.5 -73.5zM170 1290q0 -44 -29 -73t-71 -29t-71.5 29t-29.5 73t29.5 73.5
t71.5 29.5t71 -29.5t29 -73.5z" />
    <glyph glyph-name="upsilondieresis" unicode="&#x3cb;" horiz-adv-x="935" 
d="M825 588q0 -303 -100.5 -454.5t-269.5 -151.5q-183 0 -258.5 111t-75.5 343v582h172v-553q0 -181 38.5 -260.5t133.5 -79.5q60 0 100.5 42.5t63 142t22.5 257.5q0 223 -30 451h180q24 -175 24 -430zM301 1393q42 0 71 -30t29 -73t-29.5 -72.5t-72.5 -29.5t-71.5 29.5
t-28.5 72.5t29.5 73t72.5 30zM623 1393q41 0 70.5 -30t29.5 -73t-29.5 -72.5t-72.5 -29.5t-73 29.5t-30 72.5t31 73t74 30z" />
    <glyph glyph-name="omicrontonos" unicode="&#x3cc;" horiz-adv-x="899" 
d="M836 520q0 -254 -104.5 -396t-297.5 -142q-189 0 -280 126t-91 390q0 253 104 395.5t296 142.5q189 0 281 -126.5t92 -389.5zM657 502q0 200 -50 296.5t-158 96.5q-99 0 -154 -95.5t-55 -283.5q0 -199 51 -296t158 -97q100 0 154 95t54 284zM571 1503l-61 -346l-125 14
l35 347z" />
    <glyph glyph-name="upsilontonos" unicode="&#x3cd;" horiz-adv-x="935" 
d="M825 588q0 -303 -100.5 -454.5t-269.5 -151.5q-183 0 -258.5 111t-75.5 343v582h172v-553q0 -181 38.5 -260.5t133.5 -79.5q60 0 100.5 42.5t63 142t22.5 257.5q0 223 -30 451h180q24 -175 24 -430zM586 1503l-62 -346l-125 14l35 347z" />
    <glyph glyph-name="omegatonos" unicode="&#x3ce;" horiz-adv-x="1286" 
d="M1219 520q0 -256 -97 -397t-252 -141q-93 0 -155 51.5t-76 138.5q-25 -92 -87.5 -141t-156.5 -49q-148 0 -236.5 130t-88.5 367q0 333 161 578l154 -64q-139 -212 -139 -485q0 -171 48 -272t130 -101q60 0 97.5 66.5t37.5 195.5v365h170v-359q0 -134 36 -201t101 -67
q74 0 124 96.5t50 270.5q0 279 -141 487l160 68q160 -237 160 -537zM766 1503l-61 -346l-125 14l34 347z" />
    <glyph glyph-name="uni0400" unicode="&#x400;" horiz-adv-x="804" 
d="M709 0h-580v1382h578v-147h-404v-453h381v-143h-381v-489h406v-150zM545 1579l-41 -92l-332 106l55 125z" />
    <glyph glyph-name="uni0401" unicode="&#x401;" horiz-adv-x="804" 
d="M709 0h-580v1382h578v-147h-404v-453h381v-143h-381v-489h406v-150zM250 1696q41 0 70.5 -31.5t29.5 -71.5t-29.5 -71t-70.5 -31t-70.5 30.5t-29.5 71.5q0 42 29.5 72.5t70.5 30.5zM580 1696q41 0 70.5 -30.5t29.5 -72.5q0 -41 -29.5 -71.5t-70.5 -30.5t-71 30.5
t-30 71.5t30 72t71 31z" />
    <glyph glyph-name="uni0402" unicode="&#x402;" horiz-adv-x="1148" 
d="M1083 422q0 -258 -122 -381.5t-351 -134.5v145q149 8 221 87.5t72 262.5q0 324 -241 324q-104 0 -209 -55v-670h-174v1233h-250v149h729v-149h-305v-416q117 55 237 55q196 0 294.5 -120.5t98.5 -329.5z" />
    <glyph glyph-name="uni0403" unicode="&#x403;" horiz-adv-x="696" 
d="M129 1382h553v-151h-379v-1231h-174v1382zM293 1579l315 139l54 -125l-332 -106z" />
    <glyph glyph-name="uni0404" unicode="&#x404;" horiz-adv-x="882" 
d="M799 197l43 -146q-131 -69 -291 -69q-242 0 -359.5 176.5t-117.5 505.5q0 161 30 292.5t90 231t158.5 154.5t227.5 55q137 0 251 -51l-43 -152q-101 49 -206 49q-66 0 -118.5 -27t-87 -71t-59 -105.5t-36.5 -123.5t-17 -132h473v-145h-475q13 -500 320 -500q117 0 217 58
z" />
    <glyph glyph-name="uni0405" unicode="&#x405;" horiz-adv-x="823" 
d="M748 369q0 -164 -109.5 -275.5t-304.5 -111.5q-141 0 -260 45l39 168q113 -58 223 -58q112 0 169.5 59t57.5 156q0 63 -27 113.5t-70 86.5t-95 69.5t-104.5 71t-95.5 82t-70 112t-27 151.5q0 156 103 258.5t286 102.5q123 0 225 -31l-39 -156q-95 39 -186 39
q-100 0 -153.5 -55t-53.5 -147q0 -59 27 -107.5t70.5 -83.5t96 -68.5t105 -72t96 -83.5t70.5 -113t27 -152z" />
    <glyph glyph-name="uni0406" unicode="&#x406;" horiz-adv-x="434" 
d="M303 0h-174v1382h174v-1382z" />
    <glyph glyph-name="uni0407" unicode="&#x407;" horiz-adv-x="434" 
d="M66 1692q40 0 69 -30t29 -71q0 -40 -29 -70t-69 -30q-41 0 -70 30t-29 70q0 43 29 72t70 29zM365 1692q41 0 70.5 -30t29.5 -71t-29.5 -70.5t-70.5 -29.5q-40 0 -69.5 30t-29.5 70q0 42 29.5 71.5t69.5 29.5zM301 0h-174v1382h174v-1382z" />
    <glyph glyph-name="uni0408" unicode="&#x408;" horiz-adv-x="522" 
d="M393 1382v-1009q0 -193 -62 -287t-216 -94q-61 0 -113 8v145q41 -8 94 -8q68 0 95.5 44.5t27.5 172.5v1028h174z" />
    <glyph glyph-name="uni0409" unicode="&#x409;" horiz-adv-x="1488" 
d="M182 1382h695v-546q37 2 131 2q201 0 309 -105t108 -297q0 -211 -123 -326.5t-325 -115.5q-152 0 -275 6v1233h-346v-266q0 -241 -13 -408t-36.5 -275t-66 -171.5t-92.5 -91.5t-125 -39l-27 155q47 12 74 32t51.5 67t36 134t18 222t6.5 342v448zM1243 422
q0 135 -64.5 203.5t-185.5 68.5q-50 0 -116 -4v-547q35 -4 110 -4q256 0 256 283z" />
    <glyph glyph-name="uni040A" unicode="&#x40a;" horiz-adv-x="1550" 
d="M766 0v641h-463v-641h-174v1382h174v-589h463v589h174v-546q37 2 129 2q202 0 311 -105.5t109 -296.5q0 -211 -123.5 -326.5t-327.5 -115.5q-149 0 -272 6zM1305 422q0 135 -64 203.5t-186 68.5q-49 0 -115 -4v-547q33 -4 111 -4q254 0 254 283z" />
    <glyph glyph-name="uni040B" unicode="&#x40b;" horiz-adv-x="1148" 
d="M1071 0h-174v399q0 175 -49.5 257.5t-179.5 82.5q-110 0 -215 -55v-684h-174v1233h-250v149h729v-149h-305v-402q119 56 241 56q89 0 155.5 -23.5t108.5 -63t67.5 -99t35.5 -125t10 -148.5v-428z" />
    <glyph glyph-name="uni040C" unicode="&#x40c;" horiz-adv-x="931" 
d="M907 0h-202l-400 692h-2v-692h-174v1382h174v-651h2l389 651h197l-408 -657zM401 1579l316 139l53 -125l-332 -106z" />
    <glyph glyph-name="uni040D" unicode="&#x40d;" horiz-adv-x="1122" 
d="M993 0h-172v684q0 206 23 461h-4q-53 -163 -135 -334l-375 -811h-201v1382h172v-684q0 -216 -22 -460h4q52 159 135 333l375 811h200v-1382zM680 1579l-41 -92l-332 106l55 125z" />
    <glyph glyph-name="uni040E" unicode="&#x40e;" horiz-adv-x="890" 
d="M872 1382q-52 -191 -88 -321.5t-76 -268t-68 -224.5t-60.5 -177.5t-57 -143t-54 -104t-55.5 -77.5t-57.5 -47t-63.5 -28t-71 -7q-64 0 -123 16l29 154q51 -21 96 -21q51 0 89.5 44t82.5 153l-383 1052h191l182 -524q64 -189 92 -323h4q36 162 82 333q61 223 131 514h178z
M733 1731q0 -115 -72 -188t-210 -73q-136 0 -207.5 69t-71.5 192h156q0 -150 127 -150q61 0 92 39t31 111h155z" />
    <glyph glyph-name="uni040F" unicode="&#x40f;" horiz-adv-x="1077" 
d="M940 0h-330v-297h-151v297h-330v1382h174v-1232h463v1232h174v-1382z" />
    <glyph glyph-name="uni0410" unicode="&#x410;" horiz-adv-x="1013" 
d="M999 0h-188l-86 326h-449l-88 -326h-174l371 1382h242zM692 471l-129 483q-45 186 -61 283h-4q-18 -110 -60 -283l-129 -483h383z" />
    <glyph glyph-name="uni0411" unicode="&#x411;" horiz-adv-x="940" 
d="M860 424q0 -88 -27 -164.5t-79.5 -137t-139.5 -95.5t-198 -35q-137 0 -287 10v1380h659v-149h-485v-422h154q195 0 299 -101.5t104 -285.5zM676 410q0 120 -59 189t-183 69h-131v-518q61 -11 133 -11q116 0 178 73t62 198z" />
    <glyph glyph-name="uni0412" unicode="&#x412;" horiz-adv-x="937" 
d="M864 410q0 -82 -25 -154.5t-75.5 -132t-138.5 -94.5t-203 -35q-51 0 -293 8v1380q301 7 315 7q195 0 290 -92t95 -257q0 -103 -48 -185.5t-142 -123.5v-2q116 -29 170.5 -114t54.5 -205zM647 1022q0 223 -221 223q-29 0 -123 -4v-457q35 -2 105 -2q115 0 177 62t62 178z
M680 401q0 242 -281 242q-69 0 -96 -2v-494q77 -10 131 -10q121 0 183.5 72.5t62.5 191.5z" />
    <glyph glyph-name="uni0413" unicode="&#x413;" horiz-adv-x="696" 
d="M129 1382h553v-151h-379v-1231h-174v1382z" />
    <glyph glyph-name="uni0414" unicode="&#x414;" horiz-adv-x="1128" 
d="M1092 150v-447h-152v297h-780v-297h-152v447h98q60 107 83.5 272.5t23.5 511.5v448h741v-1232h138zM780 150v1083h-393v-266q0 -357 -25.5 -538.5t-78.5 -278.5h497z" />
    <glyph glyph-name="uni0415" unicode="&#x415;" horiz-adv-x="804" 
d="M709 0h-580v1382h578v-147h-404v-453h381v-143h-381v-489h406v-150z" />
    <glyph glyph-name="uni0416" unicode="&#x416;" horiz-adv-x="1359" 
d="M594 1382h172v-651h2l350 651h195l-369 -657l385 -725h-199l-362 692h-2v-692h-172v692h-2l-361 -692h-198l385 721l-369 661h193l350 -651h2v651z" />
    <glyph glyph-name="uni0417" unicode="&#x417;" horiz-adv-x="825" 
d="M752 406q0 -198 -124 -309t-323 -111q-151 0 -260 34l21 160q118 -43 243 -43q71 0 122.5 20.5t80 57t42 80.5t13.5 98q0 134 -81.5 190t-231.5 56h-80v143h107q117 0 186.5 63t69.5 177q0 101 -54.5 163t-173.5 62q-109 0 -215 -45l-16 152q124 43 264 43q183 0 279 -94
t96 -250q0 -111 -50.5 -194.5t-142.5 -123.5q108 -28 168 -113t60 -216z" />
    <glyph glyph-name="uni0418" unicode="&#x418;" horiz-adv-x="1122" 
d="M993 0h-172v684q0 206 23 461h-4q-53 -163 -135 -334l-375 -811h-201v1382h172v-684q0 -216 -22 -460h4q52 159 135 333l375 811h200v-1382z" />
    <glyph glyph-name="uni0419" unicode="&#x419;" horiz-adv-x="1122" 
d="M993 0h-172v684q0 206 23 461h-4q-53 -163 -135 -334l-375 -811h-201v1382h172v-684q0 -216 -22 -460h4q52 159 135 333l375 811h200v-1382zM838 1731q0 -115 -72 -188t-211 -73q-136 0 -207.5 69t-71.5 192h156q0 -150 127 -150q61 0 92 39t31 111h156z" />
    <glyph glyph-name="uni041A" unicode="&#x41a;" horiz-adv-x="931" 
d="M907 0h-202l-400 692h-2v-692h-174v1382h174v-651h2l389 651h197l-408 -657z" />
    <glyph glyph-name="uni041B" unicode="&#x41b;" horiz-adv-x="1030" 
d="M901 0h-174v1233h-371v-266q0 -241 -13 -408t-36.5 -275t-66 -171.5t-92.5 -91.5t-125 -39l-27 155q47 12 74 32t51.5 67t36 134t18 222t6.5 342v448h719v-1382z" />
    <glyph glyph-name="uni041C" unicode="&#x41c;" horiz-adv-x="1472" 
d="M831 0h-198l-225 950q-39 177 -54 281h-4q-3 -176 -22 -365l-76 -866h-170l137 1382h258l215 -905q25 -109 47 -268h2q29 181 47 268l213 905h252l138 -1382h-179l-79 866q-17 178 -21 365h-4q-34 -194 -55 -281z" />
    <glyph glyph-name="uni041D" unicode="&#x41d;" horiz-adv-x="1095" 
d="M967 0h-174v635h-490v-635h-174v1382h174v-596h490v596h174v-1382z" />
    <glyph glyph-name="uni041E" unicode="&#x41e;" horiz-adv-x="1153" 
d="M1079 705q0 -157 -31 -287t-93.5 -228.5t-163 -153t-232.5 -54.5q-103 0 -184 33t-137 93t-93 147.5t-54 192.5t-17 232q0 124 19.5 231.5t60.5 197.5t102 154.5t147 100t191 35.5q128 0 222.5 -50t151 -143.5t84 -218t27.5 -282.5zM897 692q0 275 -81.5 416t-237.5 141
q-157 0 -239.5 -145.5t-82.5 -409.5q0 -277 82.5 -419t239.5 -142q156 0 237.5 146t81.5 413z" />
    <glyph glyph-name="uni041F" unicode="&#x41f;" horiz-adv-x="1083" 
d="M952 0h-174v1233h-475v-1233h-174v1382h823v-1382z" />
    <glyph glyph-name="uni0420" unicode="&#x420;" horiz-adv-x="870" 
d="M821 981q0 -206 -117.5 -329.5t-316.5 -123.5q-57 0 -84 4v-532h-174v1382q143 7 287 7q202 0 303.5 -106.5t101.5 -301.5zM641 967q0 276 -238 276q-65 0 -100 -2v-559q36 -8 90 -8q121 0 184.5 77t63.5 216z" />
    <glyph glyph-name="uni0421" unicode="&#x421;" horiz-adv-x="882" 
d="M842 51q-131 -69 -291 -69q-242 0 -359.5 176.5t-117.5 505.5q0 161 30 292.5t90 231t158.5 154.5t227.5 55q137 0 251 -51l-43 -154q-101 49 -206 49q-84 0 -147 -42t-100 -119t-55 -175.5t-18 -220.5q0 -545 320 -545q113 0 217 58z" />
    <glyph glyph-name="uni0422" unicode="&#x422;" horiz-adv-x="835" 
d="M807 1233h-301v-1233h-174v1233h-303v149h778v-149z" />
    <glyph glyph-name="uni0423" unicode="&#x423;" horiz-adv-x="890" 
d="M872 1382q-52 -191 -88 -321.5t-76 -268t-68 -224.5t-60.5 -177.5t-57 -143t-54 -104t-55.5 -77.5t-57.5 -47t-63.5 -28t-71 -7q-64 0 -123 16l29 154q51 -21 96 -21q51 0 89.5 44t82.5 153l-383 1052h191l182 -524q64 -189 92 -323h4q36 162 82 333q61 223 131 514h178z
" />
    <glyph glyph-name="uni0424" unicode="&#x424;" horiz-adv-x="1366" 
d="M1300 698q0 -287 -136.5 -460t-393.5 -193v-151h-174v149q-530 20 -530 639q0 287 136.5 460t393.5 193v146h174v-144q530 -20 530 -639zM1120 684q0 476 -352 504v-998q170 14 261 137t91 357zM598 193v997q-170 -14 -261 -137t-91 -357q0 -475 352 -503z" />
    <glyph glyph-name="uni0425" unicode="&#x425;" horiz-adv-x="978" 
d="M952 0h-204l-154 330q-50 106 -111 264q-76 -192 -108 -266l-150 -328h-196l348 715l-326 667h201l135 -290q67 -149 107 -263h2q21 56 104 258l131 295h197l-326 -667z" />
    <glyph glyph-name="uni0426" unicode="&#x426;" horiz-adv-x="1114" 
d="M1077 150v-447h-149v297h-799v1382h174v-1232h465v1232h174v-1232h135z" />
    <glyph glyph-name="uni0427" unicode="&#x427;" horiz-adv-x="1017" 
d="M713 584q-115 -54 -250 -54q-91 0 -159.5 23t-111 61.5t-69.5 96t-37 118.5t-10 136v417h174v-387q0 -161 52 -240t187 -79q119 0 224 55v651h174v-1382h-174v584z" />
    <glyph glyph-name="uni0428" unicode="&#x428;" horiz-adv-x="1529" 
d="M1401 0h-1272v1382h174v-1232h377v1232h170v-1232h377v1232h174v-1382z" />
    <glyph glyph-name="uni0429" unicode="&#x429;" horiz-adv-x="1572" 
d="M1536 150v-447h-150v297h-1257v1382h174v-1232h377v1232h170v-1232h377v1232h174v-1232h135z" />
    <glyph glyph-name="uni042A" unicode="&#x42a;" horiz-adv-x="1062" 
d="M453 1382v-546q37 2 129 2q202 0 310.5 -105.5t108.5 -296.5q0 -211 -123 -326.5t-327 -115.5q-149 0 -272 6v1233h-250v149h424zM817 422q0 135 -64 203.5t-186 68.5q-52 0 -114 -4v-547q33 -4 110 -4q254 0 254 283z" />
    <glyph glyph-name="uni042B" unicode="&#x42b;" horiz-adv-x="1329" 
d="M1200 0h-174v1382h174v-1382zM850 436q0 -212 -123 -327t-326 -115q-149 0 -272 6v1382h174v-546q37 2 129 2q201 0 309.5 -105t108.5 -297zM666 422q0 272 -248 272q-49 0 -115 -4v-547q33 -4 111 -4q252 0 252 283z" />
    <glyph glyph-name="uni042C" unicode="&#x42c;" horiz-adv-x="915" 
d="M852 436q0 -211 -123.5 -326.5t-325.5 -115.5q-151 0 -274 6v1382h174v-546q37 2 131 2q201 0 309.5 -105t108.5 -297zM668 422q0 135 -64 203.5t-186 68.5q-49 0 -115 -4v-547q33 -4 111 -4q254 0 254 283z" />
    <glyph glyph-name="uni042D" unicode="&#x42d;" horiz-adv-x="882" 
d="M811 717q0 -128 -18 -237.5t-56.5 -202t-96.5 -157.5t-142 -101.5t-189 -36.5q-143 0 -268 61l39 156q111 -60 227 -60q67 0 119.5 27t87 72.5t58.5 111t35 136t14 153.5h-474v145h474q-13 215 -92 337t-234 122q-111 0 -205 -51l-37 145q126 60 275 60
q240 0 361.5 -176.5t121.5 -503.5z" />
    <glyph glyph-name="uni042E" unicode="&#x42e;" horiz-adv-x="1499" 
d="M1423 705q0 -158 -28.5 -287.5t-86 -228t-151 -153t-215.5 -54.5q-113 0 -197.5 47.5t-137 136t-79 206.5t-30.5 269h-191v-641h-174v1382h174v-598h195q9 130 40.5 238.5t87.5 194.5t144 134t201 48q118 0 205.5 -50t140 -143.5t77.5 -218t25 -282.5zM1241 692
q0 275 -72.5 416t-210.5 141t-210 -145.5t-72 -409.5q0 -277 72 -419t208 -142q141 0 213 145.5t72 413.5z" />
    <glyph glyph-name="uni042F" unicode="&#x42f;" 
d="M772 0h-174v623h-68l-307 -623h-198l270 528q21 44 65 123q-135 20 -206.5 108t-71.5 234q0 187 111.5 292.5t318.5 105.5q113 0 260 -15v-1376zM598 764v475q-49 6 -104 6q-116 0 -174 -64t-58 -177q0 -117 60.5 -178.5t171.5 -61.5h104z" />
    <glyph glyph-name="uni0430" unicode="&#x430;" horiz-adv-x="841" 
d="M721 0h-158q0 141 8 182l-2 2q-27 -89 -99 -144.5t-171 -55.5q-109 0 -174.5 69.5t-65.5 198.5q0 166 128 259t360 89v86q0 111 -39.5 163t-130.5 52q-108 0 -234 -76l-45 125q156 86 305 86q162 0 238 -81.5t76 -243.5v-414q0 -209 4 -297zM547 424v51
q-74 2 -130.5 -7.5t-91.5 -27.5t-57 -45t-30.5 -57t-8.5 -68q0 -72 29.5 -111.5t83.5 -39.5q88 0 146.5 92t58.5 213z" />
    <glyph glyph-name="uni0431" unicode="&#x431;" horiz-adv-x="911" 
d="M850 526q0 -264 -104.5 -404t-294.5 -140q-58 0 -106 13.5t-97.5 52t-83 101.5t-55 170.5t-21.5 249.5v62q0 242 42 432t130 278q56 56 135 84.5t144.5 32.5t133.5 13t101 30v-155q-34 -21 -93 -31t-111.5 -12t-110.5 -19.5t-94 -52.5q-95 -95 -123 -404h2q31 89 102 145
t172 56q71 0 130 -28.5t105 -87t71.5 -157t25.5 -229.5zM672 506q0 179 -48 278t-145 99q-102 0 -158.5 -100.5t-56.5 -247.5q0 -75 9 -141.5t30 -130.5t63 -102t101 -38q205 0 205 383z" />
    <glyph glyph-name="uni0432" unicode="&#x432;" horiz-adv-x="872" 
d="M801 307q0 -138 -101 -230.5t-288 -92.5q-159 0 -285 26v1004q140 20 297 20q95 0 164 -21t106.5 -58.5t54.5 -82t17 -98.5q0 -163 -137 -225v-2q82 -20 127 -82.5t45 -157.5zM592 750q0 155 -184 155q-53 0 -111 -8v-303h119q87 0 131.5 40t44.5 116zM621 293
q0 174 -205 174h-119v-334q65 -20 129 -20q98 0 146.5 50t48.5 130z" />
    <glyph glyph-name="uni0433" unicode="&#x433;" horiz-adv-x="587" 
d="M561 874h-262v-874h-172v1018h434v-144z" />
    <glyph glyph-name="uni0434" unicode="&#x434;" horiz-adv-x="997" 
d="M971 145v-424h-146v279h-678v-279h-147v424h109q50 75 70 203.5t20 337.5v332h637v-873h135zM664 145v729h-297v-157q0 -430 -86 -572h383z" />
    <glyph glyph-name="uni0435" unicode="&#x435;" horiz-adv-x="839" 
d="M770 608q0 -67 -4 -108h-526v-17q0 -190 60.5 -276t180.5 -86q121 0 230 61l43 -127q-139 -71 -299 -71q-197 0 -294.5 124.5t-97.5 393.5q0 154 39 271.5t126 190t214 72.5q85 0 148.5 -32t102.5 -90t58 -135t19 -171zM596 625q0 278 -164 278q-83 0 -130 -73t-56 -205
h350z" />
    <glyph glyph-name="uni0436" unicode="&#x436;" horiz-adv-x="1148" 
d="M487 545v473h172v-473h3l253 473h195l-279 -477l299 -541h-198l-270 510h-3v-510h-172v510h-2l-270 -510h-197l299 537l-280 481h199l249 -473h2z" />
    <glyph glyph-name="uni0437" unicode="&#x437;" horiz-adv-x="722" 
d="M649 305q0 -140 -95.5 -230.5t-274.5 -90.5q-126 0 -232 28l25 148q100 -41 217 -41q90 0 136 46.5t46 125.5q0 176 -211 176h-135v125h137q180 0 180 156q0 69 -39 111t-127 42q-92 0 -190 -39l-20 129q124 43 243 43q83 0 144.5 -21t95.5 -58.5t49.5 -82.5t15.5 -98
q0 -163 -137 -225v-2q82 -20 127 -83.5t45 -158.5z" />
    <glyph glyph-name="uni0438" unicode="&#x438;" horiz-adv-x="950" 
d="M823 0h-168v342q0 147 23 467h-2q-43 -127 -96 -248l-263 -561h-190v1018h168v-342q0 -147 -23 -467h2q40 117 97 248l262 561h190v-1018z" />
    <glyph glyph-name="uni0439" unicode="&#x439;" horiz-adv-x="950" 
d="M823 0h-168v342q0 147 23 467h-2q-43 -127 -96 -248l-263 -561h-190v1018h168v-342q0 -147 -23 -467h2q40 117 97 248l262 561h190v-1018zM756 1395q0 -119 -72 -193t-211 -74q-136 0 -207 70t-71 197h153q0 -156 129 -156q61 0 92 40.5t31 115.5h156z" />
    <glyph glyph-name="uni043A" unicode="&#x43a;" horiz-adv-x="802" 
d="M784 0h-198l-285 510h-2v-510h-172v1018h172v-473h2l268 473h195l-291 -477z" />
    <glyph glyph-name="uni043B" unicode="&#x43b;" horiz-adv-x="892" 
d="M766 0h-172v874h-266v-172q0 -387 -69 -550t-236 -170l-17 143q59 7 91.5 56.5t48.5 169.5t16 337v330h604v-1018z" />
    <glyph glyph-name="uni043C" unicode="&#x43c;" horiz-adv-x="1271" 
d="M723 0h-182l-179 657q-26 102 -45 224h-4q-4 -148 -24 -322l-60 -559h-168l134 1018h233l162 -602q33 -136 47 -256h4q20 137 49 256l160 602h225l135 -1018h-176l-61 553q-22 188 -29 328h-2q-16 -107 -45 -224z" />
    <glyph glyph-name="uni043D" unicode="&#x43d;" horiz-adv-x="937" 
d="M811 0h-172v453h-340v-453h-172v1018h172v-418h340v418h172v-1018z" />
    <glyph glyph-name="uni043E" unicode="&#x43e;" horiz-adv-x="899" 
d="M836 520q0 -254 -104.5 -396t-297.5 -142q-189 0 -280 126t-91 390q0 253 104 395.5t296 142.5q189 0 281 -126.5t92 -389.5zM657 502q0 200 -50 296.5t-158 96.5q-99 0 -154 -95.5t-55 -283.5q0 -199 51 -296t158 -97q100 0 154 95t54 284z" />
    <glyph glyph-name="uni043F" unicode="&#x43f;" horiz-adv-x="937" 
d="M811 0h-172v872h-340v-872h-172v1018h684v-1018z" />
    <glyph glyph-name="uni0440" unicode="&#x440;" horiz-adv-x="915" 
d="M852 553q0 -275 -112.5 -419t-319.5 -144q-71 0 -121 14v-469h-172v1483h164q0 -70 -23 -215h4q32 110 106 171.5t175 61.5q146 0 222.5 -121.5t76.5 -361.5zM672 539q0 350 -160 350q-95 0 -154 -115t-59 -299v-319q54 -25 131 -25q120 0 181 96t61 312z" />
    <glyph glyph-name="uni0441" unicode="&#x441;" horiz-adv-x="700" 
d="M659 47q-112 -61 -233 -61q-80 0 -143.5 25.5t-114 81t-78 153.5t-27.5 233q0 268 101.5 410.5t298.5 142.5q105 0 190 -37l-41 -151q-72 43 -153 43q-108 0 -162.5 -97.5t-54.5 -283.5q0 -373 213 -373q86 0 168 49z" />
    <glyph glyph-name="uni0442" unicode="&#x442;" horiz-adv-x="655" 
d="M635 874h-221v-874h-172v874h-224v144h617v-144z" />
    <glyph glyph-name="uni0443" unicode="&#x443;" horiz-adv-x="806" 
d="M797 1018l-271 -1008q-75 -288 -193.5 -397.5t-314.5 -87.5l17 143q67 -6 108 1t77 39t62.5 90.5t57.5 160.5l12 41h-53l-289 1018h189l159 -588q53 -258 58 -293h4q16 103 57 293l141 588h179z" />
    <glyph glyph-name="uni0444" unicode="&#x444;" horiz-adv-x="1132" 
d="M1073 516q0 -227 -107.5 -368t-314.5 -164v-449h-170v449q-214 12 -318 135.5t-104 384.5q0 227 107.5 368t314.5 164v346h170v-346q214 -12 318 -135.5t104 -384.5zM899 504q0 189 -61 281t-187 106v-762q115 10 181.5 100t66.5 275zM481 129v762q-248 -24 -248 -377
q0 -188 61 -280.5t187 -104.5z" />
    <glyph glyph-name="uni0445" unicode="&#x445;" horiz-adv-x="792" 
d="M768 0h-199l-98 217q-48 104 -80 203h-2q-17 -53 -78 -201l-98 -219h-188l254 522l-240 496h197l90 -193q28 -63 77 -198q44 115 80 198l86 193h185l-240 -496z" />
    <glyph glyph-name="uni0446" unicode="&#x446;" horiz-adv-x="970" 
d="M944 145v-424h-147v279h-670v1018h172v-873h338v873h172v-873h135z" />
    <glyph glyph-name="uni0447" unicode="&#x447;" horiz-adv-x="864" 
d="M737 0h-172v424q-92 -64 -213 -64q-142 0 -213 85.5t-71 242.5v330h170v-293q0 -47 5.5 -82.5t20.5 -69.5t45.5 -52.5t75.5 -18.5q95 0 180 63v453h172v-1018z" />
    <glyph glyph-name="uni0448" unicode="&#x448;" horiz-adv-x="1351" 
d="M1225 0h-1098v1018h172v-873h293v873h168v-873h293v873h172v-1018z" />
    <glyph glyph-name="uni0449" unicode="&#x449;" horiz-adv-x="1386" 
d="M1360 145v-424h-146v279h-1087v1018h172v-873h293v873h168v-873h293v873h172v-873h135z" />
    <glyph glyph-name="uni044A" unicode="&#x44a;" horiz-adv-x="927" 
d="M874 338q0 -73 -22.5 -135.5t-67.5 -112.5t-120.5 -78t-174.5 -28q-152 0 -266 26v864h-221v144h393v-369q57 8 129 8q168 0 259 -86t91 -233zM696 324q0 88 -50 141t-150 53q-56 0 -101 -10v-367q62 -20 115 -20q96 0 141 54.5t45 148.5z" />
    <glyph glyph-name="uni044B" unicode="&#x44b;" horiz-adv-x="1200" 
d="M770 338q0 -73 -22.5 -135.5t-67 -112t-119.5 -78t-172 -28.5q-136 0 -262 26v1008h172v-369q55 8 125 8q166 0 256 -86t90 -233zM592 322q0 89 -49 142.5t-148 53.5q-51 0 -96 -10v-367q58 -20 113 -20q91 0 135.5 54t44.5 147zM1073 0h-172v1018h172v-1018z" />
    <glyph glyph-name="uni044C" unicode="&#x44c;" horiz-adv-x="833" 
d="M780 338q0 -73 -23 -135.5t-68 -112t-121 -78t-175 -28.5q-140 0 -266 26v1008h172v-369q55 8 129 8q169 0 260.5 -86t91.5 -233zM602 322q0 89 -51.5 142.5t-151.5 53.5q-55 0 -100 -10v-367q58 -20 117 -20q94 0 140 54.5t46 146.5z" />
    <glyph glyph-name="uni044D" unicode="&#x44d;" horiz-adv-x="714" 
d="M651 518q0 -256 -100.5 -396t-292.5 -140q-127 0 -221 51l35 141q84 -49 194 -49q101 0 153 83t56 255h-352v127h350q-8 143 -61.5 224t-155.5 81q-91 0 -174 -47l-37 133q42 24 107 39.5t127 15.5q184 0 278 -130.5t94 -387.5z" />
    <glyph glyph-name="uni044E" unicode="&#x44e;" horiz-adv-x="1271" 
d="M1208 520q0 -253 -100.5 -395.5t-282.5 -142.5q-164 0 -257.5 118t-100.5 357h-168v-457h-172v1018h172v-422h170q18 200 113.5 320t263.5 120q178 0 270 -131t92 -385zM1032 502q0 393 -201 393q-90 0 -141 -95t-51 -280q0 -397 203 -397q89 0 139.5 96t50.5 283z" />
    <glyph glyph-name="uni044F" unicode="&#x44f;" horiz-adv-x="829" 
d="M702 0h-170v432h-65l-260 -432h-195l226 367q22 38 59 92q-113 20 -173.5 89t-60.5 173q0 149 101.5 231t275.5 82q142 0 262 -20v-1014zM532 561v330q-58 10 -102 10q-92 0 -140 -45.5t-48 -126.5q0 -78 49.5 -123t144.5 -45h96z" />
    <glyph glyph-name="uni0450" unicode="&#x450;" horiz-adv-x="839" 
d="M770 608q0 -67 -4 -108h-526v-17q0 -190 60.5 -276t180.5 -86q121 0 230 61l43 -127q-139 -71 -299 -71q-197 0 -294.5 124.5t-97.5 393.5q0 154 39 271.5t126 190t214 72.5q85 0 148.5 -32t102.5 -90t58 -135t19 -171zM596 625q0 278 -164 278q-83 0 -130 -73t-56 -205
h350zM557 1245l-76 -82l-264 221l102 109z" />
    <glyph glyph-name="uni0451" unicode="&#x451;" horiz-adv-x="839" 
d="M770 608q0 -67 -4 -108h-526v-17q0 -190 60.5 -276t180.5 -86q121 0 230 61l43 -127q-139 -71 -299 -71q-197 0 -294.5 124.5t-97.5 393.5q0 154 39 271.5t126 190t214 72.5q85 0 148.5 -32t102.5 -90t58 -135t19 -171zM596 625q0 278 -164 278q-83 0 -130 -73t-56 -205
h350zM266 1393q43 0 72 -30t29 -73t-30 -72.5t-73 -29.5t-71.5 29.5t-28.5 72.5t29.5 73t72.5 30zM588 1393q41 0 70.5 -30t29.5 -73t-29.5 -72.5t-72.5 -29.5t-73 29.5t-30 72.5t31 73t74 30z" />
    <glyph glyph-name="uni0452" unicode="&#x452;" horiz-adv-x="935" 
d="M823 438v-45q0 -161 -5 -270.5t-21.5 -194.5t-37 -136t-61 -91t-84 -62.5t-114.5 -48.5l-47 136q48 18 73.5 31.5t52 42.5t37.5 64.5t20.5 104.5t12 155.5t2.5 223.5v49q0 197 -14.5 304t-44.5 147.5t-84 40.5q-85 0 -146 -111t-61 -276v-502h-172v1178h-127v137h127v155
h172v-155h213v-137h-213v-156q0 -81 -22 -209h4q33 100 103.5 161.5t160.5 61.5q155 0 215.5 -132.5t60.5 -465.5z" />
    <glyph glyph-name="uni0453" unicode="&#x453;" horiz-adv-x="587" 
d="M561 874h-262v-874h-172v1018h434v-144zM229 1243l238 250l102 -107l-264 -223z" />
    <glyph glyph-name="uni0454" unicode="&#x454;" horiz-adv-x="714" 
d="M678 43q-112 -61 -248 -61q-367 0 -367 512q0 257 103 399.5t295 142.5q110 0 209 -45l-37 -143q-85 47 -180 47q-190 0 -213 -305h352v-127h-352q9 -338 217 -338q95 0 186 49z" />
    <glyph glyph-name="uni0455" unicode="&#x455;" horiz-adv-x="690" 
d="M621 287q0 -131 -94.5 -218t-254.5 -87q-104 0 -196 30l33 150q86 -39 165 -39q83 0 124.5 40.5t41.5 108.5q0 43 -20 77t-52.5 58t-71.5 46.5t-78 48.5t-71.5 58t-52.5 81.5t-20 112.5q0 126 84.5 204t238.5 78q79 0 172 -22l-26 -144q-74 29 -142 29
q-76 0 -112.5 -35.5t-36.5 -97.5q0 -40 20.5 -72.5t53 -55.5t71.5 -45t78.5 -49t72 -59.5t53 -83t20.5 -114.5z" />
    <glyph glyph-name="uni0456" unicode="&#x456;" horiz-adv-x="425" 
d="M299 0h-172v1018h172v-1018zM213 1401q46 0 78.5 -32.5t32.5 -78.5t-33 -79t-80 -33q-45 0 -77 33t-32 79t32.5 78.5t78.5 32.5z" />
    <glyph glyph-name="uni0457" unicode="&#x457;" horiz-adv-x="425" 
d="M299 0h-172v1018h172v-1018zM457 1290q0 -44 -29.5 -73t-71.5 -29t-71 29t-29 73t29 73.5t71 29.5t71.5 -29.5t29.5 -73.5zM166 1290q0 -44 -29 -73t-71 -29t-71.5 29t-29.5 73t29.5 73.5t71.5 29.5t71 -29.5t29 -73.5z" />
    <glyph glyph-name="uni0458" unicode="&#x458;" horiz-adv-x="423" 
d="M299 1018v-1114q0 -198 -72.5 -291.5t-224.5 -93.5q-55 0 -113 20l27 146q42 -21 94 -21q66 0 91.5 50t25.5 177v1127h172zM213 1401q46 0 78.5 -32.5t32.5 -78.5t-33 -79t-80 -33q-45 0 -77 33t-32 79t32.5 78.5t78.5 32.5z" />
    <glyph glyph-name="uni0459" unicode="&#x459;" horiz-adv-x="1271" 
d="M1245 348q0 -162 -93.5 -264t-250.5 -102q-315 0 -315 333v559h-258v-172q0 -387 -69 -550t-236 -170l-17 143q59 7 91.5 56.5t48.5 169.5t16 337v330h596v-356q85 10 145 10q165 0 253.5 -85.5t88.5 -238.5zM1067 330q0 202 -188 202q-71 0 -121 -12v-194
q0 -205 149 -205q76 0 118 54.5t42 154.5z" />
    <glyph glyph-name="uni045A" unicode="&#x45a;" horiz-adv-x="1314" 
d="M1288 348q0 -162 -94 -264t-252 -102q-149 0 -232 80t-83 253v138h-328v-453h-172v1018h172v-418h328v418h172v-356q88 10 145 10q167 0 255.5 -85.5t88.5 -238.5zM1110 330q0 202 -188 202q-70 0 -123 -12v-194q0 -205 149 -205q78 0 120 54.5t42 154.5z" />
    <glyph glyph-name="uni045B" unicode="&#x45b;" horiz-adv-x="935" 
d="M813 0h-170v670q0 113 -28.5 166t-98.5 53q-90 0 -152.5 -110.5t-62.5 -276.5v-502h-172v1178h-127v137h127v155h172v-155h213v-137h-213v-156q0 -81 -22 -209h4q34 101 106.5 162t173.5 61q250 0 250 -321v-715z" />
    <glyph glyph-name="uni045C" unicode="&#x45c;" horiz-adv-x="802" 
d="M784 0h-198l-285 510h-2v-510h-172v1018h172v-473h2l268 473h195l-291 -477zM342 1243l238 250l102 -107l-264 -223z" />
    <glyph glyph-name="uni045D" unicode="&#x45d;" horiz-adv-x="950" 
d="M823 0h-168v342q0 147 23 467h-2q-43 -127 -96 -248l-263 -561h-190v1018h168v-342q0 -147 -23 -467h2q40 117 97 248l262 561h190v-1018zM582 1245l-76 -82l-264 221l102 109z" />
    <glyph glyph-name="uni045E" unicode="&#x45e;" horiz-adv-x="806" 
d="M797 1018l-271 -1008q-75 -288 -193.5 -397.5t-314.5 -87.5l17 143q67 -6 108 1t77 39t62.5 90.5t57.5 160.5l12 41h-53l-289 1018h189l159 -588q53 -258 58 -293h4q16 103 57 293l141 588h179zM684 1395q0 -119 -72 -193t-211 -74q-136 0 -207 70t-71 197h153
q0 -156 130 -156q61 0 91.5 40.5t30.5 115.5h156z" />
    <glyph glyph-name="uni045F" unicode="&#x45f;" horiz-adv-x="935" 
d="M809 0h-268v-279h-146v279h-268v1018h172v-873h338v873h172v-1018z" />
    <glyph glyph-name="uni0472" unicode="&#x472;" horiz-adv-x="1153" 
d="M1079 705q0 -157 -31 -287t-93.5 -228.5t-163 -153t-232.5 -54.5q-103 0 -184 33t-137 93t-93 147.5t-54 192.5t-17 232q0 124 19.5 231.5t60.5 197.5t102 154.5t147 100t191 35.5q128 0 222.5 -50t151 -143.5t84 -218t27.5 -282.5zM895 782q-9 218 -88 342.5t-229 124.5
q-102 0 -174 -63.5t-106.5 -166t-39.5 -237.5h637zM897 641h-641q6 -245 87.5 -377.5t234.5 -132.5t233 136.5t86 373.5z" />
    <glyph glyph-name="uni0473" unicode="&#x473;" horiz-adv-x="899" 
d="M836 524q0 -258 -103 -400t-297 -142q-373 0 -373 512q0 258 103 400t297 142q373 0 373 -512zM659 582q-13 317 -210 317q-193 0 -211 -317h421zM238 459q3 -163 56 -251.5t155 -88.5q204 0 210 340h-421z" />
    <glyph glyph-name="uni0490" unicode="&#x490;" horiz-adv-x="696" 
d="M682 1231h-379v-1231h-174v1382h403v236h150v-387z" />
    <glyph glyph-name="uni0491" unicode="&#x491;" horiz-adv-x="589" 
d="M561 874h-262v-874h-172v1018h287v235h147v-379z" />
    <glyph glyph-name="uni0492" unicode="&#x492;" horiz-adv-x="716" 
d="M150 776v606h552v-147h-378v-459h262v-143h-262v-633h-174v633h-136v143h136z" />
    <glyph glyph-name="uni0493" unicode="&#x493;" horiz-adv-x="608" 
d="M147 575v443h435v-144h-263v-299h179v-139h-179v-436h-172v436h-116v139h116z" />
    <glyph glyph-name="uni0496" unicode="&#x496;" horiz-adv-x="1382" 
d="M594 1382h172v-651h2l350 651h195l-369 -657l320 -575h118v-447h-151v297h-101l-362 692h-2v-692h-172v692h-2l-361 -692h-198l385 721l-369 661h193l350 -651h2v651z" />
    <glyph glyph-name="uni0497" unicode="&#x497;" horiz-adv-x="1165" 
d="M1165 145v-424h-145v279h-88l-270 510h-3v-510h-172v510h-2l-270 -510h-197l299 537l-280 481h199l249 -473h2v473h172v-473h3l253 473h195l-279 -477l230 -396h104z" />
    <glyph glyph-name="uni0498" unicode="&#x498;" horiz-adv-x="825" 
d="M752 406q0 -89 -26 -161.5t-71.5 -120.5t-101 -78t-121.5 -44v-299h-151v283q-143 3 -236 34l21 160q118 -43 243 -43q71 0 122.5 20.5t80 57t42 80.5t13.5 98q0 134 -81.5 190t-231.5 56h-80v143h107q117 0 186.5 63t69.5 177q0 101 -54.5 163t-173.5 62
q-109 0 -215 -45l-16 152q124 43 264 43q183 0 279 -94t96 -250q0 -111 -50.5 -194.5t-142.5 -123.5q108 -28 168 -113t60 -216z" />
    <glyph glyph-name="uni0499" unicode="&#x499;" horiz-adv-x="722" 
d="M649 305q0 -114 -64 -198t-188 -111v-275h-145v263q-110 0 -205 28l25 148q100 -41 217 -41q90 0 136 46.5t46 125.5q0 176 -211 176h-135v125h137q180 0 180 156q0 69 -39 111t-127 42q-92 0 -190 -39l-20 129q124 43 243 43q83 0 144.5 -21t95.5 -58.5t49.5 -82.5
t15.5 -98q0 -163 -137 -225v-2q82 -20 127 -83.5t45 -158.5z" />
    <glyph glyph-name="uni049A" unicode="&#x49a;" horiz-adv-x="954" 
d="M954 150v-447h-151v297h-98l-400 692h-2v-692h-174v1382h174v-651h2l389 651h197l-408 -657l353 -575h118z" />
    <glyph glyph-name="uni049B" unicode="&#x49b;" horiz-adv-x="825" 
d="M299 1018v-473h2l268 473h195l-291 -477l240 -396h112v-424h-147v279h-92l-285 510h-2v-510h-172v1018h172z" />
    <glyph glyph-name="uni049C" unicode="&#x49c;" horiz-adv-x="1105" 
d="M1075 0h-198l-336 639h-43v-322h-109v322h-86v-639h-174v1382h174v-598h86v312h109v-312h41l325 598h195l-369 -651z" />
    <glyph glyph-name="uni049D" unicode="&#x49d;" horiz-adv-x="1005" 
d="M965 1018l-269 -486l289 -532h-199l-237 453h-55v-246h-109v246h-86v-453h-172v1018h172v-432h86v243h109v-243h55l221 432h195z" />
    <glyph glyph-name="uni04A0" unicode="&#x4a0;" horiz-adv-x="1085" 
d="M453 1382v-651h2l387 651h196l-407 -657l424 -725h-201l-399 692h-2v-692h-174v1233h-250v149h424z" />
    <glyph glyph-name="uni04A1" unicode="&#x4a1;" horiz-adv-x="899" 
d="M862 1018l-293 -477l312 -541h-197l-287 510h-2v-510h-172v874h-221v144h393v-473h2l271 473h194z" />
    <glyph glyph-name="uni04A2" unicode="&#x4a2;" horiz-adv-x="1140" 
d="M967 150h135v-447h-150v297h-159v635h-490v-635h-174v1382h174v-596h490v596h174v-1232z" />
    <glyph glyph-name="uni04A3" unicode="&#x4a3;" horiz-adv-x="972" 
d="M948 129v-408h-147v265q-83 9 -122.5 69.5t-39.5 186.5v211h-340v-453h-172v1018h172v-418h340v418h172v-739q0 -90 21 -120t75 -30h41z" />
    <glyph glyph-name="uni04AA" unicode="&#x4aa;" horiz-adv-x="882" 
d="M799 197l43 -146q-103 -55 -232 -65v-283h-151v289q-184 29 -284.5 194.5t-100.5 477.5q0 161 30 292.5t90 231t158.5 154.5t227.5 55q137 0 251 -51l-43 -154q-101 49 -206 49q-84 0 -147 -42t-100 -119t-55 -175.5t-18 -220.5q0 -545 320 -545q113 0 217 58z" />
    <glyph glyph-name="uni04AB" unicode="&#x4ab;" horiz-adv-x="700" 
d="M623 182l36 -135q-76 -48 -176 -57v-269h-147v277q-273 58 -273 481q0 266 102 409.5t298 143.5q105 0 190 -37l-41 -151q-72 43 -155 43q-106 0 -160.5 -97.5t-54.5 -283.5q0 -373 213 -373q86 0 168 49z" />
    <glyph glyph-name="uni04AE" unicode="&#x4ae;" horiz-adv-x="884" 
d="M874 1382l-344 -890v-492h-174v492l-348 890h193l174 -479q36 -100 74 -225h2q22 82 75 235l164 469h184z" />
    <glyph glyph-name="uni04AF" unicode="&#x4af;" horiz-adv-x="802" 
d="M793 1018l-310 -1018v-465h-172v465l-301 1018h187l157 -561q38 -148 52 -248h2q12 85 51 246l155 563h179z" />
    <glyph glyph-name="uni04B0" unicode="&#x4b0;" horiz-adv-x="884" 
d="M870 1382l-340 -876v-60h265v-145h-265v-301h-174v301h-264v145h264v60l-344 876h193l170 -464q31 -83 74 -226h2q23 86 75 236l160 454h184z" />
    <glyph glyph-name="uni04B1" unicode="&#x4b1;" horiz-adv-x="819" 
d="M522 137h223v-137h-251v-465h-172v465h-248v137h219l-273 881h187l151 -516q38 -134 56 -266h4q15 125 53 262l150 520h178z" />
    <glyph glyph-name="uni04B2" unicode="&#x4b2;" horiz-adv-x="999" 
d="M999 150v-447h-149v297h-102l-154 330q-50 106 -111 264q-76 -192 -108 -266l-150 -328h-196l348 715l-326 667h201l135 -290q67 -149 107 -263h2q21 56 104 258l131 295h197l-326 -667l283 -565h114z" />
    <glyph glyph-name="uni04B3" unicode="&#x4b3;" horiz-adv-x="823" 
d="M676 0h-107l-98 219q-46 99 -80 201h-2q-17 -53 -78 -201l-98 -219h-188l254 522l-240 496h197l90 -193q28 -63 77 -198q44 115 80 198l86 193h185l-240 -496l193 -379h116v-422h-147v279z" />
    <glyph glyph-name="uni04B8" unicode="&#x4b8;" horiz-adv-x="1028" 
d="M723 580q-78 -38 -182 -45v-259h-109v254q-102 8 -173.5 43.5t-110.5 95t-55.5 131t-16.5 165.5v417h174v-387q0 -138 40 -213.5t142 -93.5v275h109v-283q97 6 182 49v653h174v-1382h-174v580z" />
    <glyph glyph-name="uni04B9" unicode="&#x4b9;" horiz-adv-x="903" 
d="M475 500q70 14 129 57v461h172v-1018h-172v420q-57 -38 -129 -53v-193h-108v186q-154 4 -226.5 94t-72.5 246v318h170v-289q0 -44 5 -79t18 -69t40 -55.5t66 -27.5v227h108v-225z" />
    <glyph glyph-name="uni04BA" unicode="&#x4ba;" horiz-adv-x="1017" 
d="M940 0h-174v403q0 175 -51 258.5t-187 83.5q-123 0 -225 -57v-688h-174v1382h174v-544q124 53 250 53q92 0 160.5 -23.5t111 -63t69 -99.5t36.5 -125t10 -148v-432z" />
    <glyph glyph-name="uni04BB" unicode="&#x4bb;" horiz-adv-x="933" 
d="M811 0h-172v670q0 113 -28.5 166t-96.5 53q-90 0 -152.5 -110.5t-62.5 -276.5v-502h-172v1470h172v-428q0 -104 -25 -229h5q33 100 106.5 161.5t173.5 61.5q252 0 252 -321v-715z" />
    <glyph glyph-name="uni04D8" unicode="&#x4d8;" horiz-adv-x="1028" 
d="M82 608q0 86 10 168h678q-9 223 -88.5 348t-232.5 125q-127 0 -285 -84l-47 140q186 94 352 94q128 0 222.5 -50t151 -143.5t84 -218t27.5 -282.5q0 -215 -50 -376t-154.5 -254t-253.5 -93q-414 0 -414 626zM262 631v-19q0 -244 64 -362.5t184 -118.5q85 0 144 65.5
t86.5 175t29.5 259.5h-508z" />
    <glyph glyph-name="uni04D9" unicode="&#x4d9;" horiz-adv-x="839" 
d="M72 432q0 86 6 150h520q-7 162 -67 239.5t-173 77.5q-124 0 -235 -57l-33 129q136 63 295 63q197 0 294 -125.5t97 -396.5q0 -156 -38 -272.5t-123.5 -187t-211.5 -70.5q-88 0 -152.5 32.5t-103 94t-57 141.5t-18.5 182zM244 459v-41q0 -154 41 -227.5t131 -73.5
q174 0 182 342h-354z" />
    <glyph glyph-name="uni04E8" unicode="&#x4e8;" horiz-adv-x="1153" 
d="M1079 705q0 -157 -31 -287t-93.5 -228.5t-163 -153t-232.5 -54.5q-103 0 -184 33t-137 93t-93 147.5t-54 192.5t-17 232q0 124 19.5 231.5t60.5 197.5t102 154.5t147 100t191 35.5q128 0 222.5 -50t151 -143.5t84 -218t27.5 -282.5zM895 782q-9 218 -88 342.5t-229 124.5
q-102 0 -174 -63.5t-106.5 -166t-39.5 -237.5h637zM897 641h-641q6 -245 87.5 -377.5t234.5 -132.5t233 136.5t86 373.5z" />
    <glyph glyph-name="uni04E9" unicode="&#x4e9;" horiz-adv-x="899" 
d="M836 524q0 -258 -103 -400t-297 -142q-373 0 -373 512q0 258 103 400t297 142q373 0 373 -512zM659 582q-13 317 -210 317q-193 0 -211 -317h421zM238 459q3 -163 56 -251.5t155 -88.5q204 0 210 340h-421z" />
    <glyph glyph-name="Wgrave" unicode="&#x1e80;" horiz-adv-x="1587" 
d="M1540 1382l-268 -1382h-252l-186 942q-26 157 -41 289h-2q-9 -91 -41 -293l-183 -938h-243l-275 1382h182l179 -923q30 -171 43 -301h4q11 117 28 235l193 989h242l192 -962q25 -139 35 -262h4q12 110 43 317l170 907h176zM907 1579l-41 -92l-331 106l55 125z" />
    <glyph glyph-name="wgrave" unicode="&#x1e81;" horiz-adv-x="1300" 
d="M649 856h-4q-11 -112 -39 -248l-133 -608h-217l-227 1018h178l131 -627q32 -166 37 -244h2q18 123 43 242l137 629h199l139 -627q31 -143 43 -244h2q15 132 39 244l123 627h170l-225 -1018h-222l-137 608q-28 136 -39 248zM750 1245l-76 -82l-264 221l102 109z" />
    <glyph glyph-name="Wacute" unicode="&#x1e82;" horiz-adv-x="1587" 
d="M1540 1382l-268 -1382h-252l-186 942q-26 157 -41 289h-2q-9 -91 -41 -293l-183 -938h-243l-275 1382h182l179 -923q30 -171 43 -301h4q11 117 28 235l193 989h242l192 -962q25 -139 35 -262h4q12 110 43 317l170 907h176zM659 1579l316 139l53 -125l-332 -106z" />
    <glyph glyph-name="wacute" unicode="&#x1e83;" horiz-adv-x="1300" 
d="M649 856h-4q-11 -112 -39 -248l-133 -608h-217l-227 1018h178l131 -627q32 -166 37 -244h2q18 123 43 242l137 629h199l139 -627q31 -143 43 -244h2q15 132 39 244l123 627h170l-225 -1018h-222l-137 608q-28 136 -39 248zM551 1243l237 250l103 -107l-264 -223z" />
    <glyph glyph-name="Wdieresis" unicode="&#x1e84;" horiz-adv-x="1587" 
d="M1540 1382l-268 -1382h-252l-186 942q-26 157 -41 289h-2q-9 -91 -41 -293l-183 -938h-243l-275 1382h182l179 -923q30 -171 43 -301h4q11 117 28 235l193 989h242l192 -962q25 -139 35 -262h4q12 110 43 317l170 907h176zM631 1696q41 0 70.5 -31.5t29.5 -71.5
t-29.5 -71t-70.5 -31t-71 30.5t-30 71.5t30 72t71 31zM961 1696q41 0 70.5 -30.5t29.5 -72.5q0 -41 -29.5 -71.5t-70.5 -30.5t-71 30.5t-30 71.5t30 72t71 31z" />
    <glyph glyph-name="wdieresis" unicode="&#x1e85;" horiz-adv-x="1300" 
d="M649 856h-4q-11 -112 -39 -248l-133 -608h-217l-227 1018h178l131 -627q32 -166 37 -244h2q18 123 43 242l137 629h199l139 -627q31 -143 43 -244h2q15 132 39 244l123 627h170l-225 -1018h-222l-137 608q-28 136 -39 248zM494 1393q42 0 71 -30t29 -73t-29.5 -72.5
t-72.5 -29.5t-72 29.5t-29 72.5t30 73t73 30zM815 1393q41 0 70.5 -30t29.5 -73t-29.5 -72.5t-72.5 -29.5t-72.5 29.5t-29.5 72.5t30.5 73t73.5 30z" />
    <glyph glyph-name="Ygrave" unicode="&#x1ef2;" horiz-adv-x="884" 
d="M874 1382l-344 -890v-492h-174v492l-348 890h193l174 -479q36 -100 74 -225h2q22 82 75 235l164 469h184zM524 1579l-41 -92l-331 106l55 125z" />
    <glyph glyph-name="ygrave" unicode="&#x1ef3;" horiz-adv-x="806" 
d="M797 1018l-271 -1008q-75 -288 -193.5 -397.5t-314.5 -87.5l17 143q67 -6 108 1t77 39t62.5 90.5t57.5 160.5l12 41h-53l-289 1018h189l159 -588q53 -258 58 -293h4q16 103 57 293l141 588h179zM487 1245l-75 -82l-265 221l103 109z" />
    <glyph glyph-name="endash" unicode="&#x2013;" 
d="M901 553h-901v152h901v-152z" />
    <glyph glyph-name="emdash" unicode="&#x2014;" horiz-adv-x="1638" 
d="M1491 553h-1344v152h1344v-152z" />
    <glyph glyph-name="emdash" unicode="&#x2015;" horiz-adv-x="1638" 
d="M1491 553h-1344v152h1344v-152z" />
    <glyph glyph-name="quoteleft" unicode="&#x2018;" horiz-adv-x="393" 
d="M279 1522l75 -66q-54 -67 -78 -125t-21 -98t26 -70q42 -53 14.5 -112.5t-98.5 -59.5q-52 0 -84.5 42t-32.5 110q0 80 48.5 178.5t150.5 200.5z" />
    <glyph glyph-name="quoteright" unicode="&#x2019;" horiz-adv-x="393" 
d="M137 983l-76 66q152 190 72 292q-24 38 -22.5 76.5t31.5 68.5t75 30q53 0 86 -42.5t33 -111.5q0 -80 -48 -177.5t-151 -201.5z" />
    <glyph glyph-name="quotesinglbase" unicode="&#x201a;" horiz-adv-x="393" 
d="M113 -309l-76 65q153 191 72 293q-42 53 -14.5 113.5t98.5 60.5q53 0 85.5 -41t32.5 -110q0 -80 -48 -178.5t-150 -202.5z" />
    <glyph glyph-name="quotedblleft" unicode="&#x201c;" horiz-adv-x="696" 
d="M586 1520l71 -58q-49 -66 -71.5 -122.5t-19.5 -95t24 -66.5q38 -51 12.5 -107.5t-90.5 -56.5q-48 0 -78.5 39.5t-30.5 105.5q0 75 44.5 169t138.5 192zM264 1522l74 -58q-141 -185 -70 -286q36 -51 10.5 -107.5t-88.5 -56.5q-48 0 -79 39.5t-31 105.5q0 76 44.5 170.5
t139.5 192.5z" />
    <glyph glyph-name="quotedblright" unicode="&#x201d;" horiz-adv-x="696" 
d="M135 1010l-72 57q49 66 71.5 122.5t20 95.5t-23.5 67q-38 50 -12.5 107t90.5 57q47 0 77.5 -40t30.5 -106q0 -167 -182 -360zM457 1008l-74 57q144 188 70 287q-21 35 -20 71.5t28.5 64.5t68.5 28q48 0 79.5 -40t31.5 -106q0 -75 -45 -169.5t-139 -192.5z" />
    <glyph glyph-name="quotedblbase" unicode="&#x201e;" horiz-adv-x="696" 
d="M111 -289l-72 56q49 66 71.5 122.5t19.5 95t-24 66.5q-38 51 -12.5 107.5t90.5 56.5q48 0 78.5 -39.5t30.5 -105.5q0 -76 -44 -169t-138 -190zM428 -293l-72 57q143 187 68 287q-36 51 -10.5 107.5t90.5 56.5q47 0 77.5 -39t30.5 -104q0 -77 -44.5 -171.5t-139.5 -193.5z
" />
    <glyph glyph-name="dagger" unicode="&#x2020;" horiz-adv-x="772" 
d="M692 1116h-237l30 -223l-34 -537h-132l-34 537l30 223h-235v141h235l-30 287h200l-30 -287h237v-141z" />
    <glyph glyph-name="daggerdbl" unicode="&#x2021;" horiz-adv-x="772" 
d="M690 578h-233l28 -287h-200l30 287h-235v143h235l-30 203l30 200h-235v142h235l-30 278h200l-28 -278h235v-142h-235l28 -200l-28 -203h233v-143z" />
    <glyph glyph-name="bullet" unicode="&#x2022;" horiz-adv-x="706" 
d="M354 860q96 0 164 -67.5t68 -163.5t-68 -164t-164 -68q-97 0 -165 67.5t-68 164.5t68 164t165 67z" />
    <glyph glyph-name="perthousand" unicode="&#x2030;" horiz-adv-x="1923" 
d="M1116 1368l-817 -1417l-117 63l817 1418zM322 1282q-109 0 -109 -215t109 -215q108 0 108 215t-108 215zM332 1401q119 0 182.5 -82t63.5 -242q0 -161 -71.5 -252.5t-195.5 -91.5q-119 0 -182 82t-63 242q0 162 71 253t195 91zM977 530q-52 0 -80.5 -54.5t-28.5 -160.5
q0 -215 109 -215q108 0 108 215t-108 215zM987 649q120 0 184 -81.5t64 -241.5q0 -162 -72 -253t-196 -91q-120 0 -183 81.5t-63 241.5q0 161 71.5 252.5t194.5 91.5zM1602 530q-109 0 -109 -215t109 -215q108 0 108 215t-108 215zM1612 649q120 0 183 -81.5t63 -241.5
q0 -162 -71.5 -253t-195.5 -91q-120 0 -184 81.5t-64 241.5t72.5 252t196.5 92z" />
    <glyph glyph-name="guilsinglleft" unicode="&#x2039;" horiz-adv-x="587" 
d="M451 227l-134 -67l-221 413l219 414l131 -65l-180 -349z" />
    <glyph glyph-name="guilsinglright" unicode="&#x203a;" horiz-adv-x="587" 
d="M137 920l135 67l222 -414l-222 -413l-131 65l181 348z" />
    <glyph glyph-name="fraction" unicode="&#x2044;" horiz-adv-x="657" 
d="M834 1425l-875 -1529l-115 61l877 1532z" />
    <glyph glyph-name="Euro" unicode="&#x20ac;" horiz-adv-x="948" 
d="M20 604h130q-3 30 -3 62q0 24 5 116h-132v125h148q38 243 158.5 368.5t310.5 125.5q124 0 248 -62l-47 -145q-103 57 -203 57q-238 0 -289 -344h381v-125h-393q-4 -62 -4 -94q0 -57 2 -84h395v-125h-383q49 -346 283 -346q119 0 225 70l45 -137q-141 -84 -293 -84
q-384 0 -446 497h-138v125z" />
    <glyph glyph-name="uni2116" unicode="&#x2116;" horiz-adv-x="1699" 
d="M928 0h-221l-347 924q-35 100 -79 245q8 -203 8 -716v-453h-160v1382h252l334 -888q38 -101 61 -195q-8 197 -8 715v368h160v-1382zM1098 461v125h497v-125h-497zM1628 1059q0 -171 -74 -266t-217 -95q-272 0 -272 340q0 171 74 266t217 95q272 0 272 -340zM1475 1047
q0 231 -129 231q-127 0 -127 -225q0 -119 31.5 -175.5t97.5 -56.5q127 0 127 226z" />
    <glyph glyph-name="trademark" unicode="&#x2122;" horiz-adv-x="1171" 
d="M430 1268h-113v-461h-131v461h-114v114h358v-114zM1100 807h-129l-31 326l-10 133l-19 -117l-71 -342h-144l-69 344l-17 115l-6 -101l-37 -358h-112l67 575h174l70 -323l12 -105l10 95l74 333h168z" />
    <glyph glyph-name="ohm" unicode="&#x2126;" horiz-adv-x="1153" 
d="M1071 0h-395v147q111 109 166 240t55 330q0 258 -82.5 395t-236.5 137q-156 0 -239 -142.5t-83 -391.5q0 -192 51 -321t172 -247v-147h-397v150h211q-102 94 -159.5 235t-57.5 324q0 145 31 268t93 218.5t163 149.5t231 54q127 0 221.5 -49.5t151 -140t83.5 -207.5
t27 -263q0 -377 -223 -589h217v-150z" />
    <glyph glyph-name="partialdiff" unicode="&#x2202;" horiz-adv-x="997" 
d="M889 805q0 -405 -141 -633q-57 -88 -140 -138t-180 -50q-116 0 -196 60t-116 157t-36 223q0 205 109 339t282 134q88 0 156.5 -57t87.5 -144q-5 60 -8 144q-10 260 -112 391t-253 131l20 147q112 -3 206.5 -48t166.5 -129.5t113 -219.5t41 -307zM672 475
q0 124 -54.5 199.5t-152.5 75.5q-94 0 -153.5 -89t-59.5 -223q0 -142 52.5 -223.5t148.5 -81.5q95 0 157 97.5t62 244.5z" />
    <glyph glyph-name="increment" unicode="&#x2206;" horiz-adv-x="1005" 
d="M961 0h-916v131l336 1251h242l338 -1251v-131zM766 160l-197 743q-43 178 -73 334h-2q-17 -103 -74 -340l-195 -737h541z" />
    <glyph glyph-name="product" unicode="&#x220f;" horiz-adv-x="1284" 
d="M1212 1327h-165v-1808h-164v1808h-480v-1808h-165v1808h-166v143h1140v-143z" />
    <glyph glyph-name="summation" unicode="&#x2211;" horiz-adv-x="997" 
d="M909 -481h-843v131l473 864l-451 821v135h797v-149h-586l436 -803l-469 -844h643v-155z" />
    <glyph glyph-name="minus" unicode="&#x2212;" 
d="M815 555h-729v147h729v-147z" />
    <glyph glyph-name="uni2215" unicode="&#x2215;" horiz-adv-x="657" 
d="M834 1425l-875 -1529l-115 61l877 1532z" />
    <glyph glyph-name="radical" unicode="&#x221a;" horiz-adv-x="903" 
d="M920 1493l-383 -1493h-193l-205 881h-137v137h270l121 -567q25 -125 53 -285h3q17 113 61 293l240 1034h170z" />
    <glyph glyph-name="infinity" unicode="&#x221e;" horiz-adv-x="1603" 
d="M686 614q-99 95 -165.5 143t-125.5 48q-67 0 -105 -53t-38 -131q0 -84 38.5 -135.5t106.5 -51.5q60 0 129.5 47t159.5 133zM795 512q-112 -106 -212 -168.5t-200 -62.5q-143 0 -220 93.5t-77 237.5q0 147 85 246.5t226 99.5q96 0 195.5 -61.5t214.5 -169.5
q115 108 214.5 169.5t199.5 61.5q141 0 218 -94t77 -237q0 -149 -84.5 -247.5t-225.5 -98.5q-98 0 -197 61.5t-214 169.5zM915 625q94 -92 163.5 -141.5t129.5 -49.5q65 0 103.5 53.5t38.5 130.5q0 83 -39 135t-107 52q-58 0 -124 -45t-165 -135z" />
    <glyph glyph-name="integral" unicode="&#x222b;" horiz-adv-x="559" 
d="M524 1331q-31 8 -75 8q-64 0 -87.5 -70.5t-23.5 -267.5q0 -141 9 -452t9 -535q0 -189 -32 -300.5t-87 -154t-141 -42.5q-38 0 -88 8v147q31 -8 74 -8q44 0 67.5 26t34.5 96t11 202q0 116 -9.5 433t-9.5 550q0 145 18.5 247t54.5 160t83 83.5t110 25.5q49 0 82 -8v-148z
" />
    <glyph glyph-name="approxequal" unicode="&#x2248;" 
d="M834 457q-91 -129 -230 -129q-54 0 -100.5 18t-73.5 39t-64 39t-73 18q-76 0 -135 -82l-90 86q88 136 227 136q52 0 98 -18t73.5 -39.5t65 -39.5t76.5 -18q78 0 135 78zM834 801q-91 -135 -230 -135q-53 0 -98.5 18t-72.5 39t-65 39t-77 18q-79 0 -133 -78l-90 89
q89 131 227 131q53 0 99.5 -18t74.5 -39.5t64.5 -39.5t72.5 -18q78 0 137 82z" />
    <glyph glyph-name="notequal" unicode="&#x2260;" 
d="M618 874h193v-143h-242l-80 -203h322v-143h-373l-102 -258h-154l103 258h-195v143h246l80 203h-326v143h377l100 252h152z" />
    <glyph glyph-name="lessequal" unicode="&#x2264;" 
d="M817 0h-733v143h733v-143zM776 348l-98 -119l-619 480l619 479l96 -117l-483 -358z" />
    <glyph glyph-name="greaterequal" unicode="&#x2265;" 
d="M817 0h-733v143h733v-143zM125 1069l98 119l619 -479l-619 -480l-96 117l483 361z" />
    <glyph glyph-name="lozenge" unicode="&#x25ca;" horiz-adv-x="1021" 
d="M973 690l-389 -690h-144l-391 692l389 690h144zM786 686l-280 504l-273 -494l281 -503z" />
    <glyph glyph-name="zero.mono" unicode="&#xe023;" 
d="M846 627q0 -320 -106 -482.5t-300 -162.5q-88 0 -156.5 34t-120.5 106t-80 193.5t-28 288.5q0 317 105.5 480t298.5 163q69 0 126 -20.5t106 -66.5t83 -117t53 -176.5t19 -239.5zM670 612q0 253 -55.5 372.5t-168.5 119.5q-104 0 -159.5 -119.5t-55.5 -363.5
q0 -256 56 -376t168 -120q215 0 215 487z" />
    <glyph glyph-name="one.mono" unicode="&#xe024;" 
d="M809 0h-672v152h262v886l-233 -190l-76 127l334 254h154v-1077h231v-152z" />
    <glyph glyph-name="two.mono" unicode="&#xe025;" 
d="M797 0h-707v139l250 291q136 155 185.5 252.5t49.5 191.5q0 101 -52 162.5t-138 61.5q-113 0 -219 -109l-76 121q150 137 324 137q86 0 153 -28.5t108 -77.5t62 -112t21 -136q0 -125 -57.5 -240t-190.5 -262l-207 -237v-2q114 4 266 4h228v-156z" />
    <glyph glyph-name="three.mono" unicode="&#xe026;" 
d="M778 262q0 -201 -133.5 -324.5t-357.5 -123.5q-127 0 -228 39l33 157q106 -47 225 -47q129 0 204 75.5t75 205.5q0 123 -78.5 192.5t-224.5 69.5q-80 0 -121 -4v143h84q146 0 223.5 64t77.5 184q0 93 -54.5 152t-146.5 59q-104 0 -223 -76l-51 133q140 86 297 86
q171 0 263.5 -95.5t92.5 -236.5q0 -218 -194 -313v-2q107 -31 172 -121.5t65 -216.5z" />
    <glyph glyph-name="four.mono" unicode="&#xe027;" 
d="M856 176h-141v-346h-174v346h-490l-6 133l412 920h258v-899h141v-154zM541 330v487q0 102 4 262h-2q-41 -112 -92 -223l-242 -530q96 4 332 4z" />
    <glyph glyph-name="five.mono" unicode="&#xe028;" 
d="M799 283q0 -213 -135.5 -341t-360.5 -128q-109 0 -215 34l31 160q99 -47 215 -47q132 0 207 78.5t75 214.5q0 145 -77 216t-217 71q-84 0 -172 -15v703h585v-156h-422v-393q20 2 74 2q196 0 304 -109.5t108 -289.5z" />
    <glyph glyph-name="six.mono" unicode="&#xe029;" 
d="M846 442q0 -208 -111.5 -334t-288.5 -126q-187 0 -283.5 142.5t-96.5 422.5q0 221 41.5 387t118.5 266.5t178.5 149.5t228.5 49q67 0 121 -10l-19 -146q-41 10 -112 10q-85 0 -152 -36.5t-109.5 -101.5t-68 -142.5t-37.5 -171.5q-4 -25 -23 -107h3q30 63 101 107.5
t165 44.5q159 0 251.5 -111t92.5 -293zM670 424q0 130 -53 204t-154 74q-91 0 -153 -72t-62 -184q0 -82 19 -151.5t68 -119.5t122 -50q103 0 158 81t55 218z" />
    <glyph glyph-name="seven.mono" unicode="&#xe02a;" 
d="M817 1090q-248 -601 -418 -1260h-190q180 652 426 1243q-54 -4 -221 -4h-330v160h733v-139z" />
    <glyph glyph-name="eight.mono" unicode="&#xe02b;" 
d="M457 807q86 67 130 126t44 138q0 89 -48.5 141t-131.5 52q-84 0 -132.5 -52.5t-48.5 -140.5q0 -46 13.5 -85t42.5 -71t57.5 -55t73.5 -53zM586 727q42 -27 73 -50.5t65.5 -59t56 -73t36 -89.5t14.5 -111q0 -164 -111.5 -263t-273.5 -99q-180 0 -278 94t-98 241
q0 66 18.5 123t55 104.5t76 84.5t95.5 78q-49 32 -83.5 62.5t-68 72.5t-50.5 96t-17 119q0 150 100.5 246t264.5 96q156 0 250 -85t94 -224q0 -80 -32 -149.5t-76 -116t-111 -97.5zM442 627q-96 -72 -146 -138t-50 -155q0 -98 56.5 -157.5t152.5 -59.5q83 0 141.5 57
t58.5 152q0 53 -15.5 97t-47.5 80.5t-65 63t-85 60.5z" />
    <glyph glyph-name="nine.mono" unicode="&#xe02c;" 
d="M836 680q0 -181 -28 -325.5t-79.5 -245t-125.5 -167t-163 -97.5t-196 -31q-88 0 -166 16l26 154q77 -25 158 -25q160 0 257 117t126 342q4 27 23 112h-2q-30 -62 -101.5 -106.5t-165.5 -44.5q-160 0 -252 111t-92 296q0 209 111.5 335t288.5 126q187 0 284 -143t97 -424z
M653 780q0 83 -19 153t-68 120.5t-122 50.5q-103 0 -158 -81t-55 -220q0 -132 53 -206.5t154 -74.5q91 0 153 72t62 186z" />
    <glyph glyph-name="zero.expert" unicode="&#xe02d;" 
d="M829 698q0 -716 -389 -716q-72 0 -127.5 21t-101.5 71t-76 130t-46.5 200t-16.5 280q0 717 389 717q90 0 155.5 -34.5t114.5 -114t73.5 -217.5t24.5 -337zM649 682q0 310 -47.5 440.5t-152.5 130.5q-100 0 -148.5 -129t-48.5 -424q0 -209 22 -335t65 -181t112 -55
q101 0 149.5 129t48.5 424z" />
    <glyph glyph-name="one.expert" unicode="&#xe02e;" 
d="M836 0h-736v152h303v1038l-270 -207l-76 123l379 276h146v-1230h254v-152z" />
    <glyph glyph-name="two.expert" unicode="&#xe02f;" 
d="M838 0h-760v139l264 340q144 181 203 299.5t59 222.5q0 116 -55.5 182t-153.5 66q-129 0 -237 -112l-92 114q155 148 358 148q178 0 272.5 -106t94.5 -273q0 -133 -71 -273.5t-214 -316.5l-221 -274l-2 -2q160 4 338 4h217v-158z" />
    <glyph glyph-name="three.expert" unicode="&#xe030;" 
d="M823 422q0 -193 -136.5 -316.5t-362.5 -123.5q-146 0 -261 45l46 151q107 -49 233 -49q135 0 214 72.5t79 201.5q0 114 -82 184t-215 70q-115 0 -160 -2v142h92q147 0 236.5 62t89.5 188q0 91 -56.5 150.5t-168.5 59.5q-121 0 -228 -75l-55 135q133 82 307 82
q185 0 284 -92.5t99 -235.5q0 -115 -54 -197.5t-149 -121.5l-2 -2q104 -17 177 -112t73 -216z" />
    <glyph glyph-name="four.expert" unicode="&#xe031;" 
d="M874 334h-159v-334h-174v334h-502l-6 143l418 905h264v-895h159v-153zM547 487v748l-352 -750q98 2 352 2z" />
    <glyph glyph-name="five.expert" unicode="&#xe032;" 
d="M811 449q0 -210 -141.5 -338.5t-364.5 -128.5q-123 0 -231 30l32 158q100 -41 226 -41q137 0 216 78t79 213q0 145 -82.5 217t-229.5 72q-88 0 -180 -15v688h613v-157h-447v-377q46 4 86 4q199 0 311.5 -112t112.5 -291z" />
    <glyph glyph-name="six.expert" unicode="&#xe033;" 
d="M848 444q0 -208 -112 -335t-287 -127q-186 0 -286 145.5t-100 421.5q0 177 27.5 319t77.5 240.5t121.5 164.5t157.5 96t188 30q73 0 110 -6l-18 -146q-36 8 -102 8q-86 0 -151.5 -34.5t-109 -100t-71 -144.5t-45.5 -183q-6 -27 -19 -107q31 75 102.5 117.5t168.5 42.5
q161 0 254.5 -111t93.5 -291zM672 424q0 132 -53.5 206.5t-155.5 74.5q-66 0 -116.5 -40t-74.5 -97t-24 -117q0 -147 54.5 -236.5t156.5 -89.5t157.5 81t55.5 218z" />
    <glyph glyph-name="seven.expert" unicode="&#xe034;" 
d="M831 1243q-282 -672 -421 -1243h-193q152 568 430 1225q-58 -4 -225 -4h-352v161h761v-139z" />
    <glyph glyph-name="eight.expert" unicode="&#xe035;" 
d="M451 803q92 67 140 127t48 141q0 92 -48.5 142.5t-139.5 50.5q-86 0 -137.5 -54.5t-51.5 -140.5q0 -88 48.5 -147.5t140.5 -118.5zM584 725q58 -35 97 -65.5t79.5 -76t61 -105t20.5 -132.5q0 -165 -114 -264.5t-284 -99.5q-184 0 -284.5 94t-100.5 243q0 66 19 123.5
t56.5 105t76 83t92.5 74.5q-49 33 -83 63.5t-66.5 73t-49 96.5t-16.5 119q0 147 101 244.5t270 97.5t261.5 -86t92.5 -228q0 -60 -18 -112.5t-52.5 -97t-71 -78.5t-87.5 -72zM436 625q-46 -34 -77 -61.5t-61.5 -64t-46 -78.5t-15.5 -89q0 -97 59 -156t160 -59q91 0 151 56.5
t60 152.5q0 54 -17.5 98.5t-53.5 81.5t-70.5 62t-88.5 57z" />
    <glyph glyph-name="nine.expert" unicode="&#xe036;" 
d="M831 829q0 -185 -24.5 -327t-70 -240t-115 -161t-155 -91t-194.5 -28q-88 0 -178 22l27 148q95 -29 176 -29q158 0 240 107.5t112 340.5q10 79 17 117h-2q-34 -77 -104.5 -119.5t-166.5 -42.5q-160 0 -253 112t-93 296q0 214 113 339.5t291 125.5q186 0 283 -144.5
t97 -425.5zM647 928q0 147 -53.5 237t-153.5 90q-103 0 -160 -83.5t-57 -217.5t53 -208t152 -74q104 0 161.5 76t57.5 180z" />
    <glyph glyph-name="Euro.captab" unicode="&#xe037;" 
d="M313 782q-2 -29 -2 -94q0 -55 2 -84h367v-125h-354q38 -346 254 -346q118 0 208 66l50 -133q-134 -84 -281 -84q-363 0 -418 497h-127v125h117v62q0 79 2 116h-119v125h135q15 106 46.5 191.5t83 155.5t131 108.5t182.5 38.5q135 0 237 -62l-53 -143q-85 55 -188 55
q-217 0 -260 -344h354v-125h-367z" />
    <glyph glyph-name="cent.captab" unicode="&#xe038;" 
d="M786 389l23 -139q-117 -61 -274 -68l-33 -260h-131l35 268q-159 29 -244.5 148t-85.5 350q0 262 119 404.5t344 146.5l28 211h131l-28 -219q82 -14 135 -33l-17 -154q-66 29 -139 41l-96 -753q129 4 233 57zM256 707q0 -297 168 -357l96 740q-264 -11 -264 -383z" />
    <glyph glyph-name="dollar.captab" unicode="&#xe039;" 
d="M799 1366l-31 -149q-70 23 -150 34l-71 -483q58 -29 99 -54t85.5 -61.5t72 -75t45 -92.5t17.5 -116q0 -75 -29 -142t-82.5 -120.5t-138 -86t-188.5 -36.5l-33 -226h-131l35 230q-99 6 -199 39l31 161q102 -42 191 -53l77 512q-55 28 -95.5 53t-81.5 60.5t-67 73.5
t-42.5 89.5t-16.5 110.5q0 153 112 255t304 108l29 196h131l-31 -198q70 -7 158 -29zM518 586l-67 -453q122 4 185.5 64t63.5 153q0 79 -47 132.5t-135 103.5zM428 829l64 424q-112 -3 -172 -58t-60 -148q0 -70 43.5 -121t124.5 -97z" />
    <glyph glyph-name="sterling.captab" unicode="&#xe03b;" 
d="M438 643q11 -113 11 -141q0 -120 -35.5 -201.5t-100.5 -155.5q79 7 162 7h318v-152h-687v121q91 87 129.5 164.5t38.5 199.5q0 72 -14 158h-178v137h160q-29 174 -29 248q0 189 87 281t251 92q104 0 205 -37l-39 -150q-88 43 -170 43q-160 0 -160 -213q0 -33 3 -69
t7 -60.5t11 -67.5t10 -67h272v-137h-252z" />
    <glyph glyph-name="yen.captab" unicode="&#xe03c;" 
d="M14 1382h193l149 -358q58 -150 78 -225h2q51 147 92 258l136 325h182l-328 -755v-17h252v-121h-252v-174h252v-120h-252v-195h-172v195h-254v120h254v174h-254v121h254v17z" />
    <glyph glyph-name="designer" unicode="&#xe07b;" horiz-adv-x="2406" 
d="M1929 135q-14 -18 -53.5 -23.5t-50.5 -13.5q-21 -2 -34.5 -4t-30.5 -8t-28.5 -17t-17.5 -28t-25.5 -50t-28.5 -61t-3 -57q6 -24 53 -12q3 0 12 8.5t17 3.5q5 -6 4 -8.5t-7 -9t-7 -9.5q-42 -26 -78 -10q-37 37 -27 74q8 40 72 151q-21 11 -64.5 1.5t-64.5 -1.5
q11 14 55 29q11 2 35.5 2.5t41 5.5t25.5 21q8 13 10 30t0.5 31.5t0.5 32.5q-11 3 -11 25q-6 11 -14 20t-15 15t-20 10t-19.5 6.5t-23 4t-21.5 2t-23.5 1t-20.5 0.5q-44 -3 -85 -34.5t-59 -72.5q-24 -56 7 -133q-4 -26 11.5 -61.5t26 -59.5t-3.5 -67q-18 -15 -53 -2
q-17 8 -24.5 24t-12.5 42.5t-8 35.5q12 9 15 36t10 36q4 10 0.5 27t-15.5 22q-11 -1 -46.5 -2t-59 -6.5t-41.5 -20.5q1 -5 3 -24.5t2.5 -27.5t1.5 -25t-1.5 -26.5t-6 -22.5t-11.5 -23t-19 -18q-22 -6 -49 8q-10 9 -14.5 21.5t-4.5 22t1.5 26t1.5 24.5q2 5 13.5 30.5
t17.5 35.5t19.5 24t30.5 20q19 -12 68 3l100 2q7 7 9 27.5t4 25.5q20 62 67 106.5t109 48.5q83 7 131 -16q2 -15 23 -27t24 -26q5 -8 8.5 -17t4 -20.5t1 -19.5t-1.5 -22t-2.5 -19.5t-4 -21.5t-3.5 -19q46 0 178 24zM1098 94q-11 -8 -33 4t-35 4q-20 -14 -29.5 -50t-19.5 -48
q-1 -14 -8.5 -50t-7.5 -56l-8 -5q-8 -5 -9.5 -4.5t-11.5 0.5q-7 9 -7 22.5t3 29t2 22.5q11 13 11.5 45.5t6.5 44.5q-5 8 -6 27.5t-2 23.5q-5 2 -15.5 -4t-15.5 2q5 20 29 37q4 0 8 -1t6.5 -2.5t6 -4.5t5 -4.5t4 -6t3 -6t3.5 -6.5t3 -6q6 2 14.5 12t15 16.5t17 9t19.5 -8.5z
M825 186q-1 -45 2.5 -121.5t3.5 -128t-7 -114t-32.5 -115.5t-70.5 -96q-64 -39 -144 -49.5t-153 10.5q-25 15 -25 29q3 15 5 21.5t7 18.5t13 18.5t20 10.5q-1 -3 -11.5 -27.5t-12.5 -39.5q57 -31 128.5 -26.5t129.5 36.5q35 12 54 36.5t34.5 69t21.5 56.5q21 128 13 299
q6 13 1.5 49t-1.5 49q-4 13 -25 2q-10 -10 -22.5 -35t-22.5 -33q3 -21 -21 -40.5t-24 -36.5q-63 -70 -147 -193q-2 -3 -5.5 -10t-6 -10.5t-6.5 -7.5t-8.5 -6t-10.5 -1q-12 16 -12 37.5t3.5 46.5t0.5 41q3 10 11 43.5t17 57t25 43.5q46 120 135 176q7 4 18 2t16.5 -2.5
t15.5 -5.5t15 -8t14.5 -9.5t14.5 -9.5q18 21 25 49q24 -9 24 -41q-9 -4 -3.5 -17t3.5 -18zM1487 633q-29 -4 -128 -33.5t-155 -24.5q-9 -8 -11.5 -32.5t7 -43t31.5 -10.5q2 2 8.5 20.5t15.5 22.5q15 -32 -16 -67q-6 -3 -16 -4.5t-22.5 3t-23 14.5t-15.5 32.5t-1 54.5
q-15 20 -10 29q11 8 17 20t7.5 21.5t3.5 27t3 25.5q-2 1 -4 4t-4 4q-27 -18 -56.5 -64.5t-42.5 -60.5q0 -18 -24.5 -47.5t-20.5 -52.5q-5 -5 -8.5 -32t-24.5 -29q-17 4 -24 15t-6 24t2 28t0 27q-4 26 2 71t2 68q-14 -8 -25.5 -32t-17.5 -31q-7 -8 -19 -28t-20.5 -31.5
t-25 -20t-36.5 -4.5q-11 16 -13 35t5 39.5t14.5 36t20.5 36.5q5 5 15.5 18t16.5 20t18 17t21 9.5t25 -2.5q10 -5 21 0q34 78 41 184l20 16q12 -3 14.5 -10t-0.5 -14.5t-6.5 -17t-1.5 -15.5q-4 -27 -17.5 -105t-16.5 -120q-1 -14 -5 -40t-4.5 -39t4.5 -40q7 10 54 82t82 106
q28 40 65 62q9 -7 30 -28.5t32 -29.5q0 -8 -1.5 -25.5t-1.5 -31.5t3 -25l67.5 13.5t76.5 15.5t65 16q16 -10 14 -26zM2169 1395q-5 66 -35.5 123.5t-87.5 83.5q9 13 19.5 16.5t22 -5.5t18 -15.5t19 -23.5t13.5 -18q41 -50 54.5 -116.5t4 -129.5t-35.5 -126
q-31 -72 -86.5 -131.5t-126.5 -89.5q69 50 98 98q87 87 98 164q37 59 25 170zM1985 1188q-17 -43 -50 -51q-20 6 -41 34l4 29q7 -2 10.5 -16t12.5 -17q13 -4 33 23q17 101 -31 178l-12 -6q-7 -7 -23.5 -21t-24 -21.5t-18 -21.5t-16.5 -28l-17 -8q-18 -18 -47.5 -58.5
t-46.5 -56.5q-15 -2 -21 6t-8.5 24t-5.5 21q8 21 -6 35q-9 1 -13.5 -9.5t-6.5 -11.5q-29 -29 -66 -32q-27 7 -31 24t5 46.5t8 43.5q10 43 67 103q5 1 20.5 6t24.5 7t21 -1.5t20 -15.5l9 -13q-7 -20 -11 -42.5t-7.5 -59t-4.5 -45.5q5 -21 17 -21q18 0 30.5 23.5t16.5 26.5
q60 52 159 159q20 -7 24 -43t9 -43q10 -5 6 -16q22 -46 11 -131zM1706 1589q-7 -12 -21 -20.5t-28 -7.5q-12 23 -25 12q-75 -58 -122 -108.5t-68 -112.5q-11 -67 -12.5 -117.5t17 -109t62.5 -93.5q12 -9 27 -11.5t37 -1t31 0.5q8 5 21.5 17.5t21.5 17.5q2 -11 -5 -18.5
t-20 -15.5t-18 -13q-31 -12 -66.5 -5t-60.5 29q-48 45 -56 94q-14 5 -8.5 21.5t-3.5 23.5q5 8 -2.5 28.5t0.5 33.5q-2 59 16 113t55 101t73.5 82.5t88.5 76.5q3 0 17.5 3t22.5 3.5t16.5 -5t9.5 -18.5zM1331 1225q-14 -36 -46.5 -61t-70.5 -25q-95 0 -131 65q-21 33 -10 103
q2 12 15 30t14 31q59 49 131 25q3 -2 8 -5t8 -4.5t5 -5.5t1 -10q-5 -4 -8.5 -2.5t-10.5 6t-13 4.5q-55 15 -103 -33q-39 -65 -20 -112q46 -61 110 -70q2 1 34 7t44 22q6 4 12.5 16t13.5 18t17 1zM1016 1167q-4 -9 -11.5 -31t-15 -37.5t-18.5 -29.5q-13 -6 -24.5 1t-18.5 20
q-33 77 -21 153q-3 2 1 50t-5 63q-14 -32 -14 -81t-6 -92t-35 -73q-3 -3 -10.5 -5.5t-18 -1t-21 8.5t-20 26.5t-14.5 49.5q4 25 8 73.5t8 73.5q1 7 -2 19t-3 22t9 17q15 7 27 -9q1 -30 -4.5 -83t-5.5 -92t14 -62q17 -12 25 -1t11 32.5t7 25.5q4 23 5.5 82.5t10.5 89.5
q4 4 9.5 15t9 17t12.5 10t19 -5q19 -54 14 -155.5t12 -155.5q2 -6 9.5 -7.5t13.5 5.5l4 11q4 11 9 23t13 22.5t17 10.5zM696 1106l-4 -4q-3 -3 -6 -4.5l-10 -5t-18.5 -5.5t-29 -5t-44 -6t-60.5 -5q-147 -13 -260 -51q-2 -5 -5 -8t-6.5 -5t-6 -3t-7 0t-6.5 1t-7 2t-6.5 3
t-6.5 3.5t-6 2.5q-2 14 14.5 27.5t18.5 21.5q25 51 39 98q-3 12 18 54q118 274 152 425q-8 30 6 44q7 3 11.5 0t8.5 -10t6 -9q-20 -114 -103 -311t-106 -287l4 -4q28 4 93 16.5t113.5 19t97.5 7.5q62 -11 110 6zM1436 -111q21 46 -21 111q-12 -15 -16 -55q3 -17 5 -25
t10.5 -18.5t21.5 -12.5zM1190 55l-29 -39q-12 -64 -2 -94q5 -5 13 -5.5t15.5 3t14 10t8 16.5t-3.5 23q19 80 -16 86zM752 193q-6 21 -31 26t-43 -4q-59 -51 -82 -82q-8 -26 -31.5 -77t-35 -92.5t-7.5 -82.5q4 -1 6 0t4 4t3 4q21 28 75 89.5t89 111.5t53 103zM1217 631
q19 45 -5 49l-10 -59q6 1 9 2.5t4 4t2 3.5zM938 635l-4 41q-25 6 -47 -29q-63 -80 -43 -129q13 -5 21 12l1 1v1q50 54 72 103zM1686 1382q-7 6 -14.5 -1t-10.5 -5q-80 -41 -76 -164q9 -2 24.5 8.5t24.5 8.5q4 11 17 29.5t21.5 31t12 32.5t-11.5 34q13 0 13 26z" />
    <glyph glyph-name="FoFa" unicode="&#xe07d;" horiz-adv-x="1966" 
d="M1802 1169q0 -8 -4 -8q-21 1 -28.5 1t-28.5 -2t-29 -3q-137 -6 -184 -14q-11 -10 -14.5 -35.5t-6.5 -32.5q0 -7 4 -17.5t5 -13.5q7 -10 28 -14q35 4 47 27q0 13 -14 24q-5 4 -20.5 5.5t-20.5 9.5q4 6 10.5 7.5t18.5 0t16 -1.5q21 -6 31 -33q-3 -31 -37 -55
q-7 -2 -21.5 -5t-21.5 -5q-72 17 -92 49q-4 21 -3.5 31t4.5 29.5t5 29.5q-3 5 -8 7t-11 1t-12 0l-67 -2q0 2 -2.5 4t-2.5 4q5 4 16.5 5t12.5 1q11 -2 24.5 -2t29.5 1t24 1q10 8 10 35q3 6 7 30t12 32q9 2 12 1t8.5 -7.5t7.5 -8.5q7 -11 7 -35.5t4 -38.5q4 -7 13 -8.5
t16.5 0.5t15.5 0q4 0 86.5 3t144.5 10q6 -3 8 -7zM1333 1032l-6 -4q-71 0 -104 -10q-2 1 -7 2.5t-8 2.5t-6.5 4t-5.5 7q12 77 2 115q-2 2 -4.5 2.5t-6 -1t-6.5 -3t-6.5 -3.5t-5.5 -3q-80 -49 -84 -99q-19 -19 -38 -10q-8 10 -6.5 31t-0.5 33l-2 63q-4 4 -16 3.5t-21 0.5
q-2 1 -8 1.5t-10 2.5t-4 7q14 -1 52.5 2.5t53.5 -0.5q7 -6 6 -30t13 -26q17 7 51.5 29t54.5 29q5 -3 26 -3t24 -16q4 -17 4 -48.5v-39.5q1 -3 2 -12t6 -12q19 -4 26 0q5 0 16.5 -2.5t18.5 -2.5q5 -5 0 -10zM915 1145q6 -41 -14 -64q-10 -6 -26 -20t-30 -22.5t-30 -10.5
q-8 3 -14 -6t-13 -4q-2 6 -24.5 4t-26.5 -2q-29 0 -43 6q-33 30 -38 47q-3 14 1 27q13 42 50 61q4 2 17.5 9t18 9t19 7t20.5 3.5t21 -1.5q91 -4 112 -43zM926 1360q-10 -12 -27.5 -17t-32.5 0q-26 35 -28 50q-12 19 -33 32.5t-37 18.5t-47.5 12t-42.5 10l-64 4
q-3 -3 -12 -2.5t-14 -1.5q-63 -19 -113 -43q-2 -3 -27.5 -23t-27.5 -38q-19 -49 -23 -143q5 -4 13 -5t17.5 0t14.5 0q48 5 176 5q8 -4 3 -15q-10 -10 -32 -1t-32 5q-13 1 -42 -1t-42 -1q-7 -1 -24 -2.5t-29 -4t-21 -7.5l-6 -8q-4 -50 2 -129q1 -4 0.5 -29t7.5 -29
q39 -2 77.5 2t64.5 5q3 2 6.5 2t6.5 -0.5t7 -2t6 -2.5q1 -1 1 -4t1 -4l-8 -4q-25 7 -80 0t-94 -4q-75 -5 -94 -4q-91 -4 -131 6l-4 6q7 7 18 11q7 -4 17.5 -6.5t18.5 -3.5t22.5 -2.5t21.5 -2.5q5 1 17.5 1t21 1.5t14.5 5.5q-1 39 10 101.5t13 89.5q-2 4 -6 8q-12 1 -37.5 0
t-43 1t-34.5 9q-1 4 1 7.5t5 3.5q41 -11 115 -7l4 7q12 92 31 135v6q95 112 243 127q62 8 144 -27q5 -2 19.5 -3.5t21.5 -4.5q86 -18 127 -72q4 -4 0 -18zM1579 -119l-8 -8q-27 2 -98 -5t-101 -3q-64 3 -213 -7t-231 -1q-19 -3 -39 -4t-42 0t-36.5 2t-41.5 4t-38 4
q-36 3 -75.5 3.5t-94.5 -0.5t-78 -1q-135 0 -204 -17q-24 -5 -31 9q0 9 -1.5 40.5t0 52.5t7.5 40q2 20 2 77t4 87q-5 30 -1 91t-1 91q0 51 6.5 146t7.5 122q3 52 1.5 146.5t0.5 146.5q6 14 24 13.5t30 0.5q5 -8 37.5 -5t37.5 3q25 24 27 2q1 -2 0.5 -12t5.5 -12
q-3 -72 -2 -112t8 -151.5t9 -148.5q45 14 121 57.5t116 57.5q6 2 19.5 11.5t23.5 12.5q1 0 5 4t7 4.5t9 -1.5q5 -2 7 -6.5t1.5 -8.5t-1.5 -10.5t-1 -9.5q-19 -60 -10 -125q3 -5 7.5 -5.5t11.5 1.5t9 2q13 10 37 24.5t33 20.5q57 34 84 43q5 4 19 13.5t20.5 14t17.5 11.5
t21 12t20 8l41 33q3 8 12 14q7 0 23 -12q0 -19 6 -58t6 -59q1 -4 6 -4.5t6 -3.5q4 -5 4 -11t-1 -10t-3.5 -11t-3.5 -9l4 -4q47 10 125 65t123 66q6 6 22 13t23 14q10 1 25 13.5t24 16.5t29 -6q11 0 14 -8q-1 -5 0 -8.5t4.5 -8.5t4.5 -7q-3 -9 -0.5 -29.5t-3.5 -26.5
q1 -10 0 -32.5t1 -37.5t9 -28q-2 -8 5 -25t-1 -22q1 -11 0 -19.5t1 -18.5t7 -17q5 -29 -2 -37q2 -10 5 -43.5t9 -51.5q-3 -4 -3 -9.5t1.5 -12.5t1.5 -10q0 -53 12 -152t13 -149l3 -9q2 -9 -1 -10zM870 1104q-13 63 -53 70q-2 -6 -7 -7.5t-12 0t-10 0.5q-14 6 -29 2.5
t-24 -14.5q-5 -7 -8 -13.5t-3 -14t-0.5 -12.5t2.5 -13.5t4 -12.5t7 -13t7.5 -11.5t8 -13t7.5 -11.5q2 -4 6 -5.5t8.5 -0.5t9.5 0q13 -1 18 0t17.5 7.5t16.5 7.5q2 2 16.5 13t18.5 20t-1 22zM1513 -20q-21 48 -36 65q-5 9 -17 26.5t-19 31.5t-9 30q-2 3 -5.5 9t-5 8.5t-3 8.5
t0.5 9q10 12 35 28t33 25l-19 35q-15 -1 -38 -10t-25 -10t-8 -6t-10 -7.5t-10 -2.5t-11 5q4 108 2 160l-4 6q-10 0 -55 15q-9 -72 -6 -99q-4 -11 -2 -40t-3 -40q2 -38 -2.5 -106.5t0.5 -104.5l-2 -14h49q3 1 13.5 -2t11.5 2q0 37 -2 57q1 6 -3 21t-2 24t15 13
q8 -3 12.5 -15.5t6.5 -15.5q-1 -10 9 -25.5t11 -21.5q14 -8 31 -34t29 -34q3 1 11 -2.5t15 -1.5q4 0 8 4t4 9zM1245 367q-8 23 -24 30q-5 5 -11.5 5.5t-9.5 -5.5q-10 -13 -13 -30.5t5 -30.5q3 -10 16 -11.5t23 3.5q18 12 14 39zM1249 31q0 27 -2 79t-2 76q0 6 1 17.5t1 20.5
t-2 16q-12 6 -18.5 5.5t-19 -3.5t-19.5 -2q-8 -14 -9.5 -33t0 -35t-0.5 -35q-2 -3 -7 -53q1 -6 1.5 -40t11.5 -50q31 0 61 10q4 8 4 27zM1147 252q-1 0 -7.5 -0.5t-9 -1t-8 -1.5t-8.5 -2t-8 -3t-8 -4.5t-6.5 -6t-6.5 -8.5q-3 -3 -6 -14t-8 -17.5t-16 -3.5q-4 13 -4 60
q-5 3 -15.5 0t-15.5 0q-15 -8 -23 -27q0 -139 9 -227l6 -8q7 -6 24.5 -2.5t22.5 0.5q-4 15 -1.5 43t-2.5 41q12 63 32 90q7 6 26.5 12.5t27.5 13.5q1 8 4 22.5t3.5 21.5t-1.5 22zM938 61q6 11 9 24.5t4.5 22.5t-0.5 26.5t-3 24t-5 27.5t-5 25q2 7 -9 15t-25 14.5t-17 9.5
q-3 4 -9.5 4t-7.5 -6q-23 3 -39 -8q-8 -4 -16 -16t-12 -15q-10 -7 -19 6q10 49 -6 152l-4 14h-16q-11 -4 -14.5 -12.5t-3 -21t-1.5 -17.5q-4 -23 -4 -70t-4 -70q2 -23 0 -67t0 -64q0 -10 -2.5 -34t-1.5 -39q18 -10 64 10q16 3 21.5 0t14 -14.5t13.5 -14.5q16 0 26 2
q25 14 49 41.5t23 50.5zM682 70q-8 25 -5.5 90t-14.5 84q-17 11 -48 24l-16 11q-13 -2 -23.5 -1t-23 -1t-21.5 -9q-6 -4 -9.5 -10.5t-4.5 -11.5t-1.5 -16t-0.5 -15q16 -6 32 -2t33.5 1.5t26.5 -17.5q-1 -4 3 -12.5t-1 -12.5q-6 -11 2 -16q3 -4 1.5 -11t-7.5 -8
q-10 -3 -29 -3.5t-28 -2.5q-38 -15 -51 -76q-4 -7 -1.5 -22.5t-2.5 -20.5q0 -22 30 -35q11 11 17 5q10 -3 19.5 2t21.5 15.5t18 14.5q13 3 14.5 -5t-1 -18.5t4.5 -17.5q4 -5 16.5 -0.5t16.5 4.5q3 1 10 3t12 4t9 6zM508 371q-26 5 -107 0q-36 -4 -55 -17q-1 -25 -7 -72.5
t-7 -60.5q3 -39 2.5 -112t1.5 -113q3 0 15.5 2.5t13.5 -0.5q7 2 23.5 -1.5t23.5 1.5q1 22 2 65t2 64q5 11 33 25q4 2 15.5 0.5t14.5 5.5l-2 57q-4 4 -9.5 6t-9.5 2.5t-12.5 0t-11.5 -0.5q-8 -8 -14 -8q-9 2 -12 9.5t-4 19t-3 16.5q-4 8 9 21q29 9 79 16l13 8q-2 14 2 35.5
t4 30.5zM881 158q13 -30 7.5 -60.5t-26.5 -52.5q-2 -3 -5 -5.5t-6 -3.5t-7 -2.5t-6 -2.5q-12 1 -19.5 9t-9.5 15.5t-4.5 22.5t-3.5 20q1 5 5 30t11 36q7 4 18.5 20.5t24.5 16.5l6 -6q-3 -10 5.5 -21t9.5 -16zM604 86q0 -22 -29 -47l-13 -7q-13 -6 -21 -1q-8 2 -9.5 7.5t2 17
t3.5 12.5q0 13 18 20q12 0 20 8q2 0 9 -0.5t12 -2.5t8 -7z" />
    <glyph glyph-name="dieresis.narrow" unicode="&#xe08c;" horiz-adv-x="700" 
d="M596 1290q0 -44 -29 -73t-71 -29t-71.5 29t-29.5 73t29.5 73.5t71.5 29.5t71 -29.5t29 -73.5zM305 1290q0 -44 -29 -73t-71 -29t-71.5 29t-29.5 73t29.5 73.5t71.5 29.5t71 -29.5t29 -73.5z" />
    <glyph glyph-name="caroncomma" unicode="&#xe08e;" horiz-adv-x="421" 
d="M315 1358l-137 -357l-106 23l100 369z" />
    <glyph glyph-name="circumflex.cap" unicode="&#xe08f;" horiz-adv-x="632" 
d="M311 1718l258 -139l-47 -92l-213 98l-213 -98l-43 90z" />
    <glyph glyph-name="tilde.cap" unicode="&#xe090;" horiz-adv-x="794" 
d="M618 1700l93 -60q-33 -71 -86 -110t-121 -39q-42 0 -76 14t-52 31t-42.5 31t-50.5 14q-62 0 -105 -84l-94 57q33 73 86 112.5t121 39.5q42 0 76.5 -14t52.5 -31t42.5 -31t49.5 -14q61 0 106 84z" />
    <glyph glyph-name="ring.cap" unicode="&#xe091;" horiz-adv-x="577" 
d="M487 1647q0 -87 -54 -139t-152 -52q-191 0 -191 182q0 86 54.5 137.5t152.5 51.5q190 0 190 -180zM375 1640q0 105 -88 105q-39 0 -61.5 -25.5t-22.5 -74.5q0 -105 88 -105q39 0 61.5 25t22.5 75z" />
    <glyph glyph-name="dotaccent.cap" unicode="&#xe092;" horiz-adv-x="430" 
d="M215 1702q46 0 77.5 -32.5t31.5 -78.5t-31.5 -78t-77.5 -32q-47 0 -78 32t-31 78t31.5 78.5t77.5 32.5z" />
    <glyph glyph-name="breve.cap" unicode="&#xe093;" horiz-adv-x="657" 
d="M569 1712q0 -107 -64.5 -172t-185.5 -65q-122 0 -181.5 67t-59.5 170h125q0 -49 32.5 -83t83.5 -34q56 0 90.5 31t34.5 86h125z" />
    <glyph glyph-name="f_ij" unicode="&#xf003;" horiz-adv-x="1497" 
d="M858 1018v-674q0 -110 28.5 -162.5t96.5 -52.5q90 0 152.5 110.5t62.5 276.5v502h172v-1061q0 -218 -108.5 -327t-303.5 -109q-118 0 -241 35l22 161q112 -47 238 -47q119 0 170 61.5t51 209.5v65q0 99 25 201h-4q-37 -104 -108.5 -164.5t-170.5 -60.5q-254 0 -254 321
v578h-356v-881h-172v881h-156v137h156v104q0 178 73 271.5t209 93.5q74 0 140 -19l-19 -139q-46 14 -96 14q-135 0 -135 -217v-108h528zM772 1415q47 0 79 -32t32 -78t-32.5 -79.5t-78.5 -33.5q-45 0 -77.5 33.5t-32.5 79.5t32 78t78 32zM1286 1415q46 0 78.5 -32t32.5 -78
t-33.5 -79.5t-79.5 -33.5q-45 0 -77.5 33.5t-32.5 79.5t33 78t79 32z" />
    <glyph glyph-name="acute.cap" unicode="&#xf6c9;" horiz-adv-x="532" 
d="M68 1579l315 139l53 -125l-332 -106z" />
    <glyph glyph-name="caron.cap" unicode="&#xf6ca;" horiz-adv-x="634" 
d="M315 1487l-258 141l47 90l213 -96l213 96l45 -90z" />
    <glyph glyph-name="dieresis.cap" unicode="&#xf6cb;" horiz-adv-x="751" 
d="M215 1696q41 0 70.5 -31.5t29.5 -71.5t-29.5 -71t-70.5 -31t-70.5 30.5t-29.5 71.5q0 42 29.5 72.5t70.5 30.5zM545 1696q41 0 70.5 -30.5t29.5 -72.5q0 -41 -29.5 -71.5t-70.5 -30.5t-71 30.5t-30 71.5t30 72t71 31z" />
    <glyph glyph-name="grave.cap" unicode="&#xf6ce;" horiz-adv-x="532" 
d="M436 1579l-41 -92l-332 106l56 125z" />
    <glyph glyph-name="hungarumlaut.cap" unicode="&#xf6cf;" horiz-adv-x="1024" 
d="M408 1630l-285 -172l-74 62l256 200zM770 1620l-293 -162l-76 72l265 188z" />
    <glyph glyph-name="macron.cap" unicode="&#xf6d0;" horiz-adv-x="679" 
d="M590 1532h-500v127h500v-127z" />
    <glyph glyph-name="breve.cyr.cap" unicode="&#xf6d1;" horiz-adv-x="741" 
d="M651 1731q0 -115 -72 -188t-210 -73q-136 0 -207.5 69t-71.5 192h156q0 -150 127 -150q61 0 92 39t31 111h155z" />
    <glyph glyph-name="caroncomma.cap" unicode="&#xf6d2;" horiz-adv-x="557" 
d="M426 1546l-195 -299l-100 62l170 315z" />
    <glyph glyph-name="ringacute" unicode="&#xf6d3;" horiz-adv-x="655" 
d="M569 1708l-323 -109l-35 89l307 137zM516 1327q0 -88 -53 -142.5t-148 -54.5q-182 0 -182 189q0 89 53 143t148 54q182 0 182 -189zM406 1319q0 54 -21 82.5t-59 28.5t-60 -26.5t-22 -76.5q0 -108 82 -108q37 0 58.5 25.5t21.5 74.5z" />
    <glyph glyph-name="breve.cyr" unicode="&#xf6d4;" horiz-adv-x="741" 
d="M651 1395q0 -119 -71.5 -193t-210.5 -74q-136 0 -207.5 70.5t-71.5 196.5h154q0 -156 129 -156q61 0 92 40.5t31 115.5h155z" />
    <glyph glyph-name="breve.sc" unicode="&#xf6f4;" horiz-adv-x="622" 
d="M547 1448q0 -107 -62.5 -174.5t-177.5 -67.5t-174 69.5t-59 172.5h131q0 -50 28.5 -80.5t75.5 -30.5q48 0 77.5 27.5t29.5 83.5h131z" />
    <glyph glyph-name="caron.sc" unicode="&#xf6f5;" horiz-adv-x="632" 
d="M61 1419l62 86l194 -129l189 129l61 -86l-252 -192z" />
    <glyph glyph-name="circumflex.sc" unicode="&#xf6f6;" horiz-adv-x="632" 
d="M567 1315l-63 -88l-193 129l-190 -129l-60 86l252 192z" />
    <glyph glyph-name="dotaccent.sc" unicode="&#xf6f7;" horiz-adv-x="444" 
d="M223 1456q46 0 77.5 -32t31.5 -78t-32.5 -79.5t-78.5 -33.5q-45 0 -76.5 33.5t-31.5 79.5t32 78t78 32z" />
    <glyph glyph-name="hungarumlaut.sc" unicode="&#xf6f8;" horiz-adv-x="786" 
d="M395 1399l-233 -211l-78 69l203 232zM698 1395l-241 -207l-78 69l213 230z" />
    <glyph glyph-name="OE.sc" unicode="&#xf6fa;" horiz-adv-x="1245" 
d="M649 0q-79 -14 -141 -14q-420 0 -420 553q0 169 48.5 296t151.5 202t251 75q68 0 139 -14h459v-135h-332v-334h313v-131h-313v-361h334v-137h-490zM633 145v807q-50 21 -111 21q-122 0 -189 -110t-67 -312q0 -211 65.5 -318.5t190.5 -107.5q59 0 111 20z" />
    <glyph glyph-name="ring.sc" unicode="&#xf6fc;" horiz-adv-x="575" 
d="M485 1405q0 -90 -54 -143.5t-152 -53.5q-189 0 -189 187q0 90 54.5 144t152.5 54q188 0 188 -188zM369 1397q0 108 -82 108q-37 0 -59.5 -26t-22.5 -76q0 -109 82 -109q38 0 60 26.5t22 76.5z" />
    <glyph glyph-name="Scaron.sc" unicode="&#xf6fd;" horiz-adv-x="761" 
d="M676 297q0 -60 -22 -114.5t-64.5 -99t-113.5 -71t-161 -26.5q-117 0 -235 34l33 152q113 -47 209 -47q85 0 128.5 43.5t43.5 118.5q0 47 -22.5 84t-58.5 63t-79.5 51t-87 53.5t-79.5 63t-58.5 87.5t-22.5 120q0 59 21 112.5t62.5 96.5t110 68.5t156.5 25.5q91 0 189 -25
l-33 -143q-87 33 -160 33q-82 0 -124 -42.5t-42 -113.5q0 -44 22.5 -79.5t59 -61t80 -50t87 -54t80 -65t59 -90.5t22.5 -124zM127 1419l61 86l195 -129l188 129l62 -86l-252 -192z" />
    </font>
</defs>
</svg>
